<svg width="251" height="132" viewBox="0 0 251 132" fill="none" xmlns="http://www.w3.org/2000/svg">
<path fill-rule="evenodd" clip-rule="evenodd" d="M175.796 130.025C135.664 138.297 109.627 114.475 56.6218 114.475C38.5089 114.475 -5.27247 124.674 1.50636 61.6451C5.35309 25.8784 46.8133 9.64606 85.5587 30.5514C96.9599 35.0101 105.961 33.6283 115.734 29.1981C125.508 24.7679 138.077 4.99059 161.767 0.92188C233.057 -11.3222 311.985 101.951 175.796 130.025Z" fill="#00A460"/>
<path fill-rule="evenodd" clip-rule="evenodd" d="M174.335 49.1846C177.129 51.0244 179.934 52.9707 183.149 53.8946C186.365 54.8186 190.143 54.536 192.619 52.2864C202.61 43.2084 218.7 41.6906 230.213 48.74C241.725 55.7894 247.688 70.8106 244.144 83.8366C240.601 96.8626 227.85 106.793 214.353 107.039C207.359 107.166 200.893 110.509 194.21 112.575C187.528 114.641 179.491 115.171 174.265 110.522C168.633 105.512 169.276 95.1874 175.486 90.9143C165.727 91.6456 155.967 92.3768 146.208 93.1081C148.354 93.9785 150.64 94.9622 151.871 96.9246C153.101 98.887 152.537 102.098 150.295 102.681C141.946 104.852 133.398 100.895 125.385 97.7006C117.372 94.5064 107.716 92.1605 100.57 96.9933C84.4661 107.885 63.1911 106.077 44.011 102.901C39.4096 102.139 33.8745 100.463 32.9177 95.8978C24.111 97.5557 15.13 98.2865 6.17102 98.0742C3.98415 98.0224 1.40253 97.678 0.380499 95.744C-0.943766 93.238 1.43345 90.3949 3.74858 88.7597C10.8184 83.7663 19.4501 81.019 28.1055 81.0073C30.5709 81.0039 32.2169 78.4275 32.8446 76.0433C33.4722 73.6592 33.6481 71.0061 35.249 69.1311C29.805 68.314 24.0377 69.9759 19.8634 73.5646C19.0886 74.2307 17.7808 73.562 17.4556 72.5934C17.1304 71.6248 17.4654 70.5712 17.8094 69.6092C19.7355 64.2221 22.1505 58.7487 26.528 55.0654C30.9056 51.382 37.7451 50.0534 42.3599 53.4349C43.8075 54.4957 46.2656 55.8573 49.7339 57.5198C53.29 56.9821 55.9342 56.554 57.6664 56.2356C62.9125 55.2712 67.7766 52.8888 72.532 50.4726C89.1025 42.0532 106.093 32.6797 124.672 32.1508C142.446 31.6449 159.485 39.4053 174.335 49.1846ZM193.139 63.7803L194.805 67.9796C194.887 68.1854 194.976 68.4006 195.148 68.5399C195.357 68.7088 195.643 68.7314 195.909 68.7697C197.947 69.0631 199.544 70.6106 200.988 72.0779C202.838 73.9574 204.688 75.8369 206.538 77.7164C207.093 78.2795 208.014 77.6706 208.544 77.085C209.738 75.7687 210.953 74.4184 211.642 72.7808C212.33 71.1433 212.405 69.135 211.378 67.6852C210.768 66.8237 209.839 66.2427 208.886 65.7873C207.314 65.0358 205.609 64.5643 203.874 64.4018C202.183 64.2434 200.479 64.3765 198.78 64.364C196.887 64.35 194.995 64.1542 193.139 63.7803Z" fill="white"/>
<path fill-rule="evenodd" clip-rule="evenodd" d="M32.9178 95.8979C24.1111 97.5558 15.1301 98.2866 6.17113 98.0743C3.59294 94.3171 31.4921 87.3945 32.5037 91.9582C33.3037 95.5668 33.3403 97.9136 32.9178 95.8979Z" fill="#E7EAEE"/>
<path fill-rule="evenodd" clip-rule="evenodd" d="M168.028 83.7257C168.969 83.6251 172.709 82.7084 176.635 83.1333C178.746 82.0499 188.858 82.901 194.895 84.0836C198.769 84.8427 208.589 85.3471 212.155 87.1661C218.346 90.3237 218.488 92.2755 217.556 92.6936C214.91 93.8812 211.723 94.4666 210.01 94.4978C206.925 94.554 200.719 91.7027 193.912 89.9165C190.872 89.1189 188.638 88.4414 186.878 87.7841L187.165 87.6582C183.357 89.3771 179.418 89.6511 175.486 90.9145C165.727 91.6457 155.967 92.3769 146.208 93.1082C148.354 93.9786 116.057 82.2193 125.385 80.5037C125.96 80.3979 126.594 80.3337 127.281 80.3049C136.017 79.9387 153.373 85.2918 168.028 83.7257Z" fill="#E7EAEE"/>
<path fill-rule="evenodd" clip-rule="evenodd" d="M80.8681 69.2091C80.9871 69.4218 80.897 69.7046 80.7183 69.8704C80.5395 70.0361 80.2939 70.1076 80.0544 70.1526C78.29 70.4838 76.3623 69.5213 75.5668 67.912C75.4781 67.7326 75.4008 67.5356 75.4278 67.3373C75.4549 67.139 75.6215 66.9471 75.8213 66.959C76.3349 67.5256 76.8559 68.0987 77.4955 68.5181C78.135 68.9375 78.9168 69.1931 79.6689 69.0549C80.0957 68.9765 80.6561 68.8304 80.8681 69.2091Z" fill="#00160A"/>
<path fill-rule="evenodd" clip-rule="evenodd" d="M82.0246 91.1619C82.0495 90.665 82.672 90.4574 83.1691 90.439C85.3963 90.3564 87.4703 91.4482 89.5273 92.3059C91.5843 93.1636 93.9797 93.7964 95.9885 92.8313C96.408 92.6297 96.8473 92.3545 97.3024 92.4518C96.5477 93.9154 94.744 94.5799 93.0997 94.4897C91.4554 94.3996 89.9146 93.7041 88.3986 93.0612C86.8825 92.4183 85.2876 91.8066 83.6434 91.8984C83.3062 91.9173 82.9609 91.965 82.6359 91.8731C82.3109 91.7813 82.0077 91.4992 82.0246 91.1619Z" fill="#00160A"/>
<path fill-rule="evenodd" clip-rule="evenodd" d="M85.9236 95.3298C84.3872 94.8816 82.5911 95.106 81.3292 94.1216C81.175 94.0014 81.0228 93.8436 81.0168 93.6481C81.0084 93.3741 81.3036 93.1736 81.5777 93.1665C81.8517 93.1595 82.1089 93.2845 82.3662 93.379C83.3057 93.7241 84.3399 93.6778 85.3206 93.8777C86.7918 94.1775 88.0874 95.0163 89.4732 95.5943C90.859 96.1723 92.521 96.4682 93.8114 95.7005C94.332 95.3908 95.0163 94.9284 95.4479 95.3535C94.043 96.9536 91.6646 97.6205 89.6327 96.9839C88.3388 96.5786 87.2252 95.7096 85.9236 95.3298Z" fill="#00160A"/>
<path fill-rule="evenodd" clip-rule="evenodd" d="M41.6487 79.1291C41.4018 78.8133 41.4038 78.3549 41.5614 77.9862C41.7191 77.6176 42.0084 77.3224 42.3074 77.0554C43.7271 75.7873 45.6919 74.9288 47.5348 75.4054C48.9161 75.7626 50.0088 76.7981 50.9759 77.847C51.3899 78.296 51.8172 78.9393 51.5072 79.4656C51.1762 80.0277 50.3451 79.9088 49.7154 79.7381C47.7612 79.2081 45.6899 78.896 43.715 79.343C42.9986 79.5051 42.1012 79.7078 41.6487 79.1291Z" fill="#00160A"/>
<path fill-rule="evenodd" clip-rule="evenodd" d="M73.656 98.1692C73.9284 98.3337 73.8907 98.7733 73.6639 98.9964C73.437 99.2194 73.1026 99.2835 72.789 99.3373C71.0308 99.6388 69.2726 99.9403 67.5144 100.242C67.1474 100.305 66.7371 100.359 66.431 100.147C66.1249 99.9348 66.1161 99.3449 66.4805 99.2679C68.6848 98.8026 70.9065 98.42 73.1394 98.1213C73.3144 98.0978 73.505 98.0779 73.656 98.1692Z" fill="#00160A"/>
<path fill-rule="evenodd" clip-rule="evenodd" d="M69.1695 79.7992C68.7828 79.9427 68.3556 79.5692 68.3034 79.16C68.2512 78.7508 68.4629 78.3548 68.7079 78.023C69.8483 76.4787 71.8806 75.6881 73.7855 75.9256C75.6904 76.1632 77.4207 77.37 78.4214 79.0082C78.5758 79.261 78.7189 79.5514 78.6603 79.8417C78.5969 80.1561 78.303 80.384 77.9919 80.4618C77.6808 80.5396 77.3533 80.495 77.0373 80.4403C75.7219 80.2129 74.4395 79.819 73.1231 79.5975C71.8067 79.3761 70.4211 79.3349 69.1695 79.7992Z" fill="#00160A"/>
<path fill-rule="evenodd" clip-rule="evenodd" d="M44.3097 69.2321C44.4593 68.7938 45.093 68.9022 45.5473 68.9924C46.9632 69.2733 48.3481 68.4839 49.5765 67.7257C49.7404 67.6244 49.9587 67.8168 49.9551 68.0095C49.9515 68.2021 49.8128 68.3627 49.6773 68.4997C48.4526 69.7374 46.6213 70.5841 44.9656 70.0454C44.5956 69.925 44.184 69.6004 44.3097 69.2321Z" fill="#00160A"/>
<path fill-rule="evenodd" clip-rule="evenodd" d="M93.4916 76.733C93.0139 76.642 92.7662 76.0622 92.8556 75.5842C92.945 75.1062 93.2696 74.7118 93.5759 74.3341C94.7327 72.9073 95.787 71.3899 96.6179 69.7517C97.3324 68.3428 97.8799 66.8486 98.6834 65.4884C100.982 61.5966 105.441 59.0805 109.961 59.1246C108.15 57.8281 106.009 57.0612 103.84 56.5537C97.1309 54.9841 89.8822 55.8358 83.72 58.9178C82.746 59.4049 81.796 59.9467 80.7803 60.3395C80.3117 60.5207 79.7935 60.6703 79.3136 60.5218C78.8336 60.3733 78.457 59.8082 78.6802 59.3581C78.8089 59.0987 79.086 58.9536 79.3457 58.8255C81.971 57.53 84.6073 56.2301 87.3901 55.3207C93.6153 53.2862 100.494 53.3067 106.707 55.3782C108.791 56.0733 110.97 57.1533 111.873 59.1569C112.011 59.4643 112.024 59.9556 111.69 60.0059C108.11 60.5454 104.467 61.7845 101.996 64.4306C98.7955 67.8577 98.0204 73.1199 94.5496 76.2731C94.254 76.5416 93.8839 76.8077 93.4916 76.733Z" fill="#00160A"/>
<path fill-rule="evenodd" clip-rule="evenodd" d="M146.208 93.1081C148.354 93.9785 150.64 94.9622 151.871 96.9246C153.101 98.887 152.537 102.098 150.295 102.681C141.946 104.852 133.398 100.895 125.385 97.7006C117.372 94.5064 107.716 92.1605 100.57 96.9933C84.4661 107.885 63.1911 106.077 44.011 102.901C39.4096 102.139 33.8745 100.463 32.9177 95.8978C24.111 97.5557 15.13 98.2865 6.17102 98.0742C3.98415 98.0224 1.40253 97.678 0.380499 95.744C-0.943766 93.238 1.43345 90.3949 3.74858 88.7597C10.8184 83.7663 19.4501 81.019 28.1055 81.0073C30.5709 81.0039 32.2169 78.4275 32.8446 76.0433C33.4722 73.6592 33.6481 71.0061 35.249 69.1311C29.805 68.314 24.0377 69.9759 19.8634 73.5646C19.0886 74.2307 17.7808 73.562 17.4556 72.5934C17.1304 71.6248 17.4654 70.5712 17.8094 69.6092C19.7355 64.2221 22.1505 58.7487 26.528 55.0654C30.9056 51.382 35.7508 49.984 42.3299 52.9799C44.0528 53.7645 46.5136 55.1586 49.7122 57.1622C53.2472 56.8694 55.8986 56.5605 57.6664 56.2356C62.9125 55.2712 67.7766 52.8888 72.532 50.4726C89.1025 42.0532 106.093 32.6797 124.672 32.1508C142.446 31.6449 159.485 39.4053 174.335 49.1846C177.129 51.0244 179.934 52.9707 183.149 53.8946C186.365 54.8186 190.143 54.536 192.619 52.2864C202.61 43.2084 218.7 41.6906 230.213 48.74C241.725 55.7894 247.688 70.8106 244.144 83.8366C240.601 96.8626 227.85 106.793 214.353 107.039C207.359 107.166 200.893 110.509 194.21 112.575C187.528 114.641 179.491 115.171 174.265 110.522C168.633 105.512 169.276 95.1874 175.486 90.9143C165.727 91.6456 155.967 92.3768 146.208 93.1081ZM202.701 75.103C197.776 70.1491 190.428 67.7266 183.522 68.7804C186.866 67.7415 190.448 67.4797 193.908 68.0214C184.102 53.8614 168.278 45.017 152.149 38.9747C144.311 36.0383 136.148 33.6246 127.78 33.4398C116.886 33.1993 106.269 36.7401 96.2065 40.9216C85.1626 45.511 74.4796 50.917 63.8088 56.3173C67.1012 56.149 70.4383 57.5958 72.5661 60.1139C63.6283 56.4283 53.0414 56.9966 44.5495 61.6178C44.5901 59.9294 45.9393 58.3645 47.6033 58.0757C42.744 53.7942 35.2788 52.755 29.4349 55.5465C23.591 58.338 19.7081 64.7981 19.9848 71.2685C24.92 67.187 32.0382 65.9248 38.0759 68.0607C34.4822 74.0573 32.627 81.0823 32.7912 88.0713C34.6797 87.2758 37.0067 87.6499 38.5506 88.9973C36.8256 89.1829 35.1006 89.3684 33.3757 89.5539C33.4486 90.341 33.5215 91.1281 33.5944 91.9153C35.4196 91.6462 37.2449 91.3771 39.0702 91.1081C37.8955 92.4593 36.2391 93.3829 34.4721 93.6718C34.2502 95.9203 35.811 98.042 37.7692 99.1691C39.7275 100.296 42.0272 100.632 44.2645 100.947C49.8408 101.733 55.4172 102.518 60.9935 103.304C59.7002 101.845 59.4884 99.4971 58.6442 97.8735C57.5506 95.7704 55.9717 94.9141 55.18 92.1242C54.9069 91.1616 54.2774 89.8064 55.1583 89.1944C55.5283 88.9373 56.0103 88.9275 56.4608 88.927C58.3016 88.925 60.1424 88.9231 61.9832 88.9211C62.5779 88.9205 63.2001 88.9263 63.7258 89.2044C65.319 90.047 64.8158 92.536 63.626 93.8897C62.4362 95.2434 60.7349 96.3246 60.3285 98.0804C59.911 99.8841 61.1254 101.754 62.7382 102.663C64.3509 103.572 66.2699 103.726 68.1201 103.79C72.0199 103.923 75.9303 103.742 79.8011 103.25C89.5456 102.01 99.9272 98.0392 104.45 89.3193C104.177 91.5173 103.028 93.5942 101.312 94.9944C108.411 92.3792 116.451 92.4085 123.531 95.0753C130.246 97.6044 136.617 102.489 143.738 101.612C143.433 101.364 143.315 100.937 143.01 100.689C142.179 100.016 141.161 99.522 140.331 98.8483C142.87 99.7771 145.409 100.706 147.948 101.635C147.66 101.212 147.948 100.786 147.411 100.14C146.874 99.4943 145.701 98.3419 145.009 97.3291C146.932 97.8886 148.618 99.223 149.603 100.966C150.425 100.765 151.246 100.564 152.068 100.363C147.896 94.7321 142.129 90.2966 135.615 87.7102C132.455 86.4553 128.538 84.9534 128.142 81.5763C135.245 88.4359 145.424 91.362 155.297 91.5709C165.169 91.7799 174.91 89.5368 184.53 87.307C182.327 86.1938 180.342 84.6541 178.715 82.7983C189.519 88.8516 201.608 92.5999 213.941 93.7212C213.242 92.5354 212.542 91.3496 211.843 90.1639C213.373 90.2074 214.802 91.3678 215.159 92.8561C215.927 92.554 216.694 92.2519 217.461 91.9498C216.394 90.9035 215.327 89.8573 214.26 88.811C215.976 88.3972 217.902 89.7212 218.131 91.4721C218.849 91.0985 219.442 90.4885 219.795 89.7598C218.519 88.7937 217.243 87.8277 215.967 86.8617C217.901 86.8223 219.843 87.4696 221.367 88.6619C219.564 84.2788 213.463 84.1743 209.411 81.7163C206.716 80.0815 204.923 77.3385 202.701 75.103ZM193.527 62.5097C195.937 63.094 198.461 62.6415 200.942 62.6489C203.511 62.6565 206.071 63.1663 208.478 64.064C209.965 64.6182 211.45 65.3627 212.417 66.6206C213.948 68.6146 213.815 71.5071 212.746 73.7831C211.678 76.0592 209.829 77.8583 208.018 79.6036C211.818 81.2987 215.618 82.9938 219.418 84.6889C220.491 85.1678 221.652 85.7299 222.143 86.7981C222.992 88.6452 221.344 90.6714 219.651 91.7972C214.371 95.3092 207.19 95.74 201.527 92.8843C197.895 91.0523 193.868 90.1785 189.89 89.3219C187.719 88.8543 185.457 88.3869 183.3 88.916C181.769 89.2915 180.325 90.1621 178.75 90.1085C177.342 90.0607 176.247 91.2763 175.423 92.4181C172.708 96.175 170.47 100.976 172.059 105.33C173.152 108.323 175.921 110.48 178.94 111.503C181.958 112.527 185.219 112.556 188.4 112.353C192.38 112.1 196.435 111.468 199.931 109.547C202.207 108.296 204.244 106.503 206.762 105.865C209.782 105.1 212.965 106.127 216.073 105.9C218.547 105.719 220.89 104.751 223.156 103.739C228.691 101.269 234.227 98.3523 238.153 93.7344C244.008 86.8482 245.4 76.7574 242.602 68.1625C239.805 59.5675 233.195 52.5009 225.283 48.1301C223.108 46.9284 220.817 45.9074 218.406 45.3076C212.617 43.8679 206.28 45.0016 201.221 48.1627C198.616 49.7902 196.353 51.9108 193.8 53.6194C191.248 55.328 188.248 56.644 185.191 56.3455C187.547 58.949 190.114 61.6825 193.527 62.5097ZM11.3074 86.0508C7.76123 87.4333 4.21291 89.2679 1.96542 92.3396C2.99951 91.7698 4.29799 91.7065 5.38256 92.1732C4.59194 92.5639 3.80131 92.9545 3.01069 93.3451C2.56779 93.564 2.10996 93.7946 1.80234 94.1812C1.49473 94.5678 1.38349 95.1579 1.6813 95.5521C1.97911 95.9462 2.7323 95.91 2.87636 95.4375C3.40495 93.7037 5.44616 92.5954 7.18814 93.0964C5.87979 93.8417 4.45115 94.7397 4.08913 96.2013C4.28477 96.8598 5.24893 96.9681 5.81561 96.5798C6.3823 96.1915 6.66509 95.5188 6.99099 94.9141C7.31689 94.3094 7.79021 93.6903 8.46991 93.5908C8.61335 93.5698 8.77731 93.5808 8.87692 93.6862C9.05056 93.8698 8.90722 94.17 8.74384 94.3628C8.37368 94.7996 7.90129 95.1821 7.7193 95.7249C7.53731 96.2678 7.86253 97.0268 8.43403 96.9919C16.4586 96.5018 24.4681 95.7641 32.4472 94.7803C32.7355 94.1559 31.8595 93.6486 31.1779 93.5562C29.4479 93.3216 27.6681 93.4601 25.9952 93.9595C26.3042 92.9313 27.3427 92.258 28.3989 92.0651C29.4551 91.8723 30.539 92.0706 31.5943 92.2686C31.6025 91.5275 31.4642 90.785 31.1896 90.0966C29.5117 90.0614 27.8487 89.501 26.4918 88.5135C27.626 88.0892 28.9435 88.1859 30.0036 88.7712C30.5099 89.0507 30.8871 88.2327 30.8954 87.6545C30.9226 85.7754 30.9497 83.8964 30.9769 82.0173C24.2554 82.2378 17.5732 83.6081 11.3074 86.0508ZM195.909 68.7697C197.947 69.0631 199.544 70.6106 200.988 72.0779C202.838 73.9574 204.688 75.8369 206.538 77.7164C207.093 78.2795 208.014 77.6706 208.544 77.085C209.738 75.7687 210.953 74.4184 211.642 72.7808C212.33 71.1433 212.405 69.135 211.378 67.6852C210.768 66.8237 209.839 66.2427 208.886 65.7873C207.314 65.0358 205.609 64.5643 203.874 64.4018C202.183 64.2434 200.479 64.3765 198.78 64.364C196.887 64.35 194.995 64.1542 193.139 63.7803C193.694 65.18 194.25 66.5798 194.805 67.9796C194.887 68.1854 194.976 68.4006 195.148 68.5399C195.357 68.7088 195.643 68.7314 195.909 68.7697Z" fill="#00160A"/>
</svg>
