<svg width="17" height="17" viewBox="0 0 17 17" fill="none" xmlns="http://www.w3.org/2000/svg">
<path d="M13.3337 16.9582C11.8675 16.9582 10.5457 16.075 9.9846 14.7204C9.42351 13.3658 9.73365 11.8067 10.7704 10.7699C11.8071 9.73317 13.3663 9.42303 14.7209 9.98411C16.0755 10.5452 16.9587 11.867 16.9587 13.3332C16.9587 14.2946 16.5767 15.2166 15.8969 15.8964C15.2171 16.5763 14.2951 16.9582 13.3337 16.9582ZM3.66699 16.9582C1.66496 16.9582 0.0419922 15.3352 0.0419922 13.3332C0.0419922 11.3311 1.66496 9.70817 3.66699 9.70817C5.66902 9.70817 7.29199 11.3311 7.29199 13.3332C7.29199 14.2946 6.91007 15.2166 6.23025 15.8964C5.55044 16.5763 4.6284 16.9582 3.66699 16.9582ZM13.3337 7.2915C11.3316 7.2915 9.70866 5.66854 9.70866 3.6665C9.70866 1.66447 11.3316 0.0415039 13.3337 0.0415039C15.3357 0.0415039 16.9587 1.66447 16.9587 3.6665C16.9587 5.66854 15.3357 7.2915 13.3337 7.2915ZM3.66699 7.2915C1.66496 7.2915 0.0419922 5.66854 0.0419922 3.6665C0.0419922 1.66447 1.66496 0.0415039 3.66699 0.0415039C5.66902 0.0415039 7.29199 1.66447 7.29199 3.6665C7.29199 4.62791 6.91007 5.54995 6.23025 6.22977C5.55044 6.90959 4.6284 7.2915 3.66699 7.2915Z" fill="#475DEB"/>
</svg>
