<svg width="196" height="196" viewBox="0 0 196 196" fill="none" xmlns="http://www.w3.org/2000/svg">
<path d="M97.4344 27.5016C116 27.4838 133.811 34.8417 146.951 47.9566C160.092 61.0716 167.484 78.8693 167.501 97.4345C167.519 116 160.161 133.811 147.046 146.952C133.931 160.092 116.134 167.484 97.5685 167.501L97.5332 130.625C106.318 130.616 114.74 127.118 120.945 120.901C127.151 114.683 130.633 106.255 130.624 97.4698C130.616 88.685 127.118 80.2634 120.901 74.0576C114.683 67.8517 106.254 64.3701 97.4697 64.3785L97.4344 27.5016Z" fill="#00A460"/>
<path d="M24.6982 95.3L24.9982 99.25C25.7982 97.75 26.8816 96.5833 28.2482 95.75C29.6482 94.8833 31.2482 94.45 33.0482 94.45C34.7482 94.45 36.1649 94.85 37.2982 95.65C38.4649 96.45 39.1816 97.5333 39.4482 98.9C40.2816 97.5 41.3649 96.4167 42.6982 95.65C44.0649 94.85 45.5149 94.45 47.0482 94.45C49.0482 94.45 50.6316 95.0333 51.7982 96.2C52.9982 97.3667 53.6316 98.85 53.6982 100.65V116H49.0482V102.4C48.9816 101.333 48.6982 100.45 48.1982 99.75C47.7316 99.0167 46.9149 98.6167 45.7482 98.55C44.5149 98.55 43.4316 98.9167 42.4982 99.65C41.5649 100.35 40.8316 101.283 40.2982 102.45C39.7649 103.617 39.4816 104.85 39.4482 106.15V116H34.7482V102.4C34.7149 101.333 34.4316 100.45 33.8982 99.75C33.3982 99.0167 32.5482 98.6167 31.3482 98.55C30.1482 98.55 29.0816 98.9167 28.1482 99.65C27.2149 100.35 26.4816 101.283 25.9482 102.45C25.4149 103.617 25.1482 104.867 25.1482 106.2V116H20.4982V95.3H24.6982ZM63.4104 125.95L68.1604 115.35L58.5604 95.3H63.8104L70.4604 110.05L77.0604 95.3H81.3604L68.0104 125.95H63.4104ZM87.5174 79.85H92.3674V116H87.5174V79.85Z" fill="#001358"/>
</svg>
