<svg width="310" height="310" viewBox="0 0 310 310" fill="none" xmlns="http://www.w3.org/2000/svg">
<rect width="310" height="310" fill="white"/>
<path fill-rule="evenodd" clip-rule="evenodd" d="M124.278 235.879C167.577 248.056 188.645 201.329 225.744 204.884C246.052 206.83 286.531 216.693 286.44 144.845C286.214 98.4606 243.46 86.8452 199.372 110.633C186.399 115.707 176.156 114.134 165.035 109.093C153.915 104.052 139.612 81.5478 112.656 76.918C31.5352 62.9856 -37.8738 190.28 124.278 235.879Z" fill="#00A460"/>
<path fill-rule="evenodd" clip-rule="evenodd" d="M227.171 119.183C227.984 118.788 229.441 119.554 228.596 120.787C226.724 123.516 233.964 128.968 231.64 124.164C231.391 123.65 230.117 120.098 231.92 121.932C233.723 123.766 236.237 131.871 234.611 134.663C233.184 137.114 229.408 138.28 224.253 138.418L224.021 138.423L223.911 138.43C220.873 138.571 218.568 136.69 217.081 133.028L217.01 132.849C215.504 129.015 215.917 125.942 218.352 123.87C218.396 123.833 218.443 123.799 218.493 123.769L218.57 123.728L227.171 119.183Z" fill="white"/>
<path fill-rule="evenodd" clip-rule="evenodd" d="M63.0025 47.436C62.648 46.933 62.0736 46.6434 61.4602 46.7185C60.832 46.7947 60.3067 47.2315 60.1156 47.8342L60.0646 47.9953C60.026 48.1143 59.9799 48.2506 59.9259 48.4038C59.7718 48.8412 59.5849 49.3268 59.3642 49.849C58.7366 51.3335 57.9642 52.8152 57.0421 54.1936C55.0527 57.1677 52.6557 59.238 49.8458 60.0353C49.4066 60.16 49.1516 60.6171 49.2762 61.0563C49.3395 61.2792 53.4433 63.3302 57.6326 62.8131C61.6962 62.3116 65.8495 59.2481 65.883 59.0396L65.9342 58.6055L65.9487 58.4601C66.2397 55.3038 65.6873 51.7384 63.5619 48.2846C63.3853 47.9977 63.1989 47.7148 63.0025 47.436Z" fill="#E7EAEE"/>
<path fill-rule="evenodd" clip-rule="evenodd" d="M71.4585 48.3542L71.4369 48.5212C71.1426 50.6579 70.3177 53.6337 68.8258 55.8784C66.9891 58.6419 64.397 60.7554 61.7923 62.1175C58.0346 64.0822 53.9443 64.4419 49.9169 61.8894L49.7393 61.7751C47.6229 60.3908 46.0168 59.7243 43.8132 60.2743C41.6095 60.8243 40.5392 62.4293 39.5879 63.9184L39.5443 63.9813C39.3919 64.1851 39.1688 64.3262 38.9174 64.3758L34.7393 65.0376L36.2608 66.9278C36.7187 67.5007 37.0443 67.9138 37.2373 68.1669L38.9097 70.3701C43.8939 76.907 49.2577 83.1485 59.7174 80.9878L60.072 80.9118C62.8432 80.2958 65.1665 81.9502 68.0813 84.3886L68.704 84.913C69.4751 85.5655 71.806 87.6205 72.7601 88.6097L73.0719 88.9369L73.3596 89.2463C73.4195 89.3116 73.4766 89.3744 73.5308 89.4345L73.8282 89.7698L74.0108 89.5541C75.9839 87.1788 77.2196 83.5611 77.8593 80.5768C78.101 79.4492 78.2397 78.3695 78.2974 77.3733L78.3046 77.2436C78.3196 76.9524 78.3263 76.6981 78.3273 76.4858V76.3282L78.0293 76.4156C74.5795 77.3939 70.6981 77.4912 66.9107 77.0542C65.9958 76.9487 76.0321 68.82 73.972 58.2928C73.5025 55.8935 73.2045 52.6856 72.3845 50.5083C72.1259 49.8216 71.8578 49.1936 71.5922 48.632L71.4585 48.3542Z" fill="white"/>
<path fill-rule="evenodd" clip-rule="evenodd" d="M227.608 120.483L219.022 124.657C216.963 126.409 216.613 129.013 217.972 132.471C218.448 133.685 219.64 136.575 219.64 135.44C219.64 135.085 227.608 129.877 229.137 130.386C230.55 130.858 228.011 126.61 227.299 124.657L227.608 120.376L227.844 119.95" fill="#E7EAEE"/>
<path fill-rule="evenodd" clip-rule="evenodd" d="M216.152 123.616C216.723 123.616 213.489 125.136 213.655 127.941C213.822 130.746 216.014 135.916 215.481 136.119C214.948 136.323 213.937 134.816 213.733 134.283C212.466 130.966 212.226 129.612 212.271 127.678C212.331 125.145 213.662 123.616 216.152 123.616Z" fill="#E7EAEE"/>
<ellipse cx="230.542" cy="126.394" rx="2.23205" ry="5.04234" fill="#E7EAEE"/>
<path fill-rule="evenodd" clip-rule="evenodd" d="M74.6343 179.558C74.6343 170.809 75.6063 167.005 86.0448 162.231C107.439 153.583 107.439 153.25 148.425 137.403C159.264 133.235 182.116 143.221 192.053 139.036C198.677 136.246 204.872 134.174 210.345 131.407C210.875 134.867 214.301 140.727 215.508 141.734C209.099 143.079 202.899 145.159 196.909 147.974C183.96 154.059 191.633 152.401 171.122 171.744C169.384 173.383 162.997 177.12 153.761 181.013C153.761 181.013 135.161 178.515 127.701 175.412C120.109 172.255 108.605 162.231 108.605 162.231C108.605 162.231 95.1881 170.984 87.4748 174.918C83.8645 176.76 74.6343 179.558 74.6343 179.558Z" fill="white"/>
<path fill-rule="evenodd" clip-rule="evenodd" d="M74.6345 175.012C74.6345 172.958 74.4176 171.525 74.6345 169.939C75.3418 164.771 78.1138 162.127 86.1022 158.473C107.496 149.825 107.439 148.703 148.425 132.857C159.265 128.688 182.116 138.675 192.053 134.489C198.677 131.699 204.872 129.627 210.345 126.86C210.361 126.959 209.791 131.689 209.791 131.689C209.791 131.689 196.28 138.823 187.343 140.336C177.847 141.944 164.803 134.489 151.779 138.156C131.946 143.739 86.2406 161.287 80.8338 165.685C76.5853 169.14 74.6345 175.012 74.6345 175.012Z" fill="#E7EAEE"/>
<path fill-rule="evenodd" clip-rule="evenodd" d="M63.0025 47.436C62.648 46.933 62.0736 46.6434 61.4602 46.7185C60.832 46.7947 60.3067 47.2315 60.1156 47.8342L60.0646 47.9953C60.026 48.1143 59.9799 48.2506 59.9259 48.4038C59.7718 48.8412 59.5849 49.3268 59.3642 49.849C58.7366 51.3335 57.9642 52.8152 57.0421 54.1936C55.0527 57.1677 52.6557 59.238 49.8458 60.0353C49.4066 60.16 49.1516 60.6171 49.2762 61.0563C49.4009 61.4955 56.228 58.3844 58.4164 55.1129C59.4015 53.6402 60.2213 52.0676 60.887 50.4927C61.0879 50.0176 61.2627 49.57 61.4125 49.1569L61.4853 48.9533C61.5439 48.7869 61.5943 48.6377 61.6371 48.506C61.6479 48.412 61.6579 48.3806 61.6672 48.4117C66.403 51.6515 64.5413 59.6922 64.9962 59.7313C65.4304 59.7685 65.815 59.4631 65.883 59.0396L65.9342 58.6055L65.9487 58.4601C66.2397 55.3038 65.6873 51.7384 63.5619 48.2846C63.3853 47.9977 63.1989 47.7148 63.0025 47.436Z" fill="#E7EAEE"/>
<path fill-rule="evenodd" clip-rule="evenodd" d="M72.8636 47.4118L72.968 47.598L73.0953 47.8371C73.1719 47.9843 73.2581 48.155 73.3518 48.3478C73.6766 49.0162 74.0047 49.7725 74.3189 50.6066C75.2031 52.9544 75.8213 55.4882 76.0324 58.1281C76.3188 61.7104 75.8017 65.0913 74.4921 68.1669L74.3799 68.4251C73.3159 70.8277 71.7658 73.0291 69.7537 75.0042L69.5542 75.1973L69.7238 75.2055C72.6214 75.3273 75.487 75.0679 78.0061 74.2646C78.5463 74.0925 79.1352 74.1814 79.6007 74.505C80.0651 74.8281 80.3537 75.348 80.3828 75.913L80.3894 76.0884L80.3934 76.3202V76.4094C80.3934 76.7328 80.3839 77.0954 80.3609 77.4928C80.2974 78.5902 80.1453 79.7741 79.8804 81.0099C79.132 84.5012 77.6356 87.7713 75.1899 90.5265C74.8653 90.8923 74.4086 91.1114 73.9232 91.1374L73.811 91.14C73.2926 91.1302 72.8193 90.916 72.4828 90.55L72.2364 90.2638L72.1156 90.1266L71.8588 89.8414L71.5777 89.5379C71.48 89.4338 71.3783 89.327 71.2729 89.2177C70.3749 88.2866 69.3839 87.3635 68.3313 86.5141C65.4137 84.1598 62.5995 82.8306 60.196 82.9747C56.2645 83.2109 53.0087 83.0272 49.9882 82.1798C46.0833 81.0842 43.017 78.9344 40.9879 75.5123L40.8741 75.3172C39.8236 73.4851 38.272 71.3747 36.4418 69.178C35.8762 68.4991 35.3183 67.8536 34.7866 67.2566L34.5603 67.0038C34.1981 66.6008 33.9013 66.2797 33.7769 66.1489C33.3176 65.6649 33.1579 64.9705 33.3586 64.3355L33.3881 64.2497C33.6085 63.6563 34.1212 63.2166 34.746 63.0933L38.0966 62.4311L38.1357 62.3747C39.3345 60.6705 41.0463 59.2271 43.3202 58.6457C45.6919 58.0392 48.1877 58.5665 50.7011 60.1613L50.8765 60.2743C54.2711 62.4945 57.6359 62.372 60.835 60.6994C63.12 59.5045 65.2979 57.4757 66.9482 54.9925C68.4827 52.6839 69.3947 50.2158 69.4597 48.2679C69.4869 47.4538 70.0484 46.7548 70.8381 46.5555C71.6285 46.3557 72.455 46.7057 72.8636 47.4118ZM71.4589 48.3542L71.4373 48.5212C71.1429 50.6579 70.318 53.6337 68.8262 55.8784C66.9895 58.6419 64.3974 60.7554 61.7926 62.1175C58.0349 64.0822 53.9446 64.4419 49.9173 61.8894L49.7396 61.775C47.6232 60.3908 46.0172 59.7243 43.8135 60.2743C41.6099 60.8243 40.5396 62.4293 39.5883 63.9184L39.5447 63.9813C39.3922 64.1851 39.1692 64.3261 38.9177 64.3758L34.7396 65.0376L36.2611 66.9278C36.7191 67.5007 37.0446 67.9138 37.2377 68.1669L38.91 70.3701C43.8942 76.907 49.258 83.1484 59.7178 80.9878L60.0723 80.9117C62.8435 80.2958 65.1669 81.9502 68.0816 84.3886L68.7044 84.913C69.4754 85.5655 71.8064 87.6205 72.7605 88.6096L73.0723 88.9369L73.3599 89.2463C73.4198 89.3116 73.477 89.3744 73.5312 89.4344L73.8285 89.7698L74.0111 89.5541C75.9842 87.1788 77.2199 83.5611 77.8597 80.5767C78.1014 79.4491 78.2401 78.3694 78.2978 77.3733L78.3049 77.2435C78.3199 76.9524 78.3266 76.6981 78.3277 76.4858V76.3282L78.0297 76.4155C74.5798 77.3939 70.6984 77.4911 66.9111 77.0542C65.9962 76.9487 76.0325 68.82 73.9724 58.2928C73.5028 55.8935 73.2049 52.6856 72.3849 50.5083C72.1263 49.8216 71.8582 49.1936 71.5926 48.632L71.4589 48.3542Z" fill="#E7EAEE"/>
<path fill-rule="evenodd" clip-rule="evenodd" d="M45.2599 66.96C46.0576 66.96 46.7065 66.311 46.7065 65.5133C46.7065 64.7156 46.0576 64.0667 45.2599 64.0667C44.4622 64.0667 43.8132 64.7156 43.8132 65.5133C43.8132 66.3109 44.4622 66.96 45.2599 66.96Z" fill="#00160A"/>
<ellipse cx="46.4999" cy="70.8867" rx="2.27333" ry="1.86" fill="#FFB61D"/>
<ellipse cx="46.4999" cy="70.8867" rx="2.27333" ry="1.86" fill="#FFB61D"/>
<path fill-rule="evenodd" clip-rule="evenodd" d="M72.8638 47.4118L72.9682 47.598L73.0955 47.8371C73.1721 47.9843 73.2583 48.155 73.352 48.3478C73.6768 49.0162 74.0049 49.7725 74.3191 50.6066C75.2033 52.9544 75.8215 55.4882 76.0326 58.1281C76.319 61.7104 75.8018 65.0913 74.4922 68.1669L74.3801 68.4251C73.3161 70.8277 71.766 73.0291 69.7538 75.0042L69.5544 75.1973L69.724 75.2055C72.6216 75.3273 75.4872 75.0679 78.0062 74.2646C78.5464 74.0925 79.1354 74.1814 79.6009 74.505C80.0653 74.8281 80.3538 75.348 80.3829 75.913L80.3895 76.0884L80.3936 76.3202V76.4094C80.3936 76.7328 80.3841 77.0954 80.3611 77.4928C80.2976 78.5902 80.1455 79.7741 79.8805 81.0099C79.1321 84.5012 77.6358 87.7713 75.19 90.5265C74.8655 90.8923 74.4088 91.1114 73.9234 91.1374L73.8112 91.14C73.2928 91.1302 72.8194 90.916 72.483 90.55L72.2366 90.2638L72.1158 90.1266L71.859 89.8414L71.5778 89.5379C71.4801 89.4338 71.3785 89.327 71.2731 89.2177C70.3751 88.2866 69.3841 87.3635 68.3315 86.5141C65.4138 84.1598 62.5996 82.8306 60.1962 82.9747C56.2647 83.2109 53.0089 83.0272 49.9884 82.1798C46.0835 81.0842 43.0172 78.9344 40.9881 75.5123L40.8743 75.3172C39.8238 73.4851 38.2722 71.3747 36.442 69.178C35.8764 68.4991 35.3185 67.8536 34.7868 67.2566L34.5605 67.0038C34.1983 66.6008 33.9015 66.2797 33.7771 66.1489C33.3178 65.6649 33.1581 64.9705 33.3588 64.3355L33.3883 64.2497C33.6087 63.6563 34.1214 63.2166 34.7462 63.0933L38.0968 62.4311L38.1358 62.3747C39.3347 60.6705 41.0465 59.2271 43.3203 58.6457C45.5586 58.0733 47.9073 58.5107 50.277 59.9021C52.9019 59.0224 55.1556 57.0146 57.0426 54.1936C57.9646 52.8152 58.7371 51.3335 59.3646 49.849C59.5854 49.3268 59.7722 48.8412 59.9264 48.4038C59.9804 48.2506 60.0264 48.1143 60.065 47.9953L60.1161 47.8342C60.3072 47.2315 60.8325 46.7947 61.4607 46.7185C62.0741 46.6434 62.6485 46.933 63.0029 47.436C63.1994 47.7148 63.3857 47.9977 63.5623 48.2846C65.2121 50.9655 65.9141 53.7137 66.0096 56.2855C66.338 55.8707 66.6517 55.439 66.9484 54.9925C68.4828 52.6839 69.3949 50.2158 69.4599 48.2679C69.4871 47.4538 70.0486 46.7548 70.8383 46.5555C71.6287 46.3557 72.4552 46.7057 72.8638 47.4118ZM60.8351 60.6994C57.7278 62.3241 54.464 62.4862 51.1684 60.4594C53.3874 59.4335 56.9476 57.3093 58.4168 55.1129C59.4019 53.6402 60.2217 52.0676 60.8875 50.4927C61.0883 50.0176 61.2632 49.57 61.4129 49.1569L61.4857 48.9533C61.5443 48.7869 61.5948 48.6377 61.6375 48.506C61.6483 48.412 61.6584 48.3806 61.6677 48.4117C64.8156 50.5652 65.0485 54.84 64.9844 57.4759C63.719 58.8261 62.299 59.9339 60.8351 60.6994ZM61.7928 62.1175C63.0538 61.4581 64.3118 60.6226 65.4825 59.6226C65.5727 59.5701 65.6523 59.501 65.717 59.419C66.874 58.3984 67.9385 57.2143 68.8264 55.8784C70.3182 53.6337 71.1431 50.6579 71.4375 48.5212L71.4591 48.3542L71.5928 48.632C71.8584 49.1936 72.1264 49.8216 72.3851 50.5083C72.9557 52.0235 73.2736 54.0379 73.5723 55.9314L73.5723 55.9315C73.7029 56.7589 73.8298 57.5632 73.9726 58.2928C75.5515 66.3614 70.0244 73.021 67.7686 75.7391C67.0812 76.5673 66.6976 77.0296 66.9113 77.0542C70.6986 77.4911 74.58 77.3939 78.0299 76.4155L78.3279 76.3282V76.4858C78.3268 76.6981 78.3201 76.9524 78.3051 77.2435L78.298 77.3733C78.2403 78.3694 78.1016 79.4491 77.8599 80.5767C77.2201 83.5611 75.9844 87.1788 74.0113 89.5541L73.8287 89.7698L73.5313 89.4344C73.4772 89.3744 73.42 89.3116 73.3601 89.2463L73.0725 88.9369L72.7607 88.6096C71.8066 87.6205 69.4756 85.5655 68.7045 84.913L68.0818 84.3886C65.1671 81.9502 62.8437 80.2958 60.0725 80.9117L59.718 80.9878C49.2582 83.1484 43.8944 76.907 38.9102 70.3701L37.2379 68.1669C37.0448 67.9138 36.7193 67.5007 36.2613 66.9278L34.7398 65.0376L38.9179 64.3758C39.1693 64.3261 39.3924 64.1851 39.5449 63.9813L39.5885 63.9184C40.5397 62.4293 41.61 60.8243 43.8137 60.2743C46.0174 59.7243 47.6234 60.3908 49.7398 61.775L49.9174 61.8894C53.9448 64.4419 58.0351 64.0822 61.7928 62.1175ZM227.172 119.183C227.984 118.788 229.442 119.554 228.596 120.786C227.316 122.653 228.738 126.986 229.604 129.625L229.604 129.625C230.005 130.847 230.287 131.705 230.127 131.789C229.621 132.053 228.997 131.857 228.732 131.351C227.301 128.612 226.479 126.438 226.274 124.784C226.172 123.962 226.15 123.166 226.207 122.398L226.215 122.31L219.597 125.526L219.514 125.603C218.02 127.005 217.363 128.631 218.456 131.513L218.52 131.68C219.707 134.702 221.716 136.869 223.806 136.779L223.969 136.77C228.614 136.677 231.39 135.28 232.381 133.578C233.626 131.438 233.965 128.968 231.64 124.164C231.392 123.65 230.117 120.098 231.921 121.932C233.724 123.766 236.238 131.871 234.612 134.663C233.254 136.994 229.771 138.163 224.998 138.39C225.025 138.512 225.032 138.64 225.012 138.771C224.56 141.84 223.16 143.77 220.817 144.328C219.026 144.756 217.101 144.19 215.338 142.827C209.144 144.157 203.148 146.184 197.349 148.909L196.49 149.316C193.532 150.729 191.835 151.677 190.596 152.597C189.869 153.138 189.269 153.691 188.624 154.403L188.52 154.521C188.208 154.883 187.53 155.711 186.757 156.655L186.752 156.661L186.751 156.662L186.748 156.666L186.747 156.667C185.713 157.93 184.513 159.396 183.797 160.225L183.451 160.623C180.541 163.958 176.873 167.741 171.832 172.495L171.69 172.625C169.8 174.314 164.777 177.17 158.514 180.049C175.8 179.435 188.265 172.837 196.027 160.244C196.368 159.69 197.131 159.586 197.609 160.029C210.957 172.391 226.422 178.111 244.066 177.218C261.756 176.322 274.738 171.724 283.051 163.47C283.456 163.067 284.111 163.07 284.513 163.475C284.915 163.88 284.912 164.534 284.508 164.936C275.787 173.596 257.271 180.094 239.114 181.013C221.456 181.907 210.92 174.631 197.448 162.673L197.119 162.379L197.001 162.56C188.469 175.49 169.932 184.921 151.433 185.054L150.854 185.056C131.932 185.056 121.02 175.895 108.254 163.372L108.155 163.274L108.109 163.313C107.735 163.628 107.363 163.941 106.994 164.251C95.0328 174.317 86.1076 181.828 72.682 183.747L72.2537 183.807C57.1159 186.87 34.1577 178.712 30.6297 174.713C27.3971 171.049 31.1676 173.326 32.2027 173.951L32.2034 173.952C32.2976 174.009 32.3691 174.052 32.4105 174.076C42.4297 179.812 53.9815 181.996 67.8411 180.106C69.7539 179.845 71.6545 179.5 73.543 179.07L73.5212 178.866C72.9161 173.119 72.9125 170.607 73.7845 167.723C74.9706 163.801 77.8501 160.821 83.03 158.452L84.4563 157.821C90.8547 155.001 95.9363 152.884 101.207 150.827L101.593 150.677C102.184 150.447 102.783 150.216 103.394 149.981L103.993 149.753C104.21 149.676 107.034 148.557 111.326 146.855L111.328 146.854C121.229 142.929 138.941 135.907 150.496 131.44C152.996 130.478 156.023 130.159 159.735 130.35L160.055 130.368C162.836 130.532 165.572 130.909 170.056 131.685L173.996 132.375C178.396 133.137 180.528 133.437 183.017 133.614C183.8 133.67 184.543 133.739 185.25 133.805C187.867 134.048 189.974 134.244 191.652 133.537C193.145 132.908 194.608 132.301 196.042 131.706L196.043 131.706C200.733 129.761 205.107 127.946 209.167 125.928C209.445 124.123 210.157 122.79 211.272 121.912C212.991 120.558 215.425 120.535 217.536 121.356C218.068 121.563 218.332 122.162 218.125 122.693C218.058 122.866 217.628 122.786 217.02 122.674C215.748 122.439 213.695 122.061 212.55 123.535C211.276 125.176 210.853 127.688 211.981 132.636C212.799 136.222 218.099 142.318 220.338 142.318C222.834 142.318 223.418 139.895 223.749 138.521L223.77 138.435C220.801 138.512 218.545 136.633 217.081 133.028L217.01 132.849C215.504 129.015 215.917 125.942 218.352 123.87C218.396 123.833 218.444 123.799 218.493 123.769L218.57 123.728L227.172 119.183ZM213.432 140.959C213.327 140.832 213.224 140.702 213.121 140.569C213.082 140.528 213.045 140.486 213.013 140.448C212.968 140.393 212.923 140.338 212.877 140.282L212.724 140.099C211.923 139.137 210.995 138.022 210.269 136.415L210.164 136.181C208.998 133.57 208.859 130.637 208.93 128.218L208.941 127.938L208.88 127.969C204.064 130.352 198.825 132.743 193.164 135.142L192.454 135.442C190.03 136.463 187.003 137.184 183.167 136.936L182.87 136.916C180.25 136.729 178.045 136.416 173.423 135.613L169.972 135.008C160.243 133.324 155.375 133.061 151.363 134.561C151.363 134.561 91.5405 157.065 83.8787 160.336C79.219 162.468 77.6381 164.473 75.711 167.723C74.7143 169.404 74.8151 174.041 74.8851 177.262C74.8968 177.802 74.9077 178.303 74.9124 178.743C86.2239 175.914 97.0972 170.032 107.539 161.087C107.951 160.734 108.565 160.759 108.946 161.145C109.791 161.999 110.65 162.824 111.523 163.62L154.602 145.622C154.72 145.573 154.842 145.547 154.963 145.543C155.288 145.389 155.637 145.263 156.013 145.163C159.769 144.164 162.769 145.789 164.842 149.788L168.597 147.049C169.151 146.645 169.937 146.883 170.175 147.526C173.601 156.786 172.603 163.132 166.961 166.194C161.27 169.281 156.322 166.735 152.464 159.018C152.268 158.626 152.345 158.174 152.616 157.869C151.696 154.133 151.526 151.156 152.151 149L114.408 166.105C120.052 170.687 126.249 174.142 133.004 176.473C133.159 176.325 133.326 176.198 133.491 176.108C139.181 172.991 153.199 169.351 156.662 168.451C156.962 168.374 157.182 168.316 157.312 168.282C158.936 167.846 157.272 169.364 156.781 169.591L156.719 169.617L136.258 177.497C142.345 179.23 148.862 180.096 155.814 180.096C156.209 180.096 156.602 180.094 156.992 180.088L157.45 179.79C161.825 176.946 169.143 172.19 170.414 170.992L171.006 170.431C175.219 166.343 178.354 162.422 181.091 158.999C184.094 155.243 186.617 152.087 189.557 149.97C191.843 148.325 192.671 147.948 194.618 147.065C195.139 146.828 195.74 146.555 196.47 146.212C201.634 143.785 207.499 142.38 213.004 141.061L213.432 140.959ZM156.544 147.16C159.52 146.369 161.75 147.767 163.449 151.67L159.057 155.152L159.054 155.153L154.518 156.942L154.404 156.444C153.162 150.813 153.971 147.844 156.544 147.16ZM163.449 151.67L159.062 155.149C159.423 155.007 159.822 155.081 160.105 155.318C160.204 155.401 160.289 155.504 160.352 155.623C161.387 157.486 162.188 157.929 163 157.474C163.861 156.991 164.131 155.177 163.502 151.936L163.449 151.67ZM106.532 194.099C107.012 193.79 110.325 192.174 107.375 195.212C104.425 198.25 81.4502 211.137 69.0485 211.851C57.0953 212.539 46.4825 207.547 37.249 201.013L36.943 200.795L36.8819 200.874C36.4732 201.392 36.0532 201.862 35.6216 202.284L35.4359 202.462C34.6538 203.197 33.3002 204.028 31.3444 204.994C30.8328 205.246 29.0248 205.479 29.9603 204.525C30.8959 203.571 32.9435 202.197 34.1361 201.409C34.9154 200.895 35.1615 200.293 35.4057 199.696C35.5352 199.379 35.6641 199.064 35.8717 198.763C36.205 198.281 36.8723 198.172 37.3414 198.524C46.444 205.346 57.0775 208.983 69.0485 208.294C81.0689 207.602 93.4833 202.495 106.532 194.099ZM177.232 200.687C177.652 200.3 177.652 197.539 177.232 197.926C172.589 202.21 162.869 205.979 150.874 206.669C138.865 207.36 129.422 205.472 122.529 201.039C122.049 200.731 119.673 199.914 121.101 201.35C122.529 202.785 138.581 210.273 150.993 209.559L151.365 209.537C163.595 208.79 172.218 205.314 177.232 200.687ZM168.754 149.723L168.692 149.537L165.581 151.807L165.638 152.128C166.264 155.787 165.837 158.179 164.102 159.224L164.011 159.276C162.202 160.291 160.5 159.574 159.077 157.49L159.014 157.397L154.831 159.087L154.927 159.263C158.125 165.033 161.669 166.638 165.84 164.449L165.975 164.377C170.164 162.104 171.196 157.465 168.899 150.173L168.754 149.723ZM46.707 65.5133C46.707 66.311 46.058 66.96 45.2603 66.96C44.4626 66.96 43.8136 66.3109 43.8136 65.5133C43.8136 64.7156 44.4626 64.0667 45.2603 64.0667C46.058 64.0667 46.707 64.7156 46.707 65.5133Z" fill="#00160A"/>
</svg>
