<svg width="275" height="66" xmlns="http://www.w3.org/2000/svg" xmlns:xlink="http://www.w3.org/1999/xlink" overflow="hidden"><defs><clipPath id="clip0"><rect x="346" y="428" width="275" height="66"/></clipPath><clipPath id="clip1"><rect x="347" y="428" width="274" height="66"/></clipPath><clipPath id="clip2"><rect x="347" y="428" width="274" height="66"/></clipPath><clipPath id="clip3"><rect x="347" y="328" width="274" height="275"/></clipPath></defs><g clip-path="url(#clip0)" transform="translate(-346 -428)"><g clip-path="url(#clip1)"><g clip-path="url(#clip2)"><g clip-path="url(#clip3)"><path d="M164.94 142.646 146.376 118.593 141.766 118.593 141.766 150.902 146.544 150.902 146.544 126.178 165.988 150.902 170.095 150.902 170.095 118.593 165.192 118.593 165.192 142.688 164.94 142.688ZM118.006 136.57 134.768 136.57 134.768 132.338 118.006 132.338 118.006 122.574 136.905 122.574 136.905 118.383 113.229 118.383 113.229 150.776 137.031 150.776 137.031 146.544 118.006 146.544 118.006 136.57ZM98.4361 132.547C91.9407 130.913 90.1388 129.698 90.1388 126.722 90.1388 123.747 92.6112 122.113 96.1313 122.113 99.3161 122.28 102.375 123.37 104.931 125.298L107.404 121.777C104.219 119.221 100.196 117.838 96.0894 117.88 90.8093 117.168 85.9901 120.856 85.2777 126.136 85.2777 126.219 85.2358 126.303 85.2358 126.387L85.2358 127.099C85.2358 132.421 89.0912 134.894 96.0056 136.654 101.998 138.079 103.758 139.294 103.758 142.311 103.758 145.328 101.286 147.088 97.3884 147.088 93.5331 147.088 89.8036 145.622 86.9959 142.982L84.1882 146.334C87.834 149.561 92.5693 151.237 97.4304 151.111 104.303 151.111 108.745 147.214 108.745 141.557 108.577 136.78 105.56 134.14 98.3104 132.547L98.4361 132.547ZM255.121 118.593 245.357 133.804 235.593 118.593 230.103 118.593 242.801 138.037 242.801 150.818 247.578 150.818 247.578 138.037 260.317 118.593 255.121 118.593ZM173.363 122.825 183.965 122.825 183.965 150.818 188.742 150.818 188.742 122.825 199.428 122.825 199.428 118.425 173.363 118.425 173.363 122.825ZM221.764 138.204C226.416 137.324 229.726 133.176 229.517 128.44 229.517 122.28 224.907 118.383 217.657 118.383L203.2 118.383 203.2 150.818 207.977 150.818 207.977 139.084 216.107 139.084 224.236 150.734 229.894 150.734 221.052 138.372 221.764 138.204ZM208.061 135.02 208.061 122.825 217.071 122.825C221.848 122.825 224.488 124.962 224.488 128.818 224.488 132.673 221.68 135.02 217.071 135.02L208.061 135.02Z" fill="#362D59" fill-rule="nonzero" fill-opacity="1" transform="matrix(1.00284 0 0 1 347 328.825)"/><path d="M45.3418 109.751C43.7494 106.985 40.2293 106.021 37.4635 107.613 37.4635 107.613 37.4216 107.655 37.4216 107.655 36.5416 108.2 35.8292 108.912 35.2845 109.792L27.1548 123.915 29.292 125.172C41.0674 131.919 48.5685 144.197 49.239 157.732L43.4141 157.732C42.6179 146.292 36.2064 136.025 26.2748 130.284L24.1376 129.027 16.3432 142.06 18.4803 143.317C23.5928 146.334 27.071 151.53 27.8253 157.439L14.8346 157.439C14.3317 157.481 13.8707 157.104 13.7869 156.601 13.745 156.391 13.8288 156.224 13.9545 156.056L17.6422 149.687C16.3851 148.597 14.9603 147.759 13.4098 147.214L9.68018 153.584C8.04586 156.35 9.00969 159.911 11.7755 161.546 11.7755 161.546 11.7755 161.546 11.8174 161.546 12.6974 162.049 13.6612 162.3 14.6669 162.258L32.8539 162.258 32.8539 159.786C32.812 152.117 29.1243 144.909 22.9642 140.342L25.7719 135.439C33.8178 140.97 38.6369 150.106 38.6788 159.87L38.6788 162.216 54.2257 162.216 54.2257 159.744C54.1419 144.532 46.4313 130.326 33.734 121.945L39.5588 111.888C39.8941 111.427 40.4807 111.259 40.9836 111.511 41.1512 111.511 41.1512 111.678 41.3608 111.888L66.7974 155.847C67.0069 156.308 66.8393 156.81 66.4203 157.104 66.2526 157.104 66.0431 157.271 65.9174 157.271L59.7154 157.271 59.7154 162.049 65.7079 162.049C68.8927 162.007 71.4908 159.409 71.5327 156.224 71.5746 155.218 71.3232 154.254 70.8203 153.416L45.3418 109.751Z" fill="#362D59" fill-rule="nonzero" fill-opacity="1" transform="matrix(1.00284 0 0 1 347 328.825)"/></g></g></g></g></svg>