<svg xmlns="http://www.w3.org/2000/svg" version="1.1" xmlns:xlink="http://www.w3.org/1999/xlink" xmlns:svgjs="http://svgjs.com/svgjs" width="1840" height="3060" preserveAspectRatio="none" viewBox="0 0 1840 3060"><g mask="url(&quot;#SvgjsMask1128&quot;)" fill="none"><rect width="1840" height="3060" x="0" y="0" fill="rgba(135, 184, 153, 1)"></rect><path d="M0,1035.293C213.702,998.745,455.231,1109.307,635.554,988.941C815.522,868.812,804.007,602.643,920.928,420.574C1065.229,195.87,1363.901,63.339,1399.886,-201.273C1437.175,-475.476,1298.181,-759.009,1108.777,-960.761C922.323,-1159.37,642.243,-1220.843,378.543,-1289.2C122.417,-1355.593,-142.438,-1424.24,-396.693,-1351.011C-651.564,-1277.604,-897.879,-1120.04,-1022.22,-885.759C-1139.784,-664.248,-987.934,-395.141,-1034.761,-148.776C-1085.032,115.708,-1350.234,330.226,-1303.749,595.402C-1255.732,869.318,-1056.009,1144.263,-792.51,1233.169C-529.187,1322.015,-273.931,1082.141,0,1035.293" fill="#55906b"></path><path d="M1840 4216.929C2064.565 4209.368 2318.286 4212.262 2480.7889999999998 4057.087 2640.223 3904.843 2562.373 3632.148 2659.593 3434.296 2761.285 3227.344 3040.786 3115.104 3056.6949999999997 2885.066 3072.718 2653.377 2908.3810000000003 2439.977 2739.373 2280.689 2578.918 2129.4629999999997 2355.718 2086.236 2143.956 2024.822 1932.912 1963.617 1720.5819999999999 1874.994 1506.159 1923.041 1285.551 1972.475 1058.988 2091.801 953.256 2291.632 850.847 2485.184 994.238 2717.308 970.717 2935.016 948.433 3141.279 784.819 3321.385 819.913 3525.858 858.698 3751.84 981.041 3972.592 1170.867 4101.192 1362.142 4230.773999999999 1609.095 4224.704 1840 4216.929" fill="#bfd9c9"></path></g><defs><mask id="SvgjsMask1128"><rect width="1840" height="3060" fill="#ffffff"></rect></mask></defs></svg>