<svg xmlns="http://www.w3.org/2000/svg" version="1.1" xmlns:xlink="http://www.w3.org/1999/xlink" xmlns:svgjs="http://svgjs.com/svgjs" width="600" height="6360" preserveAspectRatio="none" viewBox="0 0 600 6360"><g mask="url(&quot;#SvgjsMask1285&quot;)" fill="none"><rect width="600" height="6360" x="0" y="0" fill="rgba(135, 184, 153, 1)"></rect><path d="M0,2424.932C445.721,2405.473,709.118,1917.888,1118.34,1740.171C1642.2,1512.669,2348.069,1674.917,2721.694,1242.956C3099.19,806.519,3108.309,135.256,2996.097,-430.774C2886.585,-983.185,2517.735,-1439.437,2112.417,-1830.42C1732.824,-2196.589,1261.933,-2426.316,759.878,-2587.908C246.661,-2753.093,-285.776,-2880.151,-814.03,-2772.331C-1369.042,-2659.049,-1925.64,-2416.958,-2272.356,-1969.008C-2612.538,-1529.501,-2724.898,-935.314,-2663.432,-382.944C-2608.521,110.517,-2229.125,479.062,-1953.952,892.34C-1723.495,1238.459,-1510.09,1584.007,-1182.905,1840.636C-829.716,2117.662,-448.445,2444.51,0,2424.932" fill="#57926d"></path><path d="M600 7652.545C852.453 7643.414 1109.03 7619.271 1323.559 7485.879 1539.825 7351.407 1721.66 7150.131 1798.493 6907.334 1871.696 6676.005 1744.725 6439.606 1731.313 6197.342 1716.204 5924.416 1874.788 5615.664 1714.721 5394.089 1555.645 5173.887 1230.547 5163.82 960.899 5130.889 723.883 5101.943 500.385 5180.718 264.375 5216.966-14.041000000000054 5259.727-347.91999999999996 5167.38-550.567 5363.028-752.4849999999999 5557.972-751.4010000000001 5890.657-722.586 6169.841-697.3389999999999 6414.456-494.23 6589.562-400.509 6816.917-301.68499999999995 7056.652-357.01700000000005 7373.242-157.99599999999998 7539.465 42.12699999999995 7706.609 339.428 7661.969 600 7652.545" fill="#bdd8c7"></path></g><defs><mask id="SvgjsMask1285"><rect width="600" height="6360" fill="#ffffff"></rect></mask></defs></svg>