<svg width="17" height="18" viewBox="0 0 17 18" fill="none" xmlns="http://www.w3.org/2000/svg">
<path d="M9.96828 9.10596L16.5308 2.63096C16.7269 2.43712 16.8371 2.17421 16.8371 1.90008C16.8371 1.62594 16.7269 1.36304 16.5308 1.1692C16.3346 0.975354 16.0686 0.866455 15.7912 0.866455C15.5138 0.866455 15.2478 0.975354 15.0516 1.1692L8.49953 7.65449L1.94745 1.1692C1.7513 0.975354 1.48526 0.866455 1.20786 0.866455C0.930465 0.866455 0.664429 0.975354 0.46828 1.1692C0.27213 1.36304 0.161934 1.62594 0.161934 1.90008C0.161934 2.17421 0.27213 2.43712 0.46828 2.63096L7.03078 9.10596L0.46828 15.581C0.370646 15.6767 0.293152 15.7905 0.240268 15.916C0.187384 16.0414 0.160156 16.1759 0.160156 16.3118C0.160156 16.4477 0.187384 16.5823 0.240268 16.7077C0.293152 16.8332 0.370646 16.947 0.46828 17.0427C0.565116 17.1392 0.680325 17.2158 0.807262 17.2681C0.934199 17.3203 1.07035 17.3472 1.20786 17.3472C1.34538 17.3472 1.48153 17.3203 1.60846 17.2681C1.7354 17.2158 1.85061 17.1392 1.94745 17.0427L8.49953 10.5574L15.0516 17.0427C15.1485 17.1392 15.2637 17.2158 15.3906 17.2681C15.5175 17.3203 15.6537 17.3472 15.7912 17.3472C15.9287 17.3472 16.0649 17.3203 16.1918 17.2681C16.3187 17.2158 16.4339 17.1392 16.5308 17.0427C16.6284 16.947 16.7059 16.8332 16.7588 16.7077C16.8117 16.5823 16.8389 16.4477 16.8389 16.3118C16.8389 16.1759 16.8117 16.0414 16.7588 15.916C16.7059 15.7905 16.6284 15.6767 16.5308 15.581L9.96828 9.10596Z" fill="#FFA436"/>
</svg>
