<svg width="20" height="21" viewBox="0 0 20 21" fill="none" xmlns="http://www.w3.org/2000/svg">
<path d="M4.1665 15.2249H7.69984C7.80951 15.2255 7.91823 15.2045 8.01976 15.163C8.12129 15.1216 8.21364 15.0605 8.2915 14.9832L14.0582 9.20822L16.4248 6.89155C16.5029 6.81408 16.5649 6.72191 16.6072 6.62036C16.6496 6.51882 16.6713 6.40989 16.6713 6.29988C16.6713 6.18987 16.6496 6.08095 16.6072 5.9794C16.5649 5.87785 16.5029 5.78569 16.4248 5.70822L12.8915 2.13322C12.814 2.05511 12.7219 1.99312 12.6203 1.95081C12.5188 1.9085 12.4098 1.88672 12.2998 1.88672C12.1898 1.88672 12.0809 1.9085 11.9794 1.95081C11.8778 1.99312 11.7856 2.05511 11.7082 2.13322L9.35817 4.49155L3.57484 10.2666C3.4976 10.3444 3.4365 10.4368 3.39503 10.5383C3.35356 10.6398 3.33254 10.7485 3.33317 10.8582V14.3916C3.33317 14.6126 3.42097 14.8245 3.57725 14.9808C3.73353 15.1371 3.94549 15.2249 4.1665 15.2249ZM12.2998 3.89988L14.6582 6.25822L13.4748 7.44155L11.1165 5.08322L12.2998 3.89988ZM4.99984 11.1999L9.9415 6.25822L12.2998 8.61655L7.35817 13.5582H4.99984V11.1999ZM17.4998 16.8916H2.49984C2.27882 16.8916 2.06686 16.9793 1.91058 17.1356C1.7543 17.2919 1.6665 17.5039 1.6665 17.7249C1.6665 17.9459 1.7543 18.1579 1.91058 18.3141C2.06686 18.4704 2.27882 18.5582 2.49984 18.5582H17.4998C17.7208 18.5582 17.9328 18.4704 18.0891 18.3141C18.2454 18.1579 18.3332 17.9459 18.3332 17.7249C18.3332 17.5039 18.2454 17.2919 18.0891 17.1356C17.9328 16.9793 17.7208 16.8916 17.4998 16.8916Z" fill="white"/>
</svg>
