<svg width="21" height="21" viewBox="0 0 21 21" fill="none" xmlns="http://www.w3.org/2000/svg">
<g clip-path="url(#clip0)">
<path d="M12.84 9.84C12.634 10.0611 12.3856 10.2384 12.1096 10.3613C11.8336 10.4843 11.5357 10.5504 11.2336 10.5558C10.9315 10.5611 10.6314 10.5055 10.3512 10.3924C10.071 10.2792 9.81654 10.1108 9.60288 9.89711C9.38923 9.68346 9.22079 9.42896 9.10763 9.14879C8.99447 8.86863 8.93889 8.56854 8.94422 8.26643C8.94955 7.96432 9.01568 7.66638 9.13866 7.39039C9.26163 7.11439 9.43894 6.86599 9.66 6.66M3 0L19.5 16.5M15.705 12.705C14.4229 13.6823 12.8618 14.2236 11.25 14.25C6 14.25 3 8.25 3 8.25C3.93292 6.51142 5.22685 4.99246 6.795 3.795L15.705 12.705ZM9.675 2.43C10.1912 2.30916 10.7198 2.24875 11.25 2.25C16.5 2.25 19.5 8.25 19.5 8.25C19.0447 9.1017 18.5018 9.90355 17.88 10.6425L9.675 2.43Z" stroke="#FF645A" stroke-width="1.6" stroke-linecap="round" stroke-linejoin="round"/>
</g>
<defs>
<clipPath id="clip0">
<rect width="21" height="21" fill="white"/>
</clipPath>
</defs>
</svg>
