<svg width="26" height="20" viewBox="0 0 26 20" fill="none" xmlns="http://www.w3.org/2000/svg">
<path d="M25.4004 9.5C22.8754 3.6375 18.1254 0 13.0004 0C7.87545 0 3.12545 3.6375 0.60045 9.5C0.531621 9.65771 0.496094 9.82793 0.496094 10C0.496094 10.1721 0.531621 10.3423 0.60045 10.5C3.12545 16.3625 7.87545 20 13.0004 20C18.1254 20 22.8754 16.3625 25.4004 10.5C25.4693 10.3423 25.5048 10.1721 25.5048 10C25.5048 9.82793 25.4693 9.65771 25.4004 9.5ZM13.0004 17.5C9.03795 17.5 5.28795 14.6375 3.12545 10C5.28795 5.3625 9.03795 2.5 13.0004 2.5C16.9629 2.5 20.7129 5.3625 22.8754 10C20.7129 14.6375 16.9629 17.5 13.0004 17.5ZM13.0004 5C12.0115 5 11.0448 5.29325 10.2226 5.84265C9.40035 6.39206 8.75949 7.17295 8.38105 8.08658C8.00261 9.00021 7.9036 10.0055 8.09652 10.9755C8.28945 11.9454 8.76565 12.8363 9.46492 13.5355C10.1642 14.2348 11.0551 14.711 12.025 14.9039C12.9949 15.0969 14.0002 14.9978 14.9139 14.6194C15.8275 14.241 16.6084 13.6001 17.1578 12.7779C17.7072 11.9556 18.0004 10.9889 18.0004 10C18.0004 8.67392 17.4737 7.40215 16.536 6.46447C15.5983 5.52678 14.3265 5 13.0004 5ZM13.0004 12.5C12.506 12.5 12.0226 12.3534 11.6115 12.0787C11.2004 11.804 10.88 11.4135 10.6908 10.9567C10.5015 10.4999 10.452 9.99723 10.5485 9.51227C10.6449 9.02732 10.8831 8.58187 11.2327 8.23223C11.5823 7.8826 12.0278 7.6445 12.5127 7.54804C12.9977 7.45157 13.5003 7.50108 13.9572 7.6903C14.414 7.87952 14.8044 8.19995 15.0791 8.61107C15.3538 9.0222 15.5004 9.50555 15.5004 10C15.5004 10.663 15.2371 11.2989 14.7682 11.7678C14.2994 12.2366 13.6635 12.5 13.0004 12.5Z" fill="#FFA436"/>
</svg>
