<svg width="26" height="20" viewBox="0 0 26 20" fill="none" xmlns="http://www.w3.org/2000/svg">
<path d="M25.4 9.5C22.875 3.6375 18.125 0 13 0C7.87496 0 3.12496 3.6375 0.599961 9.5C0.531132 9.65771 0.495605 9.82793 0.495605 10C0.495605 10.1721 0.531132 10.3423 0.599961 10.5C3.12496 16.3625 7.87496 20 13 20C18.125 20 22.875 16.3625 25.4 10.5C25.4688 10.3423 25.5043 10.1721 25.5043 10C25.5043 9.82793 25.4688 9.65771 25.4 9.5ZM13 17.5C9.03746 17.5 5.28746 14.6375 3.12496 10C5.28746 5.3625 9.03746 2.5 13 2.5C16.9625 2.5 20.7125 5.3625 22.875 10C20.7125 14.6375 16.9625 17.5 13 17.5ZM13 5C12.0111 5 11.0444 5.29325 10.2221 5.84265C9.39986 6.39206 8.759 7.17295 8.38056 8.08658C8.00212 9.00021 7.90311 10.0055 8.09603 10.9755C8.28896 11.9454 8.76516 12.8363 9.46443 13.5355C10.1637 14.2348 11.0546 14.711 12.0245 14.9039C12.9944 15.0969 13.9997 14.9978 14.9134 14.6194C15.827 14.241 16.6079 13.6001 17.1573 12.7779C17.7067 11.9556 18 10.9889 18 10C18 8.67392 17.4732 7.40215 16.5355 6.46447C15.5978 5.52678 14.326 5 13 5ZM13 12.5C12.5055 12.5 12.0222 12.3534 11.611 12.0787C11.1999 11.804 10.8795 11.4135 10.6903 10.9567C10.501 10.4999 10.4515 9.99723 10.548 9.51227C10.6445 9.02732 10.8826 8.58187 11.2322 8.23223C11.5818 7.8826 12.0273 7.6445 12.5122 7.54804C12.9972 7.45157 13.4999 7.50108 13.9567 7.6903C14.4135 7.87952 14.8039 8.19995 15.0786 8.61107C15.3533 9.0222 15.5 9.50555 15.5 10C15.5 10.663 15.2366 11.2989 14.7677 11.7678C14.2989 12.2366 13.663 12.5 13 12.5Z" fill="#475DEB"/>
</svg>
