<svg width="17" height="23" viewBox="0 0 17 23" fill="none" xmlns="http://www.w3.org/2000/svg">
<path d="M13 0.25H4.00001C3.1049 0.25 2.24646 0.605579 1.61352 1.23851C0.980588 1.87145 0.625009 2.72989 0.625009 3.625V21.625C0.624222 21.8232 0.67583 22.0182 0.774609 22.19C0.873388 22.3619 1.01583 22.5046 1.18751 22.6038C1.35853 22.7025 1.55253 22.7545 1.75001 22.7545C1.94749 22.7545 2.14149 22.7025 2.31251 22.6038L8.50001 19.0263L14.6875 22.6038C14.859 22.7009 15.0529 22.7514 15.25 22.75C15.4471 22.7514 15.6411 22.7009 15.8125 22.6038C15.9842 22.5046 16.1266 22.3619 16.2254 22.19C16.3242 22.0182 16.3758 21.8232 16.375 21.625V3.625C16.375 2.72989 16.0194 1.87145 15.3865 1.23851C14.7536 0.605579 13.8951 0.25 13 0.25ZM14.125 19.6788L9.06251 16.7537C8.89149 16.655 8.69749 16.603 8.50001 16.603C8.30253 16.603 8.10853 16.655 7.93751 16.7537L2.87501 19.6788V3.625C2.87501 3.32663 2.99354 3.04048 3.20451 2.8295C3.41549 2.61853 3.70164 2.5 4.00001 2.5H13C13.2984 2.5 13.5845 2.61853 13.7955 2.8295C14.0065 3.04048 14.125 3.32663 14.125 3.625V19.6788Z" fill="#475DEB"/>
</svg>
