<svg width="27" height="27" viewBox="0 0 27 27" fill="none" xmlns="http://www.w3.org/2000/svg">
<path d="M16.7254 9.68012C15.851 8.84404 14.7388 8.41833 13.5 8.41833C11.3024 8.41833 9.44234 9.90257 8.77884 11.8969C8.61009 12.4031 8.51421 12.9439 8.51421 13.5C8.51421 14.0561 8.61009 14.5969 8.77883 15.1031C9.44232 17.0974 11.3024 18.5817 13.5 18.5817C14.6352 18.5817 15.6017 18.2825 16.3573 17.7763C17.2509 17.178 17.8453 16.2844 18.0409 15.2297H13.5V11.9659H21.4466C21.5463 12.5182 21.6 13.0935 21.6 13.6918C21.6 16.2614 20.6796 18.4245 19.0841 19.8934C17.6881 21.182 15.7781 21.9375 13.5 21.9375C10.2017 21.9375 7.34832 20.0467 5.95996 17.2892C5.38851 16.1502 5.0625 14.8615 5.0625 13.5C5.0625 12.1385 5.38849 10.8499 5.95994 9.71082C7.3483 6.95328 10.2017 5.0625 13.5 5.0625C15.7743 5.0625 17.6843 5.89858 19.1455 7.26009L16.7254 9.68012Z" fill="#22215B"/>
</svg>
