<svg width="18" height="18" viewBox="0 0 18 18" fill="none" xmlns="http://www.w3.org/2000/svg">
<path d="M17.851 5.262C17.8365 4.51997 17.6958 3.78582 17.435 3.091C17.2043 2.49602 16.8519 1.95576 16.4004 1.50479C15.9489 1.05381 15.4082 0.702043 14.813 0.472C14.1181 0.211454 13.384 0.0707878 12.642 0.056C11.684 0.011 11.38 0 8.951 0C6.522 0 6.216 0.011 5.261 0.052C4.51897 0.0664973 3.78483 0.207172 3.09 0.468C2.49191 0.691826 1.95018 1.0441 1.503 1.5C1.04844 1.94808 0.696659 2.48957 0.472 3.087C0.209765 3.78161 0.0674076 4.51572 0.051 5.258C0.01 6.216 0 6.52 0 8.95C0 11.38 0.01 11.684 0.051 12.639C0.0657785 13.3811 0.206793 14.1152 0.468 14.81C0.698339 15.4047 1.05024 15.9448 1.50121 16.3958C1.95218 16.8468 2.49228 17.1987 3.087 17.429C3.78191 17.6895 4.51601 17.8302 5.258 17.845C6.212 17.887 6.517 17.897 8.946 17.897C11.375 17.897 11.68 17.887 12.634 17.845C13.376 17.8306 14.1102 17.6899 14.805 17.429C15.3999 17.199 15.9402 16.8472 16.3912 16.3962C16.8422 15.9452 17.194 15.4049 17.424 14.81C17.6845 14.1151 17.8251 13.381 17.84 12.639C17.882 11.685 17.892 11.38 17.892 8.951C17.892 6.522 17.892 6.217 17.847 5.263L17.851 5.262ZM16.239 12.569C16.2332 13.1363 16.129 13.6983 15.931 14.23C15.7818 14.6162 15.5535 14.967 15.2608 15.2598C14.968 15.5525 14.6172 15.7808 14.231 15.93C13.6992 16.1276 13.1373 16.2318 12.57 16.238C11.626 16.28 11.343 16.29 8.955 16.29C6.567 16.29 6.28 16.28 5.34 16.238C4.77268 16.2323 4.21066 16.1281 3.679 15.93C3.2904 15.7871 2.93902 15.5584 2.651 15.261C2.35466 14.9723 2.12645 14.6211 1.983 14.233C1.78542 13.7012 1.68122 13.1393 1.675 12.572C1.633 11.628 1.623 11.345 1.623 8.957C1.623 6.569 1.633 6.282 1.675 5.342C1.68073 4.77468 1.78495 4.21266 1.983 3.681C2.12467 3.29232 2.35313 2.94108 2.651 2.654C2.94022 2.35731 3.29215 2.12907 3.681 1.986C4.2128 1.78845 4.77473 1.68426 5.342 1.678C6.286 1.636 6.569 1.626 8.957 1.626C11.345 1.626 11.632 1.637 12.572 1.678C13.1393 1.68383 13.7013 1.78805 14.233 1.986C14.6215 2.12854 14.9729 2.35687 15.261 2.654C15.5573 2.94273 15.7855 3.29392 15.929 3.682C16.1266 4.2138 16.2308 4.77573 16.237 5.343C16.279 6.287 16.289 6.57 16.289 8.958C16.289 11.346 16.278 11.626 16.237 12.57L16.239 12.569Z" fill="#22215B"/>
<path d="M8.94998 4.35303C8.04018 4.35303 7.15082 4.62281 6.39436 5.12827C5.63789 5.63372 5.0483 6.35214 4.70014 7.19268C4.35197 8.03322 4.26087 8.95814 4.43836 9.85045C4.61586 10.7428 5.05397 11.5624 5.69729 12.2057C6.34061 12.849 7.16025 13.2872 8.05256 13.4646C8.94487 13.6421 9.86978 13.551 10.7103 13.2029C11.5509 12.8547 12.2693 12.2651 12.7747 11.5087C13.2802 10.7522 13.55 9.86283 13.55 8.95303C13.55 7.73304 13.0653 6.563 12.2027 5.70033C11.34 4.83767 10.17 4.35303 8.94998 4.35303ZM8.94998 11.933C8.36019 11.933 7.78366 11.7581 7.29327 11.4305C6.80288 11.1028 6.42067 10.6371 6.19497 10.0922C5.96927 9.5473 5.91022 8.94771 6.02528 8.36926C6.14034 7.79081 6.42435 7.25948 6.84139 6.84244C7.25843 6.4254 7.78977 6.14139 8.36822 6.02633C8.94667 5.91127 9.54625 5.97032 10.0911 6.19602C10.636 6.42172 11.1018 6.80393 11.4294 7.29432C11.7571 7.78471 11.932 8.36125 11.932 8.95103C11.9317 9.74183 11.6175 10.5002 11.0583 11.0593C10.4991 11.6185 9.74077 11.9328 8.94998 11.933Z" fill="#22215B"/>
<path d="M14.806 4.17115C14.806 4.38337 14.7431 4.59082 14.6252 4.76727C14.5073 4.94373 14.3397 5.08126 14.1437 5.16247C13.9476 5.24368 13.7318 5.26493 13.5237 5.22353C13.3156 5.18212 13.1244 5.07993 12.9743 4.92987C12.8243 4.77981 12.7221 4.58862 12.6807 4.38048C12.6392 4.17234 12.6605 3.95659 12.7417 3.76053C12.8229 3.56446 12.9605 3.39689 13.1369 3.27898C13.3134 3.16108 13.5208 3.09814 13.733 3.09814C14.0176 3.09814 14.2906 3.2112 14.4918 3.41242C14.693 3.61365 14.806 3.88657 14.806 4.17115Z" fill="#22215B"/>
</svg>
