<svg width="25" height="25" viewBox="0 0 25 25" fill="none" xmlns="http://www.w3.org/2000/svg">
<path d="M12.0903 7.25701C11.1344 7.25701 10.1999 7.54048 9.40508 8.07157C8.61025 8.60266 7.99075 9.35753 7.62492 10.2407C7.2591 11.1239 7.16338 12.0957 7.34988 13.0333C7.53637 13.9709 7.9967 14.8321 8.67266 15.508C9.34861 16.184 10.2098 16.6443 11.1474 16.8308C12.085 17.0173 13.0568 16.9216 13.94 16.5558C14.8232 16.1899 15.578 15.5704 16.1091 14.7756C16.6402 13.9808 16.9237 13.0463 16.9237 12.0903C16.9237 10.8085 16.4144 9.57908 15.508 8.67266C14.6016 7.76623 13.3722 7.25701 12.0903 7.25701ZM12.0903 14.507C11.6124 14.507 11.1451 14.3653 10.7477 14.0997C10.3503 13.8342 10.0405 13.4567 9.85763 13.0152C9.67472 12.5736 9.62686 12.0877 9.72011 11.6189C9.81336 11.1501 10.0435 10.7195 10.3815 10.3815C10.7195 10.0435 11.1501 9.81336 11.6189 9.72011C12.0877 9.62686 12.5736 9.67472 13.0152 9.85763C13.4567 10.0405 13.8342 10.3503 14.0997 10.7477C14.3653 11.1451 14.507 11.6124 14.507 12.0903C14.507 12.7313 14.2524 13.346 13.7992 13.7992C13.346 14.2524 12.7313 14.507 12.0903 14.507ZM23.8233 11.2324L20.9837 8.46534V4.40534C20.9837 4.08487 20.8564 3.77753 20.6298 3.55092C20.4032 3.32431 20.0958 3.19701 19.7753 3.19701H15.7758L12.9483 0.357423C12.8359 0.244168 12.7023 0.154275 12.555 0.0929292C12.4078 0.0315837 12.2499 0 12.0903 0C11.9308 0 11.7729 0.0315837 11.6256 0.0929292C11.4784 0.154275 11.3448 0.244168 11.2324 0.357423L8.46534 3.19701H4.40534C4.08487 3.19701 3.77753 3.32431 3.55092 3.55092C3.32431 3.77753 3.19701 4.08487 3.19701 4.40534V8.46534L0.357423 11.2324C0.244168 11.3448 0.154275 11.4784 0.0929292 11.6256C0.0315837 11.7729 0 11.9308 0 12.0903C0 12.2499 0.0315837 12.4078 0.0929292 12.555C0.154275 12.7023 0.244168 12.8359 0.357423 12.9483L3.19701 15.7758V19.7753C3.19701 20.0958 3.32431 20.4032 3.55092 20.6298C3.77753 20.8564 4.08487 20.9837 4.40534 20.9837H8.46534L11.2928 23.8233C11.4052 23.9365 11.5388 24.0264 11.6861 24.0878C11.8333 24.1491 11.9912 24.1807 12.1508 24.1807C12.3103 24.1807 12.4682 24.1491 12.6155 24.0878C12.7627 24.0264 12.8963 23.9365 13.0087 23.8233L15.8362 20.9837H19.8358C20.1562 20.9837 20.4636 20.8564 20.6902 20.6298C20.9168 20.4032 21.0441 20.0958 21.0441 19.7753V15.7758L23.8837 12.9483C23.9931 12.832 24.0783 12.6952 24.1346 12.5458C24.1908 12.3964 24.2168 12.2373 24.2112 12.0777C24.2056 11.9182 24.1684 11.7614 24.1018 11.6163C24.0352 11.4712 23.9406 11.3407 23.8233 11.2324ZM18.9295 14.4224C18.8153 14.5343 18.7245 14.6678 18.6623 14.8151C18.6001 14.9623 18.5677 15.1205 18.567 15.2803V18.567H15.2803C15.1205 18.5677 14.9623 18.6001 14.8151 18.6623C14.6678 18.7245 14.5343 18.8153 14.4224 18.9295L12.0903 21.2616L9.75826 18.9295C9.64635 18.8153 9.51289 18.7245 9.36563 18.6623C9.21836 18.6001 9.06021 18.5677 8.90034 18.567H5.61367V15.2803C5.61301 15.1205 5.58063 14.9623 5.5184 14.8151C5.45618 14.6678 5.36535 14.5343 5.25117 14.4224L2.91909 12.0903L5.25117 9.75826C5.36535 9.64635 5.45618 9.51289 5.5184 9.36563C5.58063 9.21836 5.61301 9.06021 5.61367 8.90034V5.61367H8.90034C9.06021 5.61301 9.21836 5.58063 9.36563 5.5184C9.51289 5.45618 9.64635 5.36535 9.75826 5.25117L12.0903 2.91909L14.4224 5.25117C14.5343 5.36535 14.6678 5.45618 14.8151 5.5184C14.9623 5.58063 15.1205 5.61301 15.2803 5.61367H18.567V8.90034C18.5677 9.06021 18.6001 9.21836 18.6623 9.36563C18.7245 9.51289 18.8153 9.64635 18.9295 9.75826L21.2616 12.0903L18.9295 14.4224Z" fill="#FFA436"/>
</svg>
