<svg width="18" height="17" viewBox="0 0 18 17" fill="none" xmlns="http://www.w3.org/2000/svg">
<path d="M8.86933 0.96294C8.9267 0.861142 9.0733 0.861144 9.13067 0.962939L11.2088 4.64996C11.4728 5.11834 11.9275 5.4487 12.4546 5.55504L16.6033 6.39213C16.7179 6.41525 16.7632 6.55466 16.6841 6.64069L13.8197 9.75649C13.4558 10.1523 13.2821 10.6868 13.3439 11.2209L13.8298 15.4253C13.8432 15.5414 13.7246 15.6276 13.6184 15.5789L9.7699 13.8176C9.28102 13.5938 8.71898 13.5938 8.2301 13.8176L4.38165 15.5789C4.2754 15.6276 4.1568 15.5414 4.17022 15.4253L4.65613 11.2209C4.71786 10.6868 4.54418 10.1523 4.1803 9.75649L1.31592 6.64069C1.23684 6.55466 1.28214 6.41525 1.39668 6.39213L5.54544 5.55504C6.07247 5.4487 6.52717 5.11834 6.79117 4.64996L8.86933 0.96294Z" stroke="white" stroke-width="1.7"/>
</svg>
