<svg width="18" height="17" viewBox="0 0 18 17" fill="none" xmlns="http://www.w3.org/2000/svg">
<path d="M8.12885 0.545576C8.51136 -0.133069 9.48864 -0.13307 9.87115 0.545575L11.9493 4.2326C12.092 4.48578 12.3378 4.66435 12.6227 4.72183L16.7714 5.55893C17.5351 5.713 17.8371 6.64245 17.3098 7.21595L14.4455 10.3318C14.2488 10.5457 14.1549 10.8346 14.1883 11.1233L14.6742 15.3277C14.7636 16.1016 13.973 16.676 13.2646 16.3518L9.41616 14.5905C9.1519 14.4695 8.8481 14.4695 8.58384 14.5905L4.73539 16.3518C4.02703 16.676 3.2364 16.1016 3.32584 15.3277L3.81175 11.1233C3.84512 10.8346 3.75124 10.5457 3.55455 10.3318L0.690164 7.21595C0.162938 6.64245 0.464932 5.713 1.22856 5.55893L5.37732 4.72183C5.6622 4.66435 5.90799 4.48578 6.05069 4.2326L8.12885 0.545576Z" fill="#ECFF14"/>
</svg>
