<svg width="20" height="23" viewBox="0 0 20 23" fill="none" xmlns="http://www.w3.org/2000/svg">
<path d="M4.1665 6.33333C4.1665 3.11167 6.77818 0.5 9.99984 0.5C13.2215 0.5 15.8332 3.11167 15.8332 6.33333C15.8332 9.55499 13.2215 12.1667 9.99984 12.1667C6.77818 12.1667 4.1665 9.55499 4.1665 6.33333ZM9.99984 9.83333C11.9328 9.83333 13.4998 8.26633 13.4998 6.33333C13.4998 4.40034 11.9328 2.83333 9.99984 2.83333C8.06684 2.83333 6.49984 4.40034 6.49984 6.33333C6.49984 8.26633 8.06684 9.83333 9.99984 9.83333Z" fill="#FFA436"/>
<path d="M3.40017 16.067C1.64983 17.8173 0.666504 20.1913 0.666504 22.6667H2.99984C2.99984 20.8102 3.73733 19.0297 5.05009 17.7169C6.36284 16.4042 8.14332 15.6667 9.99984 15.6667C11.8564 15.6667 13.6368 16.4042 14.9496 17.7169C16.2623 19.0297 16.9998 20.8102 16.9998 22.6667H19.3332C19.3332 20.1913 18.3498 17.8173 16.5995 16.067C14.8492 14.3167 12.4752 13.3333 9.99984 13.3333C7.52448 13.3333 5.15051 14.3167 3.40017 16.067Z" fill="#FFA436"/>
</svg>
