<svg width="20" height="23" viewBox="0 0 20 23" fill="none" xmlns="http://www.w3.org/2000/svg">
<path d="M4.16699 6.33333C4.16699 3.11167 6.77866 0.5 10.0003 0.5C13.222 0.5 15.8337 3.11167 15.8337 6.33333C15.8337 9.55499 13.222 12.1667 10.0003 12.1667C6.77866 12.1667 4.16699 9.55499 4.16699 6.33333ZM10.0003 9.83333C11.9333 9.83333 13.5003 8.26633 13.5003 6.33333C13.5003 4.40034 11.9333 2.83333 10.0003 2.83333C8.06733 2.83333 6.50032 4.40034 6.50032 6.33333C6.50032 8.26633 8.06733 9.83333 10.0003 9.83333Z" fill="#475DEB"/>
<path d="M3.40066 16.067C1.65032 17.8173 0.666992 20.1913 0.666992 22.6667H3.00033C3.00033 20.8102 3.73782 19.0297 5.05058 17.7169C6.36333 16.4042 8.14381 15.6667 10.0003 15.6667C11.8568 15.6667 13.6373 16.4042 14.9501 17.7169C16.2628 19.0297 17.0003 20.8102 17.0003 22.6667H19.3337C19.3337 20.1913 18.3503 17.8173 16.6 16.067C14.8496 14.3167 12.4757 13.3333 10.0003 13.3333C7.52497 13.3333 5.151 14.3167 3.40066 16.067Z" fill="#475DEB"/>
</svg>
