<svg width="23" height="23" viewBox="0 0 23 23" fill="none" xmlns="http://www.w3.org/2000/svg">
<path d="M15.6741 12.2988C16.777 11.4311 17.582 10.2411 17.9772 8.89452C18.3723 7.54791 18.338 6.11163 17.8788 4.78548C17.4197 3.45933 16.5586 2.30927 15.4154 1.49529C14.2722 0.681313 12.9037 0.243896 11.5003 0.243896C10.0969 0.243896 8.72843 0.681313 7.58522 1.49529C6.44202 2.30927 5.58094 3.45933 5.12179 4.78548C4.66264 6.11163 4.62825 7.54791 5.02341 8.89452C5.41856 10.2411 6.22361 11.4311 7.32655 12.2988C5.43664 13.056 3.78762 14.3118 2.55531 15.9325C1.32299 17.5531 0.55356 19.4778 0.329051 21.5013C0.3128 21.6491 0.325808 21.7986 0.36733 21.9413C0.408853 22.084 0.478077 22.2171 0.571052 22.3331C0.758823 22.5673 1.03193 22.7173 1.3303 22.7501C1.62867 22.7829 1.92786 22.6959 2.16204 22.5081C2.39623 22.3203 2.54623 22.0472 2.57905 21.7488C2.82608 19.5497 3.8747 17.5186 5.52455 16.0437C7.1744 14.5688 9.30981 13.7535 11.5228 13.7535C13.7358 13.7535 15.8712 14.5688 17.5211 16.0437C19.1709 17.5186 20.2195 19.5497 20.4665 21.7488C20.4971 22.0253 20.629 22.2806 20.8368 22.4655C21.0446 22.6504 21.3134 22.7518 21.5915 22.7501H21.7153C22.0102 22.7162 22.2797 22.567 22.4652 22.3352C22.6506 22.1034 22.7369 21.8077 22.7053 21.5126C22.4797 19.4833 21.7062 17.5537 20.4675 15.9306C19.2289 14.3074 17.5718 13.052 15.6741 12.2988ZM11.5003 11.5001C10.6103 11.5001 9.74026 11.2362 9.00024 10.7417C8.26021 10.2472 7.68344 9.54442 7.34284 8.72216C7.00225 7.89989 6.91313 6.99509 7.08677 6.12217C7.2604 5.24926 7.68898 4.44744 8.31832 3.8181C8.94766 3.18876 9.74948 2.76018 10.6224 2.58655C11.4953 2.41291 12.4001 2.50203 13.2224 2.84262C14.0446 3.18322 14.7474 3.75999 15.2419 4.50001C15.7364 5.24004 16.0003 6.11006 16.0003 7.00008C16.0003 8.19355 15.5262 9.33815 14.6823 10.1821C13.8384 11.026 12.6938 11.5001 11.5003 11.5001Z" fill="#00A460"/>
</svg>
