<svg width="235" height="189" viewBox="0 0 235 189" fill="none" xmlns="http://www.w3.org/2000/svg">
<path fill-rule="evenodd" clip-rule="evenodd" d="M135.108 188.483C163.211 188.483 187.872 167.579 174.022 139.185C160.172 110.792 211.634 111.709 226.75 92.0858C245.186 68.1541 239.847 -33.4322 121.499 28.4998C102.541 38.4205 53.8527 18.2936 37.7026 28.2802C18.6924 40.0354 -8.05396 64.1064 18.6924 88.7636C31.8671 100.909 -15.3674 132.434 5.32039 160.672C25.5065 188.225 39.6565 161.959 70.3896 167.579C101.123 173.198 114.237 188.483 135.108 188.483Z" fill="#7027E2"/>
<path d="M102.49 139.087C102.49 139.087 108.961 136.043 111.377 133.925C113.792 131.808 116.796 126.547 116.796 126.547C116.796 126.547 149.785 150.371 171.294 146.973C176.251 146.19 185.907 142.895 186.523 137.091C188.205 121.242 164.939 117.192 170.021 109.154C173.123 104.248 182.76 111.55 182.76 111.55L222.731 131.211C222.731 131.211 208.922 165.25 175.411 166.614C134.188 168.292 102.49 139.087 102.49 139.087Z" fill="white"/>
<path fill-rule="evenodd" clip-rule="evenodd" d="M70.7999 5.78176C70.4247 5.63448 68.41 3.16752 65.8522 2.71853C64.6899 2.51449 65.7448 3.99449 64.4656 4.00781C60.6558 4.04748 54.4646 3.33172 53.3176 4.00781C52.4652 4.50869 54.3425 6.25852 53.3176 6.33885C43.6481 7.09678 28.8964 16.7515 25.6959 21.4355C24.6773 22.9261 32.9151 20.3971 31.6026 21.134C30.1295 21.9611 28.4957 27.377 27.5188 31.5599C26.8425 34.4404 26.4167 38.1474 26.2664 42.18C26.1412 45.6616 26.1913 46.2377 26.6922 48.1413C27.2683 50.2703 27.7192 50.8965 28.4957 50.596C28.7712 50.4958 28.8964 50.1201 28.8964 49.4187C28.8964 48.8677 29.197 47.2146 29.5727 45.7368L30.2239 43.0817L30.4994 44.1838C30.8501 45.4612 32.904 49.4187 34.7575 52.2992C34.8575 52.4521 35.2876 52.2576 35.6754 51.3202C36.0288 50.4659 35.8854 49.1012 36.4858 47.6386C37.8534 44.3069 40.5387 39.9751 43.6481 36.5077C48.2434 31.3831 49.7681 25.4524 54.0757 20.6917C62.1147 11.8072 72.2042 6.3331 70.7999 5.78176Z" fill="white"/>
<path fill-rule="evenodd" clip-rule="evenodd" d="M31.7163 22.3427C30.4267 23.3796 28.5125 31.7908 28.4797 31.9314C27.8034 34.8119 27.1515 44.8146 27.8178 46.7084C28.4842 48.6022 30.3501 41.7755 30.3501 41.7755C30.3501 41.7755 33.1703 49.0988 35.6623 51.1067C35.7687 51.1924 32.7002 42.0462 31.7163 36.7068C30.4174 29.6586 32.4502 21.7525 31.7163 22.3427Z" fill="#E7EAEE"/>
<path fill-rule="evenodd" clip-rule="evenodd" d="M79.7819 169.652C82.1864 169.126 86.2436 167.294 87.797 166.668C89.3504 166.041 94.0839 159.357 95.7871 151.818C97.0145 146.258 97.6406 138.343 96.9393 137.015C96.8357 136.827 96.4569 133.228 97.4655 134.403C99.7073 137.015 102.368 141.116 110.765 133.767C113.052 131.766 116.083 129.183 115.285 126.899C113.052 120.509 103.372 107.643 101.896 106.669C100.132 105.503 91.2134 106.494 77.9411 102.576C62.8892 98.1336 56.6216 85.0515 50.7314 86.7545C45.9679 88.1316 34.555 96.5949 31.6907 101.954C18.1684 127.256 34.555 144.986 38.2868 150.078L41.9102 151.643L42.0354 154.874L42.2108 156.903C42.5364 160.785 42.6616 161.136 44.4149 162.438C48.7982 165.77 57.4396 168.875 65.2544 169.977C68.8862 170.478 76.7762 170.303 79.7819 169.652Z" fill="white"/>
<path fill-rule="evenodd" clip-rule="evenodd" d="M43.3357 153.691L43.511 155.72C43.8366 159.603 43.9619 159.953 45.7152 161.256C48.301 163.221 52.3688 165.108 56.8745 166.551C60.0065 167.554 63.35 168.343 66.5546 168.795C70.1865 169.296 78.0764 169.121 81.0821 168.469C82.5678 168.148 70.3473 158.547 63.1481 161.256C57.6195 163.336 44.5887 147.467 49.8868 143.321C55.8302 138.671 44.9393 120.327 44.5887 116.345C44.238 112.363 42.857 111.411 42.8167 111.551C42.7764 111.691 42.7764 112.167 42.8848 113.315C43.3521 118.264 43.3357 153.691 43.3357 153.691Z" fill="#E7EAEE"/>
<path fill-rule="evenodd" clip-rule="evenodd" d="M42.0309 115.208C42.5568 115.106 43.0661 115.449 43.1684 115.975C45.0588 125.687 53.055 132.262 67.3533 135.7C81.7366 139.159 91.5339 138.972 96.6961 135.28C97.1319 134.969 96.807 137.637 96.4878 137.842C93.1209 140.001 81.6737 143.223 68.0131 140.311C50.5466 136.588 42.3455 121.901 41.2641 116.345C41.1618 115.82 41.5051 115.31 42.0309 115.208Z" fill="#FFB61D"/>
<path fill-rule="evenodd" clip-rule="evenodd" d="M34.7472 97.6853C35.2122 97.4192 52.5604 117.302 76.3679 121.802C100.175 126.303 105.94 123.44 106.866 117.302C106.946 116.772 107.44 116.407 107.97 116.487C108.5 116.567 108.864 117.061 108.785 117.591C107.61 125.371 96.594 127.222 76.0416 123.714C55.7473 120.251 41.8335 112.023 34.387 99.0089C34.121 98.5439 34.2822 97.9513 34.7472 97.6853Z" fill="#FFB61D"/>
<path fill-rule="evenodd" clip-rule="evenodd" d="M134.671 96.5829C134.02 96.3575 133.319 95.8565 132.868 95.2804L132.116 94.3537L134.771 91.7237C138.854 87.7161 141.985 83.6083 144.69 78.7241C145.592 77.096 147.871 71.6607 147.871 71.1347C147.871 70.9594 148.147 70.2581 148.472 69.5317C148.973 68.4797 149.349 68.0789 150.426 67.4778C151.703 66.7264 153.156 66.4759 153.782 66.9017C154.985 67.7032 154.985 70.233 153.782 74.5913C152.455 79.3753 150.676 82.8068 146.994 87.7411C146.418 88.4926 145.341 89.9704 144.565 90.9973C142.486 93.7525 141.133 95.08 139.305 96.107C137.501 97.1089 136.449 97.2341 134.671 96.5829ZM152.655 94.3285L154.459 95.1301C154.832 95.3026 158.958 97.2848 163.913 99.6658C171.902 103.505 182.049 108.38 182.111 108.38C182.211 108.38 182.681 107.293 182.787 106.026C183.038 103.296 183.964 99.5885 185.041 97.0086C185.542 95.8564 185.943 94.4164 185.943 94.2912C185.943 94.234 185.536 94.0698 184.869 93.8009C184.076 93.4808 182.914 93.0124 181.635 92.3999C175.323 89.3691 162.975 83.1824 161.447 82.2557C159.944 81.379 159.643 81.3039 159.643 81.88C159.643 82.6314 158.115 86.113 156.938 87.9915C156.312 89.0185 155.085 90.872 154.208 92.0993L152.655 94.3285ZM181.685 103.872C182.403 104.288 181.159 104.899 180.859 104.999C179.089 105.149 177.005 104.816 175.298 103.822C174.405 103.189 167.377 99.2839 162.715 96.6938C160.583 95.5096 158.947 94.6002 158.616 94.4038C157.564 93.7776 156.563 93.1013 156.387 92.9009C155.861 92.2247 156.362 91.9241 157.84 92.0493C158.728 92.1246 180.134 102.973 181.685 103.872ZM79.8674 169.446C81.7996 169.023 84.7988 167.757 86.7087 166.951C87.1756 166.754 87.5774 166.585 87.8825 166.462C89.436 165.835 94.1694 159.151 95.8727 151.612C97.1 146.051 97.7262 138.136 97.0248 136.809C96.602 136.04 99.1143 138.619 100.985 140.54L100.987 140.542C101.553 141.123 102.061 141.644 102.41 141.994C113.331 152.839 129.586 161.556 146.468 165.639C154.884 167.692 160.871 168.419 168.911 168.419C182.411 168.419 193.057 165.764 202.725 159.928C203.184 159.651 203.614 159.396 204.024 159.153L204.025 159.153C207.395 157.158 209.403 155.969 214.898 149.784C221.062 142.845 226.545 126.74 228.373 121.179C229.175 118.675 231.129 108.712 231.129 106.226C231.129 103.283 230.102 101.893 228.699 100.465C226.219 98.0356 222.863 97.159 220.083 98.2109L218.78 98.7119L218.379 97.3844C217.803 95.3806 216.601 93.7776 214.748 92.5753C211.992 90.7468 211.592 90.6216 209.112 90.6216C207.183 90.6216 206.657 90.7218 205.43 91.2979L204.002 91.9491L203.702 91.0474C203.126 89.1939 201.193 86.61 199.694 85.8626C198.365 85.1997 196.063 85.1389 194.459 85.4368C190.953 86.088 188.448 87.7161 187.421 89.9954C187.12 90.6967 186.745 91.2478 186.594 91.2478C186.469 91.2478 181.535 89.8697 175.649 87.2648C174.656 86.824 173.723 86.4106 172.847 86.0224C162.277 81.3374 159.986 80.3219 160.194 79.0497C160.37 77.9727 160.32 77.3715 160.019 76.4448C159.493 74.8918 158.892 74.466 157.189 74.466C156.374 74.466 156.05 74.466 155.954 74.3181C155.891 74.2206 155.927 74.0586 155.986 73.7897C156.788 69.9575 156.763 67.7533 155.911 66.3507C155.335 65.4239 154.659 65.0482 153.106 64.8228C152.204 64.6975 151.778 64.7727 150.777 65.3237C150.1 65.6744 149.524 65.9249 149.474 65.8748C149.424 65.8247 149.599 64.4471 149.875 62.819C151.929 50.7712 150.342 40.3908 145.107 29.37C145.057 29.2645 144.999 29.1398 144.932 28.9971C143.341 25.5804 136.942 11.8417 118.641 4.90942C117.813 4.59574 117.029 4.29243 116.276 4.00093L116.275 4.00064C110.041 1.58763 105.897 -0.0165185 95.8977 0.000128342C84.6902 0.0187868 80.8943 1.60316 73.5053 4.98456C72.4784 5.46046 71.5767 5.73598 71.5016 5.63579C71.4264 5.51055 70.9505 5.20999 70.4746 4.95951C69.9987 4.70904 68.9718 4.08285 68.2203 3.58191C66.0663 2.12916 64.7388 1.52802 64.0625 1.6783C63.286 1.87868 63.286 2.52991 64.0625 2.83048C64.3881 2.95572 64.7638 3.38153 64.9141 3.80733C65.2397 4.70904 65.6154 4.80923 65.8408 4.05781C65.941 3.78228 66.0913 3.58191 66.1665 3.632C66.195 3.64625 66.2903 3.6909 66.4359 3.75903L66.436 3.75909C66.8021 3.93049 67.4856 4.25044 68.2203 4.60885C69.2473 5.1098 70.3744 5.63579 70.675 5.76103C71.226 5.96141 71.0507 6.11169 68.6712 7.51435C59.3786 12.9747 51.8143 21.4657 47.5813 31.134C46.9301 32.5868 46.354 33.4885 45.7528 33.9894C44.2249 35.2669 41.2193 38.8987 40.5179 40.3264C40.1422 41.1029 39.3407 42.3052 38.7145 43.0065C38.1134 43.7078 37.4621 44.6095 37.2367 44.9852C37.0363 45.386 36.836 45.6615 36.7608 45.6114C36.7107 45.5363 36.7859 44.309 36.9612 42.8813C37.3369 39.55 37.3369 38.6733 37.0363 38.5982C36.5855 38.4729 35.9343 40.2262 35.6587 42.4054C35.4584 43.7329 35.4083 45.7367 35.5335 47.7906L35.6838 51.0467L33.9054 48.1663C33.2932 47.202 32.6903 46.2378 32.2625 45.5535L32.2623 45.5532L32.2618 45.5524L32.2612 45.5514L32.2609 45.5509C31.9895 45.1168 31.7887 44.7957 31.7012 44.6596C31.05 43.7078 30.6743 42.2801 30.9498 41.8042C31.1001 41.5287 31.0751 41.4035 30.8246 41.4035C30.2986 41.4035 29.2716 43.0816 28.5954 45.0103C28.2698 45.912 27.9441 46.6634 27.8439 46.6634C27.4682 46.6634 27.6436 37.6965 28.0443 34.816C28.8709 29.1302 31.05 22.117 32.0269 22.117C32.2272 22.117 32.4026 22.0168 32.4026 21.8665C32.4026 21.4156 31.7513 21.591 31.2253 22.1671C30.0481 23.4445 28.4952 27.3769 27.5183 31.5598C26.8421 34.4403 26.4162 38.1473 26.266 42.1799C26.1407 45.6615 26.1908 46.2376 26.6918 48.1412C27.2679 50.2702 27.7187 50.8964 28.4952 50.5959C28.7707 50.4957 28.8959 50.12 28.8959 49.4186C28.8959 48.8676 29.1965 47.2145 29.5722 45.7367L30.2235 43.0816L30.499 44.1837C30.8496 45.4611 32.9035 49.4186 34.757 52.2991C36.0344 54.2528 36.0595 54.378 36.4853 57.4338C36.7107 59.1621 37.4121 63.3658 39.0401 69.8323C40.4786 75.5458 48.5656 81.2136 50.5848 82.6288L50.585 82.6289C50.8509 82.8153 51.0116 82.9279 51.0378 82.9571C51.2883 83.2326 51.639 83.3829 51.8394 83.3077C52.0648 83.2326 52.19 83.3328 52.19 83.6083C52.19 83.8588 52.3653 84.1844 52.5657 84.3347C52.8162 84.51 52.9915 85.1863 53.0416 86.3635C53.1669 88.718 54.9202 93.2265 56.2727 94.7043C57.1494 95.6561 58.9779 96.0569 61.0067 95.7062C62.3342 95.5058 62.7099 95.3555 62.5847 95.055C62.5095 94.8546 62.9854 95.1051 63.6367 95.606C71.2511 101.417 78.9657 104.899 87.6321 106.401C90.9884 106.978 96.5489 107.303 99.5797 107.078C102.26 106.902 102.26 106.902 102.135 107.428C101.959 108.13 102.185 108.556 105.867 114.792C108.797 119.727 109.048 120.052 112.304 123.384C119.217 130.522 126.756 136.058 135.297 140.341C143.337 144.348 156.174 147.68 167.909 148.732C179.644 149.784 188.072 139.013 188.047 136.258C187.997 132.476 187.471 129.996 186.194 127.592C184.941 125.262 184.115 124.461 180.358 121.956C176.175 119.176 173.595 116.896 171.891 114.467C170.814 112.939 170.414 111.211 170.414 110.284C170.414 109.683 171.19 108.33 172.342 108.055C173.394 107.779 173.595 107.804 174.772 108.38C175.473 108.706 177.302 109.557 178.805 110.284C180.332 110.985 181.81 111.686 182.111 111.837C182.997 112.083 183.372 113.817 183.575 114.757L183.575 114.758L183.575 114.758C183.62 114.968 183.657 115.138 183.689 115.243C184.039 116.546 185.699 118.227 186.77 118.8C188.65 119.805 193.282 119.94 194.56 118.562C194.885 118.212 195.965 117.78 196.187 117.911C196.41 118.042 197.214 119.126 197.214 120.002C197.239 121.505 198.016 122.883 199.669 124.26C202.8 126.865 205.23 127.491 207.684 126.339C208.962 125.738 210.009 125.503 210.009 125.503C210.009 125.503 211.053 126.836 211.116 127.291C211.608 130.85 216.876 132.342 218.279 132.492C218.601 132.524 219.226 132.387 219.862 132.247C220.711 132.06 221.579 131.869 221.761 132.075C222.119 132.479 215.775 142.971 214.898 144.298C206.557 156.822 190.326 164.486 170.464 165.288C157.564 165.814 141.709 162.207 127.958 155.645C119.167 151.412 111.377 146.227 103.036 138.963C101.583 137.711 99.9053 136.283 99.3042 135.782C98.703 135.306 97.2753 133.678 96.1732 132.175C94.3197 129.67 93.2677 128.769 93.2677 129.62C93.2677 129.996 94.47 132.3 95.8476 134.58C96.3987 135.481 96.7493 136.108 96.6241 136.007C96.4988 135.907 96.0981 137.711 95.7224 140.015C94.4951 147.404 92.4662 154.693 90.4123 159.226C89.2852 161.681 87.124 163.514 86.4728 164.015C84.0682 165.844 80.4685 166.665 75.4841 167.166C69.1721 167.793 59.8796 166.39 52.7912 163.735C50.9126 163.034 46.0785 161.005 45.7528 160.779C45.7333 160.76 45.6223 160.039 45.4674 159.034C45.4238 158.75 45.3766 158.444 45.327 158.124C44.4253 151.938 43.173 128.118 43.173 117.097C43.173 112.538 43.1229 111.536 42.8223 111.536C42.1961 111.536 41.9456 112.137 41.6701 114.291C41.0439 119.201 41.1692 144.824 41.8454 150.209L41.9957 151.437L41.1441 150.961C39.8417 150.209 34.8823 145.175 33.154 142.845C31.6909 140.854 30.8213 138.303 30.1707 136.395C30.0194 135.951 29.8799 135.542 29.7476 135.183C26.1157 125.114 27.3931 113.815 32.4026 103.646C36.6606 94.9798 41.8955 90.1707 49.56 87.8413C50.8124 87.4656 51.9145 87.0649 52.0397 86.9647C52.5156 86.5138 49.4598 86.7392 47.7817 87.2652C42.3213 88.9434 36.6105 93.5271 32.7282 99.3882C27.2679 107.604 24.8132 119.727 26.5415 130.071C26.9422 132.526 28.5703 137.836 29.0212 138.212C29.0611 138.252 29.2671 138.684 29.5787 139.337C30.4401 141.145 32.1086 144.645 33.3043 146.227C34.757 148.206 39.1403 152.514 40.9688 153.841L42.121 154.668L42.2963 156.697C42.6219 160.579 42.7471 160.93 44.5005 162.232C48.8838 165.563 57.5251 168.669 65.3399 169.771C68.9718 170.272 76.8617 170.097 79.8674 169.446ZM164.528 145.926C149.975 144.649 132.392 137.71 119.668 126.99C114.308 122.456 107.344 113.64 104.589 108.756C104.013 107.754 103.587 107.278 103.086 107.153C102.56 107.003 103.011 106.852 105.165 106.502C114.258 104.949 123.099 101.167 130.238 95.7814L131.29 95.0049L131.59 95.7313C132.267 97.3594 134.872 99.0125 136.8 99.0125C137.577 99.0125 140.182 97.8353 141.76 96.7583L142.837 96.0319L143.713 96.9085C144.515 97.7101 144.665 97.7602 146.168 97.7602C147.896 97.7602 149.975 96.9837 151.127 95.8816L151.753 95.3055L153.532 96.4827C154.484 97.159 157.139 98.6368 159.418 99.814C162.824 101.567 166.431 103.596 169.863 105.7L170.414 106.051L169.888 106.752C169.337 107.504 168.31 108.931 168.31 111.11C168.31 113.565 170.863 117.975 175.749 121.004C179.587 123.384 186.194 128.064 185.943 134.905C185.913 135.732 184.991 137.786 183.764 139.639C182.963 140.817 180.733 142.57 178.704 143.597C175.248 145.325 169.161 146.327 164.528 145.926ZM30.9749 33.4885C31.6512 33.6388 32.102 33.8642 32.0018 33.9644C31.6762 34.29 29.948 34.1397 29.5472 33.739C28.921 33.1378 29.0713 32.712 29.948 32.5367C30.3988 32.4616 31.0751 32.0858 31.4508 31.7101C31.8265 31.3344 32.1521 31.1591 32.1521 31.2843C32.1521 31.6099 30.8998 32.7621 30.2736 33.0126C29.8728 33.1879 29.9981 33.2631 30.9749 33.4885ZM40.9439 33.8893C41.6703 33.4886 41.52 33.213 40.6684 33.3383C39.8168 33.4635 39.7667 33.3633 40.3177 32.5117C40.5432 32.1861 40.6684 31.7102 40.6183 31.4597C40.5432 31.1341 40.3678 31.2844 39.9671 32.0859C39.6665 32.662 39.2407 33.1379 39.0403 33.1379C38.4141 33.1379 38.364 33.6388 38.9652 33.8643C39.7416 34.1899 40.3428 34.1899 40.9439 33.8893ZM32.2773 20.2135C31.6762 20.3137 29.7977 21.0651 28.1445 21.8917C26.4663 22.6932 25.0386 23.3695 24.9385 23.3444C22.3836 23.0689 25.9404 18.8108 32.4026 14.4526C38.5893 10.2697 42.7722 8.0655 46.6545 6.93837C49.0841 6.23704 51.8143 6.13685 52.5908 6.71294C53.0166 7.03856 52.8663 7.06361 51.0128 7.08865C47.0052 7.08865 42.3714 9.14254 34.8322 14.1771C30.9248 16.782 26.3912 20.514 26.3912 21.1152C26.3912 21.2404 27.1176 20.99 28.0193 20.5892C29.9479 19.7125 31.9267 19.2617 32.8033 19.4621C33.7301 19.7125 33.5297 20.0381 32.2773 20.2135ZM41.9707 22.3676C44.3252 21.8917 44.4254 21.8666 44.4254 21.6162C44.4254 21.4909 43.5237 21.3657 42.3965 21.3156L40.3677 21.2404L42.2463 19.1114C43.2732 17.9342 44.4755 16.757 44.9013 16.4814C45.828 15.8803 45.8781 15.4545 45.1267 15.204L44.5506 15.0287L45.1768 14.8033C45.5275 14.678 46.1787 14.6279 46.6295 14.7031C47.3058 14.8033 47.4561 14.7532 47.381 14.4025C47.3058 14.0518 47.0303 13.9767 45.803 14.0018C42.2212 14.0518 40.6933 15.0036 43.4986 15.4545C44.2751 15.5797 44.9263 15.7801 44.9263 15.9054C44.9263 16.0055 44.8011 16.1057 44.6508 16.1057C44.1749 16.1057 40.1423 20.1885 39.6413 21.1904C38.8649 22.6681 39.2907 22.8936 41.9707 22.3676ZM58.502 12.6491C57.7756 12.6992 57.6003 12.8244 57.6504 13.1751L57.6581 13.2261C57.6862 13.4114 57.7024 13.5178 57.6608 13.5501C57.6048 13.5937 57.4436 13.5023 57.0648 13.2875L56.9991 13.2502C56.5232 12.9997 56.4731 12.8745 56.7487 12.6741C56.924 12.5238 57.3999 12.2984 57.7756 12.2233L58.4769 12.0479L57.9509 11.4969C57.6754 11.1713 57.5251 10.8707 57.6003 10.7705C57.8007 10.5701 60.2553 10.8456 60.606 11.1212C60.7563 11.2464 60.9817 11.2214 61.132 11.0711C61.4826 10.7204 61.9585 10.9959 61.9585 11.547C61.9585 11.8475 61.8834 11.8726 61.658 11.6472C61.4576 11.4468 61.2822 11.4468 61.0568 11.6221C60.8564 11.7974 60.7062 11.7974 60.5809 11.5971C60.5058 11.4718 60.0299 11.3466 59.5289 11.3466C59.0668 11.3466 58.8483 11.3466 58.8036 11.4347C58.7636 11.5137 58.8635 11.6635 59.053 11.9477C59.4526 12.572 59.4289 12.5739 58.5105 12.6484L58.502 12.6491ZM54.6947 5.98651C54.6947 5.66089 54.3941 5.0848 54.0184 4.70909L53.3171 4.00776L57.0742 4.15804C59.1531 4.25823 61.5076 4.48366 62.3342 4.70909C63.1607 4.90947 64.1125 5.05975 64.4632 5.05975C64.9892 5.05975 64.889 4.95956 63.9121 4.43356C62.2089 3.5569 60.0298 3.1311 55.8469 2.83053C50.8374 2.47986 48.3076 2.95577 48.7835 4.20814C48.8587 4.45861 49.2594 4.58385 49.8606 4.58385C51.0879 4.58385 53.0917 5.31023 53.768 5.98651C54.4943 6.71288 54.6947 6.71288 54.6947 5.98651ZM42.4715 72.3119C44.5004 74.9169 47.1804 77.8725 48.4328 78.8744C49.1842 79.4755 49.8354 79.9764 49.8855 79.9764C49.9106 79.9764 49.3595 78.8243 48.6582 77.4216C45.8279 71.7859 44.1747 66.1753 43.3983 59.7131C43.2229 58.2854 42.9474 57.0831 42.6469 56.5822C42.0457 55.5803 42.0457 54.2778 42.6719 53.0505C42.9975 52.3993 43.1728 51.5727 43.1728 50.671V49.2934L41.9706 50.5458C40.7933 51.7731 39.6662 52.274 39.6662 51.5226C39.6662 50.9716 41.5197 48.3165 42.4966 47.49C43.273 46.8387 43.3732 46.6133 43.6237 44.6596C43.799 43.4824 44.1998 41.4035 44.5254 40.0258C44.8761 38.6482 45.0764 37.471 45.0264 37.4209C44.851 37.2456 38.9649 44.0058 38.1634 46.1625C37.9874 46.636 37.5121 47.4649 37.1364 47.9659L36.4852 48.802C36.4852 48.802 36.6875 49.9729 36.911 51.4444C37.1368 52.931 37.2428 53.953 37.3372 54.8633C37.4634 56.081 37.5689 57.0987 37.9129 58.7613C38.3137 60.8152 38.7144 62.5936 38.8146 62.7188C38.8897 62.8691 39.2154 64.0212 39.541 65.2987C40.2423 68.129 41.4195 70.9343 42.4715 72.3119ZM144.114 96.0068L143.588 95.4808C143.588 95.4808 152.318 84.389 153.882 80.3021C155.076 77.1831 155.779 76.2987 156.727 76.2987C157.257 76.2987 157.69 76.4197 157.89 76.7203C158.241 77.2463 158.579 77.8975 158.128 80.1267C157.376 83.7336 156.224 86.1131 152.768 91.2478C151.966 92.425 150.939 93.7275 150.488 94.1783C149.436 95.1552 147.069 96.1571 145.692 96.3825C144.815 96.5077 144.565 96.4576 144.114 96.0068Z" fill="#00160A"/>
<path d="M213.47 120.51C216.586 112.019 216.115 110.21 215.574 110.033C215.574 110.033 214.384 110.71 213.858 112.137C212.881 114.817 209.538 121.831 208.285 123.083C206.808 124.561 206.808 124.561 205.305 124.561C203.802 124.561 199.468 122.298 198.878 120.067C197.933 116.497 201.999 104.097 202.099 103.396L201.422 102.92C200.972 103.346 195.107 121.129 187.396 116.496C186.513 115.965 184.641 113.465 184.49 112.137C183.656 108.28 187.485 94.7921 188.137 92.0215C188.719 89.5418 191.754 87.2402 195.486 87.2402C201.222 87.2402 200.452 92.2541 203.021 94.0209C204.159 94.8038 206.03 93.3843 206.607 93.2767C209.838 92.6755 211.077 93.3755 213.445 95.2554C215.274 96.7065 216.627 99.5786 218.116 100.59C218.943 101.153 219.82 100.384 220.108 100.24C221.286 99.6482 223.815 100.09 224.516 100.59C225.544 101.039 228.064 103.461 228.462 104.869C230.266 111.253 224.569 125.407 222.419 128.062C218.859 132.457 210.354 129 213.47 120.51Z" fill="white"/>
<path fill-rule="evenodd" clip-rule="evenodd" d="M69.4733 97.2453C76.3363 101.579 83.4129 104.409 91.4782 105.185C97.8402 105.786 106.418 104.96 112.58 102.956C117.765 101.278 124.778 96.629 129.462 92.6966C138.554 85.0822 144.29 73.1885 146.795 60.5646C147.145 58.7862 147.68 54.316 147.655 49.8826C147.655 44.7228 145.384 30.6227 138.504 22.4926C124.313 5.72425 100.987 -1.82939 81.3828 4.62471C74.3109 6.95291 66.7814 11.1711 61.0957 16.6816C53.9321 23.6698 48.6471 33.1878 46.5431 42.9062C44.339 53.1756 47.2062 65.4488 52.1906 75.5179C56.1732 83.533 62.7356 92.9622 69.4733 97.2453ZM136.35 66.9767C131.641 81.1285 119.368 91.6985 103.938 94.9045C101.584 95.3804 99.9559 95.5558 96.6497 95.6059C94.3203 95.681 91.9908 95.656 91.5149 95.6059C80.7195 94.3034 72.504 90.3209 64.9397 82.7566C61.6334 79.4252 60.2307 77.6218 58.1769 74.0651C54.9457 68.4295 53.2175 62.6686 52.6915 55.7304C50.8881 31.9605 67.8953 12.148 91.8406 10.0941C101.233 9.29257 111.653 12.173 119.568 17.7836C122.499 19.8626 127.809 25.1225 129.462 27.5772C130.138 28.554 136.7 38.1472 137.853 43.6576C139.33 50.8211 138.754 59.7881 136.35 66.9767Z" fill="white"/>
<path fill-rule="evenodd" clip-rule="evenodd" d="M147.663 49.8824C147.663 66.6945 139.711 85.0746 129.447 92.9242C124.551 96.6693 118.152 101.204 112.579 102.956C104.413 105.523 91.4775 105.185 91.4775 105.185C91.4775 105.185 104.674 103.421 109.565 101.453C123.588 95.8093 131.243 87.146 135.97 78.8336C145.301 62.4254 147.663 49.474 147.663 49.8824Z" fill="#E7EAEE"/>
<path fill-rule="evenodd" clip-rule="evenodd" d="M91.7655 92.6001C85.0778 91.7485 78.4403 89.369 73.0801 85.8373C69.8991 83.7584 65.09 78.8742 62.7606 75.3926C59.4293 70.3831 57.2251 65.023 56.1481 59.2621C55.3716 55.0792 55.3967 48.642 56.1732 44.9099C56.9747 41.1027 58.0016 38.1972 59.8301 34.5153C61.9591 30.2572 64.2134 27.1263 67.5948 23.7449C73.3557 17.984 80.0433 14.3271 88.0084 12.5737C90.5883 12.0227 99.9309 11.5718 100.257 11.9977C100.332 12.1229 100.833 12.4485 101.359 12.724C101.885 13.0246 103.287 14.0766 104.439 15.1035C106.168 16.6064 106.944 17.5582 108.447 19.9126C109.474 21.5157 110.301 22.9684 110.301 23.0936C110.301 23.3692 111.102 23.8701 111.553 23.8701C112.179 23.8701 112.605 21.9916 112.73 18.6853C112.805 16.8568 112.956 15.354 113.056 15.354C113.406 15.354 117.264 17.483 119.067 18.6853C122.599 21.0398 126.131 24.346 128.735 27.8026C129.913 29.3555 130.088 29.7563 130.088 30.7081C130.088 31.5847 130.338 32.261 131.115 33.6135C133.069 37.02 134.597 41.3031 135.523 46.0371C136.124 49.2181 136.124 55.2294 135.498 58.5607C133.795 67.7281 128.735 76.8453 122.148 82.6313C116.562 87.5155 110.626 90.5212 103.613 91.999C101.208 92.525 93.9947 92.8757 91.7655 92.6001ZM73.8564 75.4678C74.0819 75.2174 74.2321 74.8417 74.157 74.6663C74.1344 74.6137 73.8209 74.4663 73.3618 74.2505L73.3618 74.2504C72.2916 73.7473 70.4311 72.8727 69.6248 71.9612C66.4188 68.3043 65.2415 65.5741 64.5152 59.9385C63.8138 54.4531 64.403 50.7447 65.6673 44.7848C66.2841 41.8774 67.9234 39.4759 68.9433 37.9818C69.6367 36.9659 70.0438 36.3695 69.6485 36.3188C68.6716 36.1685 68.5213 36.2436 67.4944 37.2205C65.2902 39.3245 64.2883 41.0026 63.2363 44.2337C61.6083 49.2933 61.2937 62.9667 64.5152 69.1308C67.7367 75.295 73.2803 76.1191 73.8564 75.4678ZM109.474 54.4279C109.048 58.3189 107.245 63.9459 105.141 66.4006C104.164 67.5527 100.578 69.5315 97.5512 69.1307C94.6277 68.7436 92.3414 67.3774 90.3877 64.4469C88.7095 61.9171 87.8428 58.8464 87.2568 54.979C86.2448 48.3007 90.6632 40.5266 92.5668 38.598C94.4955 36.6192 95.8731 35.9179 97.6264 35.8929C99.3296 35.8929 100.432 36.2686 102.16 37.4959C105.316 39.7001 110.3 46.8669 109.474 54.4279ZM75.7102 33.7138C76.2111 33.1377 76.2863 32.8621 76.136 31.7851C76.0358 30.7832 75.8354 30.3824 75.3094 29.9566C74.3826 29.2052 73.2305 29.2052 72.3788 30.0067C71.7777 30.5828 71.7026 30.7832 71.7777 32.1608C71.8528 33.6386 71.9029 33.7388 72.7295 34.1897C73.8316 34.7908 74.9086 34.6155 75.7102 33.7138ZM91.3398 18.2595C86.8312 21.4906 84.8775 22.8181 82.8487 24.0705C81.2457 25.0724 80.7447 25.0975 80.7447 24.1958C80.7447 23.7199 81.0954 23.1939 81.9971 22.3673L83.2494 21.2151L80.8198 20.8895C78.0897 20.5388 75.4347 19.7874 74.8586 19.2113C73.9068 18.2345 74.7333 18.0091 77.4384 18.51C78.6407 18.7104 80.9701 18.9609 82.6233 19.0109L85.629 19.1362L87.8081 17.5582C92.5921 14.1017 97.5515 12.148 99.931 12.7491C101.409 13.0998 101.233 13.5005 99.5553 13.7009C97.6267 13.9263 96.4494 14.5776 91.3398 18.2595Z" fill="white"/>
<path d="M97.7764 65.6997C97.7764 65.5745 97.9267 65.4492 98.127 65.4492C98.3274 65.4492 98.5779 65.5745 98.653 65.6997C98.7282 65.85 98.5779 65.9502 98.3024 65.9502C98.0018 65.9502 97.7764 65.85 97.7764 65.6997Z" fill="white"/>
<path d="M99.2793 65.4738C99.2793 65.1982 99.9055 64.9478 100.607 64.9478C101.158 64.9728 101.158 64.9728 100.682 65.3235C100.131 65.7493 99.2793 65.8244 99.2793 65.4738Z" fill="white"/>
<path d="M95.3966 64.8229C95.3215 64.6226 95.2213 64.2719 95.1461 64.0715C95.071 63.821 95.1962 63.6958 95.5218 63.6958C95.7974 63.6958 96.0228 63.8461 96.0228 64.0465C96.0228 64.2468 96.0979 64.5725 96.1731 64.7979C96.2733 65.0734 96.1981 65.1986 95.9226 65.1986C95.6972 65.1986 95.4467 65.0233 95.3966 64.8229Z" fill="white"/>
<path d="M96.7248 64.1967C96.5996 63.4453 96.8751 63.1948 97.7768 63.1948C98.0523 63.1948 98.2778 63.4453 98.378 63.8711C98.5783 64.5975 98.2527 64.9481 97.3761 64.9481C96.9753 64.9481 96.8 64.7728 96.7248 64.1967Z" fill="white"/>
<path d="M94.1693 64.322C93.6934 63.9463 93.6934 63.9463 94.2194 63.9463C94.545 63.9463 94.7704 64.0966 94.7704 64.322C94.7704 64.7729 94.7704 64.7729 94.1693 64.322Z" fill="white"/>
<path d="M99.2038 64.2966C98.8782 63.971 99.0285 62.9942 99.4292 62.8439C100.156 62.5684 100.481 62.6936 100.631 63.3448C100.732 63.7206 100.782 64.0462 100.732 64.0712C100.531 64.2966 99.3541 64.4469 99.2038 64.2966Z" fill="white"/>
<path d="M101.433 63.7708C101.358 63.6956 101.283 63.37 101.283 63.0694C101.283 62.6436 101.484 62.4683 102.085 62.3431C102.611 62.2429 102.936 62.293 103.087 62.4933C103.337 62.8941 103.337 63.395 103.112 63.5203C102.661 63.7708 101.609 63.921 101.433 63.7708Z" fill="white"/>
<path d="M93.0176 62.9943C93.0176 62.6937 93.243 62.4433 93.5686 62.3681C94.2199 62.1928 94.1948 62.1677 94.3201 62.819C94.3702 63.1947 94.2449 63.345 93.7189 63.3951C93.1679 63.4702 93.0176 63.37 93.0176 62.9943Z" fill="white"/>
<path d="M94.9207 63.0194C94.57 62.6437 94.7955 61.9424 95.2714 61.9424C95.597 61.9424 95.7723 62.1177 95.7723 62.4183C95.7723 62.8942 95.1962 63.2949 94.9207 63.0194Z" fill="white"/>
<path d="M96.4241 62.268C96.2237 61.7921 96.6495 61.4414 97.476 61.4414C97.8518 61.4414 98.0271 61.5917 98.0271 61.9173C98.0271 62.1928 97.8017 62.4433 97.476 62.5435C96.6495 62.7439 96.5994 62.7439 96.4241 62.268Z" fill="white"/>
<path d="M103.662 62.1929C103.737 62.0676 103.863 61.9424 103.938 61.9424C104.013 61.9424 103.988 62.0676 103.913 62.1929C103.838 62.3431 103.712 62.4433 103.637 62.4433C103.562 62.4433 103.587 62.3431 103.662 62.1929Z" fill="white"/>
<path d="M98.678 61.7672C98.4777 61.2662 98.7281 61.0158 99.5296 60.8905C99.9805 60.8404 100.181 60.9406 100.231 61.2913C100.406 62.1178 98.9786 62.5687 98.678 61.7672Z" fill="white"/>
<path d="M92.6665 61.3412C92.4411 60.5146 92.4912 60.4395 93.1424 60.4395C93.4931 60.4395 93.7686 60.5396 93.7686 60.6649C93.7686 60.7901 93.8437 61.0656 93.9189 61.266C93.994 61.5165 93.8437 61.6668 93.4179 61.7419C92.942 61.8421 92.7667 61.7419 92.6665 61.3412Z" fill="white"/>
<path d="M101.032 61.0658C101.032 60.6149 101.208 60.4145 101.683 60.2893C102.385 60.114 102.786 60.4646 102.786 61.2662C102.786 61.5918 102.585 61.692 101.909 61.692C101.132 61.692 101.032 61.6168 101.032 61.0658Z" fill="white"/>
<path d="M91.9152 61.0657C91.84 60.8653 91.8901 60.6899 92.0154 60.6899C92.1657 60.6899 92.2658 60.8653 92.2658 61.0657C92.2658 61.2661 92.2158 61.4414 92.1657 61.4414C92.1156 61.4414 92.0154 61.2661 91.9152 61.0657Z" fill="white"/>
<path d="M94.4452 61.2659C94.0945 60.9403 94.2949 60.239 94.7457 60.1137C95.0213 60.0386 95.2968 60.0636 95.3719 60.1388C95.6725 60.4143 95.4972 61.1407 95.1215 61.291C94.6456 61.4663 94.6456 61.4663 94.4452 61.2659Z" fill="white"/>
<path d="M103.387 61.0904C103.111 60.3641 103.412 59.813 104.113 59.7379C104.639 59.6627 104.789 59.7629 104.789 60.1637C104.789 60.9903 104.514 61.4411 104.013 61.4411C103.737 61.4411 103.462 61.2908 103.387 61.0904Z" fill="white"/>
<path d="M96.1986 60.7649C95.8981 60.4894 95.9983 59.9884 96.4241 59.8381C96.9 59.6628 97.9019 60.1637 97.6264 60.4393C97.2757 60.7398 96.374 60.9653 96.1986 60.7649Z" fill="white"/>
<path d="M98.3777 60.1388C98.1523 59.7881 98.9538 59.187 99.605 59.187C99.9056 59.187 100.031 59.3373 99.9807 59.6128C99.8805 60.1138 98.6031 60.5145 98.3777 60.1388Z" fill="white"/>
<path d="M91.5146 59.9635C91.5146 59.8382 91.4394 59.5627 91.3643 59.3373C91.2891 59.1119 91.3142 58.9365 91.4645 58.9365C91.7901 58.9365 92.0405 59.8883 91.74 60.0887C91.6147 60.1639 91.5146 60.1138 91.5146 59.9635Z" fill="white"/>
<path d="M92.1908 59.3873C92.0405 58.8363 92.3411 58.4355 92.9171 58.4355C93.2428 58.4355 93.5684 59.4124 93.368 59.738C93.0925 60.1638 92.316 59.9133 92.1908 59.3873Z" fill="white"/>
<path d="M93.9444 59.5126C93.5687 59.1369 93.7941 58.2352 94.2951 58.11C94.6708 58.0098 94.8712 58.1351 95.0715 58.5859C95.2218 58.9115 95.297 59.2371 95.2469 59.2872C94.9964 59.5126 94.0947 59.688 93.9444 59.5126Z" fill="white"/>
<path d="M100.706 59.5126C100.381 59.1869 100.531 58.9866 101.282 58.711C101.909 58.5106 102.084 58.5357 102.209 58.8363C102.435 59.4374 101.182 60.0135 100.706 59.5126Z" fill="white"/>
<path d="M102.911 58.9365C102.661 58.5357 103.011 58.1851 103.663 58.1851C104.439 58.1851 104.665 58.8363 103.963 59.0367C103.212 59.2371 103.087 59.212 102.911 58.9365Z" fill="white"/>
<path d="M105.04 58.3356C105.04 57.9599 105.491 57.5591 105.691 57.7595C105.867 57.9348 105.516 58.6863 105.265 58.6863C105.14 58.6863 105.04 58.536 105.04 58.3356Z" fill="white"/>
<path d="M91.1893 58.0097C91.0891 57.9345 91.014 57.6089 91.039 57.3334C91.039 56.8575 91.0641 56.8575 91.2895 57.4085C91.54 58.0097 91.4899 58.3102 91.1893 58.0097Z" fill="white"/>
<path d="M91.6647 57.6339C91.4393 56.7573 91.4643 56.6821 92.1156 56.6821C92.8419 56.6821 93.2928 57.6089 92.7418 57.9596C92.1657 58.3102 91.84 58.21 91.6647 57.6339Z" fill="white"/>
<path d="M100.281 58.1353C100.281 58.0602 100.406 57.6594 100.557 57.2086C100.907 56.2067 101.684 56.1566 101.859 57.1334C101.934 57.5091 101.959 57.8347 101.934 57.8598C101.809 58.0101 100.281 58.2355 100.281 58.1353Z" fill="white"/>
<path d="M93.4429 57.509C93.3427 57.4338 93.2676 57.1333 93.2676 56.8577C93.2676 56.457 93.3427 56.4319 93.6433 56.6824C93.8437 56.8577 94.019 57.1583 94.019 57.3336C94.019 57.7094 93.7184 57.8095 93.4429 57.509Z" fill="white"/>
<path d="M102.46 57.008C102.31 56.2316 102.636 55.8809 103.412 55.9811C103.788 56.0312 103.913 56.2566 103.913 56.8077C103.913 57.4338 103.813 57.5841 103.262 57.6342C102.711 57.7094 102.586 57.5841 102.46 57.008Z" fill="white"/>
<path d="M104.914 57.1083C104.589 56.1064 104.689 55.8058 105.365 55.7307C105.966 55.6555 106.042 55.7307 106.042 56.3819C106.042 56.933 105.891 57.1584 105.516 57.2586C105.24 57.3337 104.965 57.2586 104.914 57.1083Z" fill="white"/>
<path d="M90.8135 55.6803C90.8135 55.2044 90.8636 55.004 90.9387 55.2545C90.9888 55.4799 90.9888 55.8807 90.9387 56.1311C90.8636 56.3566 90.8135 56.1562 90.8135 55.6803Z" fill="white"/>
<path d="M91.4392 56.0062C91.1135 55.7056 91.2638 54.7287 91.6646 54.5785C92.2407 54.353 92.5162 54.6285 92.5162 55.4551C92.5162 55.9811 92.3909 56.1815 92.0653 56.1815C91.8149 56.1815 91.5143 56.1063 91.4392 56.0062Z" fill="white"/>
<path d="M92.9416 55.3297C92.8414 54.954 92.7913 54.5532 92.8915 54.4781C93.142 54.2276 93.2923 54.6284 93.2171 55.3547L93.142 56.056L92.9416 55.3297Z" fill="white"/>
<path d="M101.032 55.1546C101.032 54.8791 101.157 54.7288 101.283 54.8039C101.433 54.8791 101.533 55.1296 101.533 55.3299C101.533 55.5303 101.433 55.6806 101.283 55.6806C101.157 55.6806 101.032 55.4552 101.032 55.1546Z" fill="white"/>
<path d="M102.159 55.4799C101.809 55.1042 102.084 54.4279 102.66 54.2776C103.387 54.1023 103.412 54.1023 103.637 54.8287C103.787 55.2795 103.687 55.3797 103.036 55.4799C102.635 55.5551 102.234 55.53 102.159 55.4799Z" fill="white"/>
<path d="M104.463 55.0042C104.188 54.7538 104.263 53.9272 104.539 53.9272C104.689 53.9272 104.789 53.827 104.789 53.6767C104.789 53.5515 104.639 53.4263 104.438 53.4263C104.013 53.4263 103.662 52.1989 104.013 51.8483C104.463 51.3974 104.964 51.8733 105.265 53.1006C105.44 53.7519 105.616 54.5033 105.691 54.7538C105.791 55.0794 105.691 55.1796 105.215 55.1796C104.889 55.1796 104.539 55.1044 104.463 55.0042Z" fill="white"/>
<path d="M105.817 53.6764C105.641 52.925 105.19 51.4222 104.865 50.3201C104.364 48.717 104.314 48.3163 104.589 48.141C104.765 48.0157 104.99 47.9155 105.065 47.9155C105.341 47.9155 106.343 53.0502 106.242 54.0521L106.167 55.054L105.817 53.6764Z" fill="white"/>
<path d="M90.5625 53.5514C90.5625 53.1507 90.6126 53.0004 90.6877 53.2509C90.7378 53.4763 90.7378 53.827 90.6877 54.0023C90.6126 54.1526 90.5625 53.9773 90.5625 53.5514Z" fill="white"/>
<path d="M91.0638 53.5013C91.164 52.6246 91.8904 52.4243 92.0908 53.2258C92.2661 53.877 92.3162 53.8019 91.5648 54.0523C91.0388 54.2026 90.9887 54.1525 91.0638 53.5013Z" fill="white"/>
<path d="M101.634 53.276C101.434 52.5496 101.86 52.1238 102.661 52.224C103.262 52.2991 103.488 53.3762 102.987 53.7018C102.361 54.1026 101.784 53.9272 101.634 53.276Z" fill="white"/>
<path d="M92.5166 53.0756C92.5166 52.6497 92.6418 52.4243 92.9174 52.4243C93.1678 52.4243 93.268 52.5996 93.2179 52.9754C93.0927 53.7769 92.5166 53.852 92.5166 53.0756Z" fill="white"/>
<path d="M90.2871 52.0237C90.2871 51.7482 90.3623 51.6731 90.4374 51.8735C90.5126 52.0488 90.4875 52.2742 90.4124 52.3494C90.3372 52.4496 90.2621 52.2993 90.2871 52.0237Z" fill="white"/>
<path d="M90.7627 51.9484C90.7627 51.5727 90.913 51.4224 91.2887 51.4224C91.6393 51.4224 91.7646 51.5476 91.7145 51.8482C91.5893 52.4994 90.7627 52.5746 90.7627 51.9484Z" fill="white"/>
<path d="M92.1405 51.7228C91.9652 51.272 91.9652 51.272 92.7166 51.0716C93.1675 50.9213 93.2677 50.9964 93.2677 51.3722C93.2677 51.9733 92.366 52.2739 92.1405 51.7228Z" fill="white"/>
<path d="M101.208 51.3722C101.033 50.746 101.358 50.4204 102.235 50.4204C102.661 50.4204 102.786 50.5707 102.786 51.0466C102.786 51.4223 102.636 51.6728 102.435 51.6728C102.235 51.6728 101.909 51.7479 101.709 51.8231C101.483 51.8982 101.308 51.7479 101.208 51.3722Z" fill="white"/>
<path d="M103.386 50.7961C103.186 50.2951 103.486 49.9194 104.063 49.9194C104.413 49.9194 104.538 50.0948 104.538 50.5456C104.538 50.9965 104.413 51.1718 104.038 51.1718C103.762 51.1718 103.461 50.9965 103.386 50.7961Z" fill="white"/>
<path d="M90.5127 50.4457C90.5127 49.9197 91.0888 49.3186 91.3392 49.5941C91.4394 49.6693 91.5146 50.0199 91.5146 50.3455C91.5146 50.7463 91.3643 50.9216 91.0136 50.9216C90.688 50.9216 90.5127 50.7463 90.5127 50.4457Z" fill="white"/>
<path d="M91.8906 50.1452C91.6902 49.519 91.9156 49.2434 92.7672 49.1182C93.5437 49.018 93.7942 49.8446 93.1179 50.3455C92.4667 50.8214 92.0659 50.7463 91.8906 50.1452Z" fill="white"/>
<path d="M100.957 49.9949C100.782 49.8446 100.707 48.9178 100.857 48.9178C100.882 48.9178 101.258 48.8176 101.709 48.6924C102.46 48.467 102.51 48.492 102.485 49.1683C102.46 49.6693 102.31 49.9197 101.934 50.0199C101.258 50.1952 101.158 50.1952 100.957 49.9949Z" fill="white"/>
<path d="M100.03 49.4187C100.03 49.2434 100.105 49.1682 100.206 49.2434C100.281 49.3436 100.281 49.4938 100.206 49.594C100.105 49.6692 100.03 49.594 100.03 49.4187Z" fill="white"/>
<path d="M102.836 49.018C102.911 48.5922 103.687 47.9661 103.863 48.1664C103.938 48.2416 104.063 48.5421 104.138 48.8678C104.313 49.3687 104.238 49.4188 103.537 49.4188C102.936 49.4188 102.761 49.3186 102.836 49.018Z" fill="white"/>
<path d="M90.7627 48.993C90.7627 48.8678 90.8879 48.6173 91.0132 48.4169C91.2136 48.1163 91.2636 48.1414 91.2636 48.6173C91.2636 48.9179 91.1635 49.1683 91.0132 49.1683C90.8879 49.1683 90.7627 49.0932 90.7627 48.993Z" fill="white"/>
<path d="M91.5146 48.442C91.5146 47.7407 92.0406 47.5152 92.4414 48.0412C92.6919 48.4169 92.6919 48.5422 92.4414 48.7175C91.9154 49.0431 91.5146 48.9429 91.5146 48.442Z" fill="white"/>
<path d="M99.1284 48.1161C98.6776 47.6151 98.6776 47.5901 99.1034 47.7404C99.3539 47.8406 99.6795 47.9157 99.8047 47.9157C99.93 47.9157 100.03 48.091 100.03 48.2914C100.03 48.8174 99.6795 48.7673 99.1284 48.1161Z" fill="white"/>
<path d="M93.7434 48.0912C92.6663 47.2646 92.5161 45.4111 93.518 45.4111C94.1942 45.4111 94.8204 46.4631 94.7202 47.44C94.6451 48.3417 94.3445 48.5421 93.7434 48.0912Z" fill="white"/>
<path d="M100.607 48.2414C100.707 48.1663 100.858 48.1663 100.958 48.2414C101.033 48.3416 100.958 48.4167 100.782 48.4167C100.607 48.4167 100.532 48.3416 100.607 48.2414Z" fill="white"/>
<path d="M104.389 47.2647C104.464 47.0393 104.539 46.8139 104.539 46.7638C104.539 46.7137 104.665 46.6636 104.79 46.6636C104.94 46.6636 105.04 46.889 105.04 47.1645C105.04 47.4651 104.865 47.6655 104.64 47.6655C104.364 47.6655 104.289 47.5402 104.389 47.2647Z" fill="white"/>
<path d="M91.2637 47.1895C91.2637 46.6134 91.7897 45.6616 92.0902 45.6616C92.6162 45.6616 92.2405 47.2647 91.6895 47.3648C91.4641 47.4149 91.2637 47.3398 91.2637 47.1895Z" fill="white"/>
<path d="M96.8999 46.914L96.1484 46.7386L96.8247 46.5633C97.526 46.3629 98.027 46.5132 98.027 46.939C98.027 47.1895 98.0019 47.1895 96.8999 46.914Z" fill="white"/>
<path d="M96.0225 45.7116C96.0225 44.6846 96.5986 44.5344 97.1246 45.4361C97.4752 46.0372 97.5003 46.1625 97.1747 46.1625C96.9743 46.1625 96.6487 46.2376 96.4232 46.3127C96.1227 46.438 96.0225 46.2877 96.0225 45.7116Z" fill="white"/>
<path d="M100.381 46.062C99.2537 45.5611 98.5273 44.2336 98.5273 42.6556C98.5273 41.5285 98.6275 41.2529 99.3038 40.6268C99.7296 40.226 100.155 39.9004 100.281 39.9004C100.832 39.9004 102.861 41.829 103.537 43.0313L104.313 44.4089L103.487 45.2856C102.535 46.2875 101.483 46.563 100.381 46.062Z" fill="white"/>
<path d="M95.1466 45.4111C95.0715 45.2859 95.1216 45.1606 95.2468 45.1606C95.3971 45.1606 95.5223 45.2859 95.5223 45.4111C95.5223 45.5614 95.4722 45.6616 95.4221 45.6616C95.347 45.6616 95.2218 45.5614 95.1466 45.4111Z" fill="white"/>
<path d="M91.8653 45.0103C91.9405 44.7849 92.0156 44.5595 92.0156 44.5094C92.0156 44.4593 92.241 44.4092 92.5166 44.4092C93.1427 44.4092 93.1678 44.8099 92.5416 45.1606C91.8653 45.5113 91.69 45.4862 91.8653 45.0103Z" fill="white"/>
<path d="M93.8438 44.7098C93.2677 44.6347 93.0924 44.3091 93.4681 44.0836C93.5683 44.0085 94.0191 43.8833 94.47 43.7831C95.1462 43.6328 95.2715 43.6829 95.2715 44.1087C95.2715 44.6347 94.7455 44.8601 93.8438 44.7098Z" fill="white"/>
<path d="M95.7725 43.8581C95.7725 43.5576 95.7975 43.3822 95.8476 43.4323C95.8727 43.4824 96.073 43.7329 96.2484 43.9834C96.5489 44.334 96.5239 44.4092 96.1732 44.4092C95.9227 44.4092 95.7725 44.2088 95.7725 43.8581Z" fill="white"/>
<path d="M92.2656 43.683C92.2656 43.5327 92.3909 43.3574 92.5161 43.2823C92.6664 43.2071 92.7666 43.3073 92.7666 43.5077C92.7666 43.7331 92.6664 43.9085 92.5161 43.9085C92.3909 43.9085 92.2656 43.8083 92.2656 43.683Z" fill="white"/>
<path d="M93.1925 43.307C92.9921 42.8061 94.7704 42.255 95.071 42.7309C95.2964 43.1317 95.071 43.307 94.1192 43.5074C93.5431 43.6326 93.2926 43.5825 93.1925 43.307Z" fill="white"/>
<path d="M95.5469 42.5057C95.5469 42.2302 95.622 42.155 95.6972 42.3554C95.7723 42.5307 95.7473 42.7562 95.6721 42.8313C95.597 42.9315 95.5219 42.7812 95.5469 42.5057Z" fill="white"/>
<path d="M93.4181 42.1051C93.7187 41.554 94.5953 40.6523 94.8208 40.6523C95.0712 40.6523 95.0963 41.8296 94.8458 41.9799C94.7206 42.0299 94.3198 42.1552 93.9441 42.2554C93.3931 42.3806 93.2678 42.3556 93.4181 42.1051Z" fill="white"/>
<path d="M95.4224 41.5288C95.1468 40.7773 95.2721 40.4517 95.8732 40.3515C96.4994 40.2263 96.4994 40.2263 96.0986 41.0028C95.5977 42.0047 95.6227 42.0047 95.4224 41.5288Z" fill="white"/>
<path d="M95.2715 40.0257C95.2715 39.9756 95.7724 39.6249 96.3986 39.2743C97.15 38.8234 97.676 38.6731 98.0517 38.7733C98.5026 38.9236 98.3774 39.0238 97.2753 39.5498C96.048 40.1008 95.2715 40.3012 95.2715 40.0257Z" fill="white"/>
<path d="M109.173 17.834C108.497 16.8572 107.069 15.2792 106.042 14.3274C105.015 13.3756 104.339 12.5991 104.539 12.5991C105.09 12.5991 109.298 13.7513 110.35 14.2022C111.227 14.5779 111.252 14.628 111.026 15.4044C110.901 15.8553 110.801 16.9824 110.801 17.9092C110.801 18.861 110.726 19.6124 110.626 19.6124C110.5 19.6124 109.874 18.8109 109.173 17.834Z" fill="white"/>
<path d="M58.2016 93.7022C57.1746 93.1762 56.9492 92.8756 55.6467 90.2958C53.7682 86.6388 53.7181 85.7872 55.4965 87.8662C56.1978 88.6927 57.8259 90.3959 59.1033 91.6483C61.2824 93.7523 61.3826 93.9026 60.6562 93.8024C60.1302 93.7273 59.9298 93.7774 60.0551 93.9777C60.3556 94.4286 59.4038 94.3034 58.2016 93.7022Z" fill="white"/>
<path fill-rule="evenodd" clip-rule="evenodd" d="M100.178 139.336C99.9697 138.843 100.201 138.274 100.695 138.066L101.235 137.837C106.482 135.592 109.493 134.244 111.539 132.102C113.586 129.961 113.83 126.816 114.215 124.902C114.32 124.377 115.51 125.299 116.035 125.405C116.56 125.51 116.9 126.021 116.795 126.547C116.333 128.848 115.088 131.041 113.084 133.124C111.087 135.199 107.22 137.424 101.448 139.854C100.954 140.062 100.385 139.83 100.178 139.336Z" fill="#00160A"/>
<path fill-rule="evenodd" clip-rule="evenodd" d="M123.904 39.3974C124.364 39.1234 124.96 39.2744 125.234 39.7347C127.977 44.3439 129.447 49.6127 129.447 55.0944C129.447 71.7016 115.984 85.1644 99.3773 85.1644C94.9644 85.1644 90.6842 84.2126 86.7648 82.3992C86.2786 82.1743 84.442 80.3831 86.2918 81.1116C88.1416 81.84 95.2987 83.4752 99.4288 83.4752C114.965 83.4752 125.955 70.6302 125.955 55.0944C125.955 49.9644 123.904 45.411 123.567 40.7271C123.528 40.1841 123.444 39.6714 123.904 39.3974Z" fill="#00160A"/>
<path fill-rule="evenodd" clip-rule="evenodd" d="M27.838 112.812C28.1808 112.4 28.7925 111.568 29.2041 111.911C30.8928 113.318 32.6947 114.947 34.6223 115.262C36.6281 115.589 39.0077 115.589 41.7579 115.256C42.2897 115.192 42.7731 115.571 42.8375 116.102C42.9018 116.634 42.5229 117.118 41.9911 117.182C39.0704 117.536 36.5111 117.536 34.3098 117.176C32.0304 116.804 29.9105 115.8 27.9625 114.178C27.5509 113.835 27.4951 113.223 27.838 112.812Z" fill="#00160A"/>
<path d="M48.433 78.8743C47.1806 77.8724 44.5005 74.9168 42.4717 72.3119C41.4197 70.9342 40.2425 68.1289 39.5411 65.2986C39.2155 64.0212 38.8899 62.869 38.8148 62.7187C38.7146 62.5935 38.3138 60.8151 37.9131 58.7612C37.3119 55.8557 37.4391 54.9197 36.9112 51.4443C36.6876 49.9728 36.4854 48.8019 36.4854 48.8019L37.1366 47.9658C37.5123 47.4648 37.9876 46.6359 38.1635 46.1624C38.965 44.0057 44.8512 37.2455 45.0265 37.4208C45.0766 37.4709 44.8762 38.6482 44.5256 40.0258C44.1999 41.4034 43.7992 43.4823 43.6239 44.6595C43.3734 46.6132 43.2732 46.8386 42.4967 47.4899C41.5199 48.3164 39.6664 50.9715 39.6664 51.5225C39.6664 52.2739 40.7935 51.773 41.9707 50.5457L43.173 49.2933V50.6709C43.173 51.5726 42.9977 52.3992 42.6721 53.0504C42.0459 54.2777 42.0459 55.5802 42.647 56.5821C42.9476 57.083 43.2231 58.2853 43.3984 59.713C44.1749 66.1752 45.828 71.7859 48.6584 77.4215C49.3597 78.8242 49.9107 79.9764 49.8857 79.9764C49.8356 79.9764 49.1844 79.4754 48.433 78.8743Z" fill="white"/>
</svg>
