<svg width="260" height="190" viewBox="0 0 260 190" fill="none" xmlns="http://www.w3.org/2000/svg">
<path fill-rule="evenodd" clip-rule="evenodd" d="M180.429 2.13371C208.29 -4.09009 234.102 3.29414 247.976 24.3858C261.849 45.4774 258.22 78.9456 255.214 93.7187C252.209 108.492 244.586 122.023 235.124 133.77C217.549 155.589 193.8 172.285 167.25 181.298C140.7 190.311 111.873 192.159 84.205 187.6C68.684 185.042 20.1332 172.512 9.65286 134.698C-0.827471 96.8838 -7.46023 64.5648 15.2351 51.4365C37.9304 38.3083 53.6506 48.1823 64.886 53.038C117.376 75.7232 152.567 8.35752 180.429 2.13371Z" fill="#FFA436"/>
<path fill-rule="evenodd" clip-rule="evenodd" d="M219.42 37.404C223.885 37.0592 228.697 37.2822 232.335 39.8926C235.973 42.503 237.626 48.2351 234.638 51.5707C238.016 50.2503 241.985 52.4898 243.677 55.6974C245.369 58.9049 245.281 62.7479 244.772 66.3384C243.511 75.2303 239.886 83.7761 234.369 90.8625C234.115 91.6095 233.862 92.3566 233.608 93.1036C240.13 94.7848 265.594 104.674 258.714 129.054C251.833 153.433 221.785 162.712 218.709 165.63C213.348 170.716 205.166 171.063 197.78 170.829C179.62 170.253 161.516 167.945 143.792 163.947C142.285 163.607 140.377 163.4 139.508 164.677C133.221 173.921 120.074 174.747 108.924 173.943C94.6011 172.909 80.3609 170.737 66.3816 167.453C58.4522 165.591 50.032 162.997 45.0922 156.521C39.3335 148.971 39.9985 138.503 40.933 129.054C37.1479 131.158 30.8702 132.298 22.0997 132.473C16.9359 131.42 13.7149 129.548 12.4366 126.857C6.59104 114.554 4.58648 98.6997 11.8658 86.5726C12.7402 85.1159 13.7492 83.6803 15.173 82.7533C16.6826 81.7704 18.5229 81.4473 20.3172 81.2884C27.3944 80.6616 34.6557 82.3135 40.7651 85.9403C40.7106 66.0835 40.656 46.2268 40.6015 26.37C40.5983 25.2329 40.6142 24.0263 41.2204 23.0642C42.0973 21.6728 43.8935 21.2415 45.5103 20.9397C60.2174 18.1942 75.0914 16.3425 90.0228 15.3984C94.9016 15.0899 101.578 16.4477 101.6 21.3361C101.686 40.0569 101.771 58.7777 101.856 77.4985C101.876 81.9543 102.162 81.5816 104.25 80.2905C102.938 80.4265 103.23 78.2007 104.225 77.3337C107.937 74.0973 113.347 73.9782 118.272 74.0286C129.288 74.1414 140.304 74.2541 151.32 74.3669C161.994 74.4761 174.794 75.8296 179.627 85.3474C179.486 82.5188 182.05 79.8494 184.882 79.8754C187.971 79.9038 190.554 77.2245 191.455 74.2704C192.357 71.3162 191.959 68.1421 191.553 65.0802C186.573 60.2581 185.27 52.061 188.508 45.9318C191.746 39.8026 199.252 36.26 206.042 37.6563C210.428 38.5582 214.956 37.7488 219.42 37.404ZM91.5946 129.234C91.4481 133.176 91.2929 137.17 90.1329 140.94L91.5946 129.234ZM87.0306 80.8622C88.0559 81.1622 89.3244 82.0714 88.7862 82.9942C93.2402 83.4392 91.9102 83.233 92.1106 77.9843C92.3139 72.6584 92.3309 66.7694 88.8441 62.7384C85.7588 59.1714 80.727 58.0558 76.028 57.6546C70.5432 57.1864 64.9996 57.4114 59.5707 58.3226C56.9219 58.7672 54.0527 59.5332 52.5156 61.7357C51.6553 62.9684 51.3388 64.4908 51.086 65.9726C50.0919 71.8014 49.7814 77.7464 50.163 83.6471C61.5821 78.3342 74.9429 77.3249 87.0306 80.8622ZM186.132 119.993C186.411 119.711 186.834 119.643 187.227 119.588C188.796 119.373 190.366 119.157 191.935 118.941C188.333 117.314 186.151 113.451 185.498 109.553C184.846 105.655 185.483 101.671 186.126 97.7716C183.823 100.335 183.989 104.203 184.29 107.637C184.951 115.151 185.853 120.275 186.132 119.993ZM156.503 157.008C156.812 156.004 157.862 155.465 158.631 154.75C160.016 153.463 160.531 151.517 160.982 149.682C162.543 143.338 164.114 136.917 164.094 130.385C164.09 129.001 164.02 127.579 164.478 126.273C164.936 124.967 166.084 123.786 167.468 123.779C168.928 123.772 169.276 121.748 169.146 120.294C168.696 115.282 168.246 110.27 167.796 105.258C167.653 103.658 167.506 102.042 167.02 100.51C165.224 94.8459 158.303 91.4211 152.711 93.4292C152.026 93.6751 151.843 94.5399 151.765 95.2631C150.904 103.28 150.044 111.297 149.183 119.313C149.03 120.738 150.869 121.646 152.258 121.294C153.646 120.941 154.706 119.856 155.906 119.075C157.107 118.293 158.799 117.843 159.902 118.758C161.148 119.792 162.992 118.643 164.074 117.439C165.156 116.235 166.566 114.783 168.105 115.286C166.299 117.013 164.494 118.74 162.688 120.467C162.09 121.04 161.562 122.184 162.318 122.522C164.393 121.786 166.268 120.497 167.698 118.823C168.359 118.802 168.39 119.84 168.021 120.389C166.631 122.458 163.36 122.918 162.517 125.264C160.551 130.739 154.419 134.375 148.672 133.475C147.493 133.29 146.906 134.841 146.764 136.026C146.198 140.75 145.632 145.474 145.067 150.198C144.936 151.285 144.815 152.434 145.262 153.433C146.009 155.1 148.006 155.73 149.776 156.179C152.116 156.772 154.483 157.368 156.875 157.626C157.882 157.735 157.878 157.367 156.503 157.008ZM63.2742 148.346C66.6179 149.466 70.1569 149.846 73.6634 150.218C75.1504 150.376 76.734 150.518 78.068 149.842C79.6382 149.046 80.4749 147.323 81.1503 145.697C84.9165 136.632 87.0668 126.899 87.4698 117.091C87.5271 115.697 85.7428 115.082 84.3511 114.988C73.2407 114.243 62.6154 119.127 52.5532 123.896C52.071 124.125 51.5548 124.385 51.3166 124.863C51.1389 125.219 51.1482 125.636 51.1614 126.034C51.3417 131.452 51.569 137.064 53.9923 141.914C54.6467 143.224 55.4792 144.484 56.6578 145.353C57.3718 145.879 58.189 146.245 58.9992 146.605C60.4053 147.231 61.8146 147.857 63.2742 148.346ZM135.148 128.293C136.629 120.329 137.672 112.283 138.273 104.204C138.478 101.441 138.628 98.631 138.031 95.9249C137.433 93.2187 135.992 90.5881 133.636 89.1296C132.184 88.2309 130.484 87.8275 128.803 87.5277C125.735 86.9804 122.614 86.7321 119.498 86.7874C116.749 86.8362 113.863 87.1714 111.618 88.7601C110.876 89.2854 110.202 89.9731 109.931 90.8411C109.66 91.7091 109.888 92.7755 110.641 93.2854C112.544 94.5742 113.32 96.9854 113.676 99.2559C114.033 101.526 114.119 103.904 115.153 105.956C115.687 107.015 116.452 107.938 117.254 108.81C121.605 113.54 127.279 117.04 133.459 118.803C134.545 119.113 135.928 119.784 135.698 120.89C139.116 123.046 135.091 128.598 135.148 128.293ZM125.729 151.783C126.987 151.019 127.84 149.746 128.591 148.48C131.778 143.106 133.868 137.085 134.695 130.893C123.232 130.841 111.837 126.516 103.227 118.949C102.932 120.132 102.989 121.369 103.029 122.588C103.28 130.193 102.829 137.821 101.683 145.344C101.409 147.137 102.481 148.931 103.954 149.99C105.426 151.049 107.241 151.504 109.022 151.847C113.037 152.62 117.141 152.937 121.227 152.79C122.781 152.734 124.4 152.591 125.729 151.783ZM198.065 86.1813C197.396 84.571 196.895 82.7555 195.509 81.6983C194.123 80.6411 191.512 81.1584 191.431 82.8998C192.803 82.6472 193.851 84.3408 193.618 85.7161C193.384 87.0913 192.384 88.1848 191.59 89.3316C190.492 90.916 189.742 92.7097 188.999 94.4885C187.232 98.7205 186.544 103.398 187.018 107.959C187.297 110.645 188.033 113.404 189.849 115.402C191.665 117.4 194.778 118.399 197.171 117.148C199.226 116.074 200.251 113.706 200.722 111.436C201.194 109.165 201.278 106.788 202.168 104.647C203.811 100.697 207.862 98.3103 211.869 96.8121C205.845 95.9937 200.395 91.7964 198.065 86.1813ZM181.407 90.4544C181.674 91.4899 182.045 92.4987 182.512 93.4611C182.792 92.1049 183.242 90.7839 183.848 89.5386C183.235 89.4686 182.618 89.4352 182.002 89.4389C181.852 89.4398 181.694 89.4453 181.567 89.5255C181.282 89.7061 181.322 90.1279 181.407 90.4544ZM108.796 89.3885C108.417 89.6938 108.194 90.3508 108.594 90.6276C109.208 90.0137 109.821 89.3997 110.434 88.7858C110.307 88.6287 110.123 88.519 109.924 88.4825C109.681 88.9043 109.175 89.0833 108.796 89.3885Z" fill="white"/>
<path d="M214.986 84.9898C216.296 84.9898 217.358 83.9278 217.358 82.6178C217.358 81.3078 216.296 80.2458 214.986 80.2458C213.676 80.2458 212.614 81.3078 212.614 82.6178C212.614 83.9278 213.676 84.9898 214.986 84.9898Z" fill="#FFB61D"/>
<path d="M201.401 82.6179C202.116 82.6179 202.695 82.0386 202.695 81.3241C202.695 80.6095 202.116 80.0303 201.401 80.0303C200.687 80.0303 200.107 80.6095 200.107 81.3241C200.107 82.0386 200.687 82.6179 201.401 82.6179Z" fill="#FFB61D"/>
<path fill-rule="evenodd" clip-rule="evenodd" d="M78.89 48.581C82.7713 48.6056 86.6527 48.6302 90.534 48.6549C90.7157 48.656 90.9109 48.6614 91.0574 48.7689C91.3569 48.9887 91.2374 49.5035 90.9291 49.7106C90.6208 49.9178 90.2212 49.909 89.85 49.8961C86.4343 49.7776 83.0084 49.955 79.6233 50.4257C79.1084 50.4973 78.5653 50.5725 78.0838 50.3768C77.6023 50.1811 77.234 49.6046 77.4556 49.1344C77.6872 48.6432 78.347 48.5775 78.89 48.581ZM65.9107 48.1998C66.1566 48.445 66.0388 48.8951 65.7656 49.1094C65.4923 49.3237 65.1263 49.3666 64.7808 49.4016C61.3399 49.75 57.8989 50.0984 54.4579 50.4468C54.051 50.488 53.6303 50.5279 53.2409 50.4026C52.8515 50.2773 52.4993 49.9407 52.4901 49.5317C52.4806 49.1099 52.8389 48.7516 53.2388 48.617C53.6387 48.4824 54.0732 48.5201 54.4938 48.5532C58.0196 48.8306 61.5795 48.6706 65.0661 48.0781C65.3582 48.0285 65.7009 47.9907 65.9107 48.1998ZM65.4287 41.5947C65.6858 41.8022 65.5943 42.2469 65.3363 42.4533C65.0783 42.6597 64.7272 42.6939 64.3979 42.7199L53.3474 43.5918C52.9337 43.6244 52.5051 43.6552 52.1149 43.514C51.7247 43.3728 51.3824 43.0093 51.4048 42.595C51.4275 42.1752 51.8152 41.8496 52.2237 41.7505C52.6323 41.6513 53.06 41.7253 53.4759 41.7868C57.2264 42.3411 61.0402 41.8357 64.8159 41.4924C65.0276 41.4732 65.2632 41.4612 65.4287 41.5947ZM80.8617 39.4053C83.1675 39.6999 85.5051 39.7447 87.8205 39.5387C88.7409 39.4568 89.8537 39.4184 90.3766 40.1803C89.7558 40.6821 88.9028 40.7533 88.1061 40.8035C85.4658 40.9699 82.8254 41.1364 80.1851 41.3028C79.5828 41.3407 78.8321 41.2951 78.584 40.745C78.3614 40.2513 78.7532 39.6576 79.2565 39.4576C79.7598 39.2577 80.3245 39.3367 80.8617 39.4053ZM60.942 36.5824C60.9448 36.9812 60.4451 37.1533 60.0505 37.2111L54.2475 38.0616C53.8333 38.1224 53.4053 38.1824 53.0009 38.0744C52.5964 37.9664 52.2183 37.6446 52.1804 37.2277C52.1341 36.7173 52.6133 36.2866 53.1136 36.1754C53.6139 36.0642 54.1322 36.1805 54.6405 36.246C56.3933 36.4718 58.1616 36.0866 59.9278 36.0259C60.36 36.0111 60.9389 36.1499 60.942 36.5824ZM88.9423 35.1933C89.3913 35.2435 89.852 35.5114 89.972 35.947C89.1747 36.55 88.1207 36.6598 87.1249 36.748C85.4203 36.8991 83.7157 37.0502 82.0111 37.2013C81.4106 37.2545 80.8102 37.3077 80.2097 37.361C79.7706 37.3999 79.3139 37.4366 78.9016 37.2807C78.4892 37.1249 78.1369 36.7158 78.1983 36.2793C78.2951 35.5914 79.1979 35.4129 79.8923 35.4278C82.469 35.4832 85.0781 35.872 87.6027 35.3533C88.0452 35.2624 88.4933 35.1431 88.9423 35.1933ZM91.2056 28.6866C78.5753 30.3897 65.6256 29.5078 53.1689 32.2021C52.4301 32.3619 51.3991 32.3698 51.208 31.6384C51.2252 30.7767 52.3397 30.4657 53.1994 30.4044C65.3172 29.5402 77.4351 28.676 89.5529 27.8118C90.2639 27.7611 91.2616 27.9761 91.2056 28.6866Z" fill="#E7EAEE"/>
<path fill-rule="evenodd" clip-rule="evenodd" d="M46.776 159.611C46.908 161.139 44.8016 161.657 43.2679 161.663C35.2967 161.695 27.3335 163.173 19.8823 166.005C18.7451 166.437 17.5281 166.981 16.9746 168.065C16.2418 169.499 17.0416 171.335 18.3382 172.291C19.6347 173.247 21.2896 173.538 22.8795 173.797C64.2065 180.527 106.148 183.477 148.01 182.598L148.683 182.583C153.511 182.472 158.439 182.212 162.862 180.3C159.2 177.734 155.538 175.168 151.877 172.601C158.215 171.335 164.755 172.237 171.188 172.872C185.91 174.326 200.773 174.355 215.501 172.961C214.464 174.618 212.184 174.847 210.23 174.889C191.704 175.288 173.155 174.63 154.704 172.919C157.111 174.504 159.519 176.088 161.926 177.672C162.798 178.246 163.764 178.975 163.814 180.018C163.89 181.585 161.964 182.368 160.415 182.623C155.277 183.472 150.05 183.608 144.843 183.684C104.175 184.278 63.457 181.368 23.2872 174.997C21.3271 174.686 19.2962 174.339 17.6618 173.213C16.0275 172.087 14.9133 169.946 15.6 168.084C16.2831 166.232 18.3615 165.363 20.238 164.75C28.8252 161.945 37.7626 160.214 46.776 159.611ZM101.601 21.3366C101.686 40.0574 101.771 58.7782 101.856 77.499C101.877 81.9548 102.754 87.5932 107.063 88.7278C113.018 85.979 119.729 84.8932 126.246 85.6241C129.977 86.0425 133.851 87.1704 136.377 89.948C139.841 93.7582 139.847 99.4962 139.475 104.633C138.721 115.044 137.236 125.402 135.034 135.606C136.783 135.496 138.567 136.198 139.772 137.47C137.916 138.319 135.705 138.355 133.823 137.566C135.116 144.574 129.406 151.488 122.568 153.496C115.731 155.503 108.311 153.61 101.881 150.537C101.278 152.886 104.419 154.266 106.818 154.62C112.906 155.52 118.995 156.42 125.083 157.32C117.564 157.546 110.02 156.93 102.637 155.488C101.278 157.414 104.356 159.358 106.683 159.734C112.854 160.733 119.026 161.732 125.197 162.73C118.226 162.684 111.259 162.219 104.344 161.339C108.742 165.306 114.745 167.439 120.659 167.136C117.323 168.234 113.616 168.168 110.321 166.952C114.443 172.473 122.877 173.496 129.037 170.408C135.196 167.32 139.218 161.003 141.185 154.399C143.152 147.796 143.343 140.818 143.692 133.937C144.335 121.235 145.565 108.55 147.79 96.0278C149.289 87.5955 152.969 77.5409 161.45 76.3495C146.341 75.6532 131.216 75.2777 116.091 75.2232C111.495 75.2067 105.785 75.9585 104.25 80.291C102.938 80.427 103.231 78.2012 104.225 77.3342C107.938 74.0978 113.348 73.9787 118.273 74.0291L151.321 74.3673C161.995 74.4766 174.795 75.8301 179.627 85.3479C179.487 82.5193 182.051 79.8499 184.883 79.8759C187.971 79.9043 190.554 77.225 191.456 74.2709C192.357 71.3167 191.96 68.1426 191.554 65.0807C186.574 60.2585 185.27 52.0615 188.508 45.9323C189.424 44.1987 190.778 40.0651 198.336 37.4045C203.374 35.6307 208.355 35.8257 213.278 37.9895C222.522 36.2019 228.875 36.8364 232.336 39.8931C237.527 44.4781 237.626 48.2356 234.639 51.5712C238.017 50.2508 241.986 52.4903 243.678 55.6979C245.37 58.9054 245.281 62.7484 244.772 66.3389C243.512 75.2308 239.887 83.7766 234.37 90.863L233.609 93.1041C246.955 96.5449 257.752 108.341 260 121.939C255.563 111.938 249.556 101.346 239.207 97.7953C236.872 100.245 234.47 102.801 233.374 106.003C232.277 109.205 232.869 113.25 235.65 115.179C233.904 115.584 232.157 115.988 230.41 116.393C230.992 117.424 231.573 118.456 232.155 119.487C225.555 124.504 224.796 133.994 224.836 142.285C224.876 150.575 224.725 159.925 218.71 165.63C213.349 170.716 205.167 171.064 197.781 170.83C179.621 170.253 161.517 167.945 143.793 163.947C142.286 163.608 140.377 163.401 139.509 164.678C133.222 173.922 120.074 174.748 108.924 173.943C94.6017 172.91 80.3615 170.737 66.3822 167.454C58.4529 165.591 50.0326 162.998 45.0929 156.522C39.3341 148.972 39.9992 138.504 40.9336 129.054C35.256 132.211 28.5252 133.433 22.1004 132.473C28.8729 128.046 32.157 119.575 32.2188 111.484C32.2805 103.393 29.5797 95.5501 26.5749 88.0372C19.9545 91.8772 16.4713 99.9711 16.9892 107.607C17.5072 115.243 21.5586 122.33 26.9944 127.718C20.2936 123.489 15.8596 115.871 15.4926 107.956C15.1256 100.04 18.8356 92.0443 25.1163 87.2136C24.1127 83.7814 18.9348 83.362 16.221 85.6906C13.5072 88.0192 12.6555 91.7989 11.9575 95.3061C10.6676 101.786 9.37242 108.418 10.3096 114.959C11.2468 121.499 14.8598 128.046 20.9141 130.693C18.0847 132.732 14.3162 129.796 12.4372 126.858C4.81723 114.942 4.58711 98.7002 11.8664 86.5731C12.7409 85.1164 13.7498 83.6808 15.1736 82.7538C16.6832 81.7709 18.5236 81.4478 20.3179 81.2889C27.395 80.6621 34.6563 82.314 40.7658 85.9408C40.7112 66.084 40.6566 46.2273 40.6021 26.3705C40.599 25.2334 40.6148 24.0268 41.221 23.0647C42.0979 21.6733 43.8941 21.242 45.5109 20.9402C60.2181 18.1947 75.092 16.343 90.0235 15.3989C94.9022 15.0904 101.579 16.4482 101.601 21.3366ZM91.6288 16.5953C75.7981 17.3404 60.0246 19.2974 44.4917 22.4434C43.8306 22.5773 43.1306 22.7336 42.6501 23.2069C41.9956 23.8517 41.9449 24.8733 41.9363 25.7921C41.7508 45.564 41.8293 65.3384 42.1716 85.1082C44.0725 84.6343 45.9733 84.1603 47.8742 83.6864C47.1311 79.6296 46.3849 75.518 46.7026 71.406C47.0204 67.294 48.5293 63.1122 51.633 60.3962C54.9922 57.4567 59.6799 56.6262 64.1326 56.3135C68.4145 56.0128 72.7223 56.0825 76.9923 56.5214C81.351 56.9695 85.9427 57.9373 89.0873 60.9887C93.6297 65.3965 93.7032 72.5375 93.468 78.8626C92.8438 95.6534 92.2195 112.444 91.5952 129.235C91.4487 133.176 91.2935 137.171 90.1335 140.94C88.9735 144.71 86.6712 148.293 83.1878 150.143C79.7697 151.958 75.6795 151.907 71.834 151.47C68.1625 151.052 64.5263 150.325 60.9771 149.296C58.8212 148.672 56.664 147.92 54.8318 146.623C48.7689 142.333 48.0521 133.771 47.9049 126.345C45.5768 125.925 43.301 127.697 42.3398 129.858C41.3786 132.02 41.4212 134.476 41.4809 136.841C41.6298 142.74 41.8597 148.933 44.8711 154.008C49.5174 161.838 59.2768 164.731 68.1875 166.6C84.0033 169.919 100.061 172.083 116.191 173.07C108.993 169.404 102.61 163.128 101.092 155.194C100.68 153.038 100.635 150.832 100.592 148.638C99.7519 105.736 98.9114 62.8344 98.071 19.9328C98.0178 17.2197 94.3394 16.4677 91.6288 16.5953ZM152.997 87.0317C152.596 88.0082 152.305 89.0917 152.572 90.1129C152.839 91.1342 153.831 92.0258 154.872 91.8524C159.535 91.0759 164.562 93.3727 167.027 97.4065C169.061 100.735 169.343 104.807 169.572 108.701L171.658 144.17C171.881 147.961 171.991 152.132 169.635 155.109C166.578 158.973 160.839 159.102 155.936 158.622C151.891 158.226 147.635 157.554 144.494 154.973C144.606 156.475 144.168 158.012 143.282 159.229C142.188 160.732 143.954 162.71 145.671 163.421C147.769 164.289 150.05 164.591 152.302 164.883C162.614 166.222 172.933 167.513 183.257 168.755C191.203 169.712 199.277 170.638 207.177 169.354C202.179 167.952 197.397 165.784 193.048 162.95C190.878 161.537 188.78 159.921 187.3 157.796C184.884 154.326 184.375 149.918 183.973 145.709C182.778 133.195 181.888 120.651 181.305 108.093C180.875 98.8308 177.905 89.6988 172.804 81.9555C171.892 80.5709 170.776 79.1341 169.164 78.7486C162.752 77.216 155.498 80.9324 152.997 87.0317ZM123.597 167.186C124.141 167.279 124.699 167.401 125.148 167.722C125.596 168.044 125.909 168.615 125.771 169.149C125.633 169.683 124.928 170.034 124.482 169.709C123.991 169.349 123.337 169.337 122.751 169.171C122.166 169.006 121.552 168.519 121.657 167.92C121.79 167.16 122.836 167.057 123.597 167.186ZM101.017 167.412C101.692 167.552 102.482 168.033 102.343 168.708C102.222 169.304 101.485 169.502 100.882 169.583C100.207 169.673 99.4866 169.756 98.8735 169.46C98.2605 169.163 97.8628 168.325 98.265 167.775C98.5363 167.405 99.0439 167.306 99.5029 167.287C100.01 167.267 100.52 167.309 101.017 167.412ZM141.387 159.908C140.747 160.369 140.307 161.05 139.855 161.698C137.795 164.649 135.184 167.215 132.196 169.223C132.271 169.54 132.746 169.46 133.027 169.297C136.486 167.292 138.955 163.982 141.324 160.762C141.517 160.498 141.677 160.057 141.387 159.908ZM172.316 80.1689C174.162 82.348 176.021 84.5478 177.371 87.064C178.835 89.7919 179.657 92.8148 180.319 95.8389C184.022 112.756 183.034 130.345 185.434 147.496C185.867 150.59 186.44 153.751 188.05 156.429C189.936 159.567 193.067 161.741 196.256 163.539C198.836 164.992 201.528 166.268 204.361 167.129C208.866 168.498 214.278 168.594 217.731 165.394C219.671 163.596 220.69 161.032 221.487 158.511C224.902 147.705 225.278 135.956 222.56 124.955C222.628 131.535 223.483 138.099 223.287 144.676C223.092 151.254 221.741 158.027 217.875 163.351C217.109 164.406 216.221 165.418 215.064 166.018C213.54 166.808 211.728 166.793 210.024 166.584C207.048 166.221 204.138 165.321 201.475 163.942C199.452 162.895 197.581 161.578 195.768 160.2C193.661 158.597 191.592 156.871 190.115 154.673C188.651 152.495 187.836 149.951 187.189 147.408C182.464 128.839 185.842 108.808 180.236 90.486C178.915 86.1679 176.62 81.5348 172.316 80.1689ZM59.6061 161.86C70.5126 163.543 81.4191 165.227 92.3257 166.91C92.0493 167.631 91.0522 167.657 90.2864 167.554C80.959 166.308 71.6315 165.062 62.304 163.816C61.2496 163.675 60.1951 163.535 59.1407 163.394C58.6401 163.327 58.0187 163.146 57.9554 162.645C57.8663 161.939 58.9028 161.751 59.6061 161.86ZM186.127 97.7721C183.823 100.336 183.989 104.204 184.291 107.637C184.951 115.152 185.612 122.667 186.272 130.182C186.303 130.533 186.341 130.904 186.547 131.19C186.884 131.659 187.537 131.74 188.113 131.781C195.954 132.333 203.795 132.886 211.636 133.438C211.05 134.365 209.729 134.379 208.635 134.294C201.253 133.724 193.841 133.54 186.44 133.741C186.312 137.537 186.871 141.355 188.083 144.954C188.608 146.514 190.629 146.846 192.274 146.913C198.546 147.167 204.818 147.421 211.09 147.675C211.378 148.325 210.365 148.73 209.654 148.722C203.207 148.648 196.76 148.574 190.313 148.5C189.43 148.49 189.111 149.741 189.443 150.559C190.313 152.697 193.082 153.157 195.385 153.301L209.799 154.204C210.128 154.224 210.197 154.742 209.956 154.967C209.716 155.193 209.35 155.199 209.02 155.192L192.144 154.834C196.508 160.027 202.628 163.718 209.258 165.153C210.686 165.462 212.201 165.665 213.588 165.207C215.249 164.659 216.474 163.248 217.432 161.786C222.517 154.028 222.179 144.047 221.659 134.786L221.07 124.289C221.276 124.006 221.699 123.908 222.008 124.072C222.127 123.557 221.458 123.252 220.938 123.157C209.467 121.05 197.697 118.939 186.217 120.997C185.85 120.846 185.853 120.275 186.132 119.994C186.411 119.712 186.835 119.643 187.228 119.589C188.797 119.373 190.366 119.157 191.935 118.941C188.334 117.315 186.151 113.451 185.499 109.553C184.847 105.656 185.484 101.671 186.127 97.7721ZM129.749 161.584C130.771 161.774 131.95 162.087 132.349 163.046C131.212 163.822 129.718 163.742 128.346 163.632C127.968 163.602 127.556 163.556 127.29 163.286C126.821 162.808 127.171 161.926 127.775 161.635C128.379 161.345 129.09 161.461 129.749 161.584ZM51.935 154.572C63.6856 158.264 75.8622 160.599 88.1451 161.514C89.0979 161.585 90.3785 162.039 90.1956 162.977C77.2052 161.507 64.2942 159.336 51.5378 156.475C50.7238 156.293 49.6794 155.713 49.9825 154.936C50.2489 154.253 51.2356 154.352 51.935 154.572ZM94.9742 160.271C95.5742 160.27 96.1535 160.475 96.7142 160.688C96.9994 160.797 97.3133 160.937 97.4239 161.221C97.6596 161.828 96.8236 162.261 96.1836 162.377C95.7528 162.455 95.322 162.533 94.8912 162.612C94.5278 162.678 94.1367 162.74 93.8022 162.584C93.2589 162.329 93.1178 161.545 93.4294 161.032C93.741 160.519 94.3742 160.272 94.9742 160.271ZM150.307 158.975C155.505 159.964 160.829 160.02 166.119 160.073C166.529 160.077 166.639 160.721 166.347 161.008C166.054 161.294 165.598 161.307 165.188 161.299C160.249 161.202 155.304 160.681 150.38 161.07C149.844 161.112 149.287 161.162 148.784 160.974C148.28 160.785 147.851 160.276 147.946 159.747C148.029 159.291 148.473 158.971 148.928 158.883C149.384 158.795 149.852 158.889 150.307 158.975ZM162.049 77.4933C156.164 78.3721 151.22 83.61 150.682 89.536C150.179 95.0706 148.652 100.453 147.564 105.903C144.072 123.404 145.131 141.542 142.044 159.12C143.172 157.066 143.476 154.676 143.76 152.351L151.247 91.038C151.446 89.4066 151.649 87.7564 152.236 86.221C153.837 82.0244 157.977 79.3884 162.049 77.4933ZM135.291 156.903C135.612 157.005 135.94 157.139 136.154 157.398C136.368 157.658 136.421 158.078 136.188 158.32C136.011 158.502 135.735 158.535 135.483 158.558C134.655 158.631 133.828 158.704 133.001 158.777C132.555 158.816 132.093 158.854 131.668 158.713C131.242 158.572 130.858 158.204 130.846 157.755C130.825 156.996 131.762 156.615 132.519 156.566C133.453 156.504 134.399 156.62 135.291 156.903ZM152.711 93.4297C152.027 93.6755 151.844 94.5404 151.766 95.2636L149.184 119.314C149.031 120.738 150.87 121.647 152.258 121.294C153.647 120.941 154.707 119.857 155.907 119.075C157.108 118.294 158.8 117.844 159.902 118.758C161.148 119.792 162.992 118.644 164.075 117.44C165.157 116.235 166.566 114.784 168.106 115.286C166.3 117.013 164.495 118.74 162.689 120.467C162.09 121.04 161.562 122.184 162.319 122.522C164.393 121.786 166.269 120.497 167.699 118.823C168.36 118.802 168.391 119.841 168.022 120.39C166.632 122.458 163.36 122.919 162.518 125.264C160.552 130.739 154.42 134.376 148.673 133.476C147.494 133.291 146.906 134.841 146.764 136.026C146.199 140.75 145.633 145.474 145.067 150.198C144.937 151.285 144.816 152.435 145.263 153.434C146.01 155.1 148.007 155.731 149.777 156.179C153.102 157.022 156.482 157.87 159.911 157.749C163.339 157.628 166.884 156.402 169.055 153.746C168.454 152.966 167.115 153.967 166.239 153.515C165.382 153.073 165.837 151.602 166.757 151.312C167.676 151.023 168.647 151.483 169.501 151.93C170.038 150.883 170.589 149.763 170.479 148.592C170.369 147.421 169.294 146.263 168.148 146.526C167.394 146.699 167.087 145.393 167.695 144.915C168.302 144.437 169.174 144.592 169.926 144.771C169.968 141.945 170.01 139.119 170.052 136.292C170.06 135.716 170.062 135.11 169.789 134.602C169.515 134.094 168.867 133.739 168.347 133.989C167.639 134.33 167.025 133.124 167.499 132.497C167.973 131.87 168.868 131.789 169.653 131.761C169.714 129.251 169.552 126.736 169.169 124.254C166.211 125.737 165.694 129.648 165.395 132.943C164.823 139.263 163.672 145.53 161.961 151.641C161.578 153.01 161.146 154.409 160.251 155.513C159.355 156.617 157.879 157.367 156.504 157.008C156.812 156.004 157.863 155.465 158.632 154.75C160.017 153.463 160.531 151.518 160.983 149.682C162.544 143.339 164.114 136.918 164.095 130.385L164.092 129.947C164.082 128.703 164.069 127.442 164.479 126.273C164.937 124.967 166.085 123.786 167.469 123.78C168.928 123.773 169.277 121.748 169.146 120.295C168.697 115.283 168.247 110.271 167.797 105.259C167.653 103.658 167.507 102.043 167.021 100.511C165.225 94.8464 158.304 91.4216 152.711 93.4297ZM174.732 154.555C175.418 154.739 176.084 155.444 175.799 156.095C175.527 156.716 174.672 156.751 173.997 156.687C173.666 156.655 173.315 156.616 173.056 156.407C172.604 156.041 172.668 155.266 173.092 154.867C173.515 154.468 174.171 154.404 174.732 154.555ZM92.3044 153.86C92.7556 153.958 93.2258 154.09 93.5501 154.418C93.8745 154.747 93.9818 155.332 93.6595 155.663C93.3961 155.933 92.971 155.938 92.5939 155.924C92.0519 155.905 91.5098 155.886 90.9678 155.867C90.6538 155.856 90.3183 155.838 90.0662 155.65C89.5276 155.25 89.7639 154.312 90.3423 153.971C90.9207 153.631 91.6485 153.718 92.3044 153.86ZM50.5366 148.942C53.5712 150.354 56.9052 150.969 60.2023 151.543C66.8766 152.706 73.571 153.754 80.2816 154.685C81.2205 154.815 82.2606 154.999 82.8327 155.755C80.2342 155.933 77.6369 155.5 75.0682 155.069C66.6004 153.647 58.1326 152.225 49.6648 150.803C48.7772 150.654 47.6312 150.161 47.8041 149.278C48.009 148.231 49.5692 148.493 50.5366 148.942ZM103.228 118.949C102.933 120.132 102.989 121.37 103.029 122.588C103.281 130.193 102.83 137.822 101.683 145.345C101.41 147.138 102.481 148.931 103.954 149.99C105.427 151.049 107.241 151.504 109.022 151.847C113.038 152.621 117.141 152.938 121.228 152.79C122.782 152.734 124.4 152.591 125.73 151.784C126.988 151.019 127.841 149.747 128.592 148.48C131.779 143.107 133.869 137.086 134.696 130.894C123.233 130.842 111.838 126.517 103.228 118.949ZM133.209 149.103C133.992 149.361 134.774 149.62 135.557 149.878C135.818 149.964 136.098 150.064 136.253 150.291C136.514 150.675 136.26 151.236 135.855 151.464C135.451 151.692 134.959 151.679 134.495 151.661C133.65 151.627 132.717 151.556 132.127 150.95C131.537 150.344 131.739 149.037 132.583 148.982C132.797 148.968 133.006 149.036 133.209 149.103ZM174.235 149.217C174.7 149.291 175.191 149.377 175.55 149.682C175.909 149.988 176.056 150.594 175.726 150.93C175.592 151.065 175.408 151.135 175.228 151.197C174.535 151.439 173.766 151.631 173.081 151.368C172.396 151.106 171.929 150.2 172.359 149.606C172.755 149.061 173.569 149.11 174.235 149.217ZM52.5539 123.897C52.0716 124.125 51.5555 124.386 51.3172 124.863C51.1395 125.22 51.1488 125.636 51.162 126.034C51.3423 131.452 51.5696 137.065 53.9929 141.915C54.6473 143.224 55.4798 144.485 56.6584 145.353C57.3724 145.88 58.1896 146.245 58.9998 146.606C60.406 147.232 61.8153 147.858 63.2748 148.347C66.6185 149.467 70.1576 149.846 73.6641 150.219C75.151 150.377 76.7346 150.518 78.0686 149.842C79.6388 149.047 80.4755 147.323 81.1509 145.698C84.9172 136.633 87.0674 126.899 87.4704 117.091C87.5277 115.698 85.7435 115.082 84.3517 114.989C73.2414 114.243 62.616 119.127 52.5539 123.897ZM89.1957 116.698C88.9106 117.073 88.8752 117.575 88.847 118.045C88.1822 129.137 85.4216 140.099 80.7539 150.183C85.2009 147.932 88.5145 143.562 89.4806 138.672C89.8128 136.991 89.8808 135.271 89.9478 133.558C90.1592 128.159 90.3706 122.76 90.582 117.361C90.5932 117.076 90.5953 116.763 90.4141 116.543C90.1146 116.18 89.4808 116.323 89.1957 116.698ZM91.0376 143.714C91.6019 143.745 92.1323 143.979 92.6807 144.116C93.172 144.238 93.3202 144.937 93.0461 145.363C92.7719 145.788 92.2431 145.973 91.7418 146.043C91.2186 146.117 90.6558 146.089 90.2058 145.812C89.7559 145.535 89.4639 144.957 89.6436 144.46C89.8358 143.929 90.4733 143.683 91.0376 143.714ZM174.558 142.248C175.086 142.357 175.538 142.684 175.973 143.002C176.209 143.175 176.459 143.369 176.537 143.651C176.635 144.011 176.398 144.399 176.07 144.579C175.743 144.758 175.351 144.771 174.979 144.741C174.45 144.699 173.904 144.568 173.505 144.218C173.106 143.869 172.903 143.255 173.152 142.787C173.404 142.311 174.031 142.139 174.558 142.248ZM49.0374 125.474C48.8931 125.731 48.9222 126.047 48.9555 126.34L49.7395 133.243C50.1649 136.988 50.722 141.025 53.3402 143.738C53.7767 143.531 53.5304 142.874 53.2552 142.477C51.1344 139.417 50.726 135.525 50.382 131.818C50.1804 129.644 49.9788 127.471 49.7771 125.298C49.5744 125.084 49.1817 125.217 49.0374 125.474ZM188.649 139.614C195.842 139.791 203.035 139.969 210.228 140.146C211.329 140.173 212.434 140.201 213.523 140.364C213.296 141.151 212.261 141.299 211.443 141.291C204.229 141.223 196.992 140.777 189.818 141.527C189.204 141.591 188.542 141.654 188.01 141.342C187.478 141.031 187.239 140.176 187.728 139.801C187.982 139.606 188.33 139.606 188.649 139.614ZM168.886 138.2C169.045 138.252 169.207 138.307 169.336 138.412C169.766 138.762 169.606 139.51 169.166 139.848C168.726 140.185 168.134 140.224 167.579 140.238C167.002 140.252 166.33 140.206 166.001 139.732C165.588 139.137 166.079 138.256 166.762 138.014C167.445 137.773 168.198 137.975 168.886 138.2ZM174.146 136.747C174.816 136.819 175.469 137.054 176.032 137.426C176.462 137.71 176.376 138.424 175.985 138.76C175.594 139.096 175.035 139.143 174.519 139.124C173.998 139.105 173.455 139.026 173.033 138.719C172.612 138.412 172.36 137.819 172.586 137.35C172.844 136.813 173.554 136.683 174.146 136.747ZM101.683 120.331C101.291 125.977 101.116 131.637 101.157 137.296C101.159 137.535 101.322 137.875 101.526 137.751C101.959 132.994 102.172 128.217 102.163 123.441C102.161 122.383 102.139 121.286 101.683 120.331ZM93.9936 134.814C94.6107 134.861 95.1552 135.219 95.6582 135.58C95.813 135.691 95.9725 135.81 96.0591 135.979C96.2384 136.331 96.0234 136.784 95.6865 136.989C95.3496 137.195 94.9325 137.211 94.5382 137.193C93.6412 137.151 92.5135 136.663 92.6138 135.77C92.6829 135.155 93.3765 134.767 93.9936 134.814ZM175.64 131.011C176.24 131.258 176.859 131.902 176.548 132.472C176.338 132.858 175.826 132.941 175.387 132.946C174.876 132.951 174.366 132.909 173.863 132.822C173.156 132.698 173.047 131.586 173.596 131.123C174.145 130.661 174.976 130.739 175.64 131.011ZM245.635 119.965C245.882 120.379 245.886 120.889 245.883 121.372C245.862 124.788 245.841 128.204 245.82 131.621C245.818 132.035 245.762 132.538 245.386 132.712C245.06 132.863 244.659 132.651 244.478 132.342C244.297 132.033 244.28 131.657 244.274 131.298C244.222 128.248 244.562 125.126 243.698 122.2C243.441 121.331 243.134 120.245 243.805 119.636C244.33 119.16 245.271 119.357 245.635 119.965ZM157.805 119.569C155.215 121.176 152.491 122.828 149.452 123.047C148.899 123.087 148.65 123.747 148.541 124.291C148.05 126.736 147.779 129.226 147.732 131.72C147.729 131.872 147.731 132.036 147.819 132.16C147.959 132.358 148.245 132.367 148.487 132.354C150.858 132.23 153.262 131.982 155.464 131.094C157.667 130.207 159.67 128.598 160.568 126.4C161.465 124.201 161.034 121.398 159.201 119.888C158.807 119.563 158.239 119.3 157.805 119.569ZM137.98 129.185C138.812 129.403 139.644 129.622 140.476 129.84C140.787 129.922 141.133 130.03 141.281 130.316C141.456 130.651 141.253 131.084 140.936 131.291C140.619 131.499 140.225 131.538 139.848 131.572C139.25 131.625 138.634 131.676 138.06 131.5C137.486 131.323 136.958 130.86 136.892 130.263C136.826 129.666 137.399 129.032 137.98 129.185ZM22.567 83.6603C25.6808 84.9214 28.0246 87.6494 29.4783 90.6781C30.932 93.7069 31.5939 97.0463 32.1708 100.356C33.1256 105.834 33.8859 111.425 33.1897 116.942C32.4936 122.458 30.1875 127.959 25.9124 131.515C29.0265 131.681 32.7448 131.558 34.4354 128.937C35.1941 127.761 36.827 127.241 38.1263 127.761C37.3095 127.054 37.926 125.74 38.5323 124.846C41.0162 121.185 42.7206 116.977 43.3296 112.595C44.5105 104.098 41.5415 95.4864 37.136 88.1253C34.2777 83.3494 27.6105 81.306 22.567 83.6603ZM96.3984 127.676C97.041 127.929 96.8913 128.991 96.2908 129.332C95.6903 129.673 94.9417 129.52 94.2725 129.349C93.9604 129.27 93.6291 129.177 93.4172 128.935C92.9225 128.368 93.4902 127.411 94.2228 127.242C94.9554 127.074 95.6988 127.401 96.3984 127.676ZM119.499 86.7879C116.749 86.8367 113.863 87.1718 111.619 88.7605C110.877 89.2859 110.203 89.9736 109.932 90.8416C109.66 91.7096 109.889 92.776 110.642 93.2859C112.545 94.5747 113.32 96.9859 113.677 99.2564C114.034 101.527 114.119 103.904 115.154 105.957C115.688 107.015 116.453 107.939 117.255 108.811C121.605 113.541 127.28 117.04 133.46 118.804C134.546 119.114 135.928 119.785 135.699 120.891C126.808 119.026 118.701 113.661 113.509 106.207C111.932 111.051 108.82 115.384 104.733 118.427C112.705 125.211 123.022 129.186 133.486 129.504C133.96 129.519 134.496 129.501 134.816 129.151C135.026 128.921 135.091 128.599 135.148 128.293C136.629 120.329 137.673 112.283 138.273 104.205C138.478 101.441 138.629 98.6315 138.032 95.9254C137.434 93.2192 135.993 90.5886 133.636 89.1301C132.184 88.2314 130.484 87.828 128.803 87.5282C125.736 86.9809 122.615 86.7326 119.499 86.7879ZM174.127 125.548C174.848 125.549 175.757 125.759 175.884 126.469C176.01 127.176 175.204 127.703 174.492 127.794C173.97 127.86 173.404 127.797 172.99 127.473C172.576 127.149 172.384 126.513 172.671 126.073C172.966 125.622 173.588 125.548 174.127 125.548ZM227.39 111.346C226.067 116.471 225.295 121.72 224.525 126.958C224.487 127.218 224.465 127.526 224.661 127.702C226.724 125.139 228.616 122.44 230.321 119.627C230.489 119.349 230.654 118.986 230.466 118.722C230.038 118.125 229.611 117.527 229.184 116.93C228.867 116.487 228.54 115.903 228.819 115.435C229.046 115.054 229.553 114.974 229.994 114.933L233.618 114.599C233.579 114.375 233.442 114.181 233.309 113.996C232.339 112.646 231.281 111.226 229.727 110.634C228.866 110.306 227.621 110.454 227.39 111.346ZM59.5714 58.323C56.9225 58.7676 54.0534 59.5337 52.5162 61.7362C51.6559 62.9689 51.3394 64.4913 51.0867 65.9731C50.0925 71.8019 49.782 77.7469 50.1636 83.6475C61.5828 78.3347 74.9435 77.3254 87.0312 80.8627C88.0565 81.1627 89.3251 82.0719 88.7868 82.9947C79.7194 79.6408 69.6198 79.1406 60.2654 81.5821C57.2385 82.3722 54.297 83.4586 51.2874 84.312C46.8146 85.5802 42.1952 86.33 37.551 86.5415C46.0093 98.0257 47.1038 114.47 40.2421 126.974C44.5113 126.166 48.5227 124.372 52.4591 122.533C58.3363 119.786 64.1881 116.89 70.4311 115.127C76.6742 113.364 83.4241 112.787 89.6167 114.72C90.3411 114.946 90.7403 113.901 90.7692 113.142L92.1112 77.9848C92.3145 72.6589 92.3315 66.7699 88.8448 62.7389C85.7594 59.1719 80.7277 58.0563 76.0286 57.6551C70.5438 57.1869 65.0002 57.4118 59.5714 58.323ZM141.382 123.577C141.556 123.69 141.735 123.833 141.775 124.036C141.857 124.448 141.356 124.71 140.952 124.825C140.365 124.992 139.76 125.158 139.153 125.094C138.546 125.031 137.929 124.682 137.729 124.105C137.53 123.529 137.931 122.772 138.541 122.76C139.541 122.742 140.545 123.031 141.382 123.577ZM227.515 101.454C225.306 102.693 222.667 103.145 220.171 102.713C220.49 103.604 221.89 103.914 221.897 104.86C221.901 105.435 221.359 105.841 221.05 106.327C220.813 106.701 220.71 107.143 220.616 107.575C219.727 111.646 219.216 115.8 219.093 119.965C219.072 120.683 219.251 121.631 219.964 121.709C221.443 121.871 222.835 122.7 223.682 123.922C224.376 119.555 225.07 115.188 225.764 110.821C225.925 109.808 226.061 108.676 225.467 107.839C224.65 106.688 225.361 105.111 226.077 103.894L227.515 101.454ZM95.9927 120.33C96.7466 120.481 97.6044 121.132 97.3188 121.845C97.1428 122.285 96.6115 122.463 96.1384 122.488C95.6654 122.513 95.1733 122.443 94.7303 122.611C94.209 122.809 93.5953 122.347 93.5317 121.793C93.468 121.239 93.853 120.702 94.3546 120.458C94.8563 120.215 95.4459 120.221 95.9927 120.33ZM174.118 119.656C174.593 119.721 175.094 119.826 175.44 120.159C175.786 120.491 175.881 121.124 175.513 121.432C175.392 121.533 175.238 121.587 175.088 121.638C174.435 121.861 173.736 122.08 173.066 121.914C172.397 121.749 171.814 121.038 172.046 120.388C172.313 119.638 173.33 119.547 174.118 119.656ZM217.384 110.678C216.88 110.799 216.513 111.219 216.182 111.617L214.183 114.01C213.792 114.478 214.48 115.13 215.087 115.181C215.694 115.232 216.404 115.089 216.836 115.518C217.288 115.969 217.102 116.753 216.731 117.273C216.36 117.793 215.835 118.218 215.61 118.815C215.275 119.709 215.83 120.829 216.744 121.104C217.24 121.254 217.937 121.024 217.941 120.505C217.967 117.475 218.144 114.447 218.471 111.434C218.527 110.92 217.887 110.557 217.384 110.678ZM115.965 112.183C116.348 112.437 116.596 112.844 116.851 113.227C119.044 116.51 122.711 118.767 126.631 119.244C127.537 119.354 128.607 119.464 129.062 120.256C128.208 121.102 126.816 120.999 125.645 120.727C121.496 119.761 117.693 117.364 115.034 114.036C114.609 113.505 114.222 112.698 114.695 112.21C115.015 111.88 115.582 111.928 115.965 112.183ZM215.228 97.6739C212.298 98.3938 209.372 99.41 206.997 101.271C204.622 103.133 202.855 105.961 202.874 108.979C202.897 112.805 201.017 116.598 197.957 118.895L203.109 119.502C203.713 119.573 204.389 119.624 204.861 119.242C205.552 118.684 205.375 117.611 205.201 116.74C205.026 115.868 205.065 114.717 205.894 114.397C206.923 113.999 207.775 115.427 207.619 116.519C207.463 117.611 206.829 118.663 207.027 119.748C209.468 120.094 211.915 120.386 214.368 120.623C213.88 120.223 213.827 119.463 214.074 118.882C214.321 118.301 214.8 117.856 215.266 117.43C215.763 116.976 215.047 116.177 214.378 116.105C213.71 116.033 212.923 116.193 212.452 115.714C211.865 115.117 212.305 114.117 212.805 113.447C213.776 112.146 214.979 110.577 214.354 109.079C212.831 105.426 213.166 101.052 215.228 97.6739ZM102.848 87.6917C102.44 97.6925 102.496 107.712 103.016 117.708C106.836 115.635 109.627 111.987 111.358 108.001C112.415 105.568 113.122 102.888 112.699 100.27C112.384 98.3174 111.46 96.5139 110.386 94.854C108.479 91.9094 105.991 89.2513 102.848 87.6917ZM191.431 82.9003C192.803 82.6477 193.852 84.3413 193.618 85.7165C193.385 87.0918 192.385 88.1853 191.59 89.3321C190.493 90.9165 189.742 92.7102 189 94.489C187.233 98.721 186.545 103.398 187.019 107.96C187.298 110.646 188.034 113.404 189.85 115.402C191.666 117.4 194.778 118.4 197.171 117.149C199.226 116.075 200.252 113.707 200.723 111.436C201.194 109.165 201.278 106.789 202.169 104.647C203.811 100.697 207.862 98.3108 211.87 96.8126C205.846 95.9942 200.395 91.7969 198.065 86.1818C197.397 84.5715 196.896 82.756 195.509 81.6988C194.123 80.6416 191.513 81.1588 191.431 82.9003ZM140.512 115.116C140.936 115.198 141.352 115.321 141.751 115.483C142.411 115.752 143.119 116.493 142.695 117.065C142.463 117.377 142.018 117.415 141.629 117.425C140.92 117.443 140.156 117.445 139.577 117.036C138.998 116.626 138.797 115.636 139.381 115.233C139.702 115.012 140.13 115.043 140.512 115.116ZM172.449 113.428C173.022 113.477 173.593 113.556 174.158 113.666C174.438 113.721 174.739 113.797 174.915 114.021C175.182 114.361 175.014 114.893 174.677 115.163C174.34 115.433 173.892 115.509 173.465 115.576C172.814 115.678 172.119 115.775 171.518 115.503C170.917 115.232 170.506 114.438 170.874 113.89C171.194 113.412 171.875 113.38 172.449 113.428ZM8.49522 110.343C8.00947 110.338 7.84141 110.987 7.85615 111.472C7.89849 112.867 8.18095 114.255 8.68738 115.556C8.82836 115.7 8.99204 115.4 8.97235 115.2L8.49522 110.343ZM101.839 113.936C101.535 114.1 101.42 114.536 101.602 114.829L101.609 114.84L101.603 114.847C101.595 114.856 101.586 114.868 101.577 114.882C101.455 115.066 101.626 115.359 101.846 115.344C101.996 114.89 101.993 114.388 101.839 113.936ZM95.5248 111.961C96.1822 112.106 96.8957 112.652 96.7322 113.305C96.6238 113.738 96.1685 113.991 95.7331 114.088C95.2976 114.185 94.8374 114.179 94.4216 114.34C93.8927 114.546 93.2558 114.119 93.1469 113.562C93.0379 113.005 93.3791 112.424 93.8712 112.142C94.3634 111.86 94.9708 111.838 95.5248 111.961ZM99.3289 19.8428C99.367 49.9484 100.059 80.0531 101.403 110.129L101.545 113.238L101.566 112.238C101.605 109.9 101.57 107.562 101.536 105.224C101.135 77.8202 100.733 50.4166 100.332 23.013C100.315 21.8656 100.225 20.5596 99.3289 19.8428ZM142.389 107.559C142.758 107.669 143.128 107.836 143.367 108.138C143.606 108.44 143.675 108.903 143.438 109.207C143.209 109.501 142.794 109.556 142.423 109.589L140.839 109.73C140.58 109.753 140.302 109.772 140.077 109.642C139.895 109.537 139.775 109.345 139.719 109.142C139.553 108.532 139.965 107.87 140.536 107.599C141.107 107.327 141.784 107.377 142.389 107.559ZM14.8055 83.9924C13.1588 85.6105 12.3022 87.8472 11.5109 90.016C9.30565 96.0593 7.21005 102.474 8.29812 108.814C8.63457 108.876 8.79494 108.418 8.81988 108.077C9.26719 101.96 10.4895 95.9005 12.4484 90.0886C13.1958 87.871 14.0948 85.619 15.7551 83.9698C15.7324 83.5682 15.0925 83.7105 14.8055 83.9924ZM217.254 97.2127C216.967 97.2833 216.781 97.5542 216.631 97.809C215.214 100.214 214.547 103.053 214.745 105.837C214.827 106.987 215.196 108.311 216.27 108.73C217.143 107.892 218.016 107.054 218.888 106.216C219.027 106.083 219.169 105.945 219.245 105.769C219.437 105.328 219.163 104.836 218.912 104.426C217.668 102.402 216.734 99.8369 217.77 97.6991C217.899 97.4329 217.541 97.1421 217.254 97.2127ZM235.391 94.6182C235.251 94.6909 235.144 94.811 235.04 94.9287C232.463 97.8428 229.975 100.835 227.579 103.899C227.079 104.539 226.557 105.261 226.606 106.072C226.65 106.792 227.156 107.42 227.771 107.8C228.386 108.179 229.102 108.352 229.804 108.519C229.992 108.564 230.196 108.607 230.373 108.529C230.536 108.457 230.639 108.297 230.733 108.146C232.199 105.781 233.687 103.369 234.38 100.674C234.527 100.099 235.026 99.698 235.424 99.258C236.206 98.3938 236.665 97.2428 236.691 96.0772C236.7 95.6826 236.654 95.2663 236.425 94.9442C236.197 94.6222 235.741 94.4356 235.391 94.6182ZM172.639 106.153C172.994 106.241 173.385 106.376 173.545 106.705C173.825 107.285 173.167 107.891 172.551 108.081C172.074 108.229 171.542 108.28 171.084 108.08C170.626 107.88 170.279 107.375 170.382 106.886C170.567 106.018 171.778 105.94 172.639 106.153ZM96.1125 104.886C96.2801 105.036 96.4354 105.213 96.499 105.429C96.6269 105.863 96.3236 106.342 95.9076 106.521C95.4915 106.699 95.0057 106.63 94.5865 106.459C94.145 106.279 93.715 105.935 93.6588 105.462C93.5946 104.92 94.0852 104.422 94.6248 104.344C95.1644 104.265 95.7064 104.523 96.1125 104.886ZM143.865 100.126C144.295 100.301 144.34 100.953 144.043 101.311C143.746 101.668 143.251 101.787 142.788 101.826C142.325 101.866 141.845 101.848 141.412 102.018C140.747 102.278 140.024 101.475 140.182 100.778C140.34 100.082 141.089 99.6488 141.802 99.6155C142.516 99.5822 143.203 99.8565 143.865 100.126ZM171.901 99.0785C172.511 99.1084 173.115 99.2687 173.66 99.5455C173.896 99.6656 174.141 99.8317 174.208 100.088C174.347 100.616 173.684 100.979 173.148 101.082C172.672 101.173 172.19 101.228 171.706 101.244C171.109 101.265 170.389 101.15 170.151 100.602C169.966 100.176 170.191 99.654 170.57 99.385C170.948 99.116 171.437 99.0557 171.901 99.0785ZM211.258 60.0882C207.696 60.6629 204.119 61.1392 200.531 61.5165C197.932 61.7897 195.484 63.2642 194.027 65.4338C193.728 65.8796 193.522 66.5909 193.984 66.8642C195.292 65.3555 197.067 64.2578 199.001 63.7618C199.692 63.5845 200.449 63.4878 201.101 63.7782C201.753 64.0686 202.218 64.8682 201.924 65.518C201.471 66.5158 200.026 66.2368 198.932 66.1701C195.89 65.9845 193.26 69.4658 194.269 72.3412C194.977 69.5963 198.896 68.4046 201.092 70.1966C203.289 71.9886 203.02 75.9243 200.671 77.5108C199.895 78.0351 198.898 78.4006 198.544 79.2678C198.24 80.0113 198.532 80.8509 198.824 81.5994C199.281 82.774 199.738 83.9487 200.196 85.1233C201.155 87.586 202.173 90.1386 204.114 91.9324C205.606 93.3119 207.542 94.1325 209.516 94.6138C216.635 96.3488 224.649 93.5875 229.188 87.8358C229.551 87.3749 230.381 87.8122 230.446 88.3957C230.511 88.9793 230.112 89.5041 229.717 89.9387C227.685 92.1757 225.123 93.9286 222.302 95.0127C220.969 95.5251 219.384 96.0794 218.974 97.4479C218.634 98.5812 219.348 99.8336 220.374 100.423C221.4 101.013 222.65 101.063 223.826 100.934C226.171 100.678 228.441 99.7599 230.305 98.3136C230.87 97.8752 231.417 97.3628 231.668 96.6931C231.906 96.0588 231.852 95.3575 231.794 94.6826L231.744 94.1026C231.524 91.5864 231.239 89.0407 230.213 86.7398C229.72 85.6329 229.06 84.5959 228.696 83.4397C228.248 82.014 228.275 80.4844 227.974 79.0205C227.673 77.5567 226.911 76.0362 225.517 75.4966C225.885 74.5613 226.804 73.9728 227.398 73.1624C227.993 72.3521 228.08 70.9365 227.144 70.5705C226.696 70.3955 226.187 70.5463 225.76 70.7679C223.962 71.7018 222.992 73.9869 223.569 75.929C223.946 77.1965 221.944 78.0468 220.865 77.2812C219.787 76.5156 219.522 75.0578 219.309 73.7527C218.485 68.6937 216.831 63.2399 212.51 60.4822C212.133 60.2411 211.7 60.0169 211.258 60.0882ZM95.7349 95.9739C96.3029 96.1582 96.8694 96.6685 96.7512 97.2538C96.6394 97.8072 96.0026 98.0663 95.4461 98.1615C94.6567 98.2966 93.6274 98.1417 93.4055 97.3722C93.1944 96.64 93.9609 95.9385 94.7187 95.8583C95.0602 95.8221 95.4082 95.8679 95.7349 95.9739ZM186.834 85.4366C186.305 85.9385 186.047 86.6551 185.806 87.3439C185.263 88.8979 184.713 90.4972 184.776 92.1422C184.816 93.201 184.201 94.1549 183.763 95.1196C183.325 96.0843 183.087 97.3198 183.774 98.1262C185.416 96.7457 185.81 94.4217 186.171 92.3073C186.603 89.7793 187.189 87.1587 188.824 85.1828C188.252 84.7301 187.364 84.9347 186.834 85.4366ZM143.57 92.482C143.993 92.6179 144.471 92.8895 144.476 93.3335C144.483 93.8734 143.818 94.1217 143.287 94.2189C143.021 94.2676 142.754 94.3163 142.488 94.365C141.81 94.4892 141.082 94.6083 140.452 94.329C139.821 94.0497 139.401 93.1982 139.813 92.6448C140.079 92.2869 140.569 92.1893 141.014 92.1618C141.876 92.1085 142.748 92.2177 143.57 92.482ZM81.8697 84.6842C82.6121 85.0393 83.4427 85.739 83.1677 86.5147C75.5191 84.8471 67.3479 85.6718 60.1868 88.8341C56.9645 90.2571 53.9398 92.1385 50.6049 93.2728C49.464 93.6609 48.2184 93.9587 47.0659 93.6068C45.9133 93.2549 44.9521 92.032 45.2892 90.875C45.6057 89.7889 46.815 89.2728 47.8865 88.9101C53.1675 87.1223 58.5404 85.6061 63.977 84.3695C69.9088 83.0202 76.3818 82.0593 81.8697 84.6842ZM191.694 84.5926C191.147 84.5904 190.688 84.9911 190.329 85.4026C189.458 86.4006 188.839 87.5977 188.378 88.8398C187.806 90.3829 187.468 92.0125 187.378 93.6559C188.96 90.9352 190.651 88.2782 192.446 85.6934C192.757 85.2448 192.24 84.5949 191.694 84.5926ZM182.002 89.4394C181.852 89.4403 181.694 89.4458 181.568 89.526C181.283 89.7066 181.323 90.1284 181.407 90.4549C181.675 91.4904 182.046 92.4992 182.513 93.4616C182.793 92.1054 183.243 90.7844 183.848 89.5391C183.236 89.469 182.619 89.4357 182.002 89.4394ZM62.1502 85.9433C57.6229 87.3348 53.0956 88.7262 48.5683 90.1177C48.0274 90.2839 47.3999 90.5405 47.2847 91.0945C47.6528 91.6315 48.3539 91.8595 49.0043 91.828C49.6546 91.7965 50.272 91.5468 50.8747 91.3006C55.4677 89.4239 60.0607 87.5473 64.6537 85.6707C63.8334 85.4414 62.9643 85.6931 62.1502 85.9433ZM109.925 88.483C109.682 88.9048 109.176 89.0838 108.796 89.389C108.417 89.6943 108.195 90.3513 108.595 90.6281C109.208 90.0142 109.822 89.4002 110.435 88.7863C110.308 88.6291 110.124 88.5195 109.925 88.483ZM157.693 88.1563C160.984 88.499 164.304 88.6741 167.601 88.3901C168.453 88.3167 169.473 88.2823 169.98 88.9726C169.341 89.6233 168.336 89.7019 167.425 89.7409C164.004 89.8874 160.582 90.034 157.16 90.1805C156.493 90.2091 155.648 90.1242 155.431 89.4921C155.261 88.9946 155.648 88.4457 156.135 88.2461C156.621 88.0465 157.17 88.1018 157.693 88.1563ZM208.57 84.5607C209.366 85.5292 209.657 86.8918 209.325 88.101C209.243 88.3995 209.124 88.6922 208.933 88.9358C208.432 89.5748 207.508 89.7637 206.719 89.5745C205.929 89.3854 205.253 88.8828 204.651 88.3387C204.03 87.778 203.447 87.139 203.149 86.3572C202.851 85.5755 202.886 84.6244 203.415 83.976C203.85 83.4415 204.554 83.1852 205.242 83.1349C206.493 83.0434 207.773 83.5921 208.57 84.5607ZM97.6335 86.8124C97.9479 87.0664 97.8952 87.5942 97.6267 87.8964C97.3583 88.1986 96.9488 88.3276 96.5566 88.4253C96.0935 88.5408 95.6064 88.6312 95.1421 88.5208C94.6777 88.4104 94.2422 88.0501 94.1851 87.5763C94.1022 86.8887 94.8218 86.3508 95.5059 86.243C96.2526 86.1252 97.0454 86.3374 97.6335 86.8124ZM204.926 84.7888C204.577 85.2402 204.806 86.0545 205.372 86.1318C206.024 86.221 206.532 86.9068 206.427 87.5572C206.344 88.0678 206.967 88.4945 207.461 88.3412C207.955 88.1879 208.241 87.6342 208.23 87.117C208.219 86.5999 207.972 86.1178 207.692 85.6828C207.384 85.2032 207.007 84.7374 206.486 84.504C205.966 84.2705 205.275 84.3375 204.926 84.7888ZM203.188 38.4296C198.443 39.2986 193.744 41.3708 190.684 45.099C187.624 48.8272 186.566 54.4067 188.958 58.5948C189.803 60.0748 191.094 61.3655 192.717 61.8864C194.339 62.4074 196.302 62.024 197.385 60.7077C198.613 59.2146 201.093 60.6466 202.941 60.0798C205.498 59.2959 208.155 58.841 210.827 58.7299C211.461 58.7036 212.114 58.6996 212.705 58.9289C213.347 59.1778 213.854 59.6766 214.342 60.1624C216.033 61.8475 217.759 63.5813 218.76 65.7486C220.348 69.1856 219.955 73.3764 221.961 76.5874C222.195 74.5738 222.43 72.5603 222.664 70.5467C222.751 69.7996 222.848 69.0237 223.252 68.3891C223.656 67.7545 224.463 67.3092 225.17 67.566C226.417 68.019 227.716 68.5055 228.611 69.4851C229.506 70.4646 229.837 72.0973 228.977 73.1073C228.145 74.0834 229.089 75.4941 229.53 76.6979C230.295 78.7835 229.396 81.1667 229.997 83.3052C230.495 85.0768 231.934 86.3994 233.309 87.6226C233.712 87.9802 234.18 88.3614 234.716 88.3126C235.165 88.2717 235.526 87.9373 235.832 87.607C237.659 85.6375 238.911 83.1399 239.395 80.4971C239.59 79.4308 239.219 77.8773 238.145 78.0229C238.439 75.4646 240.79 73.7218 242.172 71.5484C243.661 69.2043 244.013 66.3219 244.081 63.5454C244.15 60.7549 243.877 57.7222 242.017 55.6404C239.783 53.1395 235.442 52.9526 233.001 55.2523C232.393 55.8256 231.591 56.5833 230.865 56.1684C231.434 55.1479 232.003 54.1274 232.572 53.1068C233.499 51.4437 234.445 49.7201 234.634 47.8255C235.006 44.0871 232.16 40.5474 228.641 39.2328C225.121 37.9181 221.148 38.4633 217.618 39.749C216.733 40.0713 215.688 40.7635 215.928 41.674C216.067 42.2013 216.601 42.5197 216.875 42.9912C217.046 43.2851 217.029 43.3793 216.836 43.6171C216.719 43.7608 216.509 44.1767 216.32 44.0956C214.319 41.7777 212.154 39.3509 209.22 38.4744C207.275 37.8933 205.184 38.0639 203.188 38.4296ZM180.457 86.2342C180.207 86.086 179.728 85.9887 179.775 86.2757C179.91 86.9778 180.542 87.5 181.224 87.7146C181.906 87.9292 182.639 87.893 183.353 87.8547C183.632 87.8397 183.93 87.8181 184.152 87.6484C184.338 87.5061 184.44 87.2824 184.535 87.0681C184.698 86.7007 184.86 86.3334 185.023 85.9661C183.696 85.1026 181.819 87.0413 180.457 86.2342ZM142.139 83.836C142.697 83.8778 143.251 83.9752 143.79 84.1262C144.257 84.257 144.793 84.5304 144.816 85.0148C144.847 85.6525 144.017 85.9129 143.381 85.9679C142.734 86.0238 142.087 86.0797 141.439 86.1357C140.968 86.1764 140.434 86.1973 140.087 85.875C139.622 85.4422 139.81 84.6027 140.314 84.2156C140.818 83.8286 141.505 83.7885 142.139 83.836ZM157.276 83.6974C160.372 84.1117 163.51 84.2116 166.626 83.995C166.991 83.9696 167.389 83.9482 167.69 84.1572C167.991 84.3662 168.066 84.9049 167.738 85.0671C167.638 85.1163 167.523 85.1214 167.412 85.1256C163.645 85.2678 159.878 85.4099 156.111 85.5521C155.768 85.565 155.39 85.5669 155.126 85.347C154.653 84.9533 154.924 84.1113 155.466 83.8205C156.009 83.5298 156.666 83.6157 157.276 83.6974ZM187.334 80.6292C186.131 80.6939 184.908 80.8054 183.797 81.2718C182.687 81.7382 181.691 82.6157 181.359 83.7736C181.292 84.0086 181.267 84.2979 181.447 84.4629C181.587 84.5914 181.799 84.5933 181.989 84.5859C183.987 84.5073 185.976 84.2098 187.909 83.7004C188.87 83.4471 190.029 82.8361 189.899 81.8506C189.831 81.3318 189.383 80.9263 188.889 80.7545C188.394 80.5827 187.857 80.601 187.334 80.6292ZM48.5897 80.4842C48.398 81.4991 48.3511 82.5412 48.4509 83.5692C48.6994 83.8375 49.0264 83.3138 49.0054 82.9487C48.9574 82.1153 48.8177 81.2872 48.5897 80.4842ZM112.918 79.2428C119.843 79.5558 126.768 79.8688 133.693 80.1817C134.339 80.211 135.198 80.4585 135.16 81.1044C134.333 81.6351 133.267 81.5253 132.292 81.4117C126.119 80.6924 119.874 80.593 113.681 81.1155C113.146 81.1606 112.579 81.2043 112.102 80.959C111.624 80.7137 111.317 80.06 111.626 79.6219C111.897 79.2387 112.449 79.2216 112.918 79.2428ZM96.1264 78.5166C96.4311 78.5626 96.7483 78.6422 96.9697 78.8566C97.4758 79.3469 97.1633 80.2788 96.5547 80.6341C95.9462 80.9893 95.1926 80.9394 94.4906 80.8788C93.7202 80.8122 93.4703 79.6566 93.9763 79.072C94.4823 78.4873 95.3619 78.4011 96.1264 78.5166ZM120.482 75.9551C131.768 76.5406 143.054 77.1261 154.34 77.7116C154.944 77.743 155.744 77.9755 155.713 78.58C153.852 78.9152 151.924 78.8779 150.077 78.4709L151.717 79.882C150.936 80.3748 150.103 80.8838 149.179 80.9043C148.255 80.9248 147.249 80.2436 147.275 79.3198C147.743 79.1041 148.21 78.8883 148.678 78.6725C139.561 77.8914 130.401 77.6064 121.253 77.8192C120.725 77.8315 120.162 77.8361 119.716 77.5531C119.27 77.2701 119.045 76.5822 119.414 76.2045C119.678 75.9344 120.105 75.9356 120.482 75.9551ZM193.56 77.4644C193.154 77.4866 192.808 77.7567 192.493 78.0146C192.12 78.3204 191.746 78.6261 191.372 78.9318C190.981 79.2521 190.557 79.6344 190.534 80.1396C190.521 80.4138 190.73 80.7393 190.998 80.6776C191.072 80.6603 191.137 80.6152 191.2 80.571C192.09 79.9432 192.98 79.3154 193.87 78.6877C194.052 78.5596 194.245 78.4146 194.304 78.2003C194.412 77.8075 193.967 77.4421 193.56 77.4644ZM207.404 74.176C207.44 75.0915 206.985 75.9494 206.824 76.8512C206.662 77.753 206.97 78.9013 207.862 79.1124C208.125 79.1746 208.201 79.551 208.052 79.7767C207.904 80.0025 207.623 80.0999 207.357 80.1482C206.531 80.2982 205.553 80.0331 205.174 79.2843C204.984 78.9095 204.969 78.4734 204.958 78.0533C204.929 76.9284 204.9 75.8036 204.872 74.6788C204.852 73.9098 204.938 72.9627 205.642 72.6523C206.48 72.2826 207.369 73.2605 207.404 74.176ZM195.128 79.2788C194.965 79.3546 194.854 79.5304 194.856 79.71L194.816 79.7206C194.906 79.921 195.231 79.9523 195.358 79.7728C195.485 79.5932 195.347 79.2973 195.128 79.2788ZM193.571 73.3997C193.198 73.4092 192.78 73.4771 192.559 73.7783C192.323 74.1004 192.419 74.5731 192.661 74.8904C192.904 75.2078 193.261 75.412 193.594 75.6319C194.999 76.5582 196.12 77.9075 196.773 79.4575C197.218 78.8726 197.662 78.2877 198.106 77.7028C198.438 77.266 198.788 76.7663 198.718 76.2222C198.668 75.8292 198.404 75.4986 198.123 75.2183C196.936 74.0304 195.25 73.357 193.571 73.3997ZM50.4336 64.3503C49.9116 64.393 49.6411 64.9791 49.477 65.4764C49.227 66.2342 48.977 66.9919 48.727 67.7497C48.4538 68.5776 48.1787 69.4147 48.1038 70.2832C48.0541 70.8588 48.0934 71.438 48.1328 72.0143C48.2556 73.8144 48.3784 75.6144 48.5012 77.4145C48.5249 77.7625 48.7897 78.243 49.0775 78.0459C48.958 73.448 49.4147 68.8355 50.4336 64.3503ZM198.064 70.9691C197.59 71.1496 197.087 71.4668 197.018 71.9692C196.949 72.4715 197.689 72.9377 197.976 72.5197C198.342 71.9862 199.257 72.2647 199.56 72.8366C199.862 73.4085 199.774 74.0964 199.769 74.7434C199.765 75.3904 199.913 76.1328 200.477 76.4497C200.572 75.5842 200.666 74.7186 200.761 73.8531C200.878 72.7845 200.871 71.4593 199.932 70.9364C199.37 70.6233 198.665 70.7401 198.064 70.9691ZM213.278 70.4801C214.047 70.5144 214.868 70.7824 215.288 71.4272C215.709 72.0719 215.486 73.1279 214.745 73.3356C213.687 73.6319 212.698 72.1413 211.664 72.5114C211.017 72.7429 210.618 73.6523 209.944 73.5219C209.526 73.441 209.294 72.94 209.377 72.5223C209.46 72.1046 209.772 71.7702 210.106 71.5057C210.996 70.8008 212.144 70.4296 213.278 70.4801ZM95.5169 69.7188C96.2582 69.8386 96.9839 70.6502 96.5932 71.2914C96.4835 71.4715 96.3051 71.5994 96.1186 71.6976C95.6563 71.9409 95.086 72.0236 94.6086 71.8114C94.1313 71.5992 93.7955 71.0485 93.9247 70.5423C94.0871 69.9063 94.8689 69.6141 95.5169 69.7188ZM214.483 65.4984C214.994 65.9834 215.391 66.8969 214.82 67.3085C214.216 67.7439 213.492 67.0089 212.914 66.5395C212.268 66.0149 211.393 65.7834 210.572 65.9199C210.047 66.0072 209.553 66.2353 209.026 66.3118C208.499 66.3883 207.886 66.2674 207.599 65.8195C207.298 65.3496 207.489 64.6845 207.904 64.3108C208.319 63.9371 208.895 63.8004 209.451 63.7495C211.274 63.5827 213.156 64.237 214.483 65.4984ZM95.4913 64.0117C95.9465 64.2786 96.1917 64.9079 95.9384 65.3708C95.6037 65.9824 94.7261 65.974 94.0495 65.8059C93.8058 65.7454 93.5495 65.6655 93.3881 65.4731C93.0031 65.0137 93.4348 64.2933 93.9723 64.0281C94.4455 63.7947 95.0361 63.7448 95.4913 64.0117Z" fill="#00160A"/>
<path fill-rule="evenodd" clip-rule="evenodd" d="M34.3941 125.522C34.4563 125.694 34.5138 125.888 34.4427 126.057C34.3151 126.361 33.8996 126.372 33.5702 126.37C31.2538 126.351 29.1002 128.341 28.9357 130.651C28.9184 130.896 28.5829 131.007 28.3658 130.894C28.1488 130.781 28.037 130.537 27.962 130.304C27.5388 128.991 27.8115 127.519 28.4861 126.316C29.1608 125.113 30.2047 124.153 31.3388 123.367C31.7788 123.062 32.3266 122.77 32.8243 122.966C33.1532 123.096 33.3681 123.41 33.5471 123.715C33.8845 124.289 34.1684 124.895 34.3941 125.522ZM33.0486 125.259C32.8448 124.635 32.0173 124.411 31.3992 124.632C30.7811 124.852 30.3305 125.377 29.9098 125.881C29.5111 126.358 29.0939 126.88 29.0469 127.5C30.1128 126.371 31.5292 125.578 33.0486 125.259Z" fill="#FFB61D"/>
</svg>
