<svg width="252" height="205" viewBox="0 0 252 205" fill="none" xmlns="http://www.w3.org/2000/svg">
<path fill-rule="evenodd" clip-rule="evenodd" d="M72.2933 176.326C27.463 158.202 27.7393 180.954 7.75781 147.404C-12.2237 113.853 6.24612 64.4219 64.8823 49.1516C123.518 33.8813 204.997 -38.1764 248.494 81.6468C260.717 115.318 237.163 205.003 152.54 204.824C91.9631 204.695 102.592 188.236 72.2933 176.326Z" fill="#00A460"/>
<path fill-rule="evenodd" clip-rule="evenodd" d="M146.199 111.437C145.988 111.271 146.042 110.762 146.105 110.419C146.504 108.245 148.426 106.789 150.121 105.431C151.816 104.072 153.57 102.248 153.394 100.042C153.156 97.0629 154.529 94.2375 155.368 91.3754C156.206 88.5132 156.354 84.9871 154.218 82.9644C153.478 82.2635 152.534 81.824 151.788 81.1292C151.042 80.4344 150.506 79.3068 150.931 78.3675C150.569 78.584 150.208 78.8006 149.847 79.0171C149.746 77.5642 148.095 76.9177 146.854 76.2218C144.724 75.0282 143.166 72.6169 143.337 70.1248C143.508 67.6327 145.681 65.3375 148.102 65.4781C149.141 65.5384 150.476 65.8673 150.993 64.9359C152.9 61.4952 157.846 61.0988 160.093 57.8829C160.582 57.1821 162.944 55.0895 162.711 56.5694C162.192 59.8596 165.074 58.9048 166.211 60.2821C171.166 66.2853 171.548 75.3822 170.654 84.0034C168.742 102.451 157.34 120.202 146.199 111.437Z" fill="white"/>
<path fill-rule="evenodd" clip-rule="evenodd" d="M159.649 61.947C160.803 60.7059 162.485 59.9722 164.179 59.9722C166.98 61.4236 169.749 63.3874 172.488 65.8634C174.206 65.1836 175.417 65.0455 176.119 65.4491C177.174 66.0545 177.82 67.2028 178.126 68.3799C179.106 72.1541 177.021 76.0589 174.455 78.9951C173.336 80.2756 172.089 81.4988 171.404 83.0552C170.719 84.6116 170.749 86.6418 171.997 87.7977C175.115 90.6876 176.155 95.2465 175.981 99.4948C175.807 103.743 174.596 107.872 173.917 112.07C173.165 116.728 173.071 121.493 173.639 126.177C173.815 127.624 174.067 129.104 174.823 130.351C175.578 131.597 176.946 132.57 178.399 132.463C177.884 133.2 176.643 133.251 176.07 132.559C176.635 133.146 177.199 133.734 177.764 134.321C177.081 134.177 176.398 134.034 175.715 133.891C181.426 137.138 187.34 140.028 193.412 142.537C193.057 141.344 191.806 140.695 190.675 140.177C187.514 138.732 184.353 137.286 181.192 135.841C185.941 136.271 190.526 138.334 193.999 141.601C198.182 145.537 204.953 145.317 209.49 148.84C210.463 149.596 211.338 150.56 211.665 151.748C212.123 153.417 211.389 155.242 210.18 156.48C208.971 157.718 207.353 158.466 205.735 159.079C200.9 160.911 195.702 161.775 190.534 161.606C190.096 160.835 190.534 159.809 191.248 159.282C191.961 158.756 192.87 158.595 193.737 158.409C197.424 157.616 200.954 156.101 204.07 153.975C204.77 153.497 205.529 152.64 205.08 151.921C204.913 151.655 204.617 151.502 204.333 151.367C199.44 149.031 193.975 147.908 188.559 148.126C190.158 147.837 191.756 147.548 193.355 147.259C189.129 144.738 184.687 142.58 180.092 140.817C178.664 140.269 176.925 139.798 175.711 140.729C172.747 143.001 169.784 145.274 166.821 147.546C170.642 147.614 174.445 148.554 177.857 150.274C177.077 151.981 175.321 153.199 173.45 153.332C174.336 152.424 175.221 151.516 176.107 150.607C169.799 146.697 160.802 150.784 154.485 146.888C151.667 145.15 149.8 142.018 146.745 140.742C143.831 139.525 140.512 140.267 137.446 141.025C135.436 141.522 133.323 142.074 131.84 143.52C131.881 142.065 133.263 141.013 134.622 140.495C135.981 139.977 137.49 139.737 138.633 138.839C139.794 137.928 140.387 136.488 141.302 135.33C142.217 134.173 143.839 133.26 145.132 133.971C144.733 130.897 147.344 128.391 149.114 125.847C151.13 122.95 152.208 119.411 152.148 115.882C149.902 117.075 148.892 120.153 149.994 122.446C150.483 123.464 149.508 124.749 148.382 124.829C147.255 124.91 146.221 124.081 145.712 123.072C145.203 122.064 145.11 120.903 145.034 119.776C144.926 118.183 144.837 116.557 145.247 115.014C146.024 112.091 148.462 109.917 150.992 108.26C153.522 106.604 156.3 105.248 158.421 103.092C160.76 100.714 162.147 97.423 162.214 94.0871C163.19 98.5322 160.99 61.6436 159.649 61.947ZM149.359 123.112C149.383 122.193 149.097 121.268 148.56 120.523C148.372 121.446 148.684 122.455 149.359 123.112Z" fill="white"/>
<path fill-rule="evenodd" clip-rule="evenodd" d="M117.685 121.662C115.842 122.957 113.935 124.322 112.862 126.299C111.79 128.276 111.839 131.052 113.589 132.47C117.872 135.94 116.502 142.849 119.058 147.724C120.461 150.399 123.161 152.933 122.404 155.856C121.81 158.146 119.347 159.342 117.153 160.243C116.122 160.667 115.032 161.099 113.927 160.955C112.822 160.811 111.739 159.861 111.875 158.759C112.119 156.787 115.583 156.431 115.645 154.445C115.662 153.887 115.376 153.37 115.099 152.886C113.224 149.61 111.349 146.334 109.474 143.058C107.281 147.636 106.401 152.83 106.963 157.872C107.139 159.455 105.955 160.937 104.516 161.628C103.076 162.319 101.427 162.393 99.8306 162.454C98.5225 162.504 97.1302 162.534 96.007 161.864C94.8839 161.194 94.2541 159.543 95.0995 158.547C95.8604 157.651 97.2555 157.772 98.3654 157.378C101.313 156.333 101.439 152.282 101.02 149.193C100.21 143.225 99.4007 137.257 98.5909 131.288C98.1809 128.266 97.7226 125.116 95.9726 122.614C89.9535 114.008 97.8286 100.883 92.1375 92.0581C90.3904 89.3489 88.6332 86.5369 88.0481 83.37C87.4629 80.203 88.3114 76.561 90.9373 74.6836C92.9081 73.2745 93.1447 70.5124 93.4144 68.1106C93.9083 63.7117 95.115 59.3931 96.9737 55.3729C92.7349 52.2923 87.5969 50.4556 82.3594 50.1487C82.5215 51.1026 82.867 52.0253 83.3717 52.8519C80.3569 51.7232 78.0337 48.9291 77.4816 45.7678C76.999 46.885 76.5165 48.0022 76.0339 49.1194C71.8835 40.6627 74.8706 30.6162 77.909 21.7027C78.7936 19.1073 79.6783 16.5119 80.563 13.9165C81.6274 10.7937 83.1494 7.22865 86.3569 6.41404C88.3311 5.91266 90.9919 7.80803 89.9502 9.55241C87.3614 8.90402 88.7653 11.5092 89.7405 10.4068C91.9527 7.90653 93.7565 4.93533 96.4043 2.88544C101.452 -1.02274 108.963 -0.773826 114.444 2.50604C119.924 5.78591 123.515 11.6028 125.292 17.7212C125.549 18.6067 125.767 19.5851 125.386 20.4251C125.005 21.2652 123.758 21.7351 123.127 21.0603C122.249 20.1201 121.03 21.8974 121.087 23.1804C121.383 29.7562 125.578 35.4565 127.53 41.745C129.433 47.8782 129.163 54.4425 128.874 60.8558C128.472 69.7742 127.359 94.4486 126.998 97.8505C126.318 104.26 124.903 110.619 124.989 117.064C125.101 125.344 127.683 133.376 130.405 141.201C131.537 144.457 132.745 147.784 134.999 150.399C137.252 153.013 140.808 154.797 144.175 154.006C141.787 156.394 137.708 156.31 134.743 154.686C131.778 153.062 129.691 150.242 127.795 147.451C126.585 145.67 123.295 149.214 121.866 147.602C123.624 147.234 125.286 146.422 126.654 145.263C123.665 137.396 120.675 129.529 117.685 121.662ZM102.332 28.0877C102.026 27.7782 101.548 27.4714 101.192 27.7219C101.585 28.1178 101.468 28.8822 100.976 29.1442C100.389 28.9304 100.598 28.0643 100.434 27.4643C100.223 26.6923 99.3281 26.3568 98.5461 26.1744C94.5327 25.2386 89.8656 25.0791 87.1988 21.9477C86.9506 21.6562 86.7165 21.3357 86.38 21.1523C85.6921 20.7772 84.7851 21.1246 84.2967 21.7359C83.8083 22.3471 83.6443 23.1489 83.5304 23.9219C82.9533 27.8362 83.2889 31.8811 84.5033 35.6478C84.7225 36.3276 84.9818 37.0184 85.4702 37.541C86.8053 38.9695 89.1139 38.5682 91.0451 38.2404C92.8422 37.9354 94.667 37.7934 96.4898 37.8167C97.3347 37.8275 98.1673 37.6354 98.9902 37.4443C101.165 36.9394 103.339 36.4345 105.514 35.9296C105.541 33.0361 104.37 30.1494 102.332 28.0877Z" fill="white"/>
<path fill-rule="evenodd" clip-rule="evenodd" d="M182.368 197.803L187.542 198.569C188.49 198.709 189.535 198.904 190.111 199.656C189.846 199.888 189.444 199.852 189.093 199.801C187.091 199.514 185.089 199.228 183.087 198.941L185.468 201.677C185.879 202.148 186.321 202.641 186.923 202.829C187.45 202.993 188.206 203.045 188.269 203.585C187.544 203.889 186.682 203.701 186.014 203.29C185.345 202.879 184.83 202.272 184.328 201.675C183.52 200.715 182.712 199.756 181.904 198.796C181.692 198.546 181.478 198.174 181.694 197.927C181.85 197.749 182.131 197.768 182.368 197.803ZM210.079 176.513C210.238 177.203 209.525 177.737 208.938 178.11C204.229 181.097 201.9 186.738 199.854 192.023C199.695 192.431 199.654 193.073 200.077 193.139C200.897 191.595 202.506 190.524 204.213 190.387C202.918 191.29 202.399 193.007 202.318 194.613C202.237 196.22 202.5 197.834 202.353 199.436C201.547 199.357 201.34 198.259 201.35 197.428C201.369 195.783 201.389 194.138 201.408 192.493C198.434 194.325 197.719 198.354 197.3 201.891C197.134 202.143 196.715 202.034 196.569 201.77C196.423 201.506 196.466 201.179 196.517 200.88C197.734 193.68 200.503 186.761 204.566 180.764C200.64 182.868 197.289 186.092 194.987 189.979C194.397 188.88 195.238 187.568 196.07 186.65C199.991 182.325 204.795 178.849 210.079 176.513ZM173.558 172.685C175.631 174.127 177.705 175.568 179.778 177.01C183.067 179.296 186.388 181.611 189.054 184.599C188.87 181.869 189.556 179.087 190.988 176.755C191.157 176.479 191.454 176.17 191.749 176.304C191.958 176.398 192.018 176.661 192.052 176.887C192.639 180.806 193.227 184.725 193.814 188.643C192.126 185.505 191.299 181.909 191.447 178.349C190.42 180.001 189.577 181.907 189.837 183.834C190.472 188.537 197.079 190.819 197.341 195.557C191.582 188.461 185.588 181.206 177.556 176.841C181.296 182.151 185.566 187.089 190.282 191.556C191.613 192.817 193.091 194.298 192.996 196.128C189.859 192.442 184.504 190.809 179.842 192.116C182.521 193.11 185.131 194.288 187.649 195.639C189.127 196.431 190.698 197.439 191.139 199.056C186.888 195.875 181.958 193.605 176.776 192.442C180.699 190.156 185.815 190.073 189.81 192.228C183.775 186.788 178.833 180.267 173.93 173.788C173.686 173.465 173.427 173.069 173.558 172.685ZM148.45 150.997C158.143 152.855 167.672 155.572 176.886 159.104C177.978 159.523 179.1 159.975 179.923 160.805C180.906 161.796 181.335 163.192 181.73 164.529C183.39 170.141 185.049 175.754 186.708 181.366C183.724 175.507 181.59 169.217 180.395 162.753C173.048 165.683 164.859 165.269 156.951 165.038C144.767 164.683 132.566 164.87 120.398 165.599C121.211 165.781 122.024 165.963 122.836 166.145C120.981 166.766 118.976 166.715 117.019 166.646C102.256 166.125 87.5164 164.948 72.8579 163.12C69.733 162.73 66.4481 162.245 63.9657 160.31L57.2506 180.238C56.8675 181.375 55.5985 182.752 54.7779 181.875C53.8146 180.847 52.1483 181.918 51.1963 182.957C47.5789 186.906 43.9615 190.854 40.3441 194.803C42.4637 191.136 45.1427 187.792 48.2603 184.922C44.8112 184.86 41.3661 186.402 39.1175 189.014C39.981 183.79 45.3604 179.74 50.628 180.348C47.1152 180.833 43.8074 182.672 41.5447 185.398C45.3628 184.902 49.0412 183.373 52.0843 181.018C53.1806 180.169 54.8912 180.247 55.9055 181.192C58.0213 174.868 60.137 168.544 62.2527 162.22C62.5592 161.304 62.8153 160.156 62.1193 159.486C74.0257 155.544 86.5359 153.426 99.0781 153.229C89.1086 154.777 79.139 156.325 69.1695 157.872C67.6364 158.11 65.7883 158.623 65.4271 160.129C67.1468 160.565 68.8667 161.001 70.5964 161.396C97.0664 167.443 124.65 163.709 151.801 164.036C161.187 164.149 170.811 164.719 179.727 161.79C166.248 155.544 151.628 151.766 136.807 150.698C140.585 149.663 144.602 150.259 148.45 150.997ZM36.4317 156.832C40.7079 157.853 44.5522 160.142 48.3208 162.399C51.1052 164.066 54.2073 166.233 54.4783 169.43L54.4858 169.541L54.4079 169.453C51.4202 166.091 47.888 163.211 43.9885 160.959C46.6682 163.983 49.3479 167.007 52.0277 170.031C52.7206 170.813 53.4408 171.795 53.6277 172.769C53.6648 172.724 53.7225 172.694 53.7885 172.699L53.768 172.685C53.9643 172.737 54.0662 172.957 53.9636 173.107C53.8585 173.12 53.7424 173.096 53.6644 173.038C53.7009 173.449 53.6311 173.856 53.4131 174.242C52.4785 172.725 51.3031 171.355 49.9439 170.2C51.019 172.52 52.094 174.84 53.1691 177.16C52.0756 176.798 51.1128 176.056 50.4856 175.093C50.3423 175.893 50.6967 176.76 51.3599 177.232C50.2652 177.782 49.0271 178.045 47.8026 177.988C48.2958 178.345 48.7891 178.702 49.2824 179.059L39.0667 179.491C39.3811 178.941 39.8166 178.46 40.3337 178.092C32.3699 177.239 26.5491 170.575 30.1174 172.982C35.9567 176.921 43.4408 178.354 50.33 176.851C46.5167 175.741 42.9332 173.854 39.8653 171.339C42.0403 170.805 44.4505 171.33 46.2079 172.712L46.3347 172.814L41.5853 166.207C40.002 164.004 38.4186 161.802 36.8353 159.599C41.5397 164.489 46.2441 169.379 50.9485 174.268C48.4606 166.956 43.1866 160.621 36.4317 156.832ZM47.0153 178.049L46.9669 178.104C46.8117 177.989 46.6563 178.311 46.7948 178.445C46.9664 178.499 47.166 178.453 47.2962 178.329C47.2026 178.236 47.1089 178.143 47.0153 178.049ZM218.34 156.111C221.946 156.895 225.552 157.678 229.158 158.462C230.263 158.702 231.662 159.346 231.477 160.477C231.401 160.938 231.057 161.301 230.718 161.618C229.488 162.768 228.098 163.742 226.6 164.499L230.361 165.442C231.359 165.692 232.408 165.97 233.139 166.702C233.87 167.434 234.11 168.777 233.36 169.489C234.434 171.351 235.435 173.257 236.359 175.201C236.818 176.166 237.223 177.422 236.512 178.215C235.288 175.438 234.065 172.661 232.841 169.884C231.235 170.87 229.269 171.237 227.421 170.898C227.937 170.189 228.89 170 229.754 169.905C230.618 169.811 231.56 169.724 232.193 169.12C232.826 168.515 232.791 167.191 231.952 166.961C229.598 166.317 227.244 165.673 224.89 165.028C226.647 163.411 228.524 161.928 230.5 160.596C230.603 160.072 229.97 159.744 229.462 159.606C223.941 158.114 218.321 156.995 212.653 156.259C214.354 155.313 216.443 155.699 218.34 156.111ZM35.7793 171.414C36.0207 171.453 36.212 171.645 36.3922 171.821C37.9144 173.315 39.809 174.366 41.8239 174.836C42.8312 175.07 43.9569 175.213 44.6468 176.035C41.2352 176.397 37.6971 174.889 35.4447 172.114C35.3789 172.033 35.3117 171.945 35.2939 171.839C35.2504 171.581 35.5379 171.375 35.7793 171.414ZM42.7409 172.38C44.4702 173.747 46.4967 174.738 48.6395 175.265C46.9305 173.87 44.8945 172.874 42.7409 172.38ZM46.6683 171.36C47.308 172.988 48.656 174.324 50.2927 174.954C49.3009 173.563 48.0694 172.342 46.6683 171.36ZM79.6822 80.2796C77.2859 81.4461 75.0917 83.0232 73.2251 84.9208C69.0275 89.1883 63.6119 92.2538 57.7829 93.6619L72.5402 85.3104C72.3058 83.6891 69.8651 83.93 68.3978 84.6697C65.8537 85.9522 63.376 87.3816 61.0968 89.0881C59.7441 90.1009 58.4639 91.2095 57.2689 92.4029C52.5949 97.0706 49.3057 102.955 46.8261 109.068C43.2629 117.851 41.2561 127.392 42.111 136.827C42.9658 146.262 46.8446 155.581 53.7348 162.112C53.9763 161.368 54.2179 160.625 54.4594 159.882C55.5209 160.41 56.779 160.533 57.9233 160.221C56.5506 159.425 55.1067 158.557 54.3805 157.15C53.6544 155.743 54.0393 153.651 55.5373 153.125C54.0769 151.82 53.0734 150.017 52.7356 148.091C54.3834 147.789 56.0312 147.486 57.679 147.183C56.0631 143.489 56.3863 139.014 58.5163 135.588C58.8504 135.051 59.3893 134.473 60.0045 134.627C60.9869 134.874 61.2743 136.774 62.212 136.392L65.8752 131.211L69.4222 126.193L69.3638 126.28C67.9627 128.401 67.9073 131.343 69.2579 133.503C71.1402 131.518 73.7004 130.181 76.4108 129.77C76.6332 131.001 76.8555 132.233 77.0779 133.465C78.076 132.638 79.1489 131.778 80.4361 131.613C81.7232 131.447 83.2313 132.311 83.2374 133.603C83.2423 134.668 82.3081 135.85 82.9917 136.668C83.9784 136.033 85.0392 135.374 86.2141 135.378C87.389 135.382 88.635 136.367 88.4429 137.522C88.1498 139.283 87.8567 141.044 87.5635 142.806C89.5554 142.156 92.2716 141.766 93.2733 143.599C93.9941 144.919 93.2439 146.567 92.2676 147.711C91.2912 148.856 90.0455 149.862 89.5789 151.29C88.9318 149.96 90.1496 148.53 91.1754 147.462C92.2013 146.394 93.1223 144.612 92.0553 143.585C90.6315 142.215 88.1805 144.44 86.3562 143.674C86.754 141.304 87.1517 138.934 87.5494 136.564C85.485 136.556 83.422 137.156 81.6865 138.27C81.5241 136.397 81.6382 134.501 82.0239 132.661C80.0059 133.084 78.0219 133.668 76.0967 134.404C75.6496 133.216 75.4635 131.931 75.5551 130.665L68.8427 134.576C68.6676 133.913 68.2117 133.329 67.6101 132.997C68.2204 136.523 68.8306 140.049 69.4409 143.575C67.533 140.095 66.6436 136.069 66.9091 132.114C64.8206 133.448 63.3171 135.659 62.8479 138.086C61.5195 137.783 60.3471 136.862 59.7421 135.646C57.3 139.07 56.9803 143.875 58.9477 147.59C57.3539 148.284 55.6636 148.757 53.9404 148.992L57.0036 153.834C56.2037 153.938 55.4414 154.31 54.8684 154.876C55.4491 157.498 57.6264 159.701 60.2495 160.321C59.0207 161.088 57.5537 161.471 56.1051 161.402C57.9054 161.922 59.6008 162.8 61.0621 163.969C58.9865 163.639 56.9767 162.903 55.1809 161.815C56.0801 163.712 57.7184 165.25 59.6729 166.032C58.5067 166.078 57.3292 165.804 56.3048 165.247C57.4208 166.725 57.9846 168.607 57.8642 170.452C57.074 168.904 56.2839 167.356 55.4937 165.808C55.4071 167.342 55.3204 168.876 55.2337 170.411C55.0535 170.195 54.871 169.981 54.6864 169.769L54.5019 169.56L54.5447 169.458C55.2315 167.732 54.7066 165.704 53.6862 164.139C52.6397 162.534 51.1333 161.293 49.7367 159.979C43.7993 154.39 39.64 147.229 35.5657 140.176C34.0328 137.523 32.4999 134.87 30.967 132.216C28.9087 128.653 26.7761 124.606 27.8214 120.63C27.9709 120.061 28.2074 119.477 28.6825 119.129C27.9446 119.964 28.5041 121.294 29.262 122.111C30.0199 122.929 31.0095 123.682 31.1684 124.783C32.876 136.617 40.2329 146.767 47.3631 156.384C38.5583 141.376 39.9904 122.053 47.1164 106.185C50.9931 97.5527 56.8389 89.2725 65.4333 85.2532C67.3472 84.3582 69.3593 83.6926 71.366 83.0291C74.1381 82.1126 76.9102 81.1961 79.6822 80.2796ZM190.494 164.081C190.734 164.138 191.017 164.246 191.061 164.493C191.099 164.702 190.94 164.891 190.789 165.036C190.011 165.782 189.083 166.363 188.079 166.733C187.763 166.849 187.772 167.357 188.023 167.586C188.273 167.815 188.639 167.84 188.975 167.854C201.405 168.362 213.834 168.87 226.264 169.378C226.144 170.02 225.311 170.15 224.671 170.132C212.894 169.796 201.121 169.35 189.352 168.794C188.134 168.736 186.483 168.159 186.72 166.938C186.944 165.778 188.59 165.764 189.477 165.005L184.156 164.25C186.21 163.651 188.413 163.592 190.494 164.081ZM118.334 165.746L118.404 165.795C118.74 166.027 119.244 165.973 119.523 165.674C119.167 165.441 118.659 165.472 118.334 165.746ZM114.443 2.50604C119.924 5.78591 123.514 11.6028 125.292 17.7212C125.549 18.6067 125.767 19.5851 125.386 20.4251C125.015 21.2425 123.824 21.7095 123.179 21.1125L123.127 21.0603C122.249 20.1201 121.029 21.8974 121.087 23.1804C121.383 29.7562 125.578 35.4565 127.53 41.745C129.433 47.8782 129.162 54.4425 128.873 60.8558C128.471 69.7742 128.069 78.6927 127.667 87.6111C127.513 91.0286 127.359 94.4486 126.998 97.8505C126.318 104.26 124.902 110.619 124.989 117.064C125.1 125.344 127.682 133.376 130.404 141.201C131.537 144.457 132.745 147.784 134.999 150.399C137.252 153.013 140.808 154.797 144.175 154.006C141.786 156.394 137.708 156.31 134.743 154.686C131.778 153.062 129.691 150.242 127.795 147.451C126.585 145.67 123.295 149.214 121.866 147.602C123.624 147.234 125.286 146.422 126.654 145.263C123.664 137.396 120.675 129.529 117.685 121.662C115.842 122.957 113.934 124.322 112.862 126.299C111.79 128.276 111.839 131.052 113.589 132.47C117.871 135.94 116.502 142.849 119.058 147.724C120.461 150.399 123.161 152.933 122.403 155.856C121.81 158.146 119.347 159.342 117.152 160.243C116.122 160.667 115.032 161.099 113.927 160.955C112.822 160.811 111.738 159.861 111.875 158.759C112.119 156.787 115.582 156.431 115.644 154.445C115.662 153.887 115.376 153.37 115.099 152.886C113.224 149.61 111.349 146.334 109.474 143.058C107.281 147.636 106.4 152.83 106.962 157.872C107.139 159.455 105.955 160.937 104.515 161.628C103.076 162.319 101.427 162.393 99.8303 162.454C98.5222 162.504 97.1299 162.534 96.0067 161.864C94.8835 161.194 94.2538 159.543 95.0992 158.547C95.8601 157.651 97.2552 157.772 98.365 157.378C101.313 156.333 101.439 152.282 101.02 149.193L98.5906 131.288C98.1805 128.266 97.7223 125.116 95.9723 122.614C89.9532 114.008 97.8283 100.883 92.1372 92.0581C90.3901 89.3489 88.6329 86.5369 88.0478 83.37C87.4626 80.203 88.3111 76.561 90.937 74.6836C92.9077 73.2745 93.1444 70.5124 93.4141 68.1106C93.908 63.7117 95.1147 59.3931 96.9734 55.3729C92.7346 52.2923 87.5966 50.4556 82.3591 50.1487C82.5212 51.1026 82.8667 52.0253 83.3714 52.8519C80.3566 51.7232 78.0334 48.9291 77.4813 45.7678C76.9987 46.885 76.5162 48.0022 76.0336 49.1194C71.8832 40.6627 74.8703 30.6162 77.9087 21.7027C78.7933 19.1073 79.678 16.5119 80.5627 13.9165C81.6271 10.7937 83.1491 7.22865 86.3566 6.41404C88.3308 5.91266 90.9916 7.80803 89.9499 9.55241C87.3611 8.90402 84.6051 10.3062 82.8977 12.3504C81.1902 14.3946 80.3156 16.9846 79.4767 19.5093C76.6623 27.9783 73.8184 37.001 75.9471 45.6664C76.2713 45.0635 76.8891 44.6264 77.5672 44.5202C78.2669 46.4823 79.3415 48.3109 80.7163 49.8792C83.6231 48.8134 86.8305 48.5751 89.8639 49.1995C89.6329 49.4834 89.4019 49.7673 89.1708 50.0512C91.5806 51.6897 94.3716 52.7681 97.2601 53.1767C98.8132 50.5495 100.366 47.9223 101.92 45.2952L102.206 44.8103C103.587 42.4616 104.933 40.0348 105.366 37.3549C100.643 38.5349 95.8091 39.2702 90.9485 39.5478C88.8299 39.6688 86.4732 39.6209 84.9123 38.1885C83.9638 37.3182 83.4715 36.0666 83.1096 34.8336C81.8017 30.3788 81.8211 25.5461 83.1648 21.102C81.2545 20.9882 80.7169 18.159 81.8253 16.6046C82.9338 15.0503 84.862 14.3555 86.469 13.3199C90.5259 10.7055 92.5888 5.83909 96.404 2.88544C101.452 -1.02274 108.963 -0.773826 114.443 2.50604ZM164.179 59.972C168.38 62.1492 172.149 65.1557 175.207 68.7676C175.364 70.7157 175.673 72.6515 176.13 74.5517C176.757 72.7261 177.391 70.7852 176.974 68.9007C176.556 67.0162 174.642 65.3245 172.795 65.8839C173.564 64.9414 175.065 64.8435 176.12 65.4489C177.174 66.0543 177.82 67.2027 178.126 68.3797C179.107 72.1539 177.021 76.0588 174.456 78.9949C173.337 80.2754 172.09 81.4987 171.404 83.0551C170.719 84.6115 170.75 86.6417 171.997 87.7975C175.115 90.6874 176.155 95.2464 175.981 99.4947C175.807 103.743 174.596 107.872 173.918 112.07C173.165 116.728 173.071 121.492 173.639 126.177C173.815 127.624 174.068 129.104 174.823 130.351C175.579 131.597 176.946 132.57 178.399 132.463C177.933 133.131 176.87 133.235 176.248 132.734L176.193 132.687L176.917 133.44C177.2 133.733 177.482 134.027 177.765 134.32C177.081 134.177 176.398 134.034 175.715 133.891C181.426 137.138 187.341 140.028 193.412 142.537C193.058 141.344 191.807 140.695 190.675 140.177C187.514 138.732 184.353 137.286 181.193 135.841C185.941 136.271 190.526 138.334 193.999 141.601C198.183 145.537 204.954 145.317 209.49 148.84C210.463 149.595 211.338 150.56 211.665 151.748C212.124 153.417 211.389 155.241 210.181 156.48C208.972 157.718 207.354 158.466 205.736 159.079C200.901 160.911 195.702 161.775 190.535 161.606C190.096 160.835 190.535 159.809 191.248 159.282C191.962 158.756 192.87 158.595 193.737 158.408C197.424 157.615 200.954 156.101 204.07 153.975C204.77 153.497 205.53 152.64 205.08 151.921C204.914 151.654 204.617 151.502 204.333 151.367C199.441 149.031 193.975 147.908 188.559 148.126L193.356 147.259C189.13 144.738 184.687 142.58 180.093 140.817C178.664 140.269 176.925 139.797 175.711 140.729C172.748 143.001 169.784 145.274 166.821 147.546C170.642 147.614 174.445 148.554 177.858 150.274C177.077 151.981 175.322 153.199 173.45 153.332C174.336 152.424 175.221 151.516 176.107 150.607C169.799 146.696 160.802 150.783 154.485 146.887C151.668 145.15 149.8 142.018 146.745 140.742C143.831 139.525 140.512 140.267 137.447 141.025C135.436 141.522 133.324 142.074 131.84 143.519C131.881 142.065 133.263 141.013 134.622 140.495C135.981 139.977 137.49 139.737 138.634 138.839C139.794 137.928 140.387 136.487 141.302 135.33C142.217 134.172 143.839 133.26 145.132 133.971C144.734 130.897 147.345 128.391 149.115 125.847C151.131 122.95 152.208 119.411 152.148 115.882C149.902 117.075 148.892 120.153 149.994 122.446C150.483 123.464 149.509 124.749 148.382 124.829C147.255 124.909 146.222 124.08 145.712 123.072C145.203 122.064 145.11 120.903 145.034 119.775C144.927 118.183 144.837 116.557 145.247 115.014C146.024 112.091 148.462 109.917 150.992 108.26C153.522 106.604 156.3 105.248 158.421 103.092C160.76 100.714 162.147 97.4228 162.214 94.087C163.19 98.5321 160.889 103.492 156.864 105.615C153.306 107.492 149.688 109.621 147.459 112.971C145.23 116.322 144.835 121.226 147.602 124.148C147.148 121.774 147.783 119.214 149.293 117.327C150.515 115.799 152.224 114.751 153.913 113.764C157.829 111.476 161.838 109.345 165.926 107.379C165.649 106.324 166.523 105.127 167.611 105.07C166.381 103.111 167.548 100.111 169.779 99.4989C169.121 100.338 168.444 101.218 168.226 102.262C168.008 103.306 168.401 104.561 169.382 104.978C167.451 104.991 167.117 108.069 165.343 108.834C161.691 110.409 158.153 112.246 154.764 114.328C154.514 114.482 154.256 114.652 154.014 114.84C154.061 114.84 154.11 114.853 154.16 114.882C154.419 116.654 154.452 118.459 154.259 120.239C154.232 120.487 154.122 120.806 153.871 120.794C153.615 120.782 153.54 120.445 153.54 120.19L153.532 115.676C153.532 115.506 153.577 115.307 153.656 115.146C153.186 115.59 152.847 116.122 152.875 116.753C153.024 120.08 152.052 123.446 150.152 126.181C152.25 124.354 154.348 122.527 156.445 120.701C157.12 120.113 158.564 119.834 158.546 120.728C155.334 122.865 152.07 125.048 149.636 128.042C147.202 131.036 145.682 135.02 146.528 138.785C145.589 138.435 145.506 137.18 145.284 136.202C145.062 135.223 143.871 134.201 143.203 134.949C141.621 136.721 140.039 138.494 138.456 140.266C141.959 138.098 146.917 138.663 149.841 141.565C153.717 145.41 158.999 149.07 164.234 147.525C168.964 146.129 171.729 140.958 176.352 139.241C172.126 129.011 171.234 117.435 173.843 106.678C174.575 103.66 175.583 100.611 175.254 97.5226C174.745 92.7368 171.15 88.8297 169.954 84.168C169.442 85.5172 168.119 86.5202 166.682 86.6473C168.327 84.5387 169.973 82.4301 171.618 80.3215C174.136 77.0949 174.702 72.4514 173.015 68.7223C171.327 64.9933 167.454 62.3505 163.367 62.1596C163.882 62.6586 164.397 63.1576 164.912 63.6567C163.973 63.9834 163.034 64.3101 162.095 64.6368C161.919 64.0042 161.743 63.3716 161.566 62.7389C162.268 62.1715 162.97 61.6041 163.672 61.0367C162.331 61.3401 160.99 61.6435 159.649 61.9468C160.803 60.7058 162.485 59.972 164.179 59.972ZM94.6827 6.73792C90.7421 9.56505 87.506 13.2386 84.3068 16.8784C83.5037 17.8225 85.0185 18.9973 86.2278 19.2798C91.6589 20.5485 97.2996 20.9216 102.851 20.3792C101.368 22.4747 98.3457 22.7286 95.8006 22.3472C93.2556 21.9658 90.641 21.1575 88.1662 21.8613C93.2264 24.0644 98.6418 25.4553 104.14 25.964L102.286 27.0495C106.014 29.0547 107.159 34.0412 106.238 38.1615C105.317 42.2818 102.837 45.8506 100.84 49.5731C97.2493 56.2626 95.1287 63.7302 94.669 71.3022C99.7645 69.455 101.503 63.21 101.982 57.8287C102.46 52.4475 102.679 46.3918 106.663 42.728C103.635 49.5535 102.55 57.2227 103.567 64.6163C99.3215 68.4717 95.0758 72.327 90.8302 76.1824C87.7205 79.0062 89.2691 84.0801 91.0349 87.8851C91.2497 88.3479 91.4888 88.8383 91.929 89.0984C93.0203 89.7428 94.3571 88.4435 94.4709 87.1847C94.5847 85.9258 94.0381 84.6897 94.0596 83.4259C94.0811 82.1622 95.1514 80.718 96.357 81.1114C95.0493 79.9586 96.6384 77.9099 98.1678 77.0704C102.23 74.8407 106.817 73.5677 111.452 73.3841C112.849 73.3287 113.475 71.6672 113.919 70.3461C114.364 69.0251 115.57 67.501 116.84 68.0832C114.542 60.0322 119.192 51.6525 119.082 43.2831C121.903 51.1812 114.51 60.4049 118.205 67.9366C116.767 68.8552 115.329 69.7738 113.891 70.6925C115.097 71.1823 116.124 72.0977 116.747 73.2377C109.704 73.9012 102.789 75.8772 96.4642 79.0333C97.7889 79.8999 97.3586 82.3492 95.8173 82.716C93.5319 92.2709 94.5945 102.587 98.7801 111.48C99.4743 107.745 102.088 104.416 105.56 102.845C101.952 105.695 99.8335 110.103 98.9778 114.611C98.1221 119.118 98.4191 123.76 98.9169 128.32C99.4578 133.275 100.232 138.205 101.236 143.088C101.92 146.413 102.713 149.844 102.004 153.164C101.296 156.484 98.58 159.663 95.1732 159.66C97.437 160.985 100.16 161.515 102.758 161.136C105.213 160.777 106.267 157.75 106.094 155.283C105.922 152.816 105.06 150.294 105.79 147.931C106.152 146.754 106.885 145.726 107.33 144.578C108.128 142.519 107.953 140.237 107.993 138.03C108.084 133.075 109.343 128.144 111.642 123.748C112.04 124.53 111.896 125.551 111.297 126.194C121.016 118.359 126.821 105.924 126.574 93.4711L125.749 94.7947C126.49 81.9903 127.23 69.186 127.971 56.3816C128.154 53.2147 128.336 50.0165 127.814 46.8871C126.333 37.9985 119.295 30.1307 120.333 21.1799C118.257 20.4763 116.181 19.7726 114.106 19.069C116.958 19.2953 119.81 19.5217 122.663 19.748C123.13 19.7851 123.665 19.7978 123.988 19.4604C124.319 19.1147 124.27 18.5642 124.169 18.097C122.887 12.2114 117.16 8.53896 111.931 5.51861C114.816 5.95188 117.532 7.42528 119.463 9.60444C117.701 5.23402 112.957 2.52123 108.238 2.24649C103.39 1.96428 98.6233 3.91077 94.6827 6.73792ZM200.337 157.22C198.207 158.942 195.29 159.178 192.592 159.652C192.129 159.733 191.57 159.917 191.495 160.382C191.987 160.686 192.604 160.675 193.182 160.641C197.921 160.368 202.612 159.297 207 157.486C206.753 156.919 205.937 156.992 205.342 157.16C204.897 157.286 204.452 157.412 204.007 157.538C203.5 157.682 202.946 157.823 202.46 157.618C201.974 157.414 201.697 156.693 202.094 156.347C201.425 156.255 200.862 156.795 200.337 157.22ZM110.518 130.249C109.637 133.228 109.24 136.394 109.784 139.451C110.579 143.922 113.28 147.78 115.699 151.628C116.442 152.809 117.193 154.154 116.912 155.519C116.607 156.999 115.211 157.96 113.929 158.765C116.056 159.792 118.475 158.242 120.321 156.771C120.601 156.548 120.9 156.294 120.961 155.942C121.017 155.619 120.857 155.302 120.701 155.014C118.922 151.719 117.143 148.424 115.363 145.128L115.323 142.811C115.299 141.464 115.274 140.103 114.944 138.796C114.157 135.676 111.746 133.224 110.518 130.249ZM61.8539 157.103C62.0059 157.241 62.0864 157.448 62.2435 157.58C62.485 157.783 62.8322 157.758 63.1429 157.799C63.4535 157.84 63.8123 158.046 63.7854 158.363C62.9037 158.845 61.7337 158.707 60.9831 158.034C60.7551 157.799 60.751 157.378 60.9746 157.139C61.1982 156.9 61.612 156.883 61.8539 157.103ZM189.263 155.252C189.465 155.286 189.725 155.403 189.68 155.603C189.658 155.703 189.563 155.766 189.475 155.817C188.429 156.426 187.242 156.788 186.035 156.867C185.598 156.895 185.226 157.175 184.89 157.463L184.813 157.53C184.457 157.84 184.072 158.169 183.602 158.22C183.133 158.27 182.594 157.883 182.684 157.418C182.763 157.007 183.234 156.822 183.636 156.709C184.363 156.504 185.09 156.298 185.818 156.093C185.915 155.964 185.95 155.791 185.912 155.634L180.676 155.711C180.477 155.714 180.265 155.713 180.096 155.607C179.926 155.501 179.834 155.248 179.964 155.096C183.048 154.683 186.194 154.736 189.263 155.252ZM176.614 136.051C176.064 136.808 176.398 137.94 177.092 138.569C177.785 139.197 178.731 139.448 179.638 139.679C180.499 139.898 181.361 140.117 182.222 140.336C182.456 140.395 182.726 140.449 182.921 140.307C183.04 140.221 183.063 140.035 183.008 139.91L182.999 139.894L183.47 140.168C190.49 144.222 197.889 147.619 205.538 150.303C206.737 150.724 207.009 152.434 206.375 153.536C205.741 154.638 204.538 155.262 203.395 155.818C202.944 156.038 202.562 156.825 203.062 156.863C204.5 156.168 206.16 155.939 207.733 156.221C209.17 156.477 210.575 155.197 210.781 153.752C210.986 152.306 210.222 150.857 209.136 149.882C208.05 148.906 206.676 148.324 205.318 147.787C196.891 144.458 187.924 142.197 180.314 137.277C179.396 136.683 178.018 136.115 177.368 136.995L176.614 136.051ZM130.737 149.863C132.392 152.074 134.752 153.753 137.388 154.596C138.192 154.852 139.052 155.034 139.877 154.857C139.862 154.455 139.348 154.31 138.95 154.241C137.448 153.981 136.041 153.206 135.021 152.078C134.508 151.511 134.084 150.853 133.47 150.398C132.7 149.828 131.668 149.636 130.737 149.863ZM75.9544 146.743C76.7026 146.785 76.2612 148.214 76.8945 148.615C77.147 148.775 77.4737 148.699 77.7678 148.646C79.5128 148.332 81.4078 149.134 82.4003 150.607C82.6493 150.977 82.4071 151.518 82.0169 151.732C81.6266 151.946 81.1532 151.921 80.7113 151.869C80.0212 151.789 79.5412 152.532 79.3022 153.186C79.0633 153.84 78.7819 154.618 78.1087 154.79C77.5927 154.922 77.0673 154.62 76.6622 154.273C76.2571 153.927 75.8821 153.511 75.3766 153.343C74.871 153.175 74.184 153.399 74.0985 153.926C74.0058 154.497 73.2242 154.573 72.6514 154.504L70.605 154.256C70.481 153.691 71.2823 153.406 71.8542 153.481C72.4262 153.557 73.1554 153.672 73.4482 153.173C73.5997 152.915 73.5628 152.568 73.7496 152.335C74.0583 151.949 74.6714 152.157 75.1037 152.396C75.5663 152.651 76.0288 152.906 76.4913 153.161C76.9151 153.394 77.3728 153.635 77.8539 153.587C78.335 153.538 78.799 153.056 78.6383 152.599C78.433 152.015 79.0528 151.453 79.6523 151.304C80.2518 151.155 80.9155 151.208 81.4475 150.893C80.3999 149.556 78.3221 149.173 76.8687 150.049C76.4322 150.312 76.0264 149.632 76.0297 149.122C76.033 148.611 76.0083 147.921 75.5089 147.82C75.1287 147.744 74.8246 148.109 74.5513 148.385C74.278 148.661 73.7583 148.851 73.5528 148.521C73.8123 147.471 74.877 146.683 75.9544 146.743ZM93.3237 149.901C94.0359 150.165 94.8096 150.482 95.1509 151.136C95.4922 151.791 95.0016 152.813 94.2498 152.683C94.1306 152.521 94.1253 152.289 94.237 152.122C94.3288 151.984 94.4955 151.875 94.5001 151.712C94.5049 151.545 94.3379 151.427 94.1894 151.34C93.4125 150.883 92.6357 150.427 91.8588 149.97C92.1826 149.573 92.8332 149.718 93.3237 149.901ZM120.012 151.522L120.015 151.67C120.027 151.95 120.212 152.215 120.471 152.323C120.656 152.002 120.384 151.527 120.012 151.522ZM66.7641 149.376C66.1497 150.019 65.3235 150.413 64.4756 150.467C64.7036 150.733 64.8903 151.04 65.0252 151.373C64.4541 151.589 63.9178 150.995 63.5555 150.465C63.415 150.26 63.2747 149.964 63.4284 149.771C63.4892 149.694 63.5817 149.659 63.6702 149.63C64.667 149.294 65.7328 149.207 66.7641 149.376ZM123.963 112.17C122.413 114.992 120.58 117.659 118.499 120.119C118.116 120.572 118.374 121.256 118.637 121.787C122.718 130.037 124.598 139.247 128.857 147.407C129.224 148.11 129.678 148.864 130.437 149.102C131.195 149.341 132.206 148.63 131.91 147.894C127.306 136.479 123.2 124.448 123.963 112.17ZM66.5917 140.418C66.7905 140.557 66.7892 140.861 66.775 141.113C66.6846 142.726 66.9866 144.361 67.6436 145.817C67.8644 146.306 68.5793 146.148 68.9553 145.781C69.3313 145.415 69.6405 144.892 70.143 144.802C70.6748 144.706 71.1785 145.182 71.346 145.728C71.5136 146.274 71.4302 146.867 71.3451 147.435C71.2934 147.78 71.2201 148.164 70.9507 148.364C70.6813 148.564 70.1884 148.352 70.2645 148.012L70.5649 146.668C70.6038 146.494 70.6413 146.304 70.5687 146.143C70.445 145.868 70.0714 145.842 69.8153 145.977C69.5592 146.112 69.3683 146.355 69.1275 146.519C68.3564 147.043 67.2694 146.59 66.7299 145.803C66.1903 145.015 66.057 144.003 65.9401 143.036C65.4661 144.655 65.3118 146.378 65.4901 148.063C65.2503 148.312 64.9129 147.881 64.8403 147.533C64.3737 145.293 64.7208 142.872 65.7937 140.882C65.9637 140.567 66.306 140.22 66.5917 140.418ZM80.8001 144.174C79.6658 144.629 78.7144 145.511 78.1838 146.597C78.0659 146.838 77.6499 146.751 77.5399 146.506C77.4299 146.261 77.531 145.977 77.6564 145.739C77.9825 145.121 78.4779 144.59 79.0762 144.218C78.3748 144.166 77.6735 144.114 76.9721 144.062C77.974 143.051 79.8612 143.107 80.8001 144.174ZM72.0058 142.495C72.5163 142.572 72.9057 142.97 73.2295 143.362C72.9045 143.394 72.592 143.537 72.3596 143.76C72.7629 144.183 73.1662 144.606 73.5695 145.028C72.4658 145.137 71.3382 144.387 71.0381 143.346C70.8984 142.862 71.4953 142.419 72.0058 142.495ZM191.796 101.67C195.203 112.22 197.056 123.258 197.278 134.328C199.419 132.438 202.19 131.256 205.053 131.012C203.549 131.54 202.584 133.005 202.049 134.489C201.515 135.972 201.297 137.558 200.684 139.012C205.378 137.574 210.515 137.58 215.205 139.029C211.184 140.177 207.387 142.083 204.079 144.613C203.504 144.293 204.005 143.433 204.534 143.043C206.669 141.469 209.039 140.206 211.544 139.308C207.559 138.524 203.363 138.81 199.525 140.125C200.229 137.741 200.831 135.328 201.33 132.894C198.584 134.171 196.075 135.941 193.964 138.092C193.415 137.6 194.213 136.831 194.779 136.359C196.3 135.091 196.363 132.838 196.262 130.876C195.874 123.283 194.86 115.679 192.537 108.429C192.755 116.601 191.076 124.816 187.667 132.267C187.508 132.613 186.966 132.959 186.846 132.598C186.952 132.185 187.058 131.772 187.164 131.36C186.164 130.089 185.691 128.428 185.873 126.83C184.089 128.94 182.537 131.242 181.255 133.681C180.69 133.828 180.641 132.881 180.917 132.374C182.427 129.607 184.337 127.053 186.571 124.813C186.815 126.77 187.058 128.727 187.302 130.685C191.233 121.75 192.576 111.725 191.133 102.09C191.183 101.803 191.51 101.596 191.796 101.67ZM78.4761 140.029C78.7073 140.167 78.7579 140.555 78.5063 140.657C78.0989 140.823 78.1655 141.373 78.2643 141.779C78.3631 142.185 78.2874 142.773 77.8442 142.797C77.4593 142.818 77.2656 142.365 77.2442 142.004C77.2228 141.643 77.2121 141.203 76.8745 141.029C75.813 141.656 74.7515 142.284 73.69 142.912C73.3838 142.572 73.7169 142.063 74.0664 141.762C75.0793 140.891 76.3372 140.272 77.6773 139.987C77.9446 139.93 78.245 139.891 78.4761 140.029ZM173.924 138.338C174.017 138.494 173.815 138.783 173.752 138.6L173.75 138.581C173.641 138.577 173.541 138.451 173.523 138.297C173.658 138.228 173.831 138.183 173.924 138.338ZM28.9898 123.524C28.9159 124.683 28.9177 125.846 28.9952 127.005C29.0675 128.087 29.2698 129.283 30.1291 129.949C30.4024 130.161 30.8892 130.251 31.0249 129.933C31.058 129.856 31.0599 129.769 31.0606 129.685C31.0741 127.87 30.7299 126.054 30.0534 124.37C29.8664 123.904 29.4651 123.359 28.9898 123.524ZM95.1459 104.625L94.5493 109.591C94.3605 111.162 94.1713 112.745 94.2903 114.323C94.4473 116.405 95.1346 118.408 95.836 120.376C96.2768 121.613 96.7634 122.904 97.7592 123.763C97.1753 120.531 97.3164 117.17 98.1692 113.998C98.2446 113.717 98.3262 113.433 98.3212 113.143C98.3136 112.695 98.1028 112.279 97.9075 111.876C96.743 109.472 95.9706 106.88 95.6299 104.232C95.4805 104.003 95.1785 104.354 95.1459 104.625ZM148.56 120.522C148.373 121.446 148.684 122.455 149.359 123.112C149.383 122.193 149.098 121.268 148.56 120.522ZM162.039 56.6819C161.342 59.7479 157.959 61.0709 155.301 62.6251C153.411 63.73 151.708 65.1717 150.289 66.867C149.952 67.2697 149.333 66.9668 148.852 66.7735C147.349 66.1694 145.528 67.1279 144.845 68.6341C144.163 70.1403 144.483 71.987 145.367 73.3781C146.25 74.7691 147.622 75.7593 149.064 76.5045C149.517 76.2851 149.378 75.535 148.984 75.2184C148.589 74.9017 148.06 74.8204 147.64 74.5396C147.25 74.2783 146.983 73.8641 146.75 73.4491C146.053 72.2092 145.553 70.6826 146.091 69.3612C146.628 68.0398 148.617 67.4145 149.44 68.5695C150.692 70.327 147.856 73.0737 149.152 74.7968C149.029 73.9516 149.506 73.0508 150.262 72.7003C150.212 74.2809 150.162 75.8614 150.112 77.442C150.491 77.04 151.018 76.7895 151.561 76.7528C151.614 78.2034 151.78 79.6496 152.055 81.0733C152.385 80.8578 152.539 80.3935 152.406 80.0147L161.8 88.6271C159.754 87.6725 157.844 86.4087 156.15 84.8888C157.84 88.0935 156.191 91.9676 155.185 95.4647C154.333 98.4253 153.963 101.533 154.095 104.618C153.489 103.971 152.436 104.449 151.741 104.992C149.508 106.739 147.613 108.942 146.199 111.437C146.026 111.138 146.042 110.762 146.105 110.419C146.504 108.245 148.426 106.789 150.121 105.431C151.816 104.072 153.57 102.248 153.394 100.042C153.156 97.0629 154.529 94.2374 155.368 91.3753C156.206 88.5131 156.354 84.9871 154.218 82.9643C153.478 82.2634 152.534 81.8239 151.788 81.1291C151.042 80.4343 150.506 79.3067 150.93 78.3674C150.569 78.5839 150.208 78.8005 149.846 79.017C149.746 77.5641 148.095 76.9177 146.853 76.2217C144.724 75.0281 143.166 72.6168 143.337 70.1247C143.508 67.6326 145.681 65.3375 148.102 65.478C149.141 65.5384 150.476 65.8672 150.992 64.9358C152.9 61.4952 157.846 61.0988 160.093 57.8828C160.582 57.182 161.317 56.2429 162.039 56.6819ZM92.3184 90.7645L92.2611 90.8842C92.4449 90.9278 92.6286 90.9713 92.8123 91.0148C93.0529 90.759 92.9997 90.2527 92.6653 90.1435C92.3309 90.0342 92.0119 90.5922 92.3184 90.7645ZM154.049 78.2613C154.084 78.781 154.25 79.2923 154.53 79.7407C154.529 79.4195 155.067 79.3337 155.301 79.567C155.534 79.8003 155.535 80.159 155.522 80.4799C156.602 80.3672 157.372 81.3835 158.181 82.0697C160.067 83.6687 162.88 83.67 165.408 83.5337C166.106 83.4961 167.035 83.6184 167.143 84.2722C165.956 84.6743 164.662 84.6732 163.402 84.6109C161.433 84.5134 159.437 84.2684 157.641 83.4992C155.844 82.73 154.255 81.3732 153.626 79.6051C153.446 79.0991 153.492 78.3493 154.049 78.2613ZM155.457 76.1351C156.172 78.0233 158.763 79.0092 160.64 78.1069C160.975 77.9455 161.294 77.7327 161.663 77.6662C162.284 77.5544 162.888 77.8755 163.467 78.1177C164.282 78.4588 165.195 78.6596 166.066 78.4876C166.938 78.3155 167.751 77.7098 167.958 76.882C168.011 76.6691 168.03 76.4346 168.178 76.2673C168.326 76.1001 168.67 76.0815 168.743 76.2892C169.161 77.4852 168.23 78.8275 166.999 79.2828C165.769 79.7381 164.372 79.4958 163.14 79.0464C162.726 78.8954 162.301 78.7185 161.859 78.7503C161.414 78.7822 161.02 79.0201 160.613 79.1949C158.726 80.0057 156.274 79.3275 155.132 77.6787C154.943 77.4068 154.784 77.094 154.811 76.7689C154.839 76.4438 155.116 76.1208 155.457 76.1351ZM174.868 74.6262C174.757 75.1587 174.829 75.7274 175.069 76.2156C175.441 76.0433 175.666 75.5987 175.583 75.1963L175.586 75.1945C175.58 74.8455 175.209 74.5518 174.868 74.6262ZM161.686 73.5891C162.002 73.6331 162.257 73.9016 162.481 74.166C162.935 74.701 163.356 75.2741 163.74 75.8794C162.623 76.1933 161.447 76.2181 160.32 75.9516C159.973 75.8694 159.83 75.3313 159.959 74.9443C160.087 74.5573 160.39 74.2946 160.678 74.0536C160.979 73.8019 161.319 73.5379 161.686 73.5891ZM161.047 75.2079L161.155 75.2618L161.898 75.0943C161.981 74.9583 162.013 74.7808 161.983 74.6172C161.612 74.4024 161.099 74.7262 161.047 75.2079ZM147.098 69.2296C146.679 69.6597 146.597 70.3449 146.733 70.9379C146.972 71.9779 147.781 72.8256 147.92 73.8845C148.211 73.8029 148.339 73.4406 148.32 73.1311C148.3 72.8215 148.18 72.525 148.168 72.215C148.125 71.1783 149.243 70.1069 148.658 69.2628C148.314 68.7671 147.517 68.7996 147.098 69.2296ZM168.736 65.5066C169.925 65.589 170.85 66.6259 171.493 67.6884C172.012 68.5468 172.446 69.5917 172.152 70.5626C171.756 71.8692 170.298 72.3744 169.038 72.6938L167.713 73.0299C167.361 73.1192 166.993 73.2087 166.641 73.1221C166.153 73.0023 165.795 72.5747 165.471 72.17C164.815 71.3501 164.121 70.418 164.168 69.3441C164.223 68.0935 165.254 67.1651 166.24 66.4751C166.993 65.9479 167.836 65.4441 168.736 65.5066ZM159.144 67.2149C160.277 68.0145 161.004 69.4211 160.689 70.7339C160.375 72.0468 158.844 73.0553 157.506 72.6356C156.281 72.2509 155.012 71.8277 154.1 70.9554C153.187 70.0831 152.751 68.6243 153.457 67.5907C153.851 67.012 154.533 66.6594 155.232 66.4873C156.562 66.1602 158.039 66.435 159.144 67.2149ZM168.837 66.9726C168.092 67.0714 167.33 67.12 166.63 67.4065C165.93 67.693 165.284 68.2753 165.134 69.0545C164.94 70.0635 165.601 71.0116 166.221 71.8043C166.512 72.176 167.044 72.1751 167.495 72.1081C168.867 71.9043 170.195 71.3783 171.357 70.579C170.769 70.435 170.181 70.291 169.593 70.147C169.672 69.7724 170.159 69.755 170.521 69.7691C170.883 69.7833 171.377 69.5414 171.246 69.1837C170.689 69.0077 170.105 68.9288 169.524 68.9512C169.354 68.9578 169.153 68.9933 169.077 69.1555C169.018 69.2815 169.061 69.431 169.087 69.569C169.262 70.4924 168.438 71.4667 167.553 71.3837C166.667 71.3008 166.018 70.1885 166.343 69.3118C166.667 68.4351 167.858 68.0883 168.56 68.6658C168.717 68.5169 168.701 68.2127 168.53 68.0827C169.047 67.7062 169.726 67.5903 170.328 67.7757C170.399 67.4345 170.129 67.0991 169.817 66.988C169.504 66.8768 169.164 66.9292 168.837 66.9726ZM155.71 67.4836C154.842 67.5929 153.818 68.1625 153.975 68.9869C154.085 69.5656 154.788 69.9038 155.397 69.8234C156.006 69.7429 156.52 69.3541 156.951 68.9343L155.148 69.0766C154.912 69.0952 154.566 68.9858 154.651 68.7748C154.675 68.7158 154.731 68.6749 154.786 68.6396C155.567 68.1381 156.696 68.2038 157.409 68.7924C158.104 69.0127 158.775 69.5064 158.896 70.198C159.017 70.8896 158.305 71.6683 157.612 71.4407C157.551 71.9542 158.375 72.1134 158.844 71.8566C159.973 71.2384 160.079 69.5638 159.257 68.5989C158.436 67.634 156.999 67.3212 155.71 67.4836ZM155.259 70.1264C155.168 70.8146 155.933 71.471 156.638 71.3093C156.431 70.7783 155.965 70.3455 155.405 70.1622L155.259 70.1264ZM157.003 70.4683L157.752 71.0653L157.774 70.9571C158.091 70.7933 158.115 70.2881 157.815 70.0978C157.514 69.9075 157.037 70.1253 157.003 70.4683ZM167.674 69.4196C167.278 69.4587 167.048 70.0513 167.31 70.3678L167.234 70.3743C167.474 70.7096 168.052 70.6573 168.226 70.279C168.4 69.9008 168.069 69.3805 167.674 69.4196ZM84.2964 21.7359C83.808 22.3471 83.644 23.1489 83.53 23.9219C82.953 27.8362 83.2886 31.8811 84.503 35.6478C84.7222 36.3276 84.9815 37.0184 85.4699 37.541C86.805 38.9695 89.1135 38.5682 91.0448 38.2404C92.8419 37.9354 94.6667 37.7934 96.4895 37.8167C97.3343 37.8275 98.167 37.6354 98.9899 37.4443C101.164 36.9394 103.339 36.4345 105.514 35.9296C105.541 33.0361 104.37 30.1494 102.332 28.0877C102.026 27.7782 101.548 27.4714 101.192 27.7219C101.584 28.1178 101.468 28.8822 100.975 29.1442C100.389 28.9304 100.598 28.0643 100.434 27.4643C100.222 26.6923 99.3278 26.3568 98.5458 26.1744C94.5323 25.2386 89.8653 25.0791 87.1985 21.9477C86.9503 21.6562 86.7162 21.3357 86.3797 21.1523C85.6918 20.7772 84.7848 21.1246 84.2964 21.7359ZM113.145 9.81431C115.47 10.9 117.536 12.5904 119.105 14.6919C119.317 14.9758 119.53 15.3021 119.503 15.6616C119.454 16.3148 118.704 16.5973 118.092 16.7274C117.008 16.9577 115.923 17.1881 114.839 17.4184C114.442 17.5026 113.818 17.3212 113.98 16.9326C115.286 16.0959 116.853 15.7149 118.376 15.8635C118.498 15.599 118.352 15.2881 118.191 15.0479C117.658 14.2548 116.929 13.6348 116.209 13.0256C115.039 12.036 113.87 11.0463 112.7 10.0566C112.725 9.85267 112.971 9.71832 113.145 9.81431ZM104.602 6.60205C105.624 7.07327 105.993 8.29478 106.179 9.38473C106.294 10.0618 106.381 10.7552 106.267 11.4326C106.068 12.6182 105.252 13.6535 104.217 14.2994C103.181 14.9453 101.945 15.2315 100.719 15.2972C97.879 15.4493 94.9926 14.4201 92.9187 12.5159C92.016 11.687 92.138 10.1622 92.8968 9.20515C93.6555 8.24812 94.8699 7.75347 96.0635 7.43212C97.4151 7.06824 98.8075 6.87467 100.195 6.682C101.148 6.54973 102.103 6.41726 103.065 6.38516C103.588 6.36773 104.129 6.38395 104.602 6.60205ZM93.273 10.4565C92.9602 11.0015 93.4755 11.6336 93.9483 12.0538C94.8747 12.8771 96.0358 13.762 97.245 13.4465C98.0559 13.2349 98.9265 12.5138 99.6029 12.9998C99.5458 13.262 99.2381 13.3883 98.9664 13.4225C98.6947 13.4566 98.3984 13.448 98.1765 13.6052C97.9545 13.7623 97.922 14.1762 98.1849 14.2515C99.0426 14.4974 99.8419 13.7748 100.452 13.1359C101.062 12.497 101.938 11.8233 102.757 12.1742C102.866 12.2208 102.979 12.3041 102.98 12.4202C102.982 12.5895 102.767 12.662 102.598 12.6991C101.697 12.8967 100.891 13.4784 100.433 14.2624C101.633 14.091 102.708 13.4701 103.749 12.8617C104.485 12.4315 105.294 11.9028 105.442 11.0766C104.414 11.3739 103.344 11.535 102.272 11.5541C100.028 11.5939 97.8459 12.9458 95.6582 12.4556C95.1048 12.3316 94.7239 11.8499 94.3906 11.4003C94.7361 11.0763 95.289 11.3434 95.7402 11.4993C96.1914 11.6552 96.9156 11.4167 96.7475 10.9784C96.218 10.7579 95.6886 10.5374 95.1592 10.3169C94.5204 10.0509 93.6129 9.86422 93.273 10.4565ZM98.3109 10.6678C98.154 10.6892 97.98 10.7306 97.897 10.8626C97.7769 11.0534 97.9402 11.3171 98.1569 11.3899C98.3735 11.4627 98.6107 11.4041 98.8317 11.3451C99.3777 11.1994 99.9237 11.0537 100.47 10.908C99.7859 10.6525 99.0358 10.569 98.3109 10.6678ZM103.308 9.72906C102.471 10.037 101.598 10.3688 101.01 11.0289C102.32 10.8063 103.653 10.7156 104.982 10.7587C105.452 10.5538 105.277 9.77755 104.805 9.57626C104.333 9.37496 103.791 9.5518 103.308 9.72906ZM103.979 7.88497C103.513 7.92192 103.099 8.17155 102.664 8.33778C101.429 8.80998 100.05 8.60487 98.7257 8.53502C97.5628 8.47367 96.3897 8.5234 95.248 8.74806C94.6341 8.86885 93.9164 9.16126 93.839 9.76923C94.8855 9.28843 96.1043 9.46003 97.2573 9.5433C99.8676 9.73181 102.516 9.40644 104.997 8.59227C104.987 8.13566 104.444 7.84801 103.979 7.88497ZM85.5719 8.03334C85.2629 8.1698 84.9445 8.35896 84.8213 8.67254C84.6981 8.98613 84.899 9.42841 85.2368 9.41907C86.2612 8.70492 87.5558 8.38589 88.7962 8.54193C89.1891 8.59136 89.5905 8.27303 89.6302 7.88045C88.3236 7.41755 86.8397 7.47345 85.5719 8.03334ZM99.091 2.67407L99.0941 2.72002C98.7079 2.58277 98.232 2.79477 98.0771 3.17296C98.7137 3.12871 99.3438 2.99206 99.9413 2.76865C99.9394 2.41864 99.3868 2.48527 99.091 2.67407ZM107.235 1.27164C106.976 1.38953 107.28 1.8735 107.5 1.69206L107.506 1.71223C107.703 1.55549 107.465 1.16842 107.235 1.27164Z" fill="#00160A"/>
</svg>
