<svg width="207" height="205" viewBox="0 0 207 205" fill="none" xmlns="http://www.w3.org/2000/svg">
<path fill-rule="evenodd" clip-rule="evenodd" d="M3.2303 168.216C2.73076 165.918 2.18296 163.63 1.70461 161.328C1.47327 160.215 1.34103 159.08 1.18369 157.952C0.890286 155.849 0.600333 153.745 0.332337 151.638C0.238082 150.897 0.170522 150.148 0.162028 149.402C0.0932468 143.356 -0.0711136 137.309 0.0344527 131.266C0.0833434 128.468 0.663583 125.678 1.01147 122.886C1.46907 119.213 2.43037 115.656 3.53951 112.137C5.13574 107.072 6.75199 102.014 8.36295 96.9535C9.22841 94.235 10.1578 91.5352 10.9444 88.7942C11.3074 87.5294 11.4541 86.1922 11.5944 84.8767C11.7277 83.6263 11.8703 82.3472 11.7504 81.1057C11.5261 78.7829 11.1402 76.4741 10.7736 74.167C10.4606 72.1977 10.0948 70.2364 9.72682 68.2763C9.1553 65.232 8.98653 62.1598 9.04792 59.0707C9.09636 56.6339 9.02123 54.1843 9.25025 51.764C9.58129 48.2653 10.0849 44.7598 11.4661 41.4947C12.5229 38.9964 13.6942 36.5282 15.0409 34.1762C16.3713 31.8527 17.9509 29.6674 19.4888 27.4687C20.4268 26.1276 21.4207 24.8109 22.5175 23.5989C24.2071 21.7318 25.9539 19.9091 27.7716 18.167C30.6103 15.4462 33.7904 13.1527 37.1701 11.1525C40.3595 9.26497 43.7351 7.76886 47.28 6.67347C49.7064 5.9237 52.1537 5.23952 54.5685 4.45472C56.2962 3.89325 57.9521 3.0905 59.7002 2.61796C61.8695 2.03155 64.0868 1.58119 66.3095 1.24487C68.5908 0.89968 70.9019 0.743026 73.2032 0.541583C74.8911 0.393836 76.5829 0.271307 78.2756 0.2018C80.53 0.109221 82.7867 0.0540169 85.043 0.0286636C87.5981 -4.98868e-05 90.1547 -0.0210306 92.7089 0.0360311C94.6578 0.0795736 96.6061 0.221952 98.5507 0.370873C101.165 0.571095 103.778 0.797735 106.388 1.05523C108.32 1.2459 110.254 1.44936 112.172 1.74509C114.784 2.14775 117.388 2.60746 119.983 3.10833C123.644 3.81484 127.319 4.47107 130.939 5.35252C134.762 6.28374 138.587 7.28801 142.177 8.95486C145.406 10.4536 148.64 11.9535 151.78 13.625C154.641 15.1478 157.374 16.9097 160.173 18.5498C161.247 19.1792 162.365 19.7352 163.43 20.3782C164.145 20.8093 164.865 21.2672 165.475 21.8292C168.249 24.3817 170.998 26.9622 173.73 29.5601C175.048 30.813 176.308 32.1264 177.594 33.4124C179.037 34.8561 180.55 36.2385 181.908 37.759C183.631 39.6893 185.212 41.7464 186.885 43.7222C189.136 46.3793 190.646 49.4786 192.278 52.5149C193.387 54.5762 194.076 56.7888 194.886 58.9588C195.439 60.4418 196.073 61.9354 196.325 63.4807C196.71 65.8395 198.107 67.713 198.945 69.843C199.804 72.0254 200.49 74.2771 201.219 76.5091C201.842 78.4185 202.49 80.3246 202.998 82.2661C203.465 84.0533 203.764 85.8847 204.129 87.6983C204.41 89.0937 204.704 90.4872 204.943 91.8898C205.113 92.8846 205.199 93.8935 205.328 94.8954C205.554 96.6534 205.797 98.4092 206.006 100.169C206.146 101.344 206.272 102.522 206.345 103.703C206.436 105.187 206.47 106.675 206.524 108.162C206.584 109.82 206.749 111.482 206.673 113.134C206.495 117.025 200.089 132.671 197.502 136.51C196.002 138.736 194.557 140.999 193.018 143.198C191.002 146.078 188.94 148.926 186.857 151.759C184.363 155.15 181.857 158.533 179.294 161.873C178.083 163.45 176.756 164.942 175.431 166.428C174.323 167.67 173.212 168.923 171.979 170.035C169.572 172.206 167.09 174.296 164.619 176.395C161.361 179.161 157.787 181.5 154.094 183.605C151.079 185.323 147.889 186.768 144.676 188.092C139.832 190.087 134.91 191.894 130.004 193.737C126.255 195.145 122.504 196.559 118.708 197.831C115.498 198.907 112.245 199.879 108.966 200.719C106.19 201.431 103.356 201.931 100.533 202.444C98.5558 202.804 96.5592 203.07 94.5625 203.301C92.6166 203.527 90.6603 203.666 88.7069 203.822C87.6782 203.904 86.6466 203.97 85.6152 203.992C82.1914 204.063 78.7672 204.138 75.3429 204.157C73.6573 204.166 71.9669 204.109 70.286 203.984C67.9261 203.808 65.5625 203.617 63.2197 203.293C60.5473 202.924 57.8981 202.389 55.2348 201.949C53.0432 201.588 50.836 201.315 48.6532 200.908C44.9061 200.21 41.1549 199.516 37.4391 198.672C34.4651 197.997 31.5039 197.216 28.6033 196.277C23.9886 194.783 19.6647 192.645 15.7605 189.741C14.4516 188.767 13.157 187.726 12.0559 186.531C9.43223 183.685 7.32258 180.473 5.79764 176.812C4.63058 173.983 3.86189 171.121 3.2303 168.216Z" fill="#475DEB"/>
<path d="M113.684 174.418C113.342 176.214 113.206 178.001 112.606 179.615C111.827 181.71 110.025 182.976 107.945 183.62C105.659 184.327 103.305 184.823 100.966 185.342C100.189 185.515 99.3652 185.482 98.5621 185.53C95.67 185.705 92.7772 185.867 89.8855 186.047C88.3078 186.146 86.7329 186.293 85.1546 186.381C83.6412 186.465 82.1242 186.561 80.6105 186.538C80.2745 186.533 78.1748 186.836 75.2369 187.043C74.6663 187.083 75.5543 190.165 74.5285 190.489C72.2431 191.209 66.6455 191.006 65.6689 189.478C64.6923 187.95 65.0385 187.306 63.9559 186.864C58.6612 184.703 53.2074 184.198 51.6092 179.615C50.5454 176.564 52.5701 169.337 51.9814 163.788C50.4716 149.561 47.469 133.685 47.371 133.604C47.3809 133.593 44.1735 133.867 43.9346 132.692C40.971 118.105 39.6195 98.88 47.371 94.0323C52.0386 91.1132 60.9296 88.115 70.7868 85.666C72.2194 85.3101 73.0651 83.2053 74.5285 82.8744C74.8558 82.8005 75.8573 80.8987 76.7164 78.9881C77.5813 77.0644 78.3088 75.1318 80.0845 75.0472C83.7346 74.8735 90.0314 70.1982 94.3031 71.6571C98.2147 72.993 100.198 80.513 101.709 79.6024C103.231 78.6845 104.578 80.2781 106.664 80.2781C121.59 80.2781 132.831 108.633 134.394 115.61C131.782 119.38 124.045 119.38 116.734 121.614C115.524 120.122 113.094 115.647 112.308 113.129C111.5 110.538 111.222 116.413 111.165 118.495C111.092 121.188 111.333 123.89 111.466 126.587C111.554 128.364 111.699 130.139 111.801 131.916C111.98 135.035 112.169 138.155 112.308 141.276C112.407 143.473 112.364 145.678 112.506 147.871C112.651 150.118 112.95 152.355 113.169 154.598C113.297 155.917 113.414 157.238 113.509 158.559C113.588 159.674 113.7 160.793 113.669 161.907C113.608 164.065 113.382 166.22 113.373 168.376C113.368 169.503 113.745 170.626 113.823 171.759C113.881 172.61 113.738 173.474 113.684 174.418Z" fill="white"/>
<path d="M137.551 39.8739C136.588 38.9623 136 37.8234 135.243 36.8097C135.22 36.7798 135.199 36.7485 135.183 36.7151C134.591 35.4301 134.013 34.1455 133.731 32.7409C133.567 31.9208 133.574 31.1214 133.699 30.3079C133.761 29.9033 133.787 29.4923 133.867 29.0919C134.114 27.8629 134.713 26.7926 135.416 25.7747C135.628 25.4686 135.871 25.1836 136.077 24.8736C136.848 23.7129 137.937 22.9655 139.204 22.4448C140.029 22.106 140.876 21.8203 141.683 21.4371C141.782 21.39 141.892 21.3477 142 21.3375C143.335 21.2112 144.67 21.08 146.007 20.9734C147.311 20.8692 148.616 20.8981 149.921 20.9822C150.628 21.0276 151.338 21.0473 152.042 21.1187C153.569 21.2739 155.046 21.6187 156.464 22.2386C157.455 22.6718 158.453 23.0767 159.403 23.6006C160.494 24.2026 161.42 25.002 162.296 25.8704C162.697 26.268 163.004 26.7338 163.278 27.2236C163.442 27.516 163.587 27.8221 163.779 28.0951C164.895 29.683 165.136 31.4511 164.865 33.3204C164.801 33.7613 164.66 34.1912 164.697 34.6451C164.476 35.5508 164.262 36.46 163.723 37.2442C163.299 37.8593 162.84 38.4454 162.269 38.9356C162.071 39.1055 161.872 39.2765 161.693 39.4658C161.305 39.8764 160.833 40.1705 160.384 40.5037C159.419 41.2215 158.344 41.7282 157.28 42.2612C157.148 42.3274 157.007 42.3802 156.866 42.4231C156.296 42.5965 155.724 42.764 155.153 42.9326C154.51 43.1222 153.869 43.3235 153.221 43.4959C152.206 43.7661 151.154 43.77 150.12 43.9072C149.974 43.9265 149.82 43.916 149.674 43.891C148.571 43.7038 147.453 43.6468 146.344 43.5085C146.16 43.4857 145.979 43.4378 145.797 43.3998C144.556 43.1416 143.308 42.9121 142.103 42.5015C141.802 42.3988 141.529 42.422 141.248 42.587C140.928 42.7753 140.587 42.9294 140.252 43.0923C139.543 43.4364 138.926 43.9205 138.287 44.372C138.106 44.5 137.916 44.6165 137.723 44.7263C137.574 44.8111 137.318 44.6837 137.279 44.5067C137.231 44.2896 137.183 44.0747 137.247 43.8463C137.606 42.573 137.593 41.2704 137.551 39.8739Z" fill="white"/>
<path fill-rule="evenodd" clip-rule="evenodd" d="M75.0137 81.816C75.0137 81.816 76.6385 79.5913 77.1995 78.4317C77.7604 77.2721 78.2879 75.0474 78.2879 75.0474C78.2879 75.0474 89.8822 91.4637 88.0477 91.6774C84.3804 92.1046 75.0137 81.816 75.0137 81.816Z" fill="#E7EAEE"/>
<path d="M125.011 134.367C123.176 131.449 119.275 124.646 117.479 121.772C117.437 121.706 125.802 114.014 133.247 115.961C133.986 116.155 135.408 119.037 136.105 119.38C137.402 120.02 137.17 116.894 139.654 112.49C143.564 105.556 150.766 95.2006 153.594 89.0185C154.743 86.506 153.93 84.5477 153.809 83.999C153.36 81.9696 152.307 80.3139 150.787 78.9234C149.801 78.0214 149.762 76.0085 150.884 75.4539C151.713 75.0444 152.648 74.9147 153.594 75.3871C154.673 75.9265 155.748 76.4367 156.491 77.4422C156.591 77.578 156.767 77.6578 156.908 77.7635C156.976 77.5922 157.051 77.4233 157.111 77.2492C157.71 75.5026 158.26 73.738 158.916 72.0132C159.496 70.4891 160.138 68.9821 160.867 67.525C161.107 67.0448 161.713 66.4263 162.139 66.436C162.766 66.4503 163.174 67.127 163.268 67.8365C163.318 68.2127 163.372 68.589 163.443 68.9616C163.474 69.1253 163.553 69.2799 163.61 69.4386C163.724 69.3026 163.829 69.1586 163.953 69.0323C164.325 68.6511 164.655 68.2014 165.092 67.9181C165.693 67.529 166.377 67.9615 166.329 68.7091C166.262 69.7419 166.181 70.7918 165.932 71.7908C165.484 73.5871 164.905 75.3505 164.387 77.1297C164.356 77.2356 164.386 77.3592 164.387 77.4745C164.504 77.412 164.678 77.3791 164.728 77.2822C165.054 76.6498 165.402 76.022 165.65 75.3577C166.049 74.2841 166.653 73.3646 167.527 72.6385C167.73 72.4695 168.06 72.4529 168.332 72.3662C168.41 72.6186 168.607 72.9028 168.549 73.1183C168.128 74.6769 167.764 76.2641 167.178 77.7624C165.702 81.5372 164.126 85.2729 162.576 89.0185C161.681 91.1832 160.641 93.2963 159.88 95.5066C159.105 97.7602 158.654 100.123 157.95 102.404C157.205 104.822 156.345 107.206 155.506 109.595C154.231 113.226 153.083 116.912 151.592 120.452C150.427 123.219 148.909 125.853 147.383 128.448C146.24 130.393 144.931 132.263 143.507 134.013C142.671 135.041 141.484 135.79 140.425 136.628C138.73 137.968 136.805 138.824 134.698 139.307C132.272 139.863 130.119 139.43 128.309 137.661C127.213 136.589 126.138 135.494 125.011 134.367Z" fill="white"/>
<path fill-rule="evenodd" clip-rule="evenodd" d="M67.9506 62.4114C67.7169 62.884 67.732 63.2975 68.0366 63.6989C68.173 63.8787 68.3206 64.0501 68.4681 64.2216L68.4682 64.2217C68.6266 64.4058 68.7851 64.5899 68.9297 64.7844C69.1482 65.0781 69.3739 65.368 69.5997 65.658L69.5997 65.658C70.1924 66.4194 70.7857 67.1815 71.251 68.0145C71.9085 69.1915 72.67 70.0595 74.0518 70.3087C74.6126 70.41 74.8244 70.8581 74.8915 71.4484C74.985 72.2696 75.1379 73.1022 75.4106 73.8789C75.6058 74.4347 76.1217 74.8031 76.7789 74.7319C77.087 74.6986 77.3939 74.6466 77.7005 74.5946C78.1725 74.5146 78.6438 74.4346 79.1175 74.4233C79.5714 74.4124 80.1601 74.531 80.4652 74.8237C81.2805 75.6057 82.0312 76.4562 82.7811 77.3057L82.7812 77.3058L82.7815 77.3061C82.9364 77.4816 83.0913 77.6571 83.2467 77.8319C83.3041 77.8965 83.3605 77.9616 83.4165 78.0263C83.9642 78.659 84.4732 79.247 85.5614 78.8695C86.8537 78.4212 88.2126 78.2203 89.6145 78.3116C90.9002 78.3953 91.4023 77.9597 91.7979 76.7008C91.8385 76.5717 91.8729 76.4397 91.9072 76.3079L91.9072 76.3078C91.9736 76.0532 92.0398 75.7988 92.1508 75.5654C92.1929 75.4768 92.2344 75.3871 92.2762 75.2971L92.2762 75.297C92.5047 74.8041 92.7383 74.3 93.0908 73.9127C93.7277 73.2132 94.5533 73.3206 95.3995 73.6208C96.3518 73.9585 96.8458 73.7514 97.2567 72.8855C97.4306 72.519 97.4881 72.5237 97.8061 72.7582C98.0634 72.948 98.4688 73.0357 98.7968 73.0114C99.6083 72.9513 100.421 72.8378 101.217 72.6677C101.504 72.6063 101.885 72.3789 101.983 72.1318C102.103 71.83 102.224 71.5284 102.345 71.2268L102.345 71.2251C103.028 69.5212 103.711 67.8148 104.258 66.0667C105.147 63.2233 105.809 60.3122 105.807 57.3087C105.806 55.2967 105.747 53.2846 105.688 51.2728C105.673 50.7628 105.658 50.2528 105.644 49.7429C105.638 49.5014 105.632 49.2597 105.626 49.018L105.626 49.0161V49.0161C105.6 47.9125 105.574 46.8077 105.463 45.7122C105.263 43.7355 105.005 41.7644 104.748 39.7937L104.748 39.7934C104.704 39.4623 104.661 39.1311 104.618 38.7999C104.492 37.829 104.345 36.8608 104.198 35.8926L104.198 35.8924L104.198 35.8913C104.15 35.5715 104.101 35.2517 104.053 34.9318L103.95 34.2388L103.95 34.2378C103.721 32.6987 103.491 31.1596 103.249 29.6225C103.239 29.5624 103.231 29.5002 103.222 29.4372C103.177 29.1173 103.13 28.7746 102.949 28.5584C102.788 28.3652 102.628 28.1716 102.467 27.9778L102.466 27.9774C101.436 26.7368 100.403 25.4927 99.2545 24.3701C98.3531 23.4894 97.2668 22.7821 96.1999 22.0875L96.1999 22.0875L96.0612 21.9972C93.1459 20.0978 89.8806 19.2427 86.4483 19.0171C85.5078 18.9553 84.5625 18.9695 83.6169 18.9838C83.0508 18.9923 82.4846 19.0009 81.9192 18.9931C81.4031 18.986 81.1236 19.1504 80.7887 19.6006C80.3442 20.198 79.68 20.6787 79.0243 21.0629C77.3866 22.0224 75.9455 23.1495 74.8386 24.7339C73.3846 26.8151 72.0525 28.9563 71.1819 31.3435C70.5104 33.1847 70.0458 35.0757 69.8856 37.0564C69.8339 37.6959 69.705 38.3269 69.576 38.9584C69.3264 40.1802 69.0766 41.4034 69.3849 42.6917C69.5178 43.2468 69.5951 43.8162 69.6723 44.3852C69.7629 45.0522 69.8534 45.7187 70.0333 46.361L70.1327 46.7151C70.7065 48.7552 71.2695 50.757 71.1575 52.9524C71.037 55.3121 70.1998 57.3738 69.2298 59.6074C69.1059 59.8816 68.9839 60.1566 68.8619 60.4317L68.8619 60.4317C68.5672 61.0961 68.2725 61.7605 67.9506 62.4114ZM106.331 46.8739C106.332 46.8942 106.33 46.9161 106.328 46.9378C106.324 46.9768 106.32 47.0151 106.336 47.0419C106.386 47.1246 106.445 47.2014 106.505 47.2782L106.505 47.2783C106.515 47.2916 106.526 47.3049 106.536 47.3182C106.549 47.3353 106.562 47.3523 106.575 47.3695C106.6 47.3468 106.627 47.3251 106.654 47.3033C106.711 47.2563 106.768 47.2093 106.814 47.1532C106.946 46.9937 107.078 46.835 107.21 46.6763L107.21 46.6762C107.587 46.2247 107.964 45.7731 108.317 45.304C109.096 44.2691 109.858 43.2209 110.604 42.162C111.044 41.5377 110.607 41.2791 110.085 41.242C108.998 41.165 108.078 41.6242 107.145 42.1608C106.478 42.5442 105.986 42.8654 106.161 43.8775L106.186 44.3277L106.186 44.3287C106.235 45.1771 106.283 46.0255 106.331 46.8739ZM69.1229 47.3543C69.0993 47.3926 69.0758 47.431 69.0587 47.4681C68.594 47.2466 68.1631 46.982 67.7365 46.72C67.3631 46.4907 66.993 46.2635 66.6064 46.0689C65.7327 45.6291 65.4253 44.8303 65.1455 44.0364C64.8235 43.1228 65.5401 42.25 66.5117 42.2567C66.5549 42.257 66.5983 42.2571 66.6418 42.2573C66.9881 42.2585 67.3397 42.2597 67.6727 42.3328C68.327 42.4762 68.3919 42.9832 68.4544 43.4717C68.4738 43.6234 68.493 43.7732 68.5295 43.9098C68.7631 44.7842 68.9338 45.6756 69.1043 46.5663C69.1395 46.7506 69.1748 46.9348 69.2106 47.1189C69.2243 47.189 69.1736 47.2716 69.1229 47.3543Z" fill="white"/>
<ellipse cx="100.287" cy="57.4932" rx="2.28666" ry="2.28667" fill="#FFB61D"/>
<circle cx="76.44" cy="55.5332" r="2.28667" fill="#FFB61D"/>
<path fill-rule="evenodd" clip-rule="evenodd" d="M87.2497 27.9804C88.5527 28.2603 89.9658 28.6 91.2826 27.8849C91.7285 27.6428 92.1477 27.3446 92.5541 27.0387C92.802 26.8522 93.025 26.6206 93.2199 26.3777C94.7666 24.4495 95.908 24.7374 98.0377 25.9964C100.763 27.607 103.918 32.2985 95.4698 32.2985C91.2148 32.2985 74.2193 29.9815 76.5923 27.6783C77.5621 26.7369 78.8326 26.1069 79.9584 25.3237C80.3823 25.0288 80.8139 24.7335 81.1881 24.3811C81.7301 23.8706 82.059 24.1402 82.3974 24.6095C82.8422 25.2263 83.3065 25.8291 83.8052 26.4807C84.9781 27.0267 86.0661 27.7262 87.2497 27.9804Z" fill="#E7EAEE"/>
<path fill-rule="evenodd" clip-rule="evenodd" d="M132.782 116.186C132.341 116.451 131.9 116.717 131.425 116.897C130.278 117.332 129.115 117.725 127.94 118.122L127.94 118.123L127.939 118.123C127.196 118.374 126.447 118.628 125.695 118.894C125.468 118.983 125.268 119.041 125.075 119.097L125.073 119.097L125.071 119.098L124.989 119.122L124.94 119.137C124.268 119.337 123.597 119.539 122.925 119.741C121.239 120.248 119.554 120.755 117.859 121.23C117.173 121.423 116.606 121.207 116.233 120.465C115.307 118.623 114.316 116.812 113.319 115.006C113.249 114.881 113.078 114.811 112.908 114.742C112.828 114.71 112.749 114.678 112.68 114.64C112.654 114.728 112.613 114.823 112.571 114.918C112.482 115.124 112.393 115.329 112.459 115.454C113.57 117.59 114.712 119.712 115.906 121.803C116.054 122.062 116.589 122.299 116.884 122.241C118.452 121.932 120.008 121.554 121.553 121.144C122.151 120.986 122.742 120.801 123.333 120.616L123.333 120.616L123.333 120.616L123.333 120.616L123.333 120.616L123.333 120.616L123.333 120.615L123.333 120.615L123.333 120.615L123.334 120.615L123.334 120.615L123.334 120.615L123.334 120.615L123.334 120.615L123.334 120.615C124.185 120.349 125.036 120.082 125.904 119.896C128.887 119.258 131.74 118.336 134.301 116.63C135.22 116.018 135.472 115.081 135.025 114.111C134.869 113.772 134.71 113.434 134.551 113.096C134.002 111.93 133.453 110.764 133.023 109.555C131.706 105.851 130.224 102.219 128.478 98.7008C127.373 96.4742 126.2 94.2766 124.954 92.1264C123.288 89.2536 121.544 86.3834 118.866 84.3392C117.005 82.9196 115.014 81.5825 112.896 80.6122C109.8 79.1939 106.401 78.8832 103.018 78.6474C102.327 78.5993 101.6 78.34 100.99 77.9993C99.7654 77.3164 99.2681 76.1065 98.7673 74.8882C98.7125 74.7549 98.6576 74.6215 98.6018 74.4886C98.3547 73.9009 98.7524 73.7909 99.0027 73.7391C99.6471 73.6058 100.328 73.5001 100.976 73.5656C101.985 73.6675 102.541 73.1976 102.911 72.3606C103.82 70.3075 104.616 68.2195 105.216 66.0467C106.048 63.0385 106.759 60.0305 106.683 56.8779C106.65 55.5116 106.658 54.1445 106.665 52.7772V52.7764C106.669 52.0635 106.673 51.3505 106.671 50.6377C106.671 50.4431 106.647 50.2397 106.624 50.0369V50.0368C106.576 49.6289 106.529 49.2237 106.671 48.8988C107.02 48.0995 107.594 47.3823 108.15 46.6931C108.59 46.1478 109.05 45.6183 109.51 45.0888L109.51 45.0887C110.067 44.4471 110.624 43.8057 111.146 43.1365C111.566 42.5976 111.879 41.9111 111.456 41.1954C111.043 40.4963 110.38 40.2126 109.61 40.3863C109.478 40.4161 109.345 40.4442 109.212 40.4724C108.244 40.6772 107.265 40.8842 106.582 41.7423C106.253 42.1546 106.063 42.156 105.978 41.5581C105.915 41.1139 105.825 40.6736 105.736 40.2332C105.642 39.7772 105.549 39.3213 105.486 38.8612C105.408 38.2948 105.356 37.725 105.303 37.1552L105.303 37.1549L105.303 37.1545L105.303 37.1541L105.303 37.1537L105.303 37.1533V37.1532C105.252 36.6012 105.201 36.0492 105.127 35.5004C105.023 34.7299 104.906 33.961 104.789 33.1921C104.612 32.0284 104.434 30.8647 104.303 29.6958C104.225 29.0016 104.033 28.4456 103.567 27.9396C103.325 27.6771 103.08 27.4171 102.834 27.1569C102.082 26.3597 101.328 25.5615 100.679 24.6869C98.8881 22.2734 96.3444 21.0076 93.7047 19.8597C92.0038 19.12 90.245 18.5909 88.3747 18.4841C87.5516 18.4371 86.7292 18.3785 85.9068 18.3199C85.0669 18.26 84.2271 18.2001 83.3866 18.1526C82.6951 18.1136 81.992 18.0857 81.3092 18.1717C80.9697 18.2145 80.63 18.486 80.3499 18.724C80.0734 18.9589 79.8102 19.2103 79.5471 19.4615L79.5471 19.4615C79.2082 19.7852 78.8695 20.1087 78.5026 20.3967C78.1158 20.7004 77.7061 20.9792 77.2969 21.2576L77.2969 21.2577C76.6252 21.7148 75.9549 22.171 75.3896 22.7347C74.7397 23.3827 74.2206 24.1636 73.7024 24.943L73.7023 24.9433L73.7022 24.9434L73.7021 24.9435L73.7021 24.9435C73.5115 25.2303 73.321 25.5168 73.1242 25.7964C71.6624 27.8733 70.5393 30.1179 69.921 32.5888C69.5383 34.1182 69.2142 35.6629 68.8925 37.2066L68.8415 37.4509L68.8415 37.451C68.6055 38.5811 68.369 39.7139 68.2204 40.8568L68.2138 40.9074C68.0963 41.8127 68.0874 41.8814 67.2189 41.5603C66.3221 41.2287 65.5491 41.4527 64.9178 42.0611C64.2973 42.6589 64.229 43.4654 64.4447 44.2783C65.0764 46.6592 66.8961 47.656 69.0714 48.2499C69.2613 48.3017 69.471 48.487 69.5614 48.6659C70.4994 50.521 70.5399 52.4941 69.9463 54.4075C69.3996 56.1694 68.7522 57.9 68.1046 59.6306C67.819 60.3942 67.5333 61.1578 67.2562 61.9241C66.9709 62.7133 66.8145 63.4368 67.4681 64.2011C68.8737 65.8451 70.2161 67.5466 71.2301 69.475C71.6322 70.2396 72.2494 70.7901 73.0771 70.9563C73.8656 71.1145 73.9726 71.5044 74.0655 72.2443C74.1878 73.2193 74.5123 74.2441 75.0392 75.061C75.2064 75.3203 75.6574 75.3904 76.1191 75.4622C76.3634 75.5003 76.6108 75.5387 76.8206 75.606C76.992 75.6609 77.264 75.8894 77.2429 75.9822C77.2054 76.1475 77.169 76.3134 77.1325 76.4795C76.9576 77.2758 76.7817 78.0762 76.4862 78.8279C75.8391 80.4736 74.4625 81.5033 73.1265 82.5026L73.1251 82.5036C72.943 82.6399 72.7616 82.7756 72.5829 82.9122C70.2503 84.6955 67.4755 85.6748 64.6877 86.5199C63.3786 86.9167 62.0505 87.2506 60.7223 87.5846L60.722 87.5847L60.7218 87.5847L60.7216 87.5848L60.7213 87.5849L60.7211 87.585L60.7209 87.585L60.7206 87.5851L60.7204 87.5852L60.7202 87.5852L60.7199 87.5853L60.7197 87.5854L60.7194 87.5854L60.7192 87.5855L60.719 87.5856C59.8566 87.8024 58.9942 88.0193 58.1367 88.2534C57.6025 88.3993 57.0745 88.5718 56.5468 88.7443C55.7642 89.0001 54.9822 89.2556 54.1812 89.4237C51.1042 90.0692 48.3899 91.3971 46.0058 93.4307C44.4034 94.7976 43.5433 96.6357 42.6783 98.484L42.5521 98.7535C41.3831 101.245 40.3581 103.901 40.2137 106.597C40.1732 107.354 40.231 108.115 40.2888 108.876C40.318 109.261 40.3472 109.646 40.3637 110.031C40.4009 110.895 40.4327 111.76 40.4646 112.625C40.5338 114.506 40.603 116.387 40.727 118.265C40.7962 119.312 40.9824 120.352 41.1684 121.391C41.2217 121.689 41.2751 121.988 41.3257 122.286C41.4633 123.097 41.6169 123.906 41.7705 124.715C41.873 125.254 41.9755 125.794 42.0732 126.334C42.137 126.686 42.2054 127.038 42.2738 127.39L42.2738 127.391C42.4579 128.338 42.642 129.285 42.7355 130.242C42.8214 131.12 42.7965 132.01 42.7715 132.899L42.7715 132.899C42.7641 133.162 42.7567 133.425 42.7522 133.688C42.7443 134.15 42.8252 134.525 43.381 134.399C43.9302 134.275 44.4698 134.109 45.0092 133.942L45.0097 133.942L45.01 133.942L45.0102 133.942L45.0104 133.941L45.0105 133.941L45.0106 133.941L45.0107 133.941L45.0108 133.941L45.0108 133.941L45.0109 133.941L45.011 133.941C45.1801 133.889 45.3492 133.837 45.5186 133.786C46.0912 133.614 46.4421 133.815 46.5159 134.404C46.589 134.987 46.6533 135.57 46.7177 136.154C46.8154 137.039 46.913 137.925 47.0411 138.806C47.3523 140.949 47.6946 143.087 48.0638 145.22C48.7416 149.136 49.7187 152.983 51.0023 156.74C52.1435 160.081 53.3779 163.391 54.6241 166.695C55.3418 168.597 56.1095 170.481 56.8771 172.364L56.8771 172.364L56.8774 172.365L56.8777 172.366L56.878 172.366L56.8783 172.367L56.8786 172.368L56.8789 172.368L56.8792 172.369C57.0748 172.849 57.2704 173.329 57.4652 173.809C58.2566 175.761 59.0651 177.706 59.8749 179.65C60.0628 180.101 60.2484 180.554 60.4341 181.006C60.9786 182.332 61.5231 183.658 62.1242 184.958C62.6461 186.087 63.2392 187.183 63.832 188.278L63.8324 188.279C64.0072 188.602 64.1819 188.925 64.3548 189.249C64.4086 189.349 64.5166 189.421 64.6246 189.493C64.6747 189.526 64.7249 189.559 64.7696 189.595C64.7911 189.536 64.8162 189.477 64.8413 189.418C64.9 189.28 64.9587 189.142 64.9722 189C64.9827 188.888 64.9195 188.767 64.8591 188.65L64.8587 188.65C64.8429 188.619 64.8273 188.589 64.8132 188.56C64.6116 188.137 64.403 187.717 64.1945 187.298C63.7572 186.418 63.3199 185.538 62.9466 184.631C61.6533 181.491 60.4127 178.329 59.1765 175.165C58.6211 173.744 58.0782 172.318 57.5352 170.891C57.0006 169.487 56.466 168.083 55.9196 166.683C55.5799 165.813 55.2208 164.95 54.8617 164.087L54.8615 164.086L54.8614 164.086C54.2186 162.541 53.5759 160.996 53.045 159.413C51.918 156.053 50.9096 152.648 49.9965 149.223C49.482 147.293 49.1284 145.318 48.7754 143.347C48.712 142.992 48.6485 142.638 48.5842 142.284C48.4061 141.305 48.2928 140.314 48.1794 139.323L48.1794 139.323C48.1407 138.985 48.1021 138.647 48.0608 138.31C47.8816 136.843 47.7127 135.374 47.5485 133.906C47.4937 133.416 47.7105 133.185 48.21 133.026C50.1219 132.421 52.0245 131.787 53.9272 131.153L53.9276 131.153L53.928 131.153L53.9284 131.153L53.9288 131.153L53.9292 131.152L53.9296 131.152L53.93 131.152L53.9304 131.152L53.9412 131.149C54.6132 130.925 55.2853 130.701 55.9578 130.478C56.4603 130.312 56.9953 130.152 57.5453 129.988L57.5458 129.988L57.5462 129.988C59.5839 129.38 61.8267 128.712 63.3775 127.407C63.4674 127.331 63.7025 127.288 63.7588 127.343C63.8601 127.443 63.9317 127.632 63.921 127.777C63.8675 128.501 63.8025 129.225 63.7375 129.949C63.6093 131.376 63.4812 132.803 63.441 134.233C63.3901 136.047 63.4771 137.866 63.564 139.682C63.5755 139.922 63.587 140.162 63.5982 140.402C63.6518 141.554 63.7377 142.716 63.9444 143.848C64.4704 146.73 65.5618 149.427 66.8432 152.047C67.0295 152.428 67.2511 152.794 67.4723 153.16C67.8032 153.707 68.1332 154.253 68.3432 154.844C68.6642 155.747 69.0036 156.644 69.343 157.54C70.2749 160.003 71.2071 162.466 71.7605 165.057C71.9346 165.872 72.1379 166.681 72.3411 167.49C72.5667 168.388 72.7922 169.285 72.9779 170.191C73.2642 171.588 73.4871 172.998 73.71 174.408C73.7614 174.733 73.8127 175.057 73.8648 175.382C73.9285 175.779 73.9996 176.175 74.0707 176.572C74.2636 177.649 74.4567 178.727 74.5032 179.81C74.5958 181.966 74.6252 184.124 74.6545 186.282V186.282L74.6546 186.283V186.283V186.283V186.284V186.284V186.284V186.284V186.285V186.285V186.285V186.285V186.285V186.286V186.286V186.286C74.6702 187.437 74.6859 188.589 74.7112 189.74C74.715 189.911 74.788 190.082 74.861 190.252C74.8949 190.331 74.9288 190.41 74.9558 190.489C75.001 190.409 75.0572 190.33 75.1133 190.25C75.2349 190.078 75.3564 189.907 75.3667 189.728C75.4231 188.757 75.4563 187.784 75.4894 186.811L75.4894 186.81V186.81C75.5108 186.183 75.5322 185.555 75.5598 184.928C75.5729 184.63 75.604 184.331 75.635 184.033L75.6351 184.033L75.6351 184.033L75.6351 184.033L75.6351 184.033L75.6351 184.033L75.6351 184.033L75.6351 184.032L75.6351 184.032L75.6351 184.032L75.6352 184.032L75.6352 184.032L75.6352 184.032L75.6352 184.032L75.6352 184.031C75.6818 183.584 75.7284 183.137 75.7143 182.691C75.6996 182.226 75.6864 181.76 75.6731 181.295L75.6731 181.293L75.6731 181.292L75.673 181.29L75.673 181.289C75.6121 179.15 75.5513 177.011 75.3504 174.885C75.2158 173.46 74.8781 172.049 74.542 170.646L74.5419 170.645L74.5418 170.645C74.4773 170.376 74.4129 170.107 74.3499 169.838C74.1991 169.193 74.0519 168.547 73.9046 167.901L73.9046 167.901C73.3825 165.611 72.86 163.318 72.1739 161.077C71.047 157.397 69.5175 153.864 67.7602 150.426C66.9614 148.863 66.292 147.194 65.8434 145.5C64.9627 142.172 64.8863 138.733 64.8104 135.313L64.8033 134.991C64.768 133.417 64.8327 131.841 64.8974 130.265L64.8974 130.264L64.8975 130.264L64.8975 130.264L64.8975 130.264L64.8975 130.264L64.8975 130.264L64.8975 130.264L64.8975 130.264L64.8975 130.264L64.8975 130.263L64.8975 130.263L64.8975 130.263L64.8975 130.263L64.8975 130.263C64.9196 129.726 64.9417 129.188 64.9597 128.651C64.9835 127.945 65.0377 127.24 65.092 126.535C65.1038 126.38 65.1157 126.226 65.1273 126.072C65.1798 125.37 65.2439 124.668 65.3081 123.966L65.3081 123.966L65.3081 123.966L65.3081 123.966L65.3081 123.966L65.3081 123.966L65.3081 123.965L65.3081 123.965L65.3081 123.965L65.3081 123.965L65.3081 123.965L65.3081 123.965L65.3081 123.965L65.3081 123.965L65.3081 123.965C65.4484 122.43 65.5886 120.896 65.6077 119.359C65.6231 118.124 65.5429 116.887 65.4627 115.651C65.3962 114.626 65.3297 113.602 65.3175 112.577C65.3004 111.131 64.883 109.794 64.4653 108.456L64.4653 108.456C64.3328 108.032 64.2003 107.608 64.0806 107.18C64.0346 107.015 63.8644 106.886 63.6943 106.756C63.6155 106.696 63.5368 106.636 63.4703 106.573C63.4444 106.665 63.407 106.76 63.3696 106.856C63.288 107.063 63.2063 107.271 63.2436 107.454C63.3183 107.822 63.4298 108.185 63.5411 108.546C63.6968 109.053 63.8522 109.558 63.9059 110.075C64.1462 112.39 64.3741 114.716 64.4114 117.041C64.427 118.014 64.351 118.99 64.2751 119.965C64.1903 121.052 64.1057 122.14 64.1483 123.223C64.2091 124.768 63.4209 125.589 62.3653 126.373C60.977 127.405 58.9939 128.001 57.2136 128.536L57.2135 128.536L57.2134 128.536L57.2131 128.536L57.2128 128.536L57.2125 128.536L57.212 128.536C56.7408 128.678 56.2839 128.815 55.8559 128.955C53.195 129.826 50.5498 130.745 47.9047 131.664C46.8124 132.043 45.7201 132.423 44.6267 132.799L44.6083 132.805C44.2428 132.931 43.9413 133.035 43.9418 132.411C43.9424 131.651 43.8636 130.888 43.7851 130.13L43.7809 130.089C43.7362 129.657 43.6924 129.225 43.6487 128.793C43.4795 127.123 43.3103 125.454 43.0901 123.791C42.9557 122.775 42.7924 121.763 42.6291 120.751C42.4339 119.542 42.2388 118.332 42.0929 117.117C41.8878 115.408 41.7661 113.681 41.7522 111.961C41.7382 110.218 41.7918 108.475 41.8455 106.732C41.8665 106.048 41.8876 105.364 41.9045 104.68C41.95 102.844 42.8513 101.16 43.7301 99.5183C44.059 98.9039 44.3847 98.2953 44.6613 97.6868C46.0641 94.6007 48.7056 92.899 51.6789 91.697C53.108 91.1192 54.5987 90.6924 56.0886 90.2658C56.6359 90.1091 57.1832 89.9524 57.7271 89.7883C58.9459 89.4206 60.1677 89.0625 61.3895 88.7044L61.3898 88.7043L61.39 88.7042L61.3903 88.7041L61.3906 88.704L61.3909 88.7039L61.3912 88.7038L61.3914 88.7037L61.3917 88.7036L61.392 88.7035L61.3923 88.7034L61.3926 88.7034L61.3928 88.7033L61.3931 88.7032L61.3934 88.7031C63.8026 87.997 66.2116 87.291 68.5968 86.5115C70.7253 85.8159 72.7521 84.8194 74.4284 83.277C74.8876 82.8545 75.1135 82.9295 75.5185 83.3166C76.8407 84.5803 78.1944 85.8114 79.5477 87.0421L79.7811 87.2544C82.0887 89.3534 84.6572 91.0696 87.5131 92.3213C87.9361 92.5067 88.6291 92.4809 89.0224 92.2521C89.909 91.7363 90.7384 91.1194 91.566 90.5038C91.7365 90.3769 91.907 90.2501 92.0779 90.1242C92.419 89.873 92.7606 89.6225 93.1023 89.3719L93.1061 89.3692L93.1099 89.3664C94.54 88.3177 95.9705 87.2687 97.3614 86.17C98.8389 85.0028 99.8962 83.4649 100.95 81.9325L100.95 81.9324L100.95 81.9321L100.95 81.9319L100.95 81.9316L100.951 81.9314L100.951 81.9311L100.951 81.9309C101.119 81.6863 101.287 81.4418 101.457 81.199C101.524 81.1034 101.288 80.611 101.137 80.5804C100.545 80.4605 100.273 80.8463 99.9879 81.2509C99.9337 81.3279 99.879 81.4055 99.8216 81.4804C99.585 81.7889 99.3542 82.1058 99.123 82.4231C98.4066 83.4064 97.6863 84.395 96.781 85.1583C95.3367 86.376 93.8196 87.5068 92.3021 88.6379L92.302 88.638L92.3019 88.6381L92.3018 88.6381L92.3017 88.6382L92.3016 88.6383L92.3015 88.6383L92.3015 88.6384L92.3014 88.6385L92.3013 88.6385L92.3012 88.6386L92.3011 88.6387L92.301 88.6387L92.3009 88.6388L92.3008 88.6389L92.3006 88.6391L92.3003 88.6393L92.3001 88.6394L92.2999 88.6396L92.2996 88.6398L92.2994 88.64L92.2991 88.6402L92.2989 88.6404L92.2987 88.6405L92.2984 88.6407L92.2982 88.6409L92.2979 88.6411L92.2977 88.6413L92.2975 88.6414C91.2193 89.445 90.141 90.2488 89.0885 91.0841C88.4327 91.6044 87.9501 91.5663 87.3163 91.2086C87.1774 91.1302 87.0385 91.0521 86.8996 90.9742C85.4212 90.1438 83.9549 89.3202 82.6758 88.1448C81.0319 86.6341 79.3065 85.2116 77.5817 83.7896L77.5802 83.7884L77.5788 83.7872L77.5774 83.786L77.5772 83.7859L77.577 83.7857L77.5769 83.7856L77.5767 83.7854L77.5765 83.7853L77.5764 83.7852L77.5762 83.785L77.5761 83.7849L77.5759 83.7848L77.5757 83.7846L77.5756 83.7845C77.0844 83.3795 76.5933 82.9747 76.1041 82.5677C75.6486 82.1888 75.7305 81.9546 76.1222 81.5963C77.4348 80.3956 78.139 78.9102 78.3299 77.1179C78.3416 77.0086 78.3455 76.8883 78.3495 76.7634V76.7634C78.3678 76.1983 78.3892 75.538 79.1451 75.3617C79.8717 75.1923 80.4134 75.6672 80.8471 76.1934C81.1253 76.5311 81.3908 76.8794 81.6563 77.2277L81.6564 77.2278L81.6564 77.2279L81.6565 77.2279L81.6566 77.228L81.6566 77.2281L81.6567 77.2282L81.6568 77.2283L81.6569 77.2283L81.6569 77.2284L81.657 77.2285L81.6571 77.2286L81.6571 77.2287L81.6572 77.2287L81.6573 77.2288C81.9879 77.6625 82.3185 78.096 82.6732 78.5089L82.7399 78.5867C83.4181 79.3779 84.1651 80.2493 85.3442 79.8416C86.9927 79.2716 88.6566 79.1655 90.3699 79.1453C90.8569 79.1395 91.5333 78.7753 91.783 78.3675C92.1957 77.6931 92.5007 76.9527 92.8057 76.2124C92.9236 75.9262 93.0415 75.6399 93.1656 75.3576C93.6029 74.3629 94.0576 73.9912 95.1525 74.3899C95.6281 74.5631 96.2578 74.701 96.6883 74.5298C97.5408 74.1908 97.702 74.6018 97.9411 75.2114L97.9706 75.2866C98.5289 76.7006 99.0969 78.1187 100.444 79.0409C101.332 79.6488 102.338 79.8171 103.344 79.9855L103.344 79.9855L103.345 79.9856L103.346 79.9858L103.457 80.0044C103.513 80.0138 103.569 80.0232 103.624 80.0328C104.498 80.1825 105.375 80.3168 106.252 80.451L106.252 80.4511L106.253 80.4511L106.253 80.4511L106.253 80.4512L106.254 80.4512L106.254 80.4513L106.254 80.4513L106.254 80.4514L106.255 80.4514L106.255 80.4515L106.255 80.4515L106.255 80.4516L106.256 80.4516L106.256 80.4516L106.256 80.4517L106.256 80.4517L106.256 80.4517L106.256 80.4517L106.257 80.4518L106.257 80.4518L106.257 80.4518L106.257 80.4518L106.257 80.4519L106.257 80.4519L106.257 80.4519L106.257 80.4519L106.257 80.4519L106.258 80.452C107.52 80.6452 108.782 80.8384 110.035 81.0776C113.301 81.701 116.1 83.3786 118.499 85.5492C120.175 87.0654 121.528 88.9747 122.848 90.8365L122.848 90.8366L122.886 90.8903C123.845 92.2424 124.624 93.728 125.399 95.2046L125.402 95.2106L125.5 95.3985L125.667 95.7148C125.906 96.1696 126.148 96.6238 126.389 97.078L126.391 97.0805L126.392 97.0829L126.393 97.0853C127.503 99.1718 128.613 101.261 129.554 103.422C130.643 105.923 131.635 108.466 132.628 111.009L132.628 111.01L132.629 111.011L132.629 111.012L132.63 111.014L132.63 111.015L132.631 111.016L132.631 111.017L132.631 111.018C133.112 112.25 133.593 113.482 134.085 114.709C134.25 115.121 134.303 115.382 133.802 115.618C133.452 115.783 133.117 115.984 132.782 116.186ZM68.8615 60.4315C68.9835 60.1564 69.1055 59.8814 69.2295 59.6073C70.1994 57.3736 71.0367 55.3119 71.1571 52.9522C71.2691 50.7569 70.7061 48.755 70.1324 46.715L70.0329 46.3608C69.8531 45.7185 69.7626 45.0521 69.672 44.385C69.5947 43.816 69.5174 43.2467 69.3846 42.6915C69.0762 41.4032 69.3261 40.18 69.5756 38.9582C69.7046 38.3268 69.8335 37.6957 69.8852 37.0562C70.0455 35.0756 70.51 33.1845 71.1816 31.3433C72.0522 28.9561 73.3843 26.8149 74.8383 24.7337C75.9451 23.1494 77.3863 22.0223 79.024 21.0627C79.6797 20.6785 80.3439 20.1978 80.7883 19.6004C81.1233 19.1502 81.4028 18.9858 81.9189 18.9929C82.4843 19.0007 83.0505 18.9921 83.6166 18.9836C84.5622 18.9693 85.5074 18.9551 86.448 19.0169C89.8803 19.2425 93.1456 20.0976 96.0609 21.997L96.1995 22.0873C97.2664 22.7819 98.3528 23.4892 99.2542 24.3699C100.403 25.4925 101.436 26.7366 102.466 27.9772L102.466 27.9776C102.627 28.1714 102.788 28.3651 102.949 28.5582C103.13 28.7744 103.177 29.1171 103.221 29.437L103.221 29.4371C103.23 29.5001 103.239 29.5622 103.248 29.6223C103.491 31.1594 103.72 32.6986 103.95 34.2378L104.053 34.9317C104.101 35.252 104.149 35.5722 104.198 35.8925L104.198 35.8927L104.198 35.8928L104.198 35.893L104.198 35.8932L104.198 35.8933L104.198 35.8935L104.198 35.8937L104.198 35.8939L104.198 35.894L104.198 35.8942L104.198 35.8944L104.198 35.8945L104.198 35.8947L104.198 35.8949C104.345 36.8622 104.492 37.8296 104.618 38.7997C104.66 39.1256 104.703 39.4515 104.745 39.7773L104.746 39.7826L104.747 39.7879L104.747 39.7933L104.747 39.7935L104.747 39.7936L104.747 39.7938L104.747 39.7939L104.747 39.7941L104.747 39.7943L104.747 39.7944L104.747 39.7946L104.747 39.7947L104.748 39.7949L104.748 39.7951L104.748 39.7952L104.748 39.7954L104.748 39.7955C105.005 41.7656 105.262 43.736 105.462 45.712C105.573 46.8075 105.599 47.9124 105.626 49.016C105.632 49.2583 105.637 49.5006 105.644 49.7427C105.658 50.2497 105.673 50.7566 105.688 51.2636L105.688 51.2643L105.688 51.265L105.688 51.2658L105.688 51.2665L105.688 51.2672L105.688 51.2679L105.688 51.2686L105.688 51.2694L105.688 51.2701L105.688 51.2708L105.688 51.2715L105.688 51.2722C105.747 53.2842 105.806 55.2964 105.807 57.3085C105.809 60.312 105.146 63.2231 104.257 66.0665C103.711 67.8145 103.027 69.5209 102.345 71.2247L102.345 71.2249L102.345 71.2249L102.345 71.225C102.224 71.5272 102.103 71.8293 101.983 72.1316C101.885 72.3787 101.504 72.6062 101.216 72.6675C100.421 72.8376 99.608 72.9512 98.7965 73.0112C98.4684 73.0355 98.0631 72.9478 97.8058 72.758C97.4878 72.5236 97.4303 72.5188 97.2564 72.8853C96.8455 73.7512 96.3515 73.9583 95.3991 73.6206C94.5529 73.3204 93.7274 73.213 93.0905 73.9126C92.738 74.2998 92.5043 74.8039 92.2758 75.2969L92.2272 75.4017C92.2017 75.4565 92.1762 75.5111 92.1504 75.5652C92.0395 75.7986 91.9732 76.053 91.9069 76.3076L91.9069 76.3077C91.8725 76.4396 91.8382 76.5715 91.7976 76.7006C91.402 77.9596 90.8998 78.3951 89.6142 78.3114C88.2123 78.2202 86.8533 78.421 85.5611 78.8693C84.4728 79.2468 83.9639 78.6588 83.4161 78.0261L83.4159 78.0259L83.4145 78.0242L83.414 78.0237C83.3587 77.9598 83.3031 77.8955 83.2463 77.8317C83.0908 77.6568 82.9359 77.4812 82.7809 77.3056L82.7809 77.3056L82.7808 77.3056L82.7808 77.3056L82.7808 77.3055L82.7808 77.3055L82.7808 77.3055L82.7807 77.3055L82.7807 77.3055L82.7807 77.3054L82.7807 77.3054L82.7806 77.3054L82.7806 77.3054L82.7806 77.3053L82.7806 77.3053C82.0308 76.4559 81.2801 75.6055 80.4649 74.8235C80.1597 74.5308 79.571 74.4122 79.1171 74.4231C78.6435 74.4344 78.1722 74.5144 77.7003 74.5944L77.7002 74.5944C77.3936 74.6464 77.0866 74.6984 76.7786 74.7318C76.1213 74.8029 75.6054 74.4345 75.4103 73.8787C75.1376 73.102 74.9846 72.2694 74.8912 71.4482C74.824 70.858 74.6123 70.4098 74.0514 70.3086C72.6696 70.0593 71.9082 69.1913 71.2507 68.0143C70.7853 67.1814 70.1921 66.4193 69.5993 65.6578C69.3736 65.3678 69.1479 65.0779 68.9294 64.7842C68.7847 64.5897 68.6263 64.4056 68.4678 64.2215C68.3203 64.05 68.1727 63.8785 68.0362 63.6987C67.7317 63.2973 67.7165 62.8838 67.9502 62.4113C68.2722 61.7603 68.5668 61.0959 68.8615 60.4315ZM106.187 44.3366L106.16 43.8773C105.986 42.8652 106.477 42.5441 107.144 42.1607C108.078 41.6241 108.998 41.1648 110.084 41.2419C110.606 41.2789 111.044 41.5376 110.604 42.1619C109.858 43.2207 109.096 44.269 108.317 45.3038C107.963 45.773 107.587 46.2246 107.21 46.6762L107.21 46.6763L107.21 46.6763L107.21 46.6764L107.21 46.6765L107.21 46.6766L107.21 46.6767L107.21 46.6768L107.21 46.6769C107.077 46.8354 106.945 46.9938 106.814 47.153C106.768 47.2091 106.711 47.2561 106.653 47.3031L106.653 47.3031C106.627 47.3249 106.6 47.3467 106.575 47.3693C106.552 47.3387 106.528 47.3084 106.505 47.2781L106.505 47.2781C106.445 47.2013 106.385 47.1245 106.335 47.0417C106.319 47.0149 106.323 46.9767 106.327 46.9377C106.33 46.916 106.332 46.894 106.331 46.8737C106.283 46.0295 106.235 45.1852 106.187 44.3409L106.187 44.3404L106.187 44.3399L106.187 44.3393L106.187 44.3388L106.187 44.3383L106.187 44.3377L106.187 44.3372L106.187 44.3366ZM69.1226 47.3541C69.0991 47.3924 69.0755 47.4308 69.0584 47.4679C68.5938 47.2463 68.1629 46.9818 67.7363 46.7198C67.3629 46.4905 66.9928 46.2633 66.6062 46.0687C65.7325 45.6289 65.425 44.8301 65.1452 44.0362C64.8232 43.1226 65.5398 42.2498 66.5114 42.2564L66.6416 42.2571C66.9879 42.2583 67.3395 42.2595 67.6725 42.3325C68.3267 42.476 68.3916 42.983 68.4542 43.4715C68.4736 43.6231 68.4928 43.773 68.5293 43.9096C68.7629 44.784 68.9335 45.6754 69.104 46.5661C69.1393 46.7504 69.1746 46.9346 69.2104 47.1187C69.224 47.1888 69.1733 47.2714 69.1226 47.3541ZM120.922 127.836L120.927 127.844L120.928 127.846L120.938 127.861L120.943 127.87C122.288 130.023 123.637 132.183 125.011 134.367C125.363 134.719 125.71 135.068 126.054 135.414L126.054 135.414L126.054 135.415L126.055 135.415L126.055 135.415L126.055 135.415L126.055 135.415L126.055 135.415L126.058 135.418L126.059 135.419L126.059 135.419C126.815 136.179 127.557 136.925 128.309 137.66C130.119 139.43 132.272 139.863 134.697 139.307C136.804 138.824 138.73 137.968 140.425 136.628C140.693 136.415 140.97 136.208 141.248 136.001C142.063 135.392 142.883 134.78 143.507 134.013C144.93 132.263 146.239 130.393 147.383 128.448C148.909 125.853 150.426 123.219 151.591 120.452C152.677 117.873 153.581 115.218 154.485 112.562L154.485 112.562L154.485 112.562L154.485 112.562L154.485 112.562L154.485 112.562L154.485 112.561L154.485 112.561L154.485 112.561L154.485 112.561L154.485 112.561L154.485 112.561L154.485 112.561L154.485 112.56L154.485 112.56C154.822 111.57 155.159 110.581 155.505 109.595C155.586 109.364 155.668 109.133 155.749 108.903L155.886 108.515L155.886 108.514C156.601 106.486 157.317 104.457 157.95 102.404C158.258 101.407 158.517 100.394 158.776 99.3814L158.776 99.3811C159.11 98.0777 159.444 96.7748 159.88 95.5065C160.381 94.0502 161.003 92.6361 161.626 91.2217L161.626 91.2211C161.948 90.4889 162.27 89.7566 162.576 89.0184C162.896 88.2451 163.217 87.4723 163.538 86.6995L163.543 86.6883L163.543 86.6875C164.776 83.7207 166.008 80.7537 167.178 77.7622C167.642 76.5761 167.966 75.3344 168.29 74.0952C168.375 73.769 168.46 73.443 168.548 73.1182C168.588 72.9709 168.509 72.7915 168.43 72.6121C168.393 72.529 168.356 72.446 168.332 72.3661C168.246 72.3934 168.155 72.4138 168.063 72.4342C167.865 72.4784 167.666 72.5227 167.527 72.6383C166.652 73.3644 166.048 74.284 165.649 75.3576C165.445 75.9076 165.17 76.4325 164.897 76.9558L164.897 76.956C164.84 77.0647 164.783 77.1733 164.727 77.2821C164.693 77.3483 164.601 77.3847 164.509 77.421C164.466 77.4378 164.424 77.4546 164.387 77.4744C164.386 77.4378 164.383 77.4003 164.38 77.3628C164.373 77.2823 164.365 77.2018 164.386 77.1296C164.552 76.56 164.724 75.992 164.896 75.424C165.262 74.2179 165.627 73.0119 165.932 71.7906C166.181 70.7916 166.262 69.7417 166.328 68.709C166.377 67.9614 165.693 67.5289 165.092 67.918C164.78 68.1198 164.523 68.4061 164.266 68.692L164.266 68.692L164.266 68.6922L164.266 68.6924C164.162 68.8076 164.059 68.9227 163.952 69.0321C163.868 69.1189 163.791 69.2139 163.715 69.309C163.68 69.3524 163.646 69.3958 163.61 69.4385C163.592 69.3891 163.572 69.3401 163.552 69.2911L163.552 69.2906C163.508 69.1823 163.464 69.0741 163.442 68.9615C163.371 68.5889 163.318 68.2126 163.268 67.8364C163.174 67.1269 162.765 66.4502 162.138 66.4359C161.713 66.4262 161.107 67.0447 160.866 67.5249C160.137 68.982 159.495 70.4889 158.916 72.0131C158.465 73.1975 158.064 74.4008 157.664 75.6041L157.664 75.6041L157.664 75.6042L157.664 75.6043L157.664 75.6044L157.663 75.6045L157.663 75.6045L157.663 75.6046L157.663 75.6047L157.663 75.6048L157.663 75.6049L157.663 75.6049L157.663 75.605L157.663 75.6051L157.663 75.6052L157.663 75.6056C157.48 76.154 157.298 76.7024 157.11 77.249C157.07 77.368 157.022 77.4845 156.974 77.601L156.949 77.6628L156.929 77.7121L156.908 77.7634C156.863 77.7299 156.815 77.6991 156.767 77.6682C156.663 77.6016 156.559 77.5349 156.491 77.4421C155.777 76.4757 154.756 75.9668 153.719 75.4497L153.593 75.3869C152.648 74.9146 151.713 75.0443 150.884 75.4538C149.761 76.0084 149.8 78.0213 150.787 78.9232C152.307 80.3138 153.36 81.9694 153.809 83.9989C154.418 86.755 153.841 89.2458 152.212 91.5274L151.97 91.8659C151.157 93.0019 150.344 94.1392 149.597 95.3174C147.683 98.3364 145.788 101.368 143.937 104.426L143.826 104.608C142.114 107.434 140.401 110.263 138.818 113.162C138.102 114.474 137.522 115.859 136.942 117.244C136.738 117.733 136.533 118.222 136.322 118.707C136.134 119.14 136.001 119.293 135.643 118.852C135.375 118.522 135.068 118.212 134.733 117.953C134.63 117.874 134.473 117.863 134.317 117.852C134.246 117.847 134.175 117.842 134.109 117.831C134.105 117.88 134.094 117.935 134.083 117.99C134.059 118.109 134.034 118.229 134.083 118.283C134.147 118.354 134.21 118.427 134.274 118.499L134.274 118.499L134.274 118.499C134.604 118.875 134.939 119.256 135.339 119.539C136.589 120.422 136.738 120.32 137.29 118.863C137.359 118.681 137.428 118.498 137.497 118.314L137.497 118.314C137.975 117.041 138.456 115.759 139.109 114.578C140.883 111.37 142.754 108.216 144.638 105.071C146.501 101.961 148.396 98.8698 150.338 95.8089C150.777 95.1178 151.264 94.4553 151.751 93.7934L151.752 93.7931L151.752 93.7931C152.434 92.8661 153.115 91.9403 153.66 90.9383C155.684 87.2147 155.388 83.5095 153.031 80.0027C152.797 79.6549 152.493 79.3523 152.191 79.0503C151.857 78.7173 151.523 78.385 151.285 77.9934C151.028 77.5714 150.999 76.8068 151.216 76.37C151.363 76.0753 152.186 75.8669 152.59 75.9928C154.532 76.5981 156.378 77.3849 156.786 79.7503C156.805 79.8611 156.934 79.9529 157.063 80.0448L157.063 80.0448L157.064 80.0449L157.064 80.045L157.064 80.045L157.064 80.0451L157.064 80.0452L157.064 80.0453L157.064 80.0453L157.064 80.0454L157.064 80.0455L157.064 80.0455C157.124 80.088 157.184 80.1304 157.232 80.1748C157.256 80.1394 157.282 80.1049 157.309 80.0704C157.366 79.996 157.423 79.9216 157.449 79.8375C157.689 79.048 157.921 78.2557 158.152 77.4634L158.259 77.0958C158.435 76.4961 158.604 75.8945 158.774 75.2929C159.172 73.8803 159.57 72.4677 160.042 71.0802C160.338 70.2104 160.769 69.3853 161.199 68.5621L161.199 68.5611C161.332 68.3057 161.466 68.0506 161.595 67.7943C161.683 67.6182 161.916 67.4958 162.108 67.4037C162.158 67.3798 162.387 67.5543 162.399 67.6544C162.421 67.8278 162.451 68.0042 162.482 68.1812C162.567 68.6746 162.653 69.1727 162.55 69.6259C162.342 70.5454 162.057 71.4472 161.773 72.3495L161.773 72.3496L161.773 72.3503C161.611 72.8618 161.45 73.3735 161.302 73.8886C160.966 75.063 160.656 76.2458 160.381 77.4358C160.358 77.538 160.47 77.6715 160.581 77.8049C160.633 77.8668 160.685 77.9286 160.723 77.9873C160.775 77.9423 160.836 77.9003 160.896 77.8582C161.027 77.7673 161.159 77.6764 161.201 77.5547C161.476 76.7568 161.728 75.9505 161.979 75.1442C162.066 74.8658 162.153 74.5874 162.241 74.3093C162.829 72.4481 163.454 70.6041 164.845 69.151C164.932 69.0604 165.049 68.998 165.165 68.9356C165.219 68.9067 165.273 68.8777 165.324 68.846C165.342 68.911 165.368 68.9781 165.394 69.0452C165.45 69.1896 165.506 69.334 165.476 69.4583C164.988 71.5316 164.479 73.6001 163.959 75.666C163.883 75.9712 163.793 76.2736 163.703 76.5758L163.703 76.576C163.558 77.0627 163.413 77.549 163.324 78.0458C163.285 78.2663 163.382 78.5111 163.478 78.7558C163.522 78.8672 163.567 78.9786 163.598 79.0877C163.684 79.0573 163.781 79.0349 163.878 79.0126C164.09 78.9639 164.302 78.9152 164.404 78.7823C164.923 78.1033 165.403 77.3858 165.82 76.639C166.065 76.2 166.278 75.7434 166.491 75.2866C166.669 74.9067 166.846 74.5267 167.042 74.1567C167.112 74.0238 167.262 73.933 167.412 73.8423C167.481 73.8005 167.55 73.7588 167.611 73.7129C167.604 73.7813 167.601 73.8513 167.598 73.9213V73.9214C167.591 74.0725 167.585 74.2236 167.534 74.3579L167.308 74.9556L167.308 74.9571L167.308 74.9576C166.769 76.3835 166.231 77.8098 165.652 79.2193C165.414 79.7994 165.147 80.3678 164.88 80.9361L164.88 80.9364L164.88 80.9365C164.621 81.4891 164.361 82.0418 164.128 82.6053C163.694 83.6545 163.275 84.7106 162.856 85.7667C162.11 87.648 161.364 89.5292 160.532 91.3713C159.352 93.98 158.409 96.6561 157.622 99.3983C157.308 100.491 156.986 101.583 156.625 102.661C156.24 103.813 155.842 104.96 155.443 106.108C154.665 108.351 153.886 110.593 153.206 112.866C152.206 116.211 151.093 119.502 149.617 122.664C148.044 126.035 146.102 129.203 143.84 132.138C142.777 133.518 141.435 134.796 139.967 135.719C138.292 136.771 136.496 137.743 134.488 138.146C133.153 138.414 131.807 138.572 130.582 137.865C128.328 136.566 126.644 134.628 125.158 132.553C124.038 130.989 122.978 129.382 121.919 127.775C121.309 126.85 120.699 125.925 120.078 125.008C119.977 124.859 119.8 124.76 119.623 124.662C119.541 124.616 119.459 124.57 119.385 124.519C119.382 124.605 119.377 124.69 119.372 124.775C119.36 125.002 119.347 125.229 119.359 125.455C119.362 125.502 119.415 125.544 119.472 125.588C119.515 125.622 119.561 125.658 119.587 125.699C120.032 126.411 120.477 127.123 120.922 127.836ZM113.418 175.997L113.417 175.998C113.221 177.251 113.028 178.476 112.605 179.615C111.826 181.71 110.024 182.976 107.944 183.62C105.898 184.253 103.798 184.717 101.702 185.179C101.456 185.234 101.211 185.288 100.965 185.342C100.409 185.466 99.8284 185.484 99.2488 185.502H99.2486L99.2474 185.502C99.018 185.509 98.7888 185.517 98.5612 185.53C97.4115 185.6 96.2616 185.667 95.1118 185.734C93.3693 185.836 91.6267 185.938 89.8846 186.047C89.1751 186.092 88.4661 186.146 87.7572 186.2H87.7569H87.7567H87.7564H87.7562H87.7559H87.7557H87.7554H87.7552H87.7549H87.7547H87.7544H87.7541H87.7539C86.8875 186.266 86.0211 186.332 85.1537 186.381L84.7313 186.404C83.3581 186.482 81.9824 186.559 80.6096 186.538C79.6522 186.524 78.6958 186.407 77.7409 186.292C77.491 186.261 77.2412 186.231 76.9916 186.202C76.8909 186.191 76.7999 186.095 76.7088 186C76.6666 185.956 76.6245 185.912 76.5813 185.876C76.6148 185.84 76.6468 185.796 76.6789 185.752C76.7486 185.657 76.8183 185.561 76.9029 185.545C76.9912 185.529 77.0802 185.511 77.1697 185.492C77.5698 185.411 77.9785 185.327 78.3659 185.377C81.0441 185.723 83.7004 185.497 86.3619 185.197C87.6633 185.051 88.9716 184.961 90.2789 184.871L90.2797 184.871L90.5788 184.851C91.4887 184.788 92.3997 184.737 93.3106 184.685C95.0378 184.587 96.7648 184.489 98.4843 184.316C101.821 183.979 105.122 183.38 108.244 182.099C110.049 181.358 111.291 179.948 111.763 178.089L111.81 177.901C112.33 175.852 112.859 173.771 112.649 171.617C112.6 171.115 112.517 170.613 112.434 170.113C112.306 169.345 112.179 168.579 112.176 167.811C112.172 166.801 112.246 165.792 112.32 164.781C112.385 163.901 112.45 163.021 112.463 162.14C112.474 161.355 112.372 160.568 112.269 159.781C112.225 159.446 112.181 159.111 112.147 158.777C112.116 158.486 112.088 158.195 112.06 157.904L112.06 157.904L112.06 157.904L112.06 157.904L112.06 157.904L112.06 157.903L112.06 157.903L112.06 157.903L112.06 157.903L112.059 157.903L112.059 157.903L112.059 157.902L112.059 157.902L112.059 157.902C111.984 157.129 111.909 156.355 111.796 155.587C111.388 152.822 111.23 150.046 111.277 147.251C111.289 146.519 111.243 145.787 111.198 145.054V145.054V145.054V145.054V145.054V145.053V145.053V145.053V145.053V145.053V145.053V145.053V145.053V145.053C111.167 144.555 111.136 144.058 111.123 143.561C111.094 142.443 111.073 141.325 111.052 140.208C111.023 138.614 110.993 137.02 110.939 135.427C110.895 134.118 110.82 132.811 110.745 131.503L110.745 131.503C110.697 130.664 110.649 129.826 110.609 128.987C110.576 128.299 110.553 127.612 110.53 126.924L110.53 126.923C110.502 126.096 110.474 125.268 110.43 124.442C110.398 123.855 110.344 123.268 110.289 122.68V122.68V122.68V122.68V122.68V122.68V122.68V122.68V122.68V122.679V122.679V122.679V122.679V122.679C110.187 121.574 110.085 120.47 110.134 119.371C110.186 118.18 110.396 116.995 110.606 115.81C110.7 115.281 110.794 114.752 110.873 114.223C110.927 113.869 110.981 113.515 111.036 113.162C111.184 112.201 111.333 111.241 111.454 110.277C111.522 109.734 111.572 109.189 111.622 108.645L111.622 108.644L111.622 108.644L111.622 108.644L111.622 108.643L111.622 108.643L111.622 108.642L111.622 108.642L111.622 108.642L111.622 108.641L111.622 108.641L111.622 108.64L111.623 108.64L111.623 108.64L111.623 108.64L111.623 108.639L111.623 108.639L111.623 108.639L111.623 108.639L111.623 108.639L111.623 108.639L111.623 108.639L111.623 108.638L111.623 108.638L111.623 108.638L111.623 108.638L111.623 108.638C111.681 108.006 111.739 107.375 111.825 106.747C111.844 106.608 112.001 106.487 112.158 106.367L112.158 106.367C112.231 106.311 112.303 106.256 112.362 106.198C112.393 106.264 112.435 106.332 112.477 106.399C112.566 106.543 112.656 106.688 112.641 106.821C112.441 108.639 112.212 110.453 111.972 112.267C111.883 112.942 111.772 113.617 111.662 114.292C111.432 115.691 111.202 117.09 111.164 118.495C111.11 120.498 111.229 122.507 111.349 124.515L111.349 124.515C111.39 125.206 111.431 125.896 111.466 126.587C111.515 127.599 111.584 128.61 111.653 129.622L111.653 129.622L111.653 129.622L111.653 129.623L111.653 129.623L111.653 129.623L111.653 129.623L111.653 129.624L111.653 129.624L111.653 129.624L111.653 129.624L111.653 129.625L111.653 129.625L111.653 129.625C111.705 130.389 111.757 131.152 111.8 131.916C111.83 132.439 111.861 132.963 111.891 133.487L111.891 133.487C112.041 136.083 112.191 138.679 112.308 141.277C112.35 142.228 112.366 143.182 112.382 144.135C112.403 145.382 112.425 146.628 112.505 147.871C112.6 149.343 112.761 150.811 112.923 152.279L112.923 152.279L112.923 152.279L112.923 152.28L112.923 152.28L112.923 152.28L112.923 152.281L112.923 152.281L112.923 152.281L112.923 152.281L112.923 152.282L112.923 152.282L112.923 152.282L112.923 152.283C113.008 153.054 113.093 153.826 113.168 154.598C113.296 155.917 113.413 157.238 113.508 158.559C113.519 158.713 113.53 158.867 113.542 159.021L113.554 159.172L113.554 159.172L113.554 159.172L113.554 159.173C113.623 160.084 113.693 160.997 113.668 161.907C113.641 162.84 113.584 163.773 113.527 164.706C113.452 165.93 113.377 167.153 113.372 168.376C113.369 169.007 113.486 169.636 113.603 170.267C113.695 170.763 113.788 171.26 113.822 171.759C113.861 172.333 113.809 172.912 113.754 173.518C113.728 173.811 113.701 174.11 113.683 174.418C113.583 174.947 113.5 175.474 113.418 175.997ZM50.8138 177.544C51.5317 180.588 53.499 182.846 56.0217 184.719L56.232 184.804L56.2323 184.804C57.3319 185.244 58.3897 185.667 59.4689 186.026C59.6757 186.095 59.9177 186.058 60.1598 186.02C60.2709 186.003 60.3821 185.986 60.4898 185.979C60.4276 185.913 60.3657 185.847 60.3038 185.781L60.3037 185.781C60.1221 185.587 59.9405 185.394 59.7496 185.21C59.725 185.186 59.6777 185.19 59.6277 185.193C59.5848 185.197 59.54 185.2 59.506 185.186C59.224 185.073 58.9282 184.977 58.6322 184.88L58.632 184.88C57.9546 184.658 57.2765 184.437 56.7615 184.016C55.5053 182.99 54.3596 181.783 53.3576 180.503C52.3675 179.239 51.8626 177.719 51.9559 176.052C51.9896 175.449 52.0077 174.845 52.0258 174.24C52.0513 173.387 52.0769 172.533 52.1466 171.683C52.1996 171.037 52.3002 170.394 52.4009 169.752C52.4896 169.185 52.5784 168.619 52.6346 168.049C52.7574 166.802 52.8341 165.551 52.9107 164.3C52.929 164.001 52.9474 163.701 52.9663 163.402C52.9735 163.289 52.899 163.13 52.8096 163.063C52.7359 163.007 52.5278 163.005 52.4763 163.064C52.4403 163.106 52.4017 163.148 52.3624 163.19C52.1906 163.377 52.0067 163.577 51.9807 163.788C51.8725 164.672 51.7973 165.56 51.7221 166.448L51.722 166.448L51.722 166.448L51.722 166.448L51.722 166.449L51.722 166.449L51.722 166.449L51.722 166.449L51.722 166.449L51.722 166.449L51.7219 166.449L51.7219 166.449L51.7219 166.45C51.6878 166.853 51.6536 167.256 51.6163 167.659C51.6051 167.78 51.58 167.9 51.5548 168.02C51.5357 168.111 51.5166 168.202 51.5036 168.294C51.4309 168.806 51.3526 169.317 51.2742 169.828C51.0848 171.064 50.8953 172.3 50.787 173.543C50.7788 173.637 50.7703 173.732 50.7619 173.828C50.6514 175.07 50.5361 176.366 50.8138 177.544ZM95.2606 92.5631C95.7238 92.2405 96.1903 91.9256 96.6553 91.6116L96.6554 91.6116C98.5083 90.3607 100.338 89.1255 101.837 87.489C102.628 86.6263 103.329 85.6814 104.029 84.7365C104.338 84.3205 104.646 83.9045 104.963 83.4955C104.998 83.4501 105.028 83.3962 105.057 83.3428L105.057 83.3428C105.111 83.2461 105.164 83.151 105.245 83.1099C105.41 83.0271 105.592 82.9811 105.775 82.935L105.775 82.935L105.775 82.935L105.776 82.935L105.776 82.9349L105.776 82.9349L105.776 82.9349L105.776 82.9349L105.776 82.9348L105.776 82.9348L105.776 82.9348L105.776 82.9348C105.852 82.9156 105.929 82.8963 106.004 82.8745C105.979 82.9499 105.961 83.0292 105.942 83.1086C105.901 83.28 105.86 83.4513 105.765 83.5828C105.568 83.8525 105.373 84.1233 105.178 84.3941L105.177 84.3955C104.387 85.49 103.597 86.5852 102.736 87.6214C101.96 88.5557 101.105 89.4594 100.148 90.201C98.4887 91.488 96.783 92.7381 94.9863 93.8206C93.021 95.0047 90.9582 96.0393 88.8831 97.0235C87.8547 97.5113 86.7336 97.4479 85.7154 96.7846C82.6369 94.7792 79.6354 92.6737 77.0766 90.0105C76.3687 89.2736 75.7146 88.4798 75.0957 87.6665C74.9955 87.5348 75.0087 87.3167 75.022 87.0986L75.022 87.0985C75.0281 86.9982 75.0342 86.8979 75.0292 86.806C75.1211 86.8233 75.2234 86.8305 75.3257 86.8377C75.5484 86.8533 75.771 86.869 75.8859 86.9883C76.1958 87.3101 76.4795 87.6577 76.763 88.0052L76.7631 88.0053C77.0919 88.4082 77.4205 88.8108 77.7895 89.1727C78.7416 90.1063 79.743 90.9984 80.7888 91.8256C82.043 92.8176 83.3329 93.7647 84.6226 94.7116C84.9089 94.9218 85.1952 95.132 85.4811 95.3427C85.67 95.4818 85.8734 95.6014 86.0769 95.7209C86.2886 95.8453 86.5003 95.9696 86.6955 96.1161C87.5096 96.7272 88.2111 96.3267 88.8543 95.9596C89.014 95.8684 89.1701 95.7793 89.3234 95.7083C90.8483 95.0015 92.3224 94.1854 93.8183 93.3572L93.8184 93.3571L93.8185 93.3571L93.8185 93.357L93.8186 93.357L93.8187 93.3569L93.8188 93.3569L93.8189 93.3569L93.8189 93.3568L93.819 93.3568L93.8191 93.3567L93.8192 93.3567L93.8203 93.3561L93.8207 93.3559L93.8211 93.3556L93.8215 93.3554C94.2982 93.0915 94.7771 92.8263 95.2606 92.5631ZM160.993 83.939C161.246 83.629 161.503 83.3133 161.771 82.9884C161.952 82.968 162.126 82.9657 162.293 82.9635C162.478 82.9611 162.656 82.9587 162.831 82.9323C162.977 82.9101 163.115 82.8265 163.252 82.7428C163.314 82.7053 163.375 82.6678 163.438 82.6359C163.388 82.5784 163.342 82.5116 163.296 82.4449C163.196 82.3005 163.097 82.1561 162.962 82.1059C161.691 81.6321 159.449 83.3749 159.516 84.7757C159.522 84.9066 159.598 85.0342 159.674 85.1618C159.709 85.2209 159.744 85.2799 159.772 85.3393C159.816 85.296 159.861 85.2538 159.906 85.2115L159.906 85.2114L159.906 85.2113C160.004 85.1195 160.102 85.0276 160.187 84.9249C160.453 84.6025 160.717 84.2781 160.986 83.9475L160.989 83.9448L160.992 83.941L160.993 83.939ZM98.4591 60.7969L98.4591 60.7969L98.4592 60.797C98.4036 60.8902 98.3532 60.989 98.3029 61.0877C98.1942 61.3006 98.0856 61.5135 97.9238 61.672C95.9397 63.6147 93.5231 64.7497 90.8346 65.3136C90.5087 65.382 90.1458 65.2925 89.791 65.205C89.6836 65.1785 89.577 65.1522 89.4724 65.1305C89.3752 65.1104 89.2289 64.8461 89.2466 64.8274C89.2846 64.787 89.3232 64.7424 89.3626 64.697L89.3626 64.697L89.3626 64.697L89.3626 64.6969L89.3626 64.6969L89.3627 64.6969L89.3627 64.6969L89.3627 64.6969L89.3627 64.6968C89.5069 64.5304 89.6607 64.3529 89.8329 64.3271C92.5279 63.9237 94.7878 62.6858 96.7407 60.8267C96.833 60.7388 96.9417 60.6682 97.0617 60.5903C97.1408 60.5389 97.2248 60.4843 97.3123 60.4194C97.7231 60.5168 98.0911 60.6568 98.4591 60.7969ZM157.446 85.3288C157.848 84.3274 157.523 83.3778 157.154 82.39C157.105 82.3329 157.056 82.2764 157.008 82.2206L156.873 82.0648L156.869 82.0598L156.868 82.0591L156.868 82.0587L156.867 82.0577C156.6 81.7481 156.35 81.4572 156.087 81.1774C156.07 81.1592 155.751 81.367 155.761 81.3901C155.893 81.704 156.05 82.0091 156.218 82.3061C156.736 83.2174 156.803 84.2075 156.784 85.2254C156.781 85.3672 156.866 85.5106 156.95 85.654C156.989 85.7202 157.028 85.7863 157.058 85.8523C157.1 85.7976 157.146 85.7447 157.192 85.6918L157.192 85.6916C157.292 85.5769 157.392 85.4622 157.446 85.3288ZM84.7917 26.9711L84.7917 26.9711C85.6061 27.3892 86.4034 27.7986 87.2496 27.9803L87.3816 28.0088C88.6476 28.2819 90.01 28.5758 91.2824 27.8848C91.7284 27.6427 92.1476 27.3445 92.554 27.0386C92.8018 26.8521 93.0249 26.6205 93.2197 26.3776C94.7664 24.4494 95.9078 24.7373 98.0376 25.9962C100.762 27.6069 101.755 30.356 102.714 33.091C103.194 34.4574 103.495 35.8903 103.795 37.3156C103.835 37.5071 103.875 37.6984 103.916 37.8894C104.114 38.8207 104.197 39.7809 104.271 40.7328C104.358 41.8619 104.399 42.9949 104.44 44.1271L104.448 44.3355C104.471 44.9551 104.483 45.5755 104.494 46.1959V46.1961V46.1962V46.1964V46.1965V46.1967V46.1969V46.197C104.518 47.4058 104.541 48.6144 104.643 49.8165C104.799 51.6552 104.505 53.4275 104.095 55.1855C103.622 57.21 102.083 58.1861 100.218 58.641C99.4323 58.8326 98.6122 58.8879 97.7938 58.9432L97.7937 58.9432L97.7935 58.9432L97.7933 58.9432L97.7932 58.9432L97.793 58.9432L97.7929 58.9433L97.7927 58.9433C97.5104 58.9623 97.2283 58.9814 96.9479 59.006C94.0601 59.2597 91.1902 59.617 88.4001 60.4442C87.5348 60.7008 86.708 60.5827 85.9825 60.1004C84.5177 59.1267 82.8631 58.7707 81.1758 58.4978C78.0293 57.989 75.042 57.1306 72.736 54.7372C72.1273 54.1054 71.7368 53.4292 71.776 52.4777C71.8456 50.7902 71.602 49.1294 71.3587 47.4705V47.4705V47.4704V47.4704V47.4704V47.4704V47.4704V47.4704C71.2197 46.5228 71.0808 45.5759 71.0004 44.6249C70.7574 41.7495 70.8639 38.8609 71.743 35.9971C72.7235 32.8031 74.2191 29.9814 76.5921 27.6782C77.2439 27.0456 78.0315 26.5535 78.8197 26.0611L78.8197 26.0611C79.2043 25.8208 79.5891 25.5805 79.9582 25.3236L80.0203 25.2805C80.4242 24.9998 80.8321 24.7162 81.188 24.381C81.73 23.8705 82.0589 24.1401 82.3973 24.6094C82.8014 25.1698 83.2217 25.7187 83.6692 26.3031L83.6692 26.3031L83.8051 26.4806C84.1394 26.6362 84.4667 26.8043 84.7914 26.971L84.7915 26.971L84.7915 26.971L84.7915 26.971L84.7916 26.971L84.7916 26.9711L84.7917 26.9711ZM101.288 31.6526C101.242 31.5448 101.197 31.4372 101.151 31.3295C101.053 31.0977 100.955 30.8659 100.861 30.6326C99.9606 28.4103 98.3703 26.8509 96.1927 25.913C95.8545 25.7673 95.2658 25.8518 94.9608 26.0674C94.7069 26.2468 94.5286 26.5288 94.3487 26.8131L94.3487 26.8132C94.247 26.974 94.1448 27.1355 94.0282 27.2797C92.9864 28.568 91.7648 29.5753 89.9818 29.4165C88.8786 29.3182 87.7639 29.1766 86.6956 28.8966C85.0213 28.4578 83.4967 27.6702 82.4136 26.2662L82.308 26.1289C81.5964 25.2025 81.5876 25.1911 80.6176 25.8421C80.2979 26.0567 79.9691 26.2623 79.6402 26.4681C78.8204 26.9808 77.9995 27.4943 77.3148 28.1488C74.9996 30.3619 73.479 33.0222 72.5667 36.1713C71.7445 39.0094 71.6948 41.8235 71.8297 44.6692C71.9392 46.9801 72.307 49.2852 72.6742 51.5746L72.6983 51.7261C72.8591 52.7402 73.0244 53.7832 73.9095 54.5681C75.5861 56.055 77.5727 56.8549 79.7086 57.2806C79.9984 57.3384 80.2884 57.394 80.5781 57.4496C82.6151 57.8405 84.6395 58.229 86.4741 59.3249C86.9022 59.5806 87.5499 59.6369 88.0607 59.557C89.2099 59.3772 90.3545 59.1677 91.4991 58.9582L91.4993 58.9582L91.4995 58.9581L91.4997 58.9581L91.4999 58.9581L91.5001 58.958L91.5003 58.958L91.5005 58.958C92.6869 58.7408 93.8733 58.5237 95.0649 58.3395C95.7403 58.2352 96.4247 58.1789 97.1085 58.1226C98.0421 58.0458 98.9745 57.9691 99.8816 57.7703C101.131 57.4963 102.535 57.0728 102.94 55.611C103.334 54.1902 103.673 52.713 103.727 51.2491C103.802 49.2257 103.717 47.1949 103.631 45.1669V45.1668V45.1667V45.1666V45.1666V45.1665V45.1664V45.1663C103.616 44.7974 103.6 44.4286 103.586 44.06C103.556 43.3089 103.493 42.559 103.43 41.8091C103.36 40.9836 103.291 40.1581 103.266 39.3312C103.189 36.7546 102.309 34.3924 101.394 31.9378L101.288 31.6526ZM99.5444 40.1793C98.097 39.0485 96.3996 38.8168 94.534 39.0046C94.3608 39.0356 94.2135 39.0702 94.0773 39.1022L94.0773 39.1022L94.0773 39.1022L94.0772 39.1022L94.0769 39.1023C93.9628 39.1291 93.8566 39.1541 93.7493 39.1736C91.9863 39.4941 90.475 40.2137 89.4365 41.761C89.3276 41.9233 88.9204 42.0057 88.6956 41.9494C87.7049 41.701 86.7853 41.68 86.0158 42.4811C85.9205 42.5803 85.8319 42.686 85.7434 42.7917C85.7026 42.8404 85.6619 42.889 85.6204 42.937C85.6048 42.8662 85.5832 42.7948 85.5617 42.7235C85.5151 42.5695 85.4686 42.4155 85.4815 42.2668C85.6354 40.4966 84.7875 39.3944 83.2436 38.6502C81.7986 37.9536 80.2808 37.8051 78.7199 37.807C76.3424 37.8099 74.3174 39.3495 73.4816 41.6011C72.9712 42.976 73.1096 44.3129 73.5498 45.583C73.9794 46.8227 74.4678 48.1478 75.7447 48.8352C75.9064 48.9222 76.0691 49.0135 76.2328 49.1054C76.9828 49.5262 77.7549 49.9594 78.5532 50.0548C78.6248 50.0634 78.6968 50.0722 78.7691 50.0811C79.9533 50.2262 81.2235 50.3819 82.3422 49.5826C84.0332 48.3744 84.9555 46.6667 85.445 44.7287C85.6761 43.8142 86.1427 43.264 86.9581 42.8985C88.1852 42.3484 88.9549 42.8322 89.083 44.1029C89.2329 45.5893 89.56 47.0514 90.431 48.3247C91.4516 49.8165 92.8374 50.7237 94.5483 51.3546C96.6103 52.1149 98.0919 51.6516 99.5869 50.4427C102.365 48.1961 102.642 42.5992 99.5444 40.1793ZM93.0916 40.2467C94.2571 39.8992 95.5221 39.7868 96.7566 40.1159C98.1584 40.2215 99.079 41.0118 99.7583 41.9717C100.44 42.9353 101.058 44.0275 101.015 45.2765C100.968 46.6161 100.464 47.8224 99.6226 48.8763C98.9002 49.7807 97.9593 50.3586 96.8431 50.6064C96.6092 50.6584 96.346 50.5907 96.0865 50.5239L96.0865 50.5239L96.0864 50.5239L96.0864 50.5239L96.0864 50.5239L96.0863 50.5239L96.0863 50.5239C95.9936 50.5 95.9013 50.4763 95.8111 50.4582C92.8403 49.8626 90.8516 48.2358 90.2599 45.151C90.2222 44.9542 90.1743 44.7591 90.1265 44.5645C89.9346 43.7823 89.7447 43.0088 90.2246 42.1731C90.8813 41.0296 91.9949 40.5739 93.0916 40.2467ZM84.4441 42.2616C84.6292 43.8334 84.1205 45.2468 83.4206 46.613C83.2799 46.8 83.159 46.978 83.0448 47.1461C82.8776 47.3922 82.7248 47.6172 82.5452 47.8183C81.5566 48.9258 80.3748 49.2738 78.8752 48.9574C77.8242 48.7356 76.889 48.4636 76.0152 47.795C74.9623 46.9894 74.5108 45.8778 74.2087 44.7081C73.7274 42.8444 74.3831 41.2801 75.719 39.9419C76.7977 38.8614 78.1619 38.7271 79.5248 38.864C80.8369 38.9959 82.1181 39.3214 83.2758 40.0978C84.1056 40.6543 84.3416 41.3918 84.4441 42.2616ZM84.1046 35.7561C84.9745 35.805 85.6968 35.7131 86.3552 35.1814C86.4758 35.084 86.7289 35.1506 86.982 35.2173C87.0982 35.2478 87.2144 35.2784 87.3177 35.2932C87.269 35.3494 87.2219 35.4074 87.1748 35.4654C87.073 35.5909 86.9712 35.7164 86.8527 35.8234C85.7509 36.8194 84.5383 36.7498 83.197 36.3348C82.0247 35.9721 80.7935 35.6923 79.5734 35.6165C77.7411 35.5028 76.1741 36.2156 74.9487 37.6285C74.8429 37.7505 74.6791 37.8222 74.5153 37.8939C74.4394 37.9272 74.3635 37.9604 74.2933 37.9986C74.3157 37.8997 74.3283 37.7925 74.3409 37.6854C74.3679 37.4545 74.395 37.2237 74.5201 37.0758C76.5648 34.6584 79.2274 34.5583 82.0462 35.1613C82.441 35.2458 82.828 35.3676 83.2313 35.4945L83.2314 35.4946L83.2315 35.4946C83.5119 35.5828 83.8002 35.6736 84.1046 35.7561ZM97.5994 36.3676C95.9338 36.1123 94.2761 36.1411 92.7816 37.2521C92.5634 37.4134 92.3481 37.5677 92.1365 37.7195C91.7125 38.0236 91.3031 38.3172 90.9135 38.6352C90.8256 38.7069 90.8121 38.8697 90.7985 39.0326C90.7923 39.1075 90.7861 39.1825 90.7726 39.2486C90.8311 39.241 90.8925 39.2385 90.9539 39.236C91.0896 39.2304 91.2254 39.2249 91.3294 39.1646C91.6276 38.9918 91.8984 38.7677 92.1658 38.5466L92.1784 38.5362C93.8367 37.1646 95.6794 36.611 97.803 37.2255C98.5411 37.439 99.2857 37.6357 100.037 37.7924C100.159 37.8178 100.3 37.753 100.441 37.6881C100.505 37.6583 100.57 37.6285 100.633 37.6075C100.585 37.5566 100.54 37.4975 100.495 37.4384C100.398 37.3101 100.3 37.1818 100.174 37.1381C100.013 37.0827 99.8517 37.0254 99.6904 36.968L99.6902 36.9679L99.6899 36.9678L99.6896 36.9677C99.0021 36.7229 98.3101 36.4766 97.5994 36.3676ZM88.5927 54.2643C87.5904 54.3356 86.63 54.394 85.672 54.3666C85.5451 54.3629 85.4227 54.2021 85.3003 54.0413C85.2438 53.9671 85.1873 53.893 85.1304 53.8342C85.2041 53.8031 85.2774 53.7646 85.3507 53.7261C85.5105 53.6423 85.6703 53.5584 85.8335 53.551C86.7158 53.5109 87.6006 53.5139 88.4841 53.5237C88.6951 53.5261 88.9057 53.5599 89.1163 53.5938L89.1163 53.5938C89.2125 53.6092 89.3087 53.6247 89.4048 53.6371C89.1484 53.832 88.8919 54.0268 88.5927 54.2643ZM93.8915 41.9551C93.2829 42.6315 93.3492 44.0557 94.0636 44.7751C95.512 44.8178 96.3809 43.3656 95.7064 42.1435C95.332 41.465 94.4179 41.3701 93.8915 41.9551ZM81.0268 41.0563C81.3317 41.9569 81.1324 42.8896 80.4525 43.3921C80.2549 43.5381 79.7542 43.5837 79.6147 43.4476C78.8289 42.6806 78.6971 41.3824 79.8217 40.7086C80.3338 40.4017 80.6991 40.5439 81.0268 41.0563ZM136.428 36.9389C136.87 37.6027 137.315 38.2712 137.919 38.8432C137.958 40.1398 137.97 41.3491 137.637 42.5313C137.578 42.7433 137.622 42.9429 137.667 43.1444C137.703 43.3087 137.94 43.427 138.078 43.3483C138.257 43.2464 138.434 43.1382 138.602 43.0193C138.715 42.9394 138.827 42.8584 138.94 42.7774C139.416 42.4335 139.892 42.0898 140.425 41.8312C140.489 41.7998 140.554 41.7686 140.619 41.7375C140.866 41.6191 141.114 41.5005 141.349 41.3621C141.61 41.2089 141.863 41.1874 142.143 41.2828C143.106 41.6115 144.1 41.8152 145.094 42.0188C145.253 42.0513 145.411 42.0837 145.57 42.1167C145.617 42.1267 145.665 42.1374 145.712 42.148C145.833 42.1752 145.955 42.2024 146.077 42.2177C146.473 42.267 146.869 42.3052 147.266 42.3434C147.901 42.4046 148.536 42.4658 149.166 42.5728C149.301 42.596 149.445 42.6058 149.58 42.5878C149.9 42.5453 150.222 42.5166 150.544 42.4879C151.187 42.4305 151.83 42.3731 152.457 42.2059C152.887 42.0916 153.313 41.9635 153.739 41.8355C153.909 41.7843 154.079 41.7332 154.249 41.6829C154.328 41.6596 154.407 41.6363 154.486 41.613C154.938 41.48 155.389 41.347 155.839 41.2099C155.97 41.1701 156.1 41.1211 156.223 41.0596C156.329 41.0065 156.435 40.9536 156.541 40.9007C157.423 40.4614 158.304 40.0227 159.103 39.4279C159.204 39.353 159.306 39.2803 159.408 39.2075C159.727 38.98 160.045 38.7532 160.317 38.4643C160.483 38.2892 160.667 38.1311 160.85 37.9739L160.852 37.972C161.382 37.5169 161.807 36.9727 162.2 36.4017C162.692 35.6873 162.892 34.8612 163.092 34.0362L163.104 33.9886C163.08 33.6952 163.136 33.4126 163.193 33.1299C163.217 33.0065 163.242 32.8831 163.26 32.7587C163.511 31.0231 163.288 29.3816 162.253 27.9074C162.126 27.7274 162.022 27.532 161.917 27.3366C161.875 27.2568 161.832 27.177 161.788 27.0982C161.533 26.6435 161.249 26.211 160.877 25.8419C160.063 25.0357 159.205 24.2935 158.192 23.7346C157.474 23.3378 156.725 23.0145 155.974 22.6906C155.805 22.6174 155.635 22.5441 155.466 22.47C154.15 21.8944 152.78 21.5743 151.363 21.4302C150.927 21.3859 150.488 21.3631 150.049 21.3402C149.831 21.3288 149.613 21.3175 149.396 21.3035C148.185 21.2254 146.974 21.1986 145.764 21.2953C144.73 21.3778 143.698 21.4762 142.665 21.5746C142.459 21.5943 142.253 21.6139 142.046 21.6334C141.946 21.6429 141.845 21.6821 141.752 21.7259C141.268 21.956 140.768 22.1483 140.268 22.3406C139.996 22.4455 139.723 22.5504 139.453 22.6615C138.277 23.1449 137.267 23.8388 136.551 24.9164C136.448 25.0723 136.334 25.2213 136.221 25.3703C136.125 25.4965 136.028 25.6227 135.938 25.753C135.286 26.6981 134.73 27.6918 134.501 28.8328C134.456 29.0567 134.43 29.284 134.403 29.5115C134.385 29.6619 134.368 29.8123 134.345 29.9618C134.229 30.7171 134.223 31.4592 134.375 32.2207C134.636 33.5248 135.173 34.7174 135.723 35.9104C135.737 35.9414 135.757 35.9705 135.777 35.9983C136.005 36.3033 136.216 36.6206 136.428 36.9389ZM138.557 41.8227C138.551 41.8232 138.546 41.8237 138.541 41.8244C138.537 41.8306 138.545 41.8394 138.566 41.8505C138.562 41.8413 138.56 41.832 138.557 41.8227ZM138.642 41.8196C138.613 41.82 138.584 41.8203 138.557 41.8227C138.499 41.626 138.53 41.4271 138.586 41.238C138.721 40.7755 138.78 40.3007 138.839 39.8259C138.874 39.5456 138.909 39.2653 138.96 38.9876C138.991 38.8129 138.952 38.6345 138.767 38.5486C138.177 38.2761 137.791 37.7816 137.423 37.2821C137.115 36.8656 136.823 36.4305 136.584 35.9722C136.362 35.5459 136.198 35.0853 136.047 34.627C135.852 34.036 135.685 33.4356 135.528 32.8332C135.388 32.2942 135.374 31.7379 135.379 31.1836C135.38 31.0633 135.388 30.9429 135.396 30.8226C135.407 30.6661 135.417 30.5096 135.412 30.3535C135.356 28.6503 136.041 27.193 136.915 25.7998C137.465 24.9243 138.253 24.2847 139.153 23.8313C140.2 23.3037 141.288 22.8411 142.445 22.5942C143.528 22.3632 144.617 22.1718 145.728 22.1346C146.139 22.1208 146.546 22.0986 146.952 21.9588C147.233 21.8624 147.554 21.8649 147.863 21.8673C147.902 21.8676 147.94 21.8679 147.978 21.868C148.392 21.8693 148.809 21.8971 149.221 21.9428C149.257 21.9468 149.293 21.9508 149.329 21.9548C149.74 22.0008 150.149 22.0465 150.564 22.0519C150.841 22.0557 151.118 22.1162 151.392 22.1758C151.423 22.1826 151.454 22.1893 151.485 22.196C152.211 22.3523 152.915 22.5817 153.619 22.8112C154.065 22.9567 154.512 23.1023 154.964 23.2292C155.223 23.3556 155.482 23.4814 155.741 23.6073C156.32 23.889 156.9 24.1708 157.477 24.4585C158.602 25.0191 159.496 25.8766 160.39 26.733L160.484 26.8239C161.1 27.4135 161.466 28.1661 161.738 28.9514C161.997 29.7011 162.178 30.4753 162.232 31.2783C162.323 32.6163 162.093 33.889 161.619 35.1388C161.125 36.4406 160.327 37.5215 159.226 38.3343C157.805 39.3842 156.257 40.2342 154.567 40.7908C153.846 41.0283 153.126 41.2651 152.378 41.4213C151.251 41.6565 150.112 41.6764 148.97 41.6885C148.924 41.6889 148.877 41.6867 148.83 41.6845C148.773 41.6819 148.716 41.6792 148.659 41.6813C146.584 41.7587 144.614 41.2482 142.665 40.6148C142.478 40.5542 142.29 40.5003 142.102 40.4463C141.992 40.4147 141.881 40.3831 141.771 40.3502C141.558 40.2861 141.358 40.3221 141.178 40.4436C140.829 40.6782 140.456 40.8695 140.083 41.0608C139.656 41.2795 139.229 41.4984 138.839 41.7823C138.79 41.8179 138.716 41.8188 138.642 41.8196Z" fill="#00160A"/>
<path fill-rule="evenodd" clip-rule="evenodd" d="M113.862 96.6368L113.863 96.6367L113.863 96.6366C114.012 96.5054 114.165 96.3717 114.324 96.2391C114.43 96.0996 114.538 95.9667 114.644 95.8365C114.902 95.5202 115.146 95.2202 115.316 94.8831C115.74 94.0471 115.515 93.7459 114.621 93.3449C114.214 93.1621 113.84 92.9068 113.466 92.6509L113.466 92.6509C113.221 92.4834 112.975 92.3157 112.72 92.168L112.662 92.1346C112.317 91.9342 111.94 91.7156 111.564 91.6845C109.594 91.522 107.907 94.12 108.691 96.0016C109.502 97.9468 111.118 98.5354 112.81 97.4685C113.18 97.2349 113.514 96.9426 113.862 96.6368ZM109.405 95.21C109.353 94.554 109.443 93.9534 109.922 93.4607C110.045 93.3663 110.15 93.298 110.241 93.2381L110.241 93.238C110.33 93.18 110.407 93.1298 110.477 93.0715C111.305 92.3815 111.837 92.4266 112.661 93.0961C113.148 93.4916 113.728 93.7989 114.31 94.0411C114.757 94.227 114.803 94.4811 114.528 94.7453C114.353 94.9135 114.18 95.0866 114.006 95.2601C113.395 95.8711 112.779 96.4871 112.055 96.9083C110.951 97.5495 109.511 96.5268 109.405 95.21ZM59.3126 96.4528L59.439 96.3406L59.439 96.3406C60.1476 95.7115 60.8273 95.1081 61.5875 94.6336C62.4318 94.1067 63.3913 94.3326 64.1338 95.0272C65.2754 96.0951 66.0327 95.9709 66.7776 95.0596C66.8493 94.9719 66.9282 94.8848 67.0195 94.8192C67.1185 94.7479 67.2167 94.6694 67.3154 94.5904L67.3154 94.5904L67.3155 94.5904C67.7578 94.2364 68.2127 93.8725 68.8204 94.1061C69.5697 94.3941 69.8708 95.0746 70.1073 95.8497C70.646 97.6153 69.5507 99.1149 68.1792 99.8969C66.6034 100.795 64.906 101.146 63.1647 101.406C61.9138 101.593 59.5035 100.506 58.9613 99.6208C58.2614 98.4781 58.6883 97.5072 59.3126 96.4528ZM66.8843 99.5069L66.8845 99.5068C68.1738 98.8692 69.4556 98.2353 69.2388 96.3812C69.2274 96.2833 69.2219 96.1807 69.2164 96.078V96.078L69.2164 96.0779C69.1916 95.6119 69.1666 95.142 68.5825 95.0823C68.2109 95.0443 67.7206 95.3557 67.4128 95.646C66.1375 96.849 65.0798 96.963 63.7426 95.7021C63.3348 95.3176 62.8779 94.9187 62.1024 95.2256C60.7522 95.7597 60.1518 96.872 59.691 98.0608C59.4808 98.603 59.5351 99.3644 60.3477 99.6203C60.5888 99.6962 60.831 99.787 61.0736 99.878L61.0736 99.878L61.0736 99.8781L61.0736 99.8781L61.0736 99.8781L61.0737 99.8781L61.0737 99.8781L61.0737 99.8781L61.0737 99.8781L61.0737 99.8781L61.0737 99.8781L61.0738 99.8781L61.0738 99.8781L61.0738 99.8781C61.694 100.111 62.3171 100.345 62.9335 100.333C63.9082 100.315 64.8786 100.068 65.8934 99.8089L65.8934 99.8088L65.8935 99.8088L65.8935 99.8088L65.8935 99.8088L65.8935 99.8088L65.8935 99.8088L65.8936 99.8088L65.8936 99.8088L65.8936 99.8088L65.8936 99.8088L65.8937 99.8088L65.8937 99.8088L65.8937 99.8088C66.1477 99.744 66.4044 99.6786 66.6646 99.6158C66.7376 99.5794 66.8109 99.5432 66.8841 99.507L66.8843 99.5069ZM95.346 143.258C95.312 143.327 95.2782 143.397 95.2445 143.466C94.6898 144.609 94.1536 145.713 92.9074 146.199C91.6098 146.706 89.5142 146.872 88.4947 145.577C87.8907 144.809 87.8507 143.79 88.5277 143.062C88.742 142.831 88.9693 142.607 89.1969 142.383C89.7737 141.815 90.3518 141.246 90.7215 140.565C91.075 139.914 91.2329 139.157 91.3909 138.4C91.4638 138.05 91.5366 137.701 91.6287 137.362C91.9216 136.283 92.2287 135.189 93.2886 134.59C94.0521 134.158 94.66 134.439 95.2305 135.134C96.2666 136.397 96.1676 137.825 96.0697 139.237C96.0443 139.604 96.019 139.969 96.0136 140.33C96.0029 141.033 95.7929 141.734 95.5778 142.451L95.5778 142.451L95.5777 142.451L95.5777 142.451L95.5776 142.451L95.5776 142.451L95.5774 142.452L95.5774 142.452L95.5774 142.452L95.5774 142.452L95.5774 142.452L95.5774 142.452L95.5774 142.452L95.5774 142.452L95.5774 142.452C95.4976 142.718 95.4172 142.986 95.346 143.258ZM92.8242 137.744C92.8066 137.852 92.7895 137.96 92.7724 138.069C92.589 139.231 92.404 140.403 91.6151 141.34C91.0172 142.05 90.3417 142.707 89.6318 143.306C88.9617 143.871 88.8463 144.538 89.4495 145.14C90.5115 146.201 93.0867 145.719 93.8371 144.267C94.2827 143.405 94.6614 142.497 94.961 141.573C95.5155 139.865 95.172 138.195 94.542 136.574C94.4467 136.329 94.1785 136.007 93.9695 135.991C93.773 135.976 93.4994 136.285 93.3489 136.511C93.1318 136.837 92.9952 137.216 92.8242 137.744ZM92.9391 102.067C92.1552 101.504 91.4099 101.495 90.6052 101.679C89.2879 101.98 87.8641 103.515 87.8641 105.086C87.8641 106.668 88.5677 107.825 89.8648 108.571C91.1167 109.292 92.4342 109.794 93.9871 109.652C95.8053 109.486 97.1796 108.774 97.923 107.112C98.0779 106.766 98.0633 106.344 98.0487 105.922C98.0421 105.729 98.0354 105.536 98.045 105.35C97.8852 105.351 97.7205 105.338 97.5558 105.326C97.1853 105.299 96.8148 105.272 96.4993 105.391C95.9117 105.612 95.5976 105.409 95.4001 104.97C94.8544 103.758 94.0279 102.849 92.9391 102.067ZM90.1775 102.965C90.9349 102.609 92.3307 102.212 93.1589 102.965C93.9871 103.719 94.3009 104.426 94.509 104.908C95.0112 106.074 95.7174 106.458 96.91 106.137C97.0224 106.106 97.1431 106.106 97.2637 106.106C97.3196 106.106 97.3754 106.106 97.4305 106.103C97.4136 106.158 97.3983 106.214 97.3831 106.27C97.3504 106.391 97.3177 106.511 97.2679 106.624C96.0896 109.293 92.3024 108.894 90.532 107.768C89.4519 107.08 88.8382 106.184 88.8904 104.878C88.9265 103.972 89.3981 103.332 90.1775 102.965ZM97.9105 124.108C97.709 124.279 97.5182 124.459 97.3302 124.637C96.9059 125.039 96.496 125.426 96.0111 125.655C94.9516 126.155 93.8208 125.898 92.7903 125.391C91.0509 124.536 89.978 123.235 90.0855 121.176C90.1621 119.71 91.038 118.854 92.2211 118.149C93.2186 117.554 94.1926 117.429 95.2357 117.931C96.0153 118.306 96.23 119.034 96.442 119.752L96.4421 119.752L96.4421 119.752C96.4845 119.896 96.5268 120.039 96.5736 120.179C96.6343 120.361 96.6508 120.559 96.6672 120.756C96.6851 120.971 96.7029 121.185 96.7777 121.378C96.886 121.657 97.1491 122.003 97.4108 122.075C98.7002 122.433 98.8285 122.749 98.0166 123.836C97.9948 123.866 97.984 123.903 97.971 123.948C97.9577 123.994 97.9422 124.048 97.9105 124.108ZM96.2433 124.236C96.2804 124.217 96.319 124.2 96.3576 124.183C96.4408 124.146 96.524 124.109 96.592 124.053C97.4066 123.388 97.404 123.386 96.6208 122.707L96.5797 122.671C96.3504 122.472 96.1649 122.158 96.0864 121.863C96.0055 121.559 95.9497 121.245 95.8941 120.932C95.8039 120.425 95.7141 119.92 95.5177 119.458C95.3434 119.048 94.78 118.633 94.3302 118.548C93.4108 118.375 91.3828 120.014 91.3014 120.951C91.1917 122.214 91.5711 123.29 92.7433 123.997C93.8436 124.66 94.94 125.044 96.2433 124.236ZM49.3008 108.285C51.1861 107.074 52.393 105.468 52.6445 103.121C52.6445 102.913 52.6516 102.712 52.6584 102.517C52.6732 102.1 52.687 101.711 52.628 101.332C52.5 100.511 52.2295 99.7119 51.0961 99.8955C50.5416 99.9854 49.972 100.24 49.5054 100.56C48.54 101.222 48.2141 102.318 47.9041 103.36L47.8763 103.454C47.4173 104.993 46.7048 106.077 44.8796 106.076C44.5615 106.076 44.0441 106.674 43.9629 107.066C43.7417 108.136 44.8084 109.233 45.955 109.277C47.1836 109.324 48.2601 108.953 49.3008 108.285ZM46.8711 108.353C46.7718 108.374 46.6724 108.396 46.5748 108.421C45.7492 108.513 45.3556 108.081 44.9759 107.665C44.9461 107.632 44.9163 107.599 44.8865 107.567C44.8255 107.501 44.8578 107.233 44.9338 107.177L44.989 107.137C45.2285 106.963 45.4888 106.773 45.7636 106.726C47.1522 106.49 47.9204 105.682 48.4007 104.368C48.8051 103.263 49.4132 102.213 50.0674 101.229C50.2765 100.914 50.9307 100.764 51.3626 100.795C51.5313 100.807 51.7626 101.524 51.7716 101.923C51.8424 105.082 50.0873 107.048 47.4967 108.174C47.2996 108.26 47.0854 108.306 46.8712 108.353L46.8711 108.353ZM50.55 115.901C50.8868 114.882 51.6196 114.23 52.3424 113.586C52.5981 113.358 52.8525 113.132 53.0877 112.891C53.5543 112.412 54.6293 113.039 54.8675 113.85C54.967 114.189 55.0641 114.529 55.1611 114.868C55.4056 115.724 55.6501 116.58 55.9338 117.422C56.18 118.153 56.0781 118.725 55.5545 119.296C55.158 119.73 54.7994 120.225 54.5381 120.749C53.8957 122.039 52.9506 122.36 51.5167 121.237C49.623 119.755 49.8749 117.893 50.55 115.901ZM55.0382 117.739L54.7191 116.941L54.7187 116.94C54.426 116.207 54.1333 115.475 53.8422 114.741C53.7824 114.591 53.7278 114.438 53.6732 114.286C53.6481 114.216 53.623 114.146 53.5974 114.076C53.5234 114.111 53.4471 114.143 53.3707 114.175L53.3707 114.175C53.2052 114.245 53.0396 114.314 52.8988 114.417C51.8547 115.182 51.3608 116.322 51.1421 117.511C50.9678 118.459 50.9261 119.539 51.6787 120.323C52.0242 120.684 52.5752 120.899 53.0722 121.024C53.1483 121.043 53.2842 120.806 53.4285 120.554C53.5103 120.412 53.5947 120.265 53.6724 120.157C53.8042 119.974 53.9409 119.795 54.0776 119.616C54.3021 119.321 54.5265 119.026 54.7288 118.717C54.8669 118.506 54.9255 118.243 55.0081 117.873L55.0382 117.739ZM74.3039 112.774C72.5817 112.123 70.8662 112.517 70.768 114.747C70.872 114.986 70.968 115.225 71.0627 115.461C71.3314 116.129 71.5894 116.771 71.9874 117.309C73.4232 119.252 75.2396 119.836 77.2594 119.027C78.5437 118.512 78.5494 117.337 77.6895 116.599C76.8815 115.906 76.1858 115.126 75.758 114.077C75.5337 113.527 74.8835 112.994 74.3039 112.774ZM76.0179 118.182C75.0894 118.351 74.1545 118.521 73.418 117.654C72.5028 116.754 71.8705 115.84 71.789 114.627C71.7562 114.139 71.949 113.874 72.4054 113.693C73.0462 113.438 74.5207 113.749 74.663 114.382C74.8644 115.279 75.3953 115.929 75.9268 116.579L75.9268 116.579L75.9268 116.579L75.9268 116.579L75.9268 116.579L75.9268 116.579L75.9269 116.579L75.9269 116.579L75.9269 116.579C76.1367 116.836 76.3466 117.093 76.5363 117.365C76.6466 117.523 76.7642 117.81 76.694 117.926C76.6081 118.068 76.3338 118.125 76.1306 118.161L76.0179 118.182ZM70.1585 134.987L70.1585 134.987C70.2051 134.512 70.249 134.064 70.4593 133.717C71.0039 132.819 70.8767 132.045 70.4301 131.214C70.3864 131.132 70.3624 131.04 70.3384 130.948C70.3152 130.859 70.2921 130.77 70.2511 130.69C69.8881 129.985 70.0584 129.293 70.6922 128.998C71.138 128.791 71.8832 128.856 72.3332 129.099C73.7958 129.888 74.4592 131.289 74.6847 132.868C74.8818 134.247 74.5726 135.588 74.0112 136.853C73.2871 138.486 71.8251 138.278 70.8925 137.31C70.5997 137.006 70.4423 136.572 70.2759 136.112L70.2759 136.112C70.2154 135.945 70.1538 135.775 70.084 135.606C70.1181 135.399 70.1385 135.191 70.1585 134.987L70.1585 134.987L70.1585 134.987L70.1585 134.987L70.1585 134.987L70.1585 134.987L70.1585 134.987ZM72.9906 131.076C72.9033 130.988 72.8175 130.899 72.7318 130.81C72.5206 130.59 72.3095 130.371 72.0754 130.179C71.9764 130.098 71.8335 130.071 71.6907 130.044C71.6258 130.031 71.5609 130.019 71.5001 130.001C71.4858 130.069 71.4604 130.144 71.4351 130.218C71.3804 130.378 71.3257 130.538 71.3811 130.636C71.9947 131.718 71.8549 132.716 71.2121 133.735C71.0765 133.95 71.027 134.219 70.9773 134.488C70.9527 134.621 70.9281 134.755 70.893 134.882C70.702 135.574 71.2111 136.889 71.8594 137.089L71.9147 137.106C72.2604 137.215 72.7262 137.361 73.001 136.784C73.8855 134.926 74.179 133.091 72.9906 131.076ZM123.319 113.348C124.419 113.832 126.268 113.67 127.66 112.14C127.763 111.982 127.865 111.829 127.966 111.677L127.967 111.675L127.967 111.675C128.283 111.198 128.585 110.743 128.841 110.263C129.48 109.063 128.372 107.214 127.003 107.242C126.614 107.25 126.227 107.324 125.839 107.397C125.478 107.466 125.117 107.535 124.755 107.551C123.655 107.598 122.784 107.988 122.17 108.911C121.109 110.507 121.507 112.552 123.319 113.348ZM125.062 108.766C125.116 108.765 125.17 108.763 125.224 108.763C125.353 108.741 125.476 108.727 125.591 108.713C125.905 108.675 126.159 108.645 126.302 108.502C126.77 108.036 127.178 108.253 127.538 108.536C127.929 108.843 128.145 109.219 127.957 109.818C127.514 111.229 126.716 112.271 125.255 112.646C124.436 112.856 123.67 112.654 123.103 111.946C122.591 111.305 122.512 110.627 122.89 109.902C123.272 109.168 123.808 108.672 124.711 108.761C124.827 108.772 124.944 108.769 125.062 108.766ZM103.895 110.772C104.974 110.059 106.001 110.014 106.981 110.822C107.258 111.051 107.502 111.345 107.688 111.654C107.769 111.789 107.818 111.949 107.866 112.108C107.928 112.313 107.989 112.515 108.119 112.658C108.699 113.297 108.336 113.87 107.863 114.104C106.667 114.696 105.406 115.178 104.13 115.576C103.459 115.785 102.562 114.992 102.399 114.233C102.042 112.569 102.717 111.471 103.895 110.772ZM106.844 113.123C106.761 113.01 106.679 112.896 106.597 112.783C106.398 112.506 106.199 112.23 105.984 111.966L105.965 111.943C105.82 111.765 105.635 111.537 105.449 111.517C104.059 111.366 102.867 112.972 103.434 114.229C103.601 114.599 103.944 114.995 104.35 114.561C104.911 113.961 105.605 113.839 106.339 113.71L106.389 113.701C106.592 113.665 106.751 113.379 106.844 113.123ZM101.008 148.21C100.979 148.348 100.949 148.493 100.903 148.643C100.91 148.754 100.94 148.853 100.968 148.947C100.996 149.039 101.022 149.126 101.024 149.213C101.072 151.325 103.831 152.957 105.552 152.707C106.756 152.533 107.414 152.095 107.587 150.987C107.741 150.002 107.5 148.923 106.727 148.293C105.838 147.568 104.764 147.022 103.697 146.574C102.43 146.041 101.63 146.467 101.133 147.739C101.075 147.886 101.042 148.044 101.008 148.21ZM102.271 147.832C102.346 147.69 102.421 147.548 102.484 147.404C102.638 147.44 102.791 147.475 102.943 147.51C104.369 147.835 105.693 148.136 106.328 149.555C106.63 150.228 106.973 151.036 106.146 151.56C105.748 151.812 105.139 151.891 104.656 151.824C103.457 151.657 101.752 150.364 101.909 148.778C101.941 148.454 102.106 148.143 102.271 147.832ZM103.083 126.887C104.474 127.017 105.577 127.632 105.807 129.099C105.888 129.618 106.216 129.687 106.577 129.763C106.63 129.774 106.683 129.785 106.736 129.798C107.535 129.989 108.17 130.647 108.044 131.685C107.953 132.438 107.567 132.745 106.489 132.684C105.767 132.644 105.01 132.567 104.346 132.31C102.194 131.477 101.578 129.706 101.729 127.833C101.786 127.13 102.306 126.843 103.083 126.887ZM106.246 130.648C105.323 130.706 104.882 130.154 104.811 129.349C104.735 128.498 104.126 128.227 103.526 127.959L103.457 127.928C103.029 127.736 102.524 128.235 102.594 128.706C102.857 130.466 104.861 131.994 106.658 131.856C107.321 131.805 107.237 131.463 106.998 131.114C106.919 131 106.776 130.93 106.606 130.846C106.494 130.791 106.37 130.731 106.246 130.648ZM85.8139 160.056C85.8347 159.831 85.836 159.602 85.8374 159.379C85.8404 158.886 85.8432 158.421 86.0531 158.086C86.5651 157.269 87.1823 156.518 87.7996 155.767L87.7996 155.766C88.051 155.46 88.3024 155.155 88.5466 154.844C88.9667 154.31 89.6184 154.001 90.1498 154.29C90.6896 154.583 91.2135 155.18 91.4193 155.759C91.9084 157.137 91.2916 158.321 90.3691 159.331C90.1074 159.618 89.8108 159.872 89.514 160.126C89.2801 160.327 89.046 160.527 88.8288 160.744C87.6235 161.946 86.5491 161.386 85.8139 160.056ZM88.806 159.714C90.0378 158.905 90.8325 157.853 90.7803 156.292C90.7621 155.746 90.5577 155.383 90.0631 155.152C89.5434 154.91 89.1891 155.236 89.0291 155.588C88.625 156.475 88.0478 157.233 87.4695 157.993C87.2694 158.256 87.0691 158.519 86.8758 158.787C86.6791 159.061 86.8006 159.721 86.9994 160.08C87.2309 160.498 87.6942 160.428 88.0855 160.107C88.1811 160.028 88.2965 159.974 88.4296 159.911L88.4297 159.911C88.5428 159.858 88.6686 159.799 88.806 159.714ZM81.6892 149.845C82.222 148.61 82.3025 147.284 82.0097 145.908C81.9854 145.883 81.9665 145.866 81.9518 145.852C81.9286 145.831 81.9156 145.819 81.9074 145.804C81.3167 144.753 80.6986 144.282 80.0044 144.512C79.1259 144.803 78.7984 145.461 78.7672 146.415C78.745 147.095 78.475 147.696 77.5602 147.963C76.2024 148.359 76.3003 149.576 77.1379 150.235C77.4579 150.486 77.8649 150.632 78.2677 150.776C78.3944 150.821 78.5207 150.866 78.6437 150.914C79.4141 151.217 81.309 150.727 81.6892 149.845ZM81.0922 146.465C81.1264 146.522 81.1607 146.58 81.1977 146.634C81.1977 146.941 81.2175 147.236 81.2365 147.518C81.2762 148.109 81.3123 148.646 81.1557 149.119C80.7542 150.332 78.369 150.548 77.6082 149.498C77.5269 149.386 77.7534 148.837 77.9094 148.801C79.1704 148.507 79.6385 147.69 79.6817 146.471C79.6911 146.207 79.9452 145.891 80.1773 145.726C80.2645 145.664 80.6323 145.94 80.8296 146.111C80.9379 146.205 81.015 146.335 81.0922 146.465Z" fill="#FFB61D"/>
</svg>
